<?xml version="1.0" encoding="utf-8" standalone="no"?>
<!DOCTYPE svg PUBLIC "-//W3C//DTD SVG 1.1//EN"
  "http://www.w3.org/Graphics/SVG/1.1/DTD/svg11.dtd">
<svg xmlns:xlink="http://www.w3.org/1999/xlink" width="1152pt" height="576pt" viewBox="0 0 1152 576" xmlns="http://www.w3.org/2000/svg" version="1.1">
 <metadata>
  <rdf:RDF xmlns:dc="http://purl.org/dc/elements/1.1/" xmlns:cc="http://creativecommons.org/ns#" xmlns:rdf="http://www.w3.org/1999/02/22-rdf-syntax-ns#">
   <cc:Work>
    <dc:type rdf:resource="http://purl.org/dc/dcmitype/StillImage"/>
    <dc:date>2025-01-08T08:33:27.660137</dc:date>
    <dc:format>image/svg+xml</dc:format>
    <dc:creator>
     <cc:Agent>
      <dc:title>Matplotlib v3.9.2, https://matplotlib.org/</dc:title>
     </cc:Agent>
    </dc:creator>
   </cc:Work>
  </rdf:RDF>
 </metadata>
 <defs>
  <style type="text/css">*{stroke-linejoin: round; stroke-linecap: butt}</style>
 </defs>
 <g id="figure_1">
  <g id="patch_1">
   <path d="M 0 576 
L 1152 576 
L 1152 0 
L 0 0 
z
" style="fill: #ffffff"/>
  </g>
  <g id="axes_1">
   <g id="patch_2">
    <path d="M 47.72 326.133333 
L 1134.72 326.133333 
L 1134.72 17.28 
L 47.72 17.28 
z
" style="fill: #ffffff"/>
   </g>
   <g id="patch_3">
    <path d="M 47.72 229.167349 
L 48.807 229.084345 
L 49.894 229.281039 
L 50.981 229.266631 
L 52.068 229.040723 
L 53.155 228.606832 
L 54.242 227.97035 
L 55.329 227.138411 
L 56.416 226.120012 
L 57.503 224.92656 
L 58.59 223.588606 
L 59.677 223.521799 
L 60.764 223.721136 
L 61.851 223.936419 
L 62.938 224.154463 
L 64.025 224.364848 
L 65.112 224.558701 
L 66.199 224.728304 
L 67.286 224.866869 
L 68.373 224.968373 
L 69.46 225.027438 
L 70.547 225.039237 
L 71.634 224.999421 
L 72.721 224.904056 
L 73.808 224.749576 
L 74.895 224.532741 
L 75.982 224.250605 
L 77.069 223.900484 
L 78.156 223.479938 
L 79.243 222.986741 
L 80.33 222.418874 
L 81.417 221.774501 
L 82.504 221.05196 
L 83.591 220.249752 
L 84.678 219.36653 
L 85.765 218.401092 
L 86.852 217.352371 
L 87.939 216.219434 
L 89.026 215.001473 
L 90.113 213.6978 
L 91.2 212.307848 
L 92.287 210.831167 
L 93.374 209.267419 
L 94.461 207.616382 
L 95.548 205.877944 
L 96.635 204.05211 
L 97.722 202.138996 
L 98.809 200.138836 
L 99.896 198.051982 
L 100.983 195.878905 
L 102.07 193.620204 
L 103.157 191.276607 
L 104.244 188.848979 
L 105.331 186.338329 
L 106.418 183.745826 
L 107.505 181.072829 
L 108.592 178.320973 
L 109.679 175.492722 
L 110.766 172.621708 
L 111.853 172.197603 
L 112.94 172.016689 
L 114.027 171.789263 
L 115.114 171.512737 
L 116.201 171.185686 
L 117.288 170.806995 
L 118.375 170.375741 
L 119.462 169.891151 
L 120.549 169.352586 
L 121.636 168.759528 
L 122.723 168.11157 
L 123.81 167.408411 
L 124.897 166.649847 
L 125.984 165.835765 
L 127.071 164.966139 
L 128.158 164.041026 
L 129.245 163.06056 
L 130.332 162.02495 
L 131.419 160.934475 
L 132.506 159.789484 
L 133.593 158.590391 
L 134.68 157.337673 
L 135.767 156.03187 
L 136.854 154.673581 
L 137.941 153.263463 
L 139.028 151.802234 
L 140.115 150.290665 
L 141.202 148.729584 
L 142.289 147.119875 
L 143.376 145.462477 
L 144.463 143.758382 
L 145.55 142.008639 
L 146.637 140.214353 
L 147.724 138.376681 
L 148.811 136.496838 
L 149.898 134.576097 
L 150.985 132.615786 
L 152.072 130.617294 
L 153.159 128.582066 
L 154.246 126.511611 
L 155.333 124.407499 
L 156.42 122.271366 
L 157.507 120.104909 
L 158.594 117.909898 
L 159.681 115.688168 
L 160.768 113.44163 
L 161.855 111.172265 
L 162.942 108.882135 
L 164.029 106.573378 
L 165.116 104.248218 
L 166.203 101.908963 
L 167.29 99.558013 
L 168.377 97.197862 
L 169.464 94.831108 
L 170.551 92.460467 
L 171.638 90.08881 
L 172.725 87.719337 
L 173.812 85.357511 
L 174.899 84.466085 
L 175.986 85.539479 
L 177.073 86.672238 
L 178.16 87.857205 
L 179.247 89.090874 
L 180.334 90.37016 
L 181.421 91.692177 
L 182.508 93.054185 
L 183.595 94.453575 
L 184.682 95.887858 
L 185.769 97.354656 
L 186.856 98.851698 
L 187.943 100.376813 
L 189.03 101.927927 
L 190.117 103.503057 
L 191.204 105.100305 
L 192.291 106.717861 
L 193.378 108.35399 
L 194.465 110.007036 
L 195.552 111.675416 
L 196.639 113.357615 
L 197.726 115.052186 
L 198.813 116.757747 
L 199.9 118.472977 
L 200.987 120.196612 
L 202.074 121.927448 
L 203.161 123.664331 
L 204.248 125.406163 
L 205.335 127.151894 
L 206.422 128.900523 
L 207.509 130.651093 
L 208.596 132.402693 
L 209.683 134.154453 
L 210.77 135.905547 
L 211.857 137.655185 
L 212.944 139.402614 
L 214.031 141.147122 
L 215.118 142.888026 
L 216.205 144.62468 
L 217.292 146.356469 
L 218.379 148.082809 
L 219.466 149.803146 
L 220.553 151.516955 
L 221.64 153.223736 
L 222.727 154.923018 
L 223.814 156.614355 
L 224.901 158.297324 
L 225.988 159.971527 
L 227.075 161.636587 
L 228.162 163.292149 
L 229.249 164.93788 
L 230.336 166.573465 
L 231.423 168.198611 
L 232.51 169.81304 
L 233.597 171.416495 
L 234.684 173.008734 
L 235.771 174.589531 
L 236.858 176.158677 
L 237.945 177.715979 
L 239.032 179.261256 
L 240.119 180.794341 
L 241.206 182.315084 
L 242.293 183.823342 
L 243.38 185.31899 
L 244.467 186.801912 
L 245.554 188.272002 
L 246.641 189.729168 
L 247.728 191.173326 
L 248.815 192.604402 
L 249.902 194.022334 
L 250.989 195.427066 
L 252.076 196.818553 
L 253.163 198.196758 
L 254.25 199.56165 
L 255.337 200.913208 
L 256.424 202.251418 
L 257.511 203.576271 
L 258.598 204.887768 
L 259.685 206.185915 
L 260.772 207.470721 
L 261.859 208.742207 
L 262.946 210.000393 
L 264.033 211.24531 
L 265.12 212.47699 
L 266.207 213.695471 
L 267.294 214.900797 
L 268.381 216.093014 
L 269.468 217.272175 
L 270.555 218.438334 
L 271.642 219.59155 
L 272.729 220.731885 
L 273.816 221.859406 
L 274.903 222.974182 
L 275.99 224.076284 
L 277.077 225.165788 
L 278.164 226.242771 
L 279.251 227.307312 
L 280.338 228.359495 
L 281.425 229.399403 
L 282.512 230.427124 
L 283.599 231.442746 
L 284.686 232.446359 
L 285.773 233.438056 
L 286.86 234.417931 
L 287.947 235.386078 
L 289.034 236.342594 
L 290.121 237.287577 
L 291.208 238.221126 
L 292.295 239.14334 
L 293.382 240.054322 
L 294.469 240.954173 
L 295.556 241.842995 
L 296.643 242.720892 
L 297.73 243.587967 
L 298.817 244.444326 
L 299.904 245.290074 
L 300.991 246.125316 
L 302.078 246.950157 
L 303.165 247.764705 
L 304.252 248.569065 
L 305.339 249.363344 
L 306.426 250.147648 
L 307.513 250.922084 
L 308.6 251.68676 
L 309.687 252.441781 
L 310.774 253.187254 
L 311.861 253.923286 
L 312.948 254.649984 
L 314.035 255.367452 
L 315.122 256.075797 
L 316.209 256.775125 
L 317.296 257.46554 
L 318.383 258.147149 
L 319.47 258.820054 
L 320.557 259.484361 
L 321.644 260.140173 
L 322.731 260.787593 
L 323.818 261.426724 
L 324.905 262.057669 
L 325.992 262.680528 
L 327.079 263.295403 
L 328.166 263.902395 
L 329.253 264.501603 
L 330.34 265.093127 
L 331.427 265.677065 
L 332.514 266.253516 
L 333.601 266.822577 
L 334.688 267.384344 
L 335.775 267.938914 
L 336.862 268.486382 
L 337.949 269.026843 
L 339.036 269.56039 
L 340.123 270.087116 
L 341.21 270.607115 
L 342.297 271.120477 
L 343.384 271.627294 
L 344.471 272.127656 
L 345.558 272.621652 
L 346.645 273.10937 
L 347.732 273.5909 
L 348.819 274.066327 
L 349.906 274.535738 
L 350.993 274.999218 
L 352.08 275.456853 
L 353.167 275.908725 
L 354.254 276.354918 
L 355.341 276.795515 
L 356.428 277.230597 
L 357.515 277.660244 
L 358.602 278.084537 
L 359.689 278.503554 
L 360.776 278.917373 
L 361.863 279.326073 
L 362.95 279.72973 
L 364.037 280.12842 
L 365.124 280.522217 
L 366.211 280.911197 
L 367.298 281.295432 
L 368.385 281.674995 
L 369.472 282.049958 
L 370.559 282.420393 
L 371.646 282.786368 
L 372.733 283.147955 
L 373.82 283.505221 
L 374.907 283.858235 
L 375.994 284.207063 
L 377.081 284.551772 
L 378.168 284.892428 
L 379.255 285.229095 
L 380.342 285.561837 
L 381.429 285.890718 
L 382.516 286.2158 
L 383.603 286.537144 
L 384.69 286.854812 
L 385.777 287.168864 
L 386.864 287.479359 
L 387.951 287.786356 
L 389.038 288.089913 
L 390.125 288.390087 
L 391.212 288.686933 
L 392.299 288.980509 
L 393.386 289.270869 
L 394.473 289.558066 
L 395.56 289.842155 
L 396.647 290.123187 
L 397.734 290.401216 
L 398.821 290.676292 
L 399.908 290.948465 
L 400.995 291.217785 
L 402.082 291.484302 
L 403.169 291.748063 
L 404.256 292.009116 
L 405.343 292.267508 
L 406.43 292.523284 
L 407.517 292.77649 
L 408.604 293.027171 
L 409.691 293.275371 
L 410.778 293.521132 
L 411.865 293.764497 
L 412.952 294.005508 
L 414.039 294.244205 
L 415.126 294.480628 
L 416.213 294.714818 
L 417.3 294.946813 
L 418.387 295.17665 
L 419.474 295.404367 
L 420.561 295.630001 
L 421.648 295.853587 
L 422.735 296.07516 
L 423.822 296.294754 
L 424.909 296.512403 
L 425.996 296.72814 
L 427.083 296.941996 
L 428.17 297.154003 
L 429.257 297.36419 
L 430.344 297.572589 
L 431.431 297.779226 
L 432.518 297.984132 
L 433.605 298.187332 
L 434.692 298.388853 
L 435.779 298.588722 
L 436.866 298.786962 
L 437.953 298.983597 
L 439.04 299.178652 
L 440.127 299.372148 
L 441.214 299.564107 
L 442.301 299.754549 
L 443.388 299.943495 
L 444.475 300.130962 
L 445.562 300.31697 
L 446.649 300.501536 
L 447.736 300.684675 
L 448.823 300.866403 
L 449.91 301.046735 
L 450.997 301.225684 
L 452.084 301.403262 
L 453.171 301.579482 
L 454.258 301.754353 
L 455.345 301.927886 
L 456.432 302.100088 
L 457.519 302.270969 
L 458.606 302.440534 
L 459.693 302.608788 
L 460.78 302.775737 
L 461.867 302.941384 
L 462.954 303.105732 
L 464.041 303.26878 
L 465.128 303.430531 
L 466.215 303.590982 
L 467.302 303.750131 
L 468.389 303.907975 
L 469.476 304.06451 
L 470.563 304.21973 
L 471.65 304.373628 
L 472.737 304.526195 
L 473.824 304.677422 
L 474.911 304.827298 
L 475.998 304.975811 
L 477.085 305.122948 
L 478.172 305.268693 
L 479.259 305.413031 
L 480.346 305.555943 
L 481.433 305.697411 
L 482.52 305.837413 
L 483.607 305.975929 
L 484.694 306.112933 
L 485.781 306.248402 
L 486.868 306.382308 
L 487.955 306.514623 
L 489.042 306.645316 
L 490.129 306.774357 
L 491.216 306.901712 
L 492.303 307.027345 
L 493.39 307.15122 
L 494.477 307.273298 
L 495.564 307.39354 
L 496.651 307.511901 
L 497.738 307.628339 
L 498.825 307.742807 
L 499.912 307.855257 
L 500.999 307.965638 
L 502.086 308.073899 
L 503.173 308.179986 
L 504.26 308.283842 
L 505.347 308.385408 
L 506.434 308.484624 
L 507.521 308.581427 
L 508.608 308.675752 
L 509.695 308.767531 
L 510.782 308.856694 
L 511.869 308.94317 
L 512.956 309.026883 
L 514.043 309.107757 
L 515.13 309.185711 
L 516.217 309.260663 
L 517.304 309.332529 
L 518.391 309.401221 
L 519.478 309.466649 
L 520.565 309.528719 
L 521.652 309.587335 
L 522.739 309.6424 
L 523.826 309.693811 
L 524.913 309.741465 
L 526 309.785252 
L 527.087 309.825063 
L 528.174 309.860785 
L 529.261 309.892299 
L 530.348 309.919486 
L 531.435 309.942223 
L 532.522 309.960383 
L 533.609 309.973835 
L 534.696 309.982447 
L 535.783 309.986081 
L 536.87 309.984597 
L 537.957 309.977851 
L 539.044 309.965694 
L 540.131 309.947976 
L 541.218 309.924541 
L 542.305 309.895229 
L 543.392 309.859879 
L 544.479 309.818322 
L 545.566 309.770389 
L 546.653 309.715903 
L 547.74 309.654686 
L 548.827 309.586555 
L 549.914 309.511322 
L 551.001 309.428795 
L 552.088 309.338777 
L 553.175 309.241069 
L 554.262 309.135465 
L 555.349 309.021756 
L 556.436 308.899726 
L 557.523 308.769158 
L 558.61 308.629828 
L 559.697 308.481506 
L 560.784 308.32396 
L 561.871 308.156953 
L 562.958 307.98024 
L 564.045 307.793573 
L 565.132 307.5967 
L 566.219 307.389362 
L 567.306 307.171296 
L 568.393 306.942233 
L 569.48 306.701898 
L 570.567 306.450014 
L 571.654 306.186295 
L 572.741 305.910451 
L 573.828 305.622187 
L 574.915 305.321202 
L 576.002 305.007188 
L 577.089 304.679834 
L 578.176 304.338822 
L 579.263 303.983829 
L 580.35 303.614525 
L 581.437 303.230576 
L 582.524 302.83164 
L 583.611 302.417371 
L 584.698 301.987417 
L 585.785 301.54142 
L 586.872 301.079016 
L 587.959 300.599835 
L 589.046 300.103501 
L 590.133 299.589632 
L 591.22 299.057843 
L 592.307 298.507738 
L 593.394 297.938919 
L 594.481 297.350982 
L 595.568 296.743515 
L 596.655 296.116102 
L 597.742 295.468321 
L 598.829 294.799744 
L 599.916 294.109938 
L 601.003 293.398464 
L 602.09 292.664876 
L 603.177 291.908727 
L 604.264 291.129559 
L 605.351 290.326913 
L 606.438 289.500324 
L 607.525 288.649322 
L 608.612 287.77343 
L 609.699 286.872169 
L 610.786 285.945056 
L 611.873 284.9916 
L 612.96 284.01131 
L 614.047 283.003689 
L 615.134 281.968237 
L 616.221 280.904449 
L 617.308 279.811819 
L 618.395 278.689838 
L 619.482 277.537992 
L 620.569 276.355769 
L 621.656 275.14265 
L 622.743 273.89812 
L 623.83 272.62166 
L 624.917 271.312749 
L 626.004 269.97087 
L 627.091 268.595503 
L 628.178 267.186131 
L 629.265 265.742239 
L 630.352 264.263312 
L 631.439 262.74884 
L 632.526 261.198317 
L 633.613 259.611241 
L 634.7 257.987115 
L 635.787 256.325452 
L 636.874 254.62577 
L 637.961 252.887599 
L 639.048 251.110485 
L 640.135 249.293994 
L 641.222 247.437738 
L 642.309 245.541468 
L 643.396 243.605844 
L 644.483 242.383983 
L 645.57 244.347949 
L 646.657 246.282425 
L 647.744 248.177028 
L 648.831 250.03169 
L 649.918 251.846741 
L 651.005 253.622591 
L 652.092 255.359688 
L 653.179 257.058497 
L 654.266 258.719494 
L 655.353 260.343168 
L 656.44 261.930014 
L 657.527 263.480533 
L 658.614 264.995233 
L 659.701 266.474625 
L 660.788 267.919225 
L 661.875 269.32955 
L 662.962 270.706121 
L 664.049 272.04946 
L 665.136 273.360088 
L 666.223 274.638529 
L 667.31 275.885305 
L 668.397 277.100939 
L 669.484 278.28595 
L 670.571 279.440858 
L 671.658 280.566181 
L 672.745 281.662434 
L 673.832 282.730128 
L 674.919 283.769774 
L 676.006 284.781878 
L 677.093 285.766942 
L 678.18 286.725466 
L 679.267 287.657945 
L 680.354 288.564869 
L 681.441 289.446726 
L 682.528 290.303997 
L 683.615 291.13716 
L 684.702 291.946688 
L 685.789 292.733047 
L 686.876 293.496701 
L 687.963 294.238106 
L 689.05 294.957715 
L 690.137 295.655975 
L 691.224 296.333326 
L 692.311 296.990204 
L 693.398 297.62704 
L 694.485 298.244256 
L 695.572 298.842274 
L 696.659 299.421504 
L 697.746 299.982354 
L 698.833 300.525227 
L 699.92 301.050517 
L 701.007 301.558614 
L 702.094 302.049902 
L 703.181 302.52476 
L 704.268 302.983559 
L 705.355 303.426667 
L 706.442 303.854445 
L 707.529 304.267246 
L 708.616 304.665421 
L 709.703 305.049314 
L 710.79 305.419261 
L 711.877 305.775596 
L 712.964 306.118644 
L 714.051 306.448727 
L 715.138 306.76616 
L 716.225 307.071253 
L 717.312 307.364311 
L 718.399 307.645631 
L 719.486 307.915509 
L 720.573 308.174233 
L 721.66 308.422084 
L 722.747 308.659341 
L 723.834 308.886277 
L 724.921 309.103159 
L 726.008 309.310249 
L 727.095 309.507804 
L 728.182 309.696078 
L 729.269 309.875316 
L 730.356 310.045763 
L 731.443 310.207656 
L 732.53 310.361227 
L 733.617 310.506705 
L 734.704 310.644315 
L 735.791 310.774275 
L 736.878 310.8968 
L 737.965 311.0121 
L 739.052 311.120382 
L 740.139 311.221846 
L 741.226 311.316691 
L 742.313 311.405109 
L 743.4 311.487291 
L 744.487 311.563419 
L 745.574 311.633677 
L 746.661 311.69824 
L 747.748 311.757283 
L 748.835 311.810974 
L 749.922 311.859479 
L 751.009 311.90296 
L 752.096 311.941575 
L 753.183 311.975479 
L 754.27 312.004824 
L 755.357 312.029756 
L 756.444 312.05042 
L 757.531 312.066958 
L 758.618 312.079506 
L 759.705 312.0882 
L 760.792 312.09317 
L 761.879 312.094545 
L 762.966 312.09245 
L 764.053 312.087007 
L 765.14 312.078334 
L 766.227 312.066549 
L 767.314 312.051764 
L 768.401 312.03409 
L 769.488 312.013635 
L 770.575 311.990504 
L 771.662 311.964799 
L 772.749 311.93662 
L 773.836 311.906065 
L 774.923 311.873228 
L 776.01 311.838202 
L 777.097 311.801077 
L 778.184 311.76194 
L 779.271 311.720877 
L 780.358 311.67797 
L 781.445 311.633301 
L 782.532 311.586947 
L 783.619 311.538987 
L 784.706 311.489494 
L 785.793 311.43854 
L 786.88 311.386196 
L 787.967 311.332531 
L 789.054 311.277611 
L 790.141 311.2215 
L 791.228 311.164262 
L 792.315 311.105958 
L 793.402 311.046646 
L 794.489 310.986384 
L 795.576 310.925229 
L 796.663 310.863235 
L 797.75 310.800454 
L 798.837 310.736936 
L 799.924 310.672733 
L 801.011 310.607891 
L 802.098 310.542458 
L 803.185 310.476478 
L 804.272 310.409996 
L 805.359 310.343053 
L 806.446 310.27569 
L 807.533 310.207948 
L 808.62 310.139864 
L 809.707 310.071476 
L 810.794 310.00282 
L 811.881 309.93393 
L 812.968 309.864841 
L 814.055 309.795584 
L 815.142 309.726192 
L 816.229 309.656693 
L 817.316 309.587118 
L 818.403 309.517496 
L 819.49 309.447852 
L 820.577 309.378213 
L 821.664 309.308605 
L 822.751 309.239052 
L 823.838 309.169578 
L 824.925 309.100205 
L 826.012 309.030954 
L 827.099 308.961847 
L 828.186 308.892904 
L 829.273 308.824144 
L 830.36 308.755586 
L 831.447 308.687247 
L 832.534 308.619145 
L 833.621 308.551295 
L 834.708 308.483714 
L 835.795 308.416417 
L 836.882 308.349417 
L 837.969 308.282729 
L 839.056 308.216365 
L 840.143 308.150339 
L 841.23 308.084661 
L 842.317 308.019344 
L 843.404 307.954398 
L 844.491 307.889833 
L 845.578 307.825659 
L 846.665 307.761885 
L 847.752 307.69852 
L 848.839 307.635573 
L 849.926 307.57305 
L 851.013 307.51096 
L 852.1 307.449308 
L 853.187 307.388103 
L 854.274 307.32735 
L 855.361 307.267053 
L 856.448 307.20722 
L 857.535 307.147855 
L 858.622 307.088961 
L 859.709 307.030544 
L 860.796 306.972608 
L 861.883 306.915155 
L 862.97 306.85819 
L 864.057 306.801715 
L 865.144 306.745733 
L 866.231 306.690245 
L 867.318 306.635255 
L 868.405 306.580764 
L 869.492 306.526774 
L 870.579 306.473285 
L 871.666 306.4203 
L 872.753 306.367818 
L 873.84 306.315841 
L 874.927 306.264369 
L 876.014 306.213401 
L 877.101 306.162939 
L 878.188 306.112982 
L 879.275 306.063529 
L 880.362 306.01458 
L 881.449 305.966134 
L 882.536 305.91819 
L 883.623 305.870748 
L 884.71 305.823806 
L 885.797 305.777363 
L 886.884 305.731417 
L 887.971 305.685966 
L 889.058 305.64101 
L 890.145 305.596545 
L 891.232 305.552571 
L 892.319 305.509084 
L 893.406 305.466083 
L 894.493 305.423566 
L 895.58 305.38153 
L 896.667 305.339972 
L 897.754 305.298891 
L 898.841 305.258283 
L 899.928 305.218145 
L 901.015 305.178475 
L 902.102 305.13927 
L 903.189 305.100527 
L 904.276 305.062243 
L 905.363 305.024415 
L 906.45 304.987039 
L 907.537 304.950113 
L 908.624 304.913633 
L 909.711 304.877596 
L 910.798 304.841999 
L 911.885 304.806838 
L 912.972 304.77211 
L 914.059 304.737811 
L 915.146 304.703938 
L 916.233 304.670488 
L 917.32 304.637456 
L 918.407 304.60484 
L 919.494 304.572636 
L 920.581 304.540839 
L 921.668 304.509448 
L 922.755 304.478457 
L 923.842 304.447863 
L 924.929 304.417663 
L 926.016 304.387853 
L 927.103 304.358428 
L 928.19 304.329387 
L 929.277 304.300724 
L 930.364 304.272436 
L 931.451 304.24452 
L 932.538 304.216971 
L 933.625 304.189787 
L 934.712 304.162962 
L 935.799 304.136494 
L 936.886 304.11038 
L 937.973 304.084614 
L 939.06 304.059194 
L 940.147 304.034116 
L 941.234 304.009376 
L 942.321 303.98497 
L 943.408 303.960896 
L 944.495 303.937149 
L 945.582 303.913726 
L 946.669 303.890622 
L 947.756 303.867836 
L 948.843 303.845362 
L 949.93 303.823198 
L 951.017 303.80134 
L 952.104 303.779784 
L 953.191 303.758527 
L 954.278 303.737566 
L 955.365 303.716896 
L 956.452 303.696516 
L 957.539 303.67642 
L 958.626 303.656607 
L 959.713 303.637071 
L 960.8 303.617811 
L 961.887 303.598823 
L 962.974 303.580103 
L 964.061 303.561649 
L 965.148 303.543456 
L 966.235 303.525522 
L 967.322 303.507844 
L 968.409 303.490419 
L 969.496 303.473242 
L 970.583 303.456312 
L 971.67 303.439625 
L 972.757 303.423178 
L 973.844 303.406968 
L 974.931 303.390992 
L 976.018 303.375247 
L 977.105 303.35973 
L 978.192 303.344438 
L 979.279 303.329369 
L 980.366 303.314519 
L 981.453 303.299885 
L 982.54 303.285465 
L 983.627 303.271256 
L 984.714 303.257255 
L 985.801 303.243459 
L 986.888 303.229866 
L 987.975 303.216473 
L 989.062 303.203278 
L 990.149 303.190277 
L 991.236 303.177468 
L 992.323 303.164849 
L 993.41 303.152417 
L 994.497 303.140169 
L 995.584 303.128103 
L 996.671 303.116217 
L 997.758 303.104508 
L 998.845 303.092974 
L 999.932 303.081611 
L 1001.019 303.070419 
L 1002.106 303.059394 
L 1003.193 303.048535 
L 1004.28 303.037839 
L 1005.367 303.027303 
L 1006.454 303.016926 
L 1007.541 303.006705 
L 1008.628 302.996638 
L 1009.715 302.986724 
L 1010.802 302.976959 
L 1011.889 302.967342 
L 1012.976 302.95787 
L 1014.063 302.948543 
L 1015.15 302.939357 
L 1016.237 302.93031 
L 1017.324 302.921401 
L 1018.411 302.912628 
L 1019.498 302.903989 
L 1020.585 302.895481 
L 1021.672 302.887104 
L 1022.759 302.878854 
L 1023.846 302.870731 
L 1024.933 302.862732 
L 1026.02 302.854856 
L 1027.107 302.847101 
L 1028.194 302.839465 
L 1029.281 302.831946 
L 1030.368 302.824543 
L 1031.455 302.817255 
L 1032.542 302.810078 
L 1033.629 302.803013 
L 1034.716 302.796056 
L 1035.803 302.789207 
L 1036.89 302.782464 
L 1037.977 302.775826 
L 1039.064 302.76929 
L 1040.151 302.762856 
L 1041.238 302.756522 
L 1042.325 302.750286 
L 1043.412 302.744147 
L 1044.499 302.738104 
L 1045.586 302.732154 
L 1046.673 302.726298 
L 1047.76 302.720533 
L 1048.847 302.714858 
L 1049.934 302.709271 
L 1051.021 302.703772 
L 1052.108 302.698359 
L 1053.195 302.693031 
L 1054.282 302.687786 
L 1055.369 302.682624 
L 1056.456 302.677542 
L 1057.543 302.67254 
L 1058.63 302.667617 
L 1059.717 302.662772 
L 1060.804 302.658002 
L 1061.891 302.653308 
L 1062.978 302.648688 
L 1064.065 302.64414 
L 1065.152 302.639664 
L 1066.239 302.635259 
L 1067.326 302.630924 
L 1068.413 302.626657 
L 1069.5 302.622457 
L 1070.587 302.618324 
L 1071.674 302.614257 
L 1072.761 302.610253 
L 1073.848 302.606314 
L 1074.935 302.602437 
L 1076.022 302.598621 
L 1077.109 302.594866 
L 1078.196 302.591171 
L 1079.283 302.587534 
L 1080.37 302.583956 
L 1081.457 302.580434 
L 1082.544 302.576969 
L 1083.631 302.573558 
L 1084.718 302.570202 
L 1085.805 302.5669 
L 1086.892 302.56365 
L 1087.979 302.560453 
L 1089.066 302.557306 
L 1090.153 302.55421 
L 1091.24 302.551163 
L 1092.327 302.548165 
L 1093.414 302.545215 
L 1094.501 302.542312 
L 1095.588 302.539456 
L 1096.675 302.536646 
L 1097.762 302.533881 
L 1098.849 302.53116 
L 1099.936 302.528483 
L 1101.023 302.525849 
L 1102.11 302.523257 
L 1103.197 302.520707 
L 1104.284 302.518198 
L 1105.371 302.515729 
L 1106.458 302.513301 
L 1107.545 302.510911 
L 1108.632 302.50856 
L 1109.719 302.506247 
L 1110.806 302.503971 
L 1111.893 302.501732 
L 1112.98 302.499529 
L 1114.067 302.497361 
L 1115.154 302.495229 
L 1116.241 302.493131 
L 1117.328 302.491067 
L 1118.415 302.489037 
L 1119.502 302.487039 
L 1120.589 302.485074 
L 1121.676 302.483141 
L 1122.763 302.481239 
L 1123.85 302.479367 
L 1124.937 302.477527 
L 1126.024 302.475716 
L 1127.111 302.473934 
L 1128.198 302.472182 
L 1129.285 302.470458 
L 1130.372 302.468762 
L 1131.459 302.467093 
L 1132.546 302.465452 
L 1133.633 302.463837 
L 1133.633 89.00981 
L 1132.546 89.01144 
L 1131.459 89.013097 
L 1130.372 89.014782 
L 1129.285 89.016495 
L 1128.198 89.018237 
L 1127.111 89.020007 
L 1126.024 89.021808 
L 1124.937 89.023638 
L 1123.85 89.025499 
L 1122.763 89.027391 
L 1121.676 89.029314 
L 1120.589 89.03127 
L 1119.502 89.033258 
L 1118.415 89.035279 
L 1117.328 89.037334 
L 1116.241 89.039424 
L 1115.154 89.041548 
L 1114.067 89.043707 
L 1112.98 89.045902 
L 1111.893 89.048134 
L 1110.806 89.050403 
L 1109.719 89.05271 
L 1108.632 89.055055 
L 1107.545 89.057439 
L 1106.458 89.059863 
L 1105.371 89.062327 
L 1104.284 89.064832 
L 1103.197 89.067379 
L 1102.11 89.069968 
L 1101.023 89.0726 
L 1099.936 89.075276 
L 1098.849 89.077996 
L 1097.762 89.080761 
L 1096.675 89.083572 
L 1095.588 89.08643 
L 1094.501 89.089335 
L 1093.414 89.092289 
L 1092.327 89.095291 
L 1091.24 89.098343 
L 1090.153 89.101446 
L 1089.066 89.1046 
L 1087.979 89.107806 
L 1086.892 89.111066 
L 1085.805 89.114379 
L 1084.718 89.117747 
L 1083.631 89.121171 
L 1082.544 89.124652 
L 1081.457 89.12819 
L 1080.37 89.131787 
L 1079.283 89.135443 
L 1078.196 89.13916 
L 1077.109 89.142938 
L 1076.022 89.146779 
L 1074.935 89.150683 
L 1073.848 89.154652 
L 1072.761 89.158686 
L 1071.674 89.162786 
L 1070.587 89.166955 
L 1069.5 89.171192 
L 1068.413 89.175499 
L 1067.326 89.179877 
L 1066.239 89.184328 
L 1065.152 89.188852 
L 1064.065 89.19345 
L 1062.978 89.198124 
L 1061.891 89.202876 
L 1060.804 89.207705 
L 1059.717 89.212615 
L 1058.63 89.217605 
L 1057.543 89.222677 
L 1056.456 89.227833 
L 1055.369 89.233073 
L 1054.282 89.2384 
L 1053.195 89.243815 
L 1052.108 89.249319 
L 1051.021 89.254913 
L 1049.934 89.260599 
L 1048.847 89.266379 
L 1047.76 89.272254 
L 1046.673 89.278225 
L 1045.586 89.284295 
L 1044.499 89.290464 
L 1043.412 89.296735 
L 1042.325 89.303109 
L 1041.238 89.309587 
L 1040.151 89.316172 
L 1039.064 89.322865 
L 1037.977 89.329668 
L 1036.89 89.336582 
L 1035.803 89.34361 
L 1034.716 89.350754 
L 1033.629 89.358014 
L 1032.542 89.365394 
L 1031.455 89.372895 
L 1030.368 89.380518 
L 1029.281 89.388267 
L 1028.194 89.396143 
L 1027.107 89.404148 
L 1026.02 89.412284 
L 1024.933 89.420553 
L 1023.846 89.428958 
L 1022.759 89.437501 
L 1021.672 89.446183 
L 1020.585 89.455008 
L 1019.498 89.463978 
L 1018.411 89.473094 
L 1017.324 89.482359 
L 1016.237 89.491777 
L 1015.15 89.501348 
L 1014.063 89.511076 
L 1012.976 89.520963 
L 1011.889 89.531012 
L 1010.802 89.541226 
L 1009.715 89.551607 
L 1008.628 89.562157 
L 1007.541 89.57288 
L 1006.454 89.583779 
L 1005.367 89.594855 
L 1004.28 89.606113 
L 1003.193 89.617555 
L 1002.106 89.629184 
L 1001.019 89.641003 
L 999.932 89.653016 
L 998.845 89.665225 
L 997.758 89.677633 
L 996.671 89.690245 
L 995.584 89.703062 
L 994.497 89.716089 
L 993.41 89.729329 
L 992.323 89.742785 
L 991.236 89.756462 
L 990.149 89.770362 
L 989.062 89.784488 
L 987.975 89.798846 
L 986.888 89.813439 
L 985.801 89.82827 
L 984.714 89.843343 
L 983.627 89.858662 
L 982.54 89.874232 
L 981.453 89.890057 
L 980.366 89.90614 
L 979.279 89.922486 
L 978.192 89.939099 
L 977.105 89.955983 
L 976.018 89.973143 
L 974.931 89.990584 
L 973.844 90.00831 
L 972.757 90.026326 
L 971.67 90.044636 
L 970.583 90.063245 
L 969.496 90.082159 
L 968.409 90.101382 
L 967.322 90.120919 
L 966.235 90.140776 
L 965.148 90.160957 
L 964.061 90.181468 
L 962.974 90.202315 
L 961.887 90.223503 
L 960.8 90.245037 
L 959.713 90.266924 
L 958.626 90.289168 
L 957.539 90.311777 
L 956.452 90.334756 
L 955.365 90.358111 
L 954.278 90.381848 
L 953.191 90.405974 
L 952.104 90.430494 
L 951.017 90.455417 
L 949.93 90.480748 
L 948.843 90.506493 
L 947.756 90.532661 
L 946.669 90.559257 
L 945.582 90.586289 
L 944.495 90.613765 
L 943.408 90.64169 
L 942.321 90.670074 
L 941.234 90.698924 
L 940.147 90.728247 
L 939.06 90.758051 
L 937.973 90.788344 
L 936.886 90.819135 
L 935.799 90.850431 
L 934.712 90.882242 
L 933.625 90.914575 
L 932.538 90.947439 
L 931.451 90.980844 
L 930.364 91.014798 
L 929.277 91.049311 
L 928.19 91.084391 
L 927.103 91.120049 
L 926.016 91.156294 
L 924.929 91.193135 
L 923.842 91.230584 
L 922.755 91.268649 
L 921.668 91.307342 
L 920.581 91.346673 
L 919.494 91.386653 
L 918.407 91.427293 
L 917.32 91.468603 
L 916.233 91.510595 
L 915.146 91.553281 
L 914.059 91.596672 
L 912.972 91.640781 
L 911.885 91.685619 
L 910.798 91.731198 
L 909.711 91.777532 
L 908.624 91.824633 
L 907.537 91.872514 
L 906.45 91.921189 
L 905.363 91.97067 
L 904.276 92.020972 
L 903.189 92.072108 
L 902.102 92.124093 
L 901.015 92.176941 
L 899.928 92.230667 
L 898.841 92.285286 
L 897.754 92.340814 
L 896.667 92.397264 
L 895.58 92.454655 
L 894.493 92.513001 
L 893.406 92.572319 
L 892.319 92.632625 
L 891.232 92.693937 
L 890.145 92.756272 
L 889.058 92.819648 
L 887.971 92.884081 
L 886.884 92.949592 
L 885.797 93.016197 
L 884.71 93.083917 
L 883.623 93.152769 
L 882.536 93.222775 
L 881.449 93.293953 
L 880.362 93.366324 
L 879.275 93.439909 
L 878.188 93.514728 
L 877.101 93.590803 
L 876.014 93.668157 
L 874.927 93.74681 
L 873.84 93.826786 
L 872.753 93.908107 
L 871.666 93.990797 
L 870.579 94.07488 
L 869.492 94.16038 
L 868.405 94.247322 
L 867.318 94.33573 
L 866.231 94.425631 
L 865.144 94.517051 
L 864.057 94.610015 
L 862.97 94.704552 
L 861.883 94.800688 
L 860.796 94.898451 
L 859.709 94.99787 
L 858.622 95.098975 
L 857.535 95.201793 
L 856.448 95.306357 
L 855.361 95.412695 
L 854.274 95.52084 
L 853.187 95.630823 
L 852.1 95.742676 
L 851.013 95.856432 
L 849.926 95.972125 
L 848.839 96.089789 
L 847.752 96.209458 
L 846.665 96.331167 
L 845.578 96.454953 
L 844.491 96.580853 
L 843.404 96.708902 
L 842.317 96.83914 
L 841.23 96.971605 
L 840.143 97.106336 
L 839.056 97.243372 
L 837.969 97.382756 
L 836.882 97.524527 
L 835.795 97.668729 
L 834.708 97.815404 
L 833.621 97.964595 
L 832.534 98.116348 
L 831.447 98.270707 
L 830.36 98.427718 
L 829.273 98.587428 
L 828.186 98.749884 
L 827.099 98.915136 
L 826.012 99.083232 
L 824.925 99.254223 
L 823.838 99.428159 
L 822.751 99.605093 
L 821.664 99.785076 
L 820.577 99.968164 
L 819.49 100.154411 
L 818.403 100.343871 
L 817.316 100.536603 
L 816.229 100.732662 
L 815.142 100.932109 
L 814.055 101.135002 
L 812.968 101.341401 
L 811.881 101.551369 
L 810.794 101.764968 
L 809.707 101.982262 
L 808.62 102.203314 
L 807.533 102.428192 
L 806.446 102.656962 
L 805.359 102.889691 
L 804.272 103.12645 
L 803.185 103.367307 
L 802.098 103.612336 
L 801.011 103.861608 
L 799.924 104.115196 
L 798.837 104.373177 
L 797.75 104.635626 
L 796.663 104.90262 
L 795.576 105.174239 
L 794.489 105.450561 
L 793.402 105.731669 
L 792.315 106.017645 
L 791.228 106.308572 
L 790.141 106.604535 
L 789.054 106.905621 
L 787.967 107.211918 
L 786.88 107.523514 
L 785.793 107.8405 
L 784.706 108.162968 
L 783.619 108.49101 
L 782.532 108.824722 
L 781.445 109.1642 
L 780.358 109.50954 
L 779.271 109.860842 
L 778.184 110.218205 
L 777.097 110.581733 
L 776.01 110.951526 
L 774.923 111.327691 
L 773.836 111.710334 
L 772.749 112.099561 
L 771.662 112.495483 
L 770.575 112.898209 
L 769.488 113.307851 
L 768.401 113.724524 
L 767.314 114.148343 
L 766.227 114.579423 
L 765.14 115.017884 
L 764.053 115.463844 
L 762.966 115.917425 
L 761.879 116.37875 
L 760.792 116.847943 
L 759.705 117.32513 
L 758.618 117.810437 
L 757.531 118.303995 
L 756.444 118.805933 
L 755.357 119.316382 
L 754.27 119.835477 
L 753.183 120.363353 
L 752.096 120.900144 
L 751.009 121.44599 
L 749.922 122.00103 
L 748.835 122.565403 
L 747.748 123.139254 
L 746.661 123.722724 
L 745.574 124.315959 
L 744.487 124.919105 
L 743.4 125.532309 
L 742.313 126.155722 
L 741.226 126.789492 
L 740.139 127.433773 
L 739.052 128.088715 
L 737.965 128.754474 
L 736.878 129.431204 
L 735.791 130.119062 
L 734.704 130.818204 
L 733.617 131.52879 
L 732.53 132.250979 
L 731.443 132.98493 
L 730.356 133.730806 
L 729.269 134.488767 
L 728.182 135.258978 
L 727.095 136.0416 
L 726.008 136.836798 
L 724.921 137.644737 
L 723.834 138.465582 
L 722.747 139.299498 
L 721.66 140.14665 
L 720.573 141.007206 
L 719.486 141.88133 
L 718.399 142.76919 
L 717.312 143.67095 
L 716.225 144.586776 
L 715.138 145.516835 
L 714.051 146.461291 
L 712.964 147.420308 
L 711.877 148.39405 
L 710.79 149.382681 
L 709.703 150.386361 
L 708.616 151.405251 
L 707.529 152.439512 
L 706.442 153.4893 
L 705.355 154.554771 
L 704.268 155.636081 
L 703.181 156.733381 
L 702.094 157.846821 
L 701.007 158.976549 
L 699.92 160.122709 
L 698.833 161.285443 
L 697.746 162.46489 
L 696.659 163.661184 
L 695.572 164.874457 
L 694.485 166.104837 
L 693.398 167.352445 
L 692.311 168.617401 
L 691.224 169.899818 
L 690.137 171.199804 
L 689.05 172.517461 
L 687.963 173.852886 
L 686.876 175.206168 
L 685.789 176.577391 
L 684.702 177.966632 
L 683.615 179.373957 
L 682.528 180.799427 
L 681.441 182.243093 
L 680.354 183.704999 
L 679.267 185.185177 
L 678.18 186.683648 
L 677.093 188.200426 
L 676.006 189.73551 
L 674.919 191.288889 
L 673.832 192.860539 
L 672.745 194.450422 
L 671.658 196.058487 
L 670.571 197.684667 
L 669.484 199.32888 
L 668.397 200.991029 
L 667.31 202.670997 
L 666.223 204.368652 
L 665.136 206.08384 
L 664.049 207.816389 
L 662.962 209.566106 
L 661.875 211.332774 
L 660.788 213.116155 
L 659.701 214.915986 
L 658.614 216.731977 
L 657.527 218.563812 
L 656.44 220.411147 
L 655.353 222.273609 
L 654.266 224.150791 
L 653.179 226.042254 
L 652.092 227.947526 
L 651.005 229.866092 
L 649.918 231.797401 
L 648.831 233.74085 
L 647.744 235.695773 
L 646.657 237.661389 
L 645.57 239.636489 
L 644.483 241.609518 
L 643.396 240.364169 
L 642.309 238.373044 
L 641.222 236.390439 
L 640.135 234.418159 
L 639.048 232.457069 
L 637.961 230.507864 
L 636.874 228.571164 
L 635.787 226.647536 
L 634.7 224.737503 
L 633.613 222.841549 
L 632.526 220.960123 
L 631.439 219.09364 
L 630.352 217.24248 
L 629.265 215.406997 
L 628.178 213.587512 
L 627.091 211.784322 
L 626.004 209.997695 
L 624.917 208.227876 
L 623.83 206.475085 
L 622.743 204.739521 
L 621.656 203.02136 
L 620.569 201.320759 
L 619.482 199.637854 
L 618.395 197.972765 
L 617.308 196.325591 
L 616.221 194.696418 
L 615.134 193.085313 
L 614.047 191.49233 
L 612.96 189.917508 
L 611.873 188.360872 
L 610.786 186.822434 
L 609.699 185.302195 
L 608.612 183.800143 
L 607.525 182.316256 
L 606.438 180.850501 
L 605.351 179.402835 
L 604.264 177.973207 
L 603.177 176.561554 
L 602.09 175.167808 
L 601.003 173.791893 
L 599.916 172.433723 
L 598.829 171.093206 
L 597.742 169.770245 
L 596.655 168.464736 
L 595.568 167.176567 
L 594.481 165.905624 
L 593.394 164.651786 
L 592.307 163.414927 
L 591.22 162.194918 
L 590.133 160.991623 
L 589.046 159.804906 
L 587.959 158.634624 
L 586.872 157.480632 
L 585.785 156.342782 
L 584.698 155.220923 
L 583.611 154.114902 
L 582.524 153.024563 
L 581.437 151.949746 
L 580.35 150.890293 
L 579.263 149.846042 
L 578.176 148.816827 
L 577.089 147.802485 
L 576.002 146.80285 
L 574.915 145.817753 
L 573.828 144.847026 
L 572.741 143.8905 
L 571.654 142.948006 
L 570.567 142.019372 
L 569.48 141.104428 
L 568.393 140.203003 
L 567.306 139.314925 
L 566.219 138.440023 
L 565.132 137.578125 
L 564.045 136.72906 
L 562.958 135.892657 
L 561.871 135.068745 
L 560.784 134.257153 
L 559.697 133.457712 
L 558.61 132.670253 
L 557.523 131.894605 
L 556.436 131.130601 
L 555.349 130.378074 
L 554.262 129.636857 
L 553.175 128.906783 
L 552.088 128.187688 
L 551.001 127.479409 
L 549.914 126.781781 
L 548.827 126.094643 
L 547.74 125.417834 
L 546.653 124.751194 
L 545.566 124.094565 
L 544.479 123.447788 
L 543.392 122.810708 
L 542.305 122.18317 
L 541.218 121.565019 
L 540.131 120.956103 
L 539.044 120.356272 
L 537.957 119.765374 
L 536.87 119.183261 
L 535.783 118.609787 
L 534.696 118.044805 
L 533.609 117.488171 
L 532.522 116.939742 
L 531.435 116.399375 
L 530.348 115.866931 
L 529.261 115.342272 
L 528.174 114.825258 
L 527.087 114.315755 
L 526 113.813628 
L 524.913 113.318744 
L 523.826 112.83097 
L 522.739 112.350177 
L 521.652 111.876235 
L 520.565 111.409018 
L 519.478 110.948399 
L 518.391 110.494253 
L 517.304 110.046458 
L 516.217 109.604891 
L 515.13 109.169433 
L 514.043 108.739963 
L 512.956 108.316365 
L 511.869 107.898522 
L 510.782 107.486319 
L 509.695 107.079643 
L 508.608 106.678382 
L 507.521 106.282425 
L 506.434 105.891662 
L 505.347 105.505985 
L 504.26 105.125287 
L 503.173 104.749463 
L 502.086 104.378408 
L 500.999 104.01202 
L 499.912 103.650196 
L 498.825 103.292836 
L 497.738 102.939841 
L 496.651 102.591113 
L 495.564 102.246554 
L 494.477 101.90607 
L 493.39 101.569565 
L 492.303 101.236947 
L 491.216 100.908122 
L 490.129 100.583 
L 489.042 100.261492 
L 487.955 99.943508 
L 486.868 99.62896 
L 485.781 99.317762 
L 484.694 99.009828 
L 483.607 98.705074 
L 482.52 98.403416 
L 481.433 98.104771 
L 480.346 97.809058 
L 479.259 97.516197 
L 478.172 97.226108 
L 477.085 96.938712 
L 475.998 96.653931 
L 474.911 96.37169 
L 473.824 96.091911 
L 472.737 95.814521 
L 471.65 95.539445 
L 470.563 95.266609 
L 469.476 94.995943 
L 468.389 94.727373 
L 467.302 94.46083 
L 466.215 94.196244 
L 465.128 93.933545 
L 464.041 93.672665 
L 462.954 93.413538 
L 461.867 93.156096 
L 460.78 92.900273 
L 459.693 92.646004 
L 458.606 92.393225 
L 457.519 92.141872 
L 456.432 91.891881 
L 455.345 91.643191 
L 454.258 91.39574 
L 453.171 91.149466 
L 452.084 90.90431 
L 450.997 90.660211 
L 449.91 90.417111 
L 448.823 90.17495 
L 447.736 89.933672 
L 446.649 89.693218 
L 445.562 89.453533 
L 444.475 89.214559 
L 443.388 88.976242 
L 442.301 88.738526 
L 441.214 88.501358 
L 440.127 88.264683 
L 439.04 88.028448 
L 437.953 87.7926 
L 436.866 87.557087 
L 435.779 87.321857 
L 434.692 87.086858 
L 433.605 86.852041 
L 432.518 86.617355 
L 431.431 86.38275 
L 430.344 86.148177 
L 429.257 85.913586 
L 428.17 85.678931 
L 427.083 85.444162 
L 425.996 85.209232 
L 424.909 84.974095 
L 423.822 84.738704 
L 422.735 84.503013 
L 421.648 84.266976 
L 420.561 84.030548 
L 419.474 83.793685 
L 418.387 83.556342 
L 417.3 83.318474 
L 416.213 83.08004 
L 415.126 82.840996 
L 414.039 82.601298 
L 412.952 82.360906 
L 411.865 82.119778 
L 410.778 81.877871 
L 409.691 81.635146 
L 408.604 81.391562 
L 407.517 81.147078 
L 406.43 80.901656 
L 405.343 80.655257 
L 404.256 80.407841 
L 403.169 80.15937 
L 402.082 79.909807 
L 400.995 79.659114 
L 399.908 79.407255 
L 398.821 79.154193 
L 397.734 78.899891 
L 396.647 78.644316 
L 395.56 78.387431 
L 394.473 78.129202 
L 393.386 77.869594 
L 392.299 77.608576 
L 391.212 77.346112 
L 390.125 77.082172 
L 389.038 76.816723 
L 387.951 76.549732 
L 386.864 76.281171 
L 385.777 76.011007 
L 384.69 75.739212 
L 383.603 75.465755 
L 382.516 75.190609 
L 381.429 74.913746 
L 380.342 74.635137 
L 379.255 74.354756 
L 378.168 74.072577 
L 377.081 73.788574 
L 375.994 73.502723 
L 374.907 73.214999 
L 373.82 72.925379 
L 372.733 72.633839 
L 371.646 72.340359 
L 370.559 72.044917 
L 369.472 71.747493 
L 368.385 71.448066 
L 367.298 71.146617 
L 366.211 70.84313 
L 365.124 70.537587 
L 364.037 70.229971 
L 362.95 69.920267 
L 361.863 69.608461 
L 360.776 69.29454 
L 359.689 68.97849 
L 358.602 68.660301 
L 357.515 68.339962 
L 356.428 68.017464 
L 355.341 67.692798 
L 354.254 67.365958 
L 353.167 67.036938 
L 352.08 66.705732 
L 350.993 66.372338 
L 349.906 66.036752 
L 348.819 65.698975 
L 347.732 65.359007 
L 346.645 65.016848 
L 345.558 64.672504 
L 344.471 64.325977 
L 343.384 63.977274 
L 342.297 63.626403 
L 341.21 63.273373 
L 340.123 62.918194 
L 339.036 62.56088 
L 337.949 62.201444 
L 336.862 61.839902 
L 335.775 61.476271 
L 334.688 61.110572 
L 333.601 60.742825 
L 332.514 60.373054 
L 331.427 60.001285 
L 330.34 59.627543 
L 329.253 59.25186 
L 328.166 58.874266 
L 327.079 58.494795 
L 325.992 58.113484 
L 324.905 57.73037 
L 323.818 57.345494 
L 322.731 56.9589 
L 321.644 56.570633 
L 320.557 56.180741 
L 319.47 55.789276 
L 318.383 55.39629 
L 317.296 55.00184 
L 316.209 54.605986 
L 315.122 54.208789 
L 314.035 53.810315 
L 312.948 53.410631 
L 311.861 53.009808 
L 310.774 52.607922 
L 309.687 52.20505 
L 308.6 51.801273 
L 307.513 51.396675 
L 306.426 50.991345 
L 305.339 50.585374 
L 304.252 50.178858 
L 303.165 49.771895 
L 302.078 49.364589 
L 300.991 48.957047 
L 299.904 48.54938 
L 298.817 48.141703 
L 297.73 47.734135 
L 296.643 47.326801 
L 295.556 46.919828 
L 294.469 46.51335 
L 293.382 46.107503 
L 292.295 45.70243 
L 291.208 45.298278 
L 290.121 44.895199 
L 289.034 44.493351 
L 287.947 44.092895 
L 286.86 43.693999 
L 285.773 43.296836 
L 284.686 42.901585 
L 283.599 42.50843 
L 282.512 42.117561 
L 281.425 41.729173 
L 280.338 41.34347 
L 279.251 40.960658 
L 278.164 40.580953 
L 277.077 40.204574 
L 275.99 39.83175 
L 274.903 39.462715 
L 273.816 39.097708 
L 272.729 38.736979 
L 271.642 38.380781 
L 270.555 38.029378 
L 269.468 37.683037 
L 268.381 37.342037 
L 267.294 37.006662 
L 266.207 36.677204 
L 265.12 36.353964 
L 264.033 36.037251 
L 262.946 35.72738 
L 261.859 35.424677 
L 260.772 35.129477 
L 259.685 34.84212 
L 258.598 34.56296 
L 257.511 34.292355 
L 256.424 34.030676 
L 255.337 33.778301 
L 254.25 33.535619 
L 253.163 33.303028 
L 252.076 33.080936 
L 250.989 32.86976 
L 249.902 32.66993 
L 248.815 32.481883 
L 247.728 32.306068 
L 246.641 32.142944 
L 245.554 31.992983 
L 244.467 31.856665 
L 243.38 31.734483 
L 242.293 31.62694 
L 241.206 31.534552 
L 240.119 31.457846 
L 239.032 31.39736 
L 237.945 31.353645 
L 236.858 31.327262 
L 235.771 31.318788 
L 234.684 31.328809 
L 233.597 31.357924 
L 232.51 31.406746 
L 231.423 31.475901 
L 230.336 31.566025 
L 229.249 31.67777 
L 228.162 31.8118 
L 227.075 31.968792 
L 225.988 32.149436 
L 224.901 32.354438 
L 223.814 32.584514 
L 222.727 32.840396 
L 221.64 33.122828 
L 220.553 33.432569 
L 219.466 33.770391 
L 218.379 34.13708 
L 217.292 34.533436 
L 216.205 34.960272 
L 215.118 35.418415 
L 214.031 35.908707 
L 212.944 36.432002 
L 211.857 36.989167 
L 210.77 37.581085 
L 209.683 38.20865 
L 208.596 38.872769 
L 207.509 39.574363 
L 206.422 40.314366 
L 205.335 41.093722 
L 204.248 41.91339 
L 203.161 42.774339 
L 202.074 43.677548 
L 200.987 44.624011 
L 199.9 45.614727 
L 198.813 46.650709 
L 197.726 47.732976 
L 196.639 48.862557 
L 195.552 50.040488 
L 194.465 51.267812 
L 193.378 52.545577 
L 192.291 53.874836 
L 191.204 55.256644 
L 190.117 56.692061 
L 189.03 58.182144 
L 187.943 59.727952 
L 186.856 61.330537 
L 185.769 62.990951 
L 184.682 64.710235 
L 183.595 66.489422 
L 182.508 68.329531 
L 181.421 70.231564 
L 180.334 72.196504 
L 179.247 74.225301 
L 178.16 76.318862 
L 177.073 78.478002 
L 175.986 80.70322 
L 174.899 82.991478 
L 173.812 83.441272 
L 172.725 82.546314 
L 171.638 81.764774 
L 170.551 81.097522 
L 169.464 80.543273 
L 168.377 80.100517 
L 167.29 79.767692 
L 166.203 79.543217 
L 165.116 79.425502 
L 164.029 79.412955 
L 162.942 79.503984 
L 161.855 79.696994 
L 160.768 79.990395 
L 159.681 80.382593 
L 158.594 80.871998 
L 157.507 81.45702 
L 156.42 82.136067 
L 155.333 82.907549 
L 154.246 83.769874 
L 153.159 84.721449 
L 152.072 85.760676 
L 150.985 86.885957 
L 149.898 88.095686 
L 148.811 89.388252 
L 147.724 90.762036 
L 146.637 92.215413 
L 145.55 93.746744 
L 144.463 95.354379 
L 143.376 97.036653 
L 142.289 98.791888 
L 141.202 100.618385 
L 140.115 102.514425 
L 139.028 104.478266 
L 137.941 106.508141 
L 136.854 108.602255 
L 135.767 110.758781 
L 134.68 112.975856 
L 133.593 115.251584 
L 132.506 117.584023 
L 131.419 119.971188 
L 130.332 122.411044 
L 129.245 124.901504 
L 128.158 127.44042 
L 127.071 130.025585 
L 125.984 132.654719 
L 124.897 135.32547 
L 123.81 138.035406 
L 122.723 140.782008 
L 121.636 143.562661 
L 120.549 146.374648 
L 119.462 149.215143 
L 118.375 152.081196 
L 117.288 154.969728 
L 116.201 157.87751 
L 115.114 160.80115 
L 114.027 163.737045 
L 112.94 166.681263 
L 111.853 169.628689 
L 110.766 172.287066 
L 109.679 172.450852 
L 108.592 172.610163 
L 107.505 172.799487 
L 106.418 173.022113 
L 105.331 173.280476 
L 104.244 173.576706 
L 103.157 173.912717 
L 102.07 174.290238 
L 100.983 174.710824 
L 99.896 175.175868 
L 98.809 175.686607 
L 97.722 176.244128 
L 96.635 176.849367 
L 95.548 177.503118 
L 94.461 178.206034 
L 93.374 178.958627 
L 92.287 179.761269 
L 91.2 180.614194 
L 90.113 181.517497 
L 89.026 182.471134 
L 87.939 183.474916 
L 86.852 184.528512 
L 85.765 185.631443 
L 84.678 186.783078 
L 83.591 187.982627 
L 82.504 189.229139 
L 81.417 190.521494 
L 80.33 191.85839 
L 79.243 193.238341 
L 78.156 194.659657 
L 77.069 196.120437 
L 75.982 197.618554 
L 74.895 199.15163 
L 73.808 200.717024 
L 72.721 202.311803 
L 71.634 203.932713 
L 70.547 205.576145 
L 69.46 207.238098 
L 68.373 208.914122 
L 67.286 210.599267 
L 66.199 212.287999 
L 65.112 213.974114 
L 64.025 215.650609 
L 62.938 217.309525 
L 61.851 218.941716 
L 60.764 220.536461 
L 59.677 222.080242 
L 58.59 223.322525 
L 57.503 223.259363 
L 56.416 223.305554 
L 55.329 223.489454 
L 54.242 223.820244 
L 53.155 224.304657 
L 52.068 224.947525 
L 50.981 225.751905 
L 49.894 226.718934 
L 48.807 227.845792 
L 47.72 228.639229 
z
" clip-path="url(#pdec5b434f1)" style="fill: #00bfbf; opacity: 0.3"/>
   </g>
   <g id="matplotlib.axis_1">
    <g id="xtick_1">
     <g id="line2d_1">
      <defs>
       <path id="m7964b24ca3" d="M 0 0 
L 0 3.5 
" style="stroke: #000000; stroke-width: 0.8"/>
      </defs>
      <g>
       <use xlink:href="#m7964b24ca3" x="47.72" y="326.133333" style="stroke: #000000; stroke-width: 0.8"/>
      </g>
     </g>
    </g>
    <g id="xtick_2">
     <g id="line2d_2">
      <g>
       <use xlink:href="#m7964b24ca3" x="265.12" y="326.133333" style="stroke: #000000; stroke-width: 0.8"/>
      </g>
     </g>
    </g>
    <g id="xtick_3">
     <g id="line2d_3">
      <g>
       <use xlink:href="#m7964b24ca3" x="482.52" y="326.133333" style="stroke: #000000; stroke-width: 0.8"/>
      </g>
     </g>
    </g>
    <g id="xtick_4">
     <g id="line2d_4">
      <g>
       <use xlink:href="#m7964b24ca3" x="699.92" y="326.133333" style="stroke: #000000; stroke-width: 0.8"/>
      </g>
     </g>
    </g>
    <g id="xtick_5">
     <g id="line2d_5">
      <g>
       <use xlink:href="#m7964b24ca3" x="917.32" y="326.133333" style="stroke: #000000; stroke-width: 0.8"/>
      </g>
     </g>
    </g>
    <g id="xtick_6">
     <g id="line2d_6">
      <g>
       <use xlink:href="#m7964b24ca3" x="1134.72" y="326.133333" style="stroke: #000000; stroke-width: 0.8"/>
      </g>
     </g>
    </g>
    <g id="text_1">
     <!-- x -->
     <g transform="translate(585.30125 352.330208) scale(0.2 -0.2)">
      <defs>
       <path id="DejaVuSans-78" d="M 3513 3500 
L 2247 1797 
L 3578 0 
L 2900 0 
L 1881 1375 
L 863 0 
L 184 0 
L 1544 1831 
L 300 3500 
L 978 3500 
L 1906 2253 
L 2834 3500 
L 3513 3500 
z
" transform="scale(0.015625)"/>
      </defs>
      <use xlink:href="#DejaVuSans-78"/>
     </g>
    </g>
   </g>
   <g id="matplotlib.axis_2">
    <g id="ytick_1">
     <g id="line2d_7">
      <defs>
       <path id="m7f2ab914d6" d="M 0 0 
L -3.5 0 
" style="stroke: #000000; stroke-width: 0.8"/>
      </defs>
      <g>
       <use xlink:href="#m7f2ab914d6" x="47.72" y="296.11754" style="stroke: #000000; stroke-width: 0.8"/>
      </g>
     </g>
    </g>
    <g id="ytick_2">
     <g id="line2d_8">
      <g>
       <use xlink:href="#m7f2ab914d6" x="47.72" y="241.995848" style="stroke: #000000; stroke-width: 0.8"/>
      </g>
     </g>
    </g>
    <g id="ytick_3">
     <g id="line2d_9">
      <g>
       <use xlink:href="#m7f2ab914d6" x="47.72" y="187.874155" style="stroke: #000000; stroke-width: 0.8"/>
      </g>
     </g>
    </g>
    <g id="ytick_4">
     <g id="line2d_10">
      <g>
       <use xlink:href="#m7f2ab914d6" x="47.72" y="133.752463" style="stroke: #000000; stroke-width: 0.8"/>
      </g>
     </g>
    </g>
    <g id="ytick_5">
     <g id="line2d_11">
      <g>
       <use xlink:href="#m7f2ab914d6" x="47.72" y="79.63077" style="stroke: #000000; stroke-width: 0.8"/>
      </g>
     </g>
    </g>
    <g id="ytick_6">
     <g id="line2d_12">
      <g>
       <use xlink:href="#m7f2ab914d6" x="47.72" y="25.509077" style="stroke: #000000; stroke-width: 0.8"/>
      </g>
     </g>
    </g>
    <g id="text_2">
     <!-- f(x) -->
     <g transform="translate(32.560625 188.948854) rotate(-90) scale(0.2 -0.2)">
      <defs>
       <path id="DejaVuSans-66" d="M 2375 4863 
L 2375 4384 
L 1825 4384 
Q 1516 4384 1395 4259 
Q 1275 4134 1275 3809 
L 1275 3500 
L 2222 3500 
L 2222 3053 
L 1275 3053 
L 1275 0 
L 697 0 
L 697 3053 
L 147 3053 
L 147 3500 
L 697 3500 
L 697 3744 
Q 697 4328 969 4595 
Q 1241 4863 1831 4863 
L 2375 4863 
z
" transform="scale(0.015625)"/>
       <path id="DejaVuSans-28" d="M 1984 4856 
Q 1566 4138 1362 3434 
Q 1159 2731 1159 2009 
Q 1159 1288 1364 580 
Q 1569 -128 1984 -844 
L 1484 -844 
Q 1016 -109 783 600 
Q 550 1309 550 2009 
Q 550 2706 781 3412 
Q 1013 4119 1484 4856 
L 1984 4856 
z
" transform="scale(0.015625)"/>
       <path id="DejaVuSans-29" d="M 513 4856 
L 1013 4856 
Q 1481 4119 1714 3412 
Q 1947 2706 1947 2009 
Q 1947 1309 1714 600 
Q 1481 -109 1013 -844 
L 513 -844 
Q 928 -128 1133 580 
Q 1338 1288 1338 2009 
Q 1338 2731 1133 3434 
Q 928 4138 513 4856 
z
" transform="scale(0.015625)"/>
      </defs>
      <use xlink:href="#DejaVuSans-66"/>
      <use xlink:href="#DejaVuSans-28" x="35.205078"/>
      <use xlink:href="#DejaVuSans-78" x="74.21875"/>
      <use xlink:href="#DejaVuSans-29" x="133.398438"/>
     </g>
    </g>
   </g>
   <g id="line2d_13">
    <path d="M 47.72 228.915742 
L 52.068 226.910152 
L 56.416 224.667582 
L 60.764 222.172336 
L 65.112 219.40972 
L 69.46 216.366433 
L 73.808 213.030996 
L 78.156 209.394194 
L 82.504 205.449528 
L 86.852 201.193666 
L 91.2 196.626887 
L 95.548 191.753493 
L 99.896 186.582186 
L 105.331 179.720036 
L 110.766 172.450957 
L 116.201 164.824806 
L 122.723 155.291181 
L 131.419 142.152701 
L 146.637 119.090838 
L 153.159 109.673673 
L 158.594 102.25626 
L 162.942 96.689665 
L 167.29 91.513888 
L 170.551 87.922727 
L 173.812 84.605931 
L 177.073 81.58471 
L 180.334 78.878662 
L 183.595 76.505563 
L 186.856 74.481166 
L 190.117 72.819037 
L 192.291 71.917852 
L 194.465 71.18543 
L 196.639 70.62399 
L 198.813 70.235234 
L 200.987 70.020344 
L 203.161 69.979975 
L 205.335 70.11425 
L 207.509 70.422759 
L 209.683 70.904565 
L 211.857 71.558203 
L 214.031 72.381693 
L 216.205 73.372546 
L 219.466 75.165974 
L 222.727 77.317069 
L 225.988 79.811462 
L 229.249 82.632652 
L 232.51 85.762188 
L 235.771 89.179869 
L 239.032 92.86396 
L 243.38 98.150521 
L 247.728 103.812183 
L 253.163 111.325556 
L 259.685 120.823871 
L 268.381 133.970017 
L 283.599 157.025813 
L 290.121 166.492525 
L 295.556 174.046715 
L 300.991 181.232029 
L 306.426 188.001351 
L 310.774 193.093668 
L 315.122 197.88528 
L 319.47 202.368702 
L 323.818 206.540754 
L 328.166 210.402169 
L 332.514 213.957174 
L 336.862 217.213044 
L 341.21 220.179647 
L 345.558 222.868995 
L 349.906 225.294804 
L 354.254 227.472076 
L 358.602 229.416708 
L 362.95 231.145138 
L 367.298 232.67402 
L 372.733 234.329761 
L 378.168 235.731301 
L 383.603 236.908999 
L 390.125 238.066856 
L 396.647 238.988777 
L 404.256 239.819979 
L 412.952 240.515265 
L 422.735 241.054181 
L 434.692 241.469155 
L 449.91 241.755355 
L 471.65 241.923862 
L 515.13 241.991092 
L 890.145 241.995848 
L 1133.633 241.995848 
L 1133.633 241.995848 
" clip-path="url(#pdec5b434f1)" style="fill: none; stroke: #1f77b4; stroke-width: 3; stroke-linecap: square"/>
   </g>
   <g id="line2d_14">
    <defs>
     <path id="m3908f7d587" d="M -0 5.656854 
L 5.656854 0 
L 0 -5.656854 
L -5.656854 -0 
z
" style="stroke: #ff0000; stroke-linejoin: miter"/>
    </defs>
    <g clip-path="url(#pdec5b434f1)">
     <use xlink:href="#m3908f7d587" x="644.280279" y="241.995848" style="fill: #ff0000; stroke: #ff0000; stroke-linejoin: miter"/>
     <use xlink:href="#m3908f7d587" x="48.006937" y="228.790369" style="fill: #ff0000; stroke: #ff0000; stroke-linejoin: miter"/>
     <use xlink:href="#m3908f7d587" x="58.77915" y="223.343719" style="fill: #ff0000; stroke: #ff0000; stroke-linejoin: miter"/>
     <use xlink:href="#m3908f7d587" x="58.700751" y="223.388863" style="fill: #ff0000; stroke: #ff0000; stroke-linejoin: miter"/>
     <use xlink:href="#m3908f7d587" x="110.864982" y="172.315091" style="fill: #ff0000; stroke: #ff0000; stroke-linejoin: miter"/>
     <use xlink:href="#m3908f7d587" x="174.429804" y="84.010239" style="fill: #ff0000; stroke: #ff0000; stroke-linejoin: miter"/>
    </g>
   </g>
   <g id="line2d_15">
    <path d="M 47.72 228.903289 
L 50.981 227.509268 
L 54.242 225.895297 
L 58.59 223.455566 
L 62.938 220.731994 
L 67.286 217.733068 
L 71.634 214.466067 
L 75.982 210.934579 
L 80.33 207.138632 
L 84.678 203.074804 
L 89.026 198.736303 
L 93.374 194.113023 
L 97.722 189.191562 
L 102.07 183.955221 
L 106.418 178.38397 
L 110.766 172.454387 
L 115.114 166.156943 
L 120.549 157.863617 
L 128.158 145.740723 
L 144.463 119.55638 
L 149.898 111.335891 
L 154.246 105.140742 
L 158.594 99.390948 
L 161.855 95.43463 
L 165.116 91.83686 
L 168.377 88.64919 
L 170.551 86.778995 
L 172.725 85.132825 
L 174.899 83.728782 
L 177.073 82.57512 
L 179.247 81.658087 
L 181.421 80.96187 
L 183.595 80.471498 
L 185.769 80.172803 
L 187.943 80.052382 
L 190.117 80.097559 
L 193.378 80.449783 
L 196.639 81.110086 
L 199.9 82.043852 
L 203.161 83.219335 
L 206.422 84.607444 
L 210.77 86.743316 
L 215.118 89.153221 
L 220.553 92.474762 
L 225.988 96.060482 
L 233.597 101.387209 
L 244.467 109.329288 
L 262.946 122.863887 
L 272.729 129.734432 
L 281.425 135.564288 
L 289.034 140.417972 
L 296.643 145.023846 
L 304.252 149.373961 
L 311.861 153.466547 
L 319.47 157.304665 
L 327.079 160.895099 
L 334.688 164.247458 
L 342.297 167.37344 
L 350.993 170.685778 
L 359.689 173.741022 
L 368.385 176.56153 
L 378.168 179.482502 
L 387.951 182.168044 
L 398.821 184.915242 
L 410.778 187.699502 
L 424.909 190.743249 
L 442.301 194.246538 
L 494.477 204.589684 
L 509.695 207.923587 
L 522.739 210.996288 
L 535.783 214.297934 
L 548.827 217.840599 
L 561.871 221.612849 
L 578.176 226.577825 
L 603.177 234.23514 
L 611.873 236.676236 
L 619.482 238.587923 
L 626.004 239.984282 
L 631.439 240.92124 
L 635.787 241.486494 
L 640.135 241.856076 
L 644.483 241.99675 
L 648.831 241.88627 
L 653.179 241.550375 
L 658.614 240.863605 
L 664.049 239.932924 
L 670.571 238.562762 
L 678.18 236.704557 
L 687.963 234.045496 
L 703.181 229.62907 
L 723.834 223.67593 
L 736.878 220.164002 
L 748.835 217.188189 
L 759.705 214.706665 
L 770.575 212.444356 
L 781.445 210.39875 
L 793.402 208.389157 
L 805.359 206.616372 
L 817.316 205.061861 
L 830.36 203.591652 
L 844.491 202.235343 
L 859.709 201.014207 
L 876.014 199.940779 
L 893.406 199.019201 
L 912.972 198.206445 
L 935.799 197.493463 
L 961.887 196.911163 
L 993.41 196.440873 
L 1032.542 196.087736 
L 1086.892 195.837358 
L 1133.633 195.736824 
L 1133.633 195.736824 
" clip-path="url(#pdec5b434f1)" style="fill: none; stroke-dasharray: 5.55,2.4; stroke-dashoffset: 0; stroke: #000000; stroke-width: 1.5"/>
   </g>
   <g id="patch_4">
    <path d="M 47.72 326.133333 
L 47.72 17.28 
" style="fill: none; stroke: #000000; stroke-width: 0.8; stroke-linejoin: miter; stroke-linecap: square"/>
   </g>
   <g id="patch_5">
    <path d="M 1134.72 326.133333 
L 1134.72 17.28 
" style="fill: none; stroke: #000000; stroke-width: 0.8; stroke-linejoin: miter; stroke-linecap: square"/>
   </g>
   <g id="patch_6">
    <path d="M 47.72 326.133333 
L 1134.72 326.133333 
" style="fill: none; stroke: #000000; stroke-width: 0.8; stroke-linejoin: miter; stroke-linecap: square"/>
   </g>
   <g id="patch_7">
    <path d="M 47.72 17.28 
L 1134.72 17.28 
" style="fill: none; stroke: #000000; stroke-width: 0.8; stroke-linejoin: miter; stroke-linecap: square"/>
   </g>
  </g>
  <g id="axes_2">
   <g id="patch_8">
    <path d="M 47.72 528.28 
L 1134.72 528.28 
L 1134.72 373.853333 
L 47.72 373.853333 
z
" style="fill: #ffffff"/>
   </g>
   <g id="matplotlib.axis_3">
    <g id="xtick_7">
     <g id="line2d_16">
      <g>
       <use xlink:href="#m7964b24ca3" x="47.72" y="528.28" style="stroke: #000000; stroke-width: 0.8"/>
      </g>
     </g>
    </g>
    <g id="xtick_8">
     <g id="line2d_17">
      <g>
       <use xlink:href="#m7964b24ca3" x="265.12" y="528.28" style="stroke: #000000; stroke-width: 0.8"/>
      </g>
     </g>
    </g>
    <g id="xtick_9">
     <g id="line2d_18">
      <g>
       <use xlink:href="#m7964b24ca3" x="482.52" y="528.28" style="stroke: #000000; stroke-width: 0.8"/>
      </g>
     </g>
    </g>
    <g id="xtick_10">
     <g id="line2d_19">
      <g>
       <use xlink:href="#m7964b24ca3" x="699.92" y="528.28" style="stroke: #000000; stroke-width: 0.8"/>
      </g>
     </g>
    </g>
    <g id="xtick_11">
     <g id="line2d_20">
      <g>
       <use xlink:href="#m7964b24ca3" x="917.32" y="528.28" style="stroke: #000000; stroke-width: 0.8"/>
      </g>
     </g>
    </g>
    <g id="xtick_12">
     <g id="line2d_21">
      <g>
       <use xlink:href="#m7964b24ca3" x="1134.72" y="528.28" style="stroke: #000000; stroke-width: 0.8"/>
      </g>
     </g>
    </g>
    <g id="text_3">
     <!-- x -->
     <g transform="translate(585.30125 554.476875) scale(0.2 -0.2)">
      <use xlink:href="#DejaVuSans-78"/>
     </g>
    </g>
   </g>
   <g id="matplotlib.axis_4">
    <g id="ytick_7">
     <g id="line2d_22">
      <g>
       <use xlink:href="#m7f2ab914d6" x="47.72" y="521.661834" style="stroke: #000000; stroke-width: 0.8"/>
      </g>
     </g>
    </g>
    <g id="ytick_8">
     <g id="line2d_23">
      <g>
       <use xlink:href="#m7f2ab914d6" x="47.72" y="466.65535" style="stroke: #000000; stroke-width: 0.8"/>
      </g>
     </g>
    </g>
    <g id="ytick_9">
     <g id="line2d_24">
      <g>
       <use xlink:href="#m7f2ab914d6" x="47.72" y="411.648866" style="stroke: #000000; stroke-width: 0.8"/>
      </g>
     </g>
    </g>
    <g id="text_4">
     <!-- $\alpha(x, D)$ -->
     <g transform="translate(32.560625 484.266667) rotate(-90) scale(0.2 -0.2)">
      <defs>
       <path id="DejaVuSans-Oblique-3b1" d="M 2619 1628 
L 2622 2350 
Q 2625 3088 2069 3091 
Q 1653 3094 1394 2747 
Q 1069 2319 959 1747 
Q 825 1059 994 731 
Q 1169 397 1547 397 
Q 1966 397 2319 1063 
L 2619 1628 
z
M 2166 3578 
Q 3141 3594 3128 2584 
Q 3128 2584 3616 3500 
L 4128 3500 
L 3119 1603 
L 3109 919 
Q 3109 766 3194 638 
Q 3291 488 3391 488 
L 3669 488 
L 3575 0 
L 3228 0 
Q 2934 0 2722 263 
Q 2622 394 2619 669 
Q 2416 334 2066 50 
Q 1900 -81 1453 -78 
Q 722 -72 456 397 
Q 184 884 353 1747 
Q 534 2675 1009 3097 
Q 1544 3569 2166 3578 
z
" transform="scale(0.015625)"/>
       <path id="DejaVuSans-Oblique-78" d="M 3841 3500 
L 2234 1784 
L 3219 0 
L 2559 0 
L 1819 1388 
L 531 0 
L -166 0 
L 1556 1844 
L 641 3500 
L 1300 3500 
L 1972 2234 
L 3144 3500 
L 3841 3500 
z
" transform="scale(0.015625)"/>
       <path id="DejaVuSans-2c" d="M 750 794 
L 1409 794 
L 1409 256 
L 897 -744 
L 494 -744 
L 750 256 
L 750 794 
z
" transform="scale(0.015625)"/>
       <path id="DejaVuSans-Oblique-44" d="M 1081 4666 
L 2438 4666 
Q 3519 4666 4070 4208 
Q 4622 3750 4622 2847 
Q 4622 2250 4412 1698 
Q 4203 1147 3834 769 
Q 3463 381 2891 190 
Q 2319 0 1538 0 
L 172 0 
L 1081 4666 
z
M 1613 4147 
L 909 519 
L 1734 519 
Q 2794 519 3375 1128 
Q 3956 1738 3956 2847 
Q 3956 3519 3581 3833 
Q 3206 4147 2406 4147 
L 1613 4147 
z
" transform="scale(0.015625)"/>
      </defs>
      <use xlink:href="#DejaVuSans-Oblique-3b1" transform="translate(0 0.125)"/>
      <use xlink:href="#DejaVuSans-28" transform="translate(65.917969 0.125)"/>
      <use xlink:href="#DejaVuSans-Oblique-78" transform="translate(104.931641 0.125)"/>
      <use xlink:href="#DejaVuSans-2c" transform="translate(164.111328 0.125)"/>
      <use xlink:href="#DejaVuSans-Oblique-44" transform="translate(215.380859 0.125)"/>
      <use xlink:href="#DejaVuSans-29" transform="translate(292.382812 0.125)"/>
     </g>
    </g>
   </g>
   <g id="line2d_25">
    <path d="M 47.72 516.06534 
L 48.807 515.518796 
L 49.894 514.6434 
L 50.981 513.949926 
L 52.068 513.440537 
L 53.155 513.1133 
L 54.242 512.964311 
L 55.329 512.987832 
L 56.416 513.176166 
L 57.503 513.519091 
L 58.59 513.986506 
L 59.677 513.110871 
L 62.938 509.467834 
L 70.547 500.719561 
L 73.808 497.3035 
L 77.069 494.253314 
L 79.243 492.461055 
L 81.417 490.882184 
L 83.591 489.530309 
L 85.765 488.416027 
L 87.939 487.547237 
L 90.113 486.929353 
L 92.287 486.56546 
L 94.461 486.456411 
L 96.635 486.600876 
L 98.809 486.995338 
L 100.983 487.634055 
L 103.157 488.508961 
L 105.331 489.609517 
L 107.505 490.922415 
L 110.766 493.216972 
L 111.853 491.431826 
L 117.288 481.289198 
L 121.636 473.700926 
L 124.897 468.420332 
L 128.158 463.551284 
L 131.419 459.139302 
L 134.68 455.223953 
L 136.854 452.906946 
L 139.028 450.835455 
L 141.202 449.018067 
L 143.376 447.462759 
L 145.55 446.176964 
L 147.724 445.167626 
L 149.898 444.441245 
L 152.072 444.003915 
L 154.246 443.861345 
L 156.42 444.018884 
L 158.594 444.481524 
L 160.768 445.253904 
L 162.942 446.340302 
L 165.116 447.744613 
L 167.29 449.470317 
L 169.464 451.520419 
L 171.638 453.897246 
L 173.812 456.599029 
L 174.899 456.555406 
L 179.247 448.769769 
L 183.595 441.49517 
L 187.943 434.747191 
L 192.291 428.523151 
L 195.552 424.192467 
L 198.813 420.143341 
L 202.074 416.367391 
L 205.335 412.855208 
L 208.596 409.596645 
L 211.857 406.581052 
L 215.118 403.797475 
L 218.379 401.234801 
L 222.727 398.142286 
L 227.075 395.396527 
L 231.423 392.971906 
L 235.771 390.8436 
L 240.119 388.987751 
L 244.467 387.381585 
L 248.815 386.003494 
L 253.163 384.833077 
L 258.598 383.633003 
L 264.033 382.692792 
L 269.468 381.980623 
L 274.903 381.467518 
L 281.425 381.077767 
L 287.947 380.896485 
L 295.556 380.9013 
L 304.252 381.133151 
L 314.035 381.611026 
L 327.079 382.492865 
L 344.471 383.917305 
L 387.951 387.803788 
L 436.866 392.280838 
L 454.258 394.116089 
L 467.302 395.699296 
L 478.172 397.216549 
L 487.955 398.785197 
L 496.651 400.38186 
L 505.347 402.210462 
L 512.956 404.036794 
L 520.565 406.1109 
L 527.087 408.115595 
L 533.609 410.358587 
L 540.131 412.869944 
L 545.566 415.19132 
L 551.001 417.742246 
L 556.436 420.544533 
L 561.871 423.621321 
L 567.306 426.997029 
L 571.654 429.929986 
L 576.002 433.084212 
L 580.35 436.473661 
L 584.698 440.11256 
L 589.046 444.015298 
L 593.394 448.196287 
L 597.742 452.669784 
L 602.09 457.449681 
L 606.438 462.549237 
L 610.786 467.980755 
L 615.134 473.755185 
L 619.482 479.881652 
L 623.83 486.366864 
L 628.178 493.214406 
L 632.526 500.423875 
L 637.961 509.935738 
L 643.396 519.976472 
L 644.483 521.260606 
L 649.918 511.194702 
L 655.353 501.641575 
L 659.701 494.397638 
L 664.049 487.515437 
L 668.397 480.996185 
L 672.745 474.836953 
L 677.093 469.031564 
L 681.441 463.571329 
L 685.789 458.445646 
L 690.137 453.642498 
L 694.485 449.148855 
L 698.833 444.951012 
L 703.181 441.034864 
L 707.529 437.386123 
L 711.877 433.990504 
L 716.225 430.833869 
L 720.573 427.902341 
L 726.008 424.533922 
L 731.443 421.470657 
L 736.878 418.688255 
L 742.313 416.163707 
L 747.748 413.875344 
L 753.183 411.802866 
L 759.705 409.574294 
L 766.227 407.599229 
L 772.749 405.850192 
L 780.358 404.062223 
L 787.967 402.512674 
L 796.663 400.993746 
L 805.359 399.704785 
L 815.142 398.486255 
L 826.012 397.3709 
L 837.969 396.379368 
L 851.013 395.520965 
L 866.231 394.746943 
L 883.623 394.08654 
L 904.276 393.524494 
L 930.364 393.04723 
L 964.061 392.669814 
L 1009.715 392.39643 
L 1080.37 392.220381 
L 1133.633 392.170207 
L 1133.633 392.170207 
" clip-path="url(#pa616546849)" style="fill: none; stroke: #800080; stroke-width: 1.5; stroke-linecap: square"/>
   </g>
   <g id="line2d_26">
    <defs>
     <path id="mcd737b95bd" d="M 0 -7.5 
L -1.683855 -2.317627 
L -7.132924 -2.317627 
L -2.724534 0.885255 
L -4.408389 6.067627 
L -0 2.864745 
L 4.408389 6.067627 
L 2.724534 0.885255 
L 7.132924 -2.317627 
L 1.683855 -2.317627 
z
" style="stroke: #000000; stroke-linejoin: bevel"/>
    </defs>
    <g clip-path="url(#pa616546849)">
     <use xlink:href="#mcd737b95bd" x="291.208" y="380.872727" style="fill: #ffd700; stroke: #000000; stroke-linejoin: bevel"/>
    </g>
   </g>
   <g id="patch_9">
    <path d="M 47.72 528.28 
L 47.72 373.853333 
" style="fill: none; stroke: #000000; stroke-width: 0.8; stroke-linejoin: miter; stroke-linecap: square"/>
   </g>
   <g id="patch_10">
    <path d="M 1134.72 528.28 
L 1134.72 373.853333 
" style="fill: none; stroke: #000000; stroke-width: 0.8; stroke-linejoin: miter; stroke-linecap: square"/>
   </g>
   <g id="patch_11">
    <path d="M 47.72 528.28 
L 1134.72 528.28 
" style="fill: none; stroke: #000000; stroke-width: 0.8; stroke-linejoin: miter; stroke-linecap: square"/>
   </g>
   <g id="patch_12">
    <path d="M 47.72 373.853333 
L 1134.72 373.853333 
" style="fill: none; stroke: #000000; stroke-width: 0.8; stroke-linejoin: miter; stroke-linecap: square"/>
   </g>
  </g>
 </g>
 <defs>
  <clipPath id="pdec5b434f1">
   <rect x="47.72" y="17.28" width="1087" height="308.853333"/>
  </clipPath>
  <clipPath id="pa616546849">
   <rect x="47.72" y="373.853333" width="1087" height="154.426667"/>
  </clipPath>
 </defs>
</svg>
