<?xml version="1.0" encoding="utf-8" standalone="no"?>
<!DOCTYPE svg PUBLIC "-//W3C//DTD SVG 1.1//EN"
  "http://www.w3.org/Graphics/SVG/1.1/DTD/svg11.dtd">
<svg xmlns:xlink="http://www.w3.org/1999/xlink" width="1152pt" height="576pt" viewBox="0 0 1152 576" xmlns="http://www.w3.org/2000/svg" version="1.1">
 <metadata>
  <rdf:RDF xmlns:dc="http://purl.org/dc/elements/1.1/" xmlns:cc="http://creativecommons.org/ns#" xmlns:rdf="http://www.w3.org/1999/02/22-rdf-syntax-ns#">
   <cc:Work>
    <dc:type rdf:resource="http://purl.org/dc/dcmitype/StillImage"/>
    <dc:date>2024-12-10T16:13:59.898986</dc:date>
    <dc:format>image/svg+xml</dc:format>
    <dc:creator>
     <cc:Agent>
      <dc:title>Matplotlib v3.9.2, https://matplotlib.org/</dc:title>
     </cc:Agent>
    </dc:creator>
   </cc:Work>
  </rdf:RDF>
 </metadata>
 <defs>
  <style type="text/css">*{stroke-linejoin: round; stroke-linecap: butt}</style>
 </defs>
 <g id="figure_1">
  <g id="patch_1">
   <path d="M 0 576 
L 1152 576 
L 1152 0 
L 0 0 
z
" style="fill: #ffffff"/>
  </g>
  <g id="axes_1">
   <g id="patch_2">
    <path d="M 39.08 335.493333 
L 1141.2 335.493333 
L 1141.2 10.8 
L 39.08 10.8 
z
" style="fill: #ffffff"/>
   </g>
   <g id="patch_3">
    <path d="M 39.08 255.610668 
L 40.18212 257.584215 
L 41.28424 260.358498 
L 42.38636 263.043614 
L 43.48848 265.640469 
L 44.5906 268.150535 
L 45.69272 270.575409 
L 46.79484 272.916756 
L 47.89696 275.176285 
L 48.99908 277.355735 
L 50.1012 279.456873 
L 51.20332 281.48148 
L 52.30544 283.43135 
L 53.40756 285.308285 
L 54.50968 287.114084 
L 55.6118 288.850547 
L 56.71392 290.519467 
L 57.81604 292.122627 
L 58.91816 293.661797 
L 60.02028 295.138734 
L 61.1224 296.555174 
L 62.22452 297.912836 
L 63.32664 299.213416 
L 64.42876 300.458589 
L 65.53088 301.650003 
L 66.633 302.789282 
L 67.73512 303.878023 
L 68.83724 304.917793 
L 69.93936 305.910134 
L 71.04148 306.856557 
L 72.1436 307.758543 
L 73.24572 308.617544 
L 74.34784 309.434981 
L 75.44996 310.212244 
L 76.55208 310.950692 
L 77.6542 311.651654 
L 78.75632 312.316428 
L 79.85844 312.946281 
L 80.96056 313.542449 
L 82.06268 314.106136 
L 83.1648 314.638519 
L 84.26692 315.140741 
L 85.36904 315.613917 
L 86.47116 316.059134 
L 87.57328 316.477446 
L 88.6754 316.869881 
L 89.77752 317.237438 
L 90.87964 317.581085 
L 91.98176 317.901767 
L 93.08388 318.200399 
L 94.186 318.477868 
L 95.28812 318.735038 
L 96.39024 318.972744 
L 97.49236 319.191797 
L 98.59448 319.392983 
L 99.6966 319.577065 
L 100.79872 319.744778 
L 101.90084 319.896838 
L 103.00296 320.033936 
L 104.10508 320.15674 
L 105.2072 320.265898 
L 106.30932 320.362034 
L 107.41144 320.445754 
L 108.51356 320.517641 
L 109.61568 320.578261 
L 110.7178 320.628156 
L 111.81992 320.667854 
L 112.92204 320.697861 
L 114.02416 320.718667 
L 115.12628 320.730743 
L 116.2284 320.734545 
L 117.33052 320.730511 
L 118.43264 320.719062 
L 119.53476 320.700604 
L 120.63688 320.67553 
L 121.739 320.644214 
L 122.84112 320.607018 
L 123.94324 320.564291 
L 125.04536 320.516367 
L 126.14748 320.463566 
L 127.2496 320.406197 
L 128.35172 320.344555 
L 129.45384 320.278924 
L 130.55596 320.209577 
L 131.65808 320.136774 
L 132.7602 320.060765 
L 133.86232 319.981789 
L 134.96444 319.900076 
L 136.06656 319.815845 
L 137.16868 319.729305 
L 138.2708 319.640656 
L 139.37292 319.55009 
L 140.47504 319.45779 
L 141.57716 319.363929 
L 142.67928 319.268675 
L 143.7814 319.172185 
L 144.88352 319.07461 
L 145.98564 318.976095 
L 147.08776 318.876775 
L 148.18988 318.776781 
L 149.292 318.676236 
L 150.39412 318.575258 
L 151.49624 318.473956 
L 152.59836 318.372438 
L 153.70048 318.270802 
L 154.8026 318.169142 
L 155.90472 318.067548 
L 157.00684 317.966105 
L 158.10896 317.864891 
L 159.21108 317.763981 
L 160.3132 317.663446 
L 161.41532 317.563351 
L 162.51744 317.46376 
L 163.61956 317.36473 
L 164.72168 317.266316 
L 165.8238 317.168568 
L 166.92592 317.071535 
L 168.02804 316.97526 
L 169.13016 316.879785 
L 170.23228 316.785147 
L 171.3344 316.691382 
L 172.43652 316.598523 
L 173.53864 316.506598 
L 174.64076 316.415636 
L 175.74288 316.325662 
L 176.845 316.236697 
L 177.94712 316.148763 
L 179.04924 316.061879 
L 180.15136 315.976059 
L 181.25348 315.89132 
L 182.3556 315.807674 
L 183.45772 315.725132 
L 184.55984 315.643704 
L 185.66196 315.563397 
L 186.76408 315.484218 
L 187.8662 315.406173 
L 188.96832 315.329265 
L 190.07044 315.253497 
L 191.17256 315.17887 
L 192.27468 315.105385 
L 193.3768 315.033041 
L 194.47892 314.961837 
L 195.58104 314.89177 
L 196.68316 314.822836 
L 197.78528 314.755032 
L 198.8874 314.688352 
L 199.98952 314.622791 
L 201.09164 314.558343 
L 202.19376 314.495 
L 203.29588 314.432756 
L 204.398 314.371601 
L 205.50012 314.311528 
L 206.60224 314.252527 
L 207.70436 314.194589 
L 208.80648 314.137705 
L 209.9086 314.081863 
L 211.01072 314.027054 
L 212.11284 313.973266 
L 213.21496 313.920489 
L 214.31708 313.868711 
L 215.4192 313.817921 
L 216.52132 313.768106 
L 217.62344 313.719256 
L 218.72556 313.671357 
L 219.82768 313.624398 
L 220.9298 313.578366 
L 222.03192 313.533249 
L 223.13404 313.489035 
L 224.23616 313.44571 
L 225.33828 313.403262 
L 226.4404 313.361679 
L 227.54252 313.320948 
L 228.64464 313.281056 
L 229.74676 313.24199 
L 230.84888 313.203739 
L 231.951 313.166288 
L 233.05312 313.129627 
L 234.15524 313.093742 
L 235.25736 313.058621 
L 236.35948 313.024251 
L 237.4616 312.990621 
L 238.56372 312.957717 
L 239.66584 312.925529 
L 240.76796 312.894043 
L 241.87008 312.863248 
L 242.9722 312.833133 
L 244.07432 312.803685 
L 245.17644 312.774894 
L 246.27856 312.746746 
L 247.38068 312.719233 
L 248.4828 312.692341 
L 249.58492 312.66606 
L 250.68704 312.64038 
L 251.78916 312.615289 
L 252.89128 312.590777 
L 253.9934 312.566833 
L 255.09552 312.543448 
L 256.19764 312.52061 
L 257.29976 312.498311 
L 258.40188 312.476539 
L 259.504 312.455286 
L 260.60612 312.434542 
L 261.70824 312.414298 
L 262.81036 312.394544 
L 263.91248 312.375271 
L 265.0146 312.356471 
L 266.11672 312.338134 
L 267.21884 312.320252 
L 268.32096 312.302817 
L 269.42308 312.285821 
L 270.5252 312.269255 
L 271.62732 312.253111 
L 272.72944 312.237382 
L 273.83156 312.222059 
L 274.93368 312.207137 
L 276.0358 312.192606 
L 277.13792 312.17846 
L 278.24004 312.164693 
L 279.34216 312.151296 
L 280.44428 312.138264 
L 281.5464 312.12559 
L 282.64852 312.113268 
L 283.75064 312.10129 
L 284.85276 312.089652 
L 285.95488 312.078347 
L 287.057 312.06737 
L 288.15912 312.056714 
L 289.26124 312.046375 
L 290.36336 312.036346 
L 291.46548 312.026623 
L 292.5676 312.017201 
L 293.66972 312.008074 
L 294.77184 311.999238 
L 295.87396 311.990689 
L 296.97608 311.982421 
L 298.0782 311.97443 
L 299.18032 311.966712 
L 300.28244 311.959263 
L 301.38456 311.952079 
L 302.48668 311.945155 
L 303.5888 311.938489 
L 304.69092 311.932077 
L 305.79304 311.925915 
L 306.89516 311.919999 
L 307.99728 311.914327 
L 309.0994 311.908896 
L 310.20152 311.903702 
L 311.30364 311.898743 
L 312.40576 311.894015 
L 313.50788 311.889517 
L 314.61 311.885246 
L 315.71212 311.881199 
L 316.81424 311.877374 
L 317.91636 311.873769 
L 319.01848 311.870382 
L 320.1206 311.867212 
L 321.22272 311.864255 
L 322.32484 311.861511 
L 323.42696 311.858978 
L 324.52908 311.856655 
L 325.6312 311.85454 
L 326.73332 311.852632 
L 327.83544 311.85093 
L 328.93756 311.849433 
L 330.03968 311.84814 
L 331.1418 311.847051 
L 332.24392 311.846164 
L 333.34604 311.845478 
L 334.44816 311.844995 
L 335.55028 311.844713 
L 336.6524 311.844631 
L 337.75452 311.844751 
L 338.85664 311.845072 
L 339.95876 311.845593 
L 341.06088 311.846316 
L 342.163 311.84724 
L 343.26512 311.848366 
L 344.36724 311.849695 
L 345.46936 311.851227 
L 346.57148 311.852962 
L 347.6736 311.854902 
L 348.77572 311.857048 
L 349.87784 311.859401 
L 350.97996 311.861961 
L 352.08208 311.864731 
L 353.1842 311.867711 
L 354.28632 311.870904 
L 355.38844 311.87431 
L 356.49056 311.877931 
L 357.59268 311.88177 
L 358.6948 311.885828 
L 359.79692 311.890107 
L 360.89904 311.89461 
L 362.00116 311.899338 
L 363.10328 311.904294 
L 364.2054 311.909481 
L 365.30752 311.914901 
L 366.40964 311.920558 
L 367.51176 311.926452 
L 368.61388 311.932589 
L 369.716 311.93897 
L 370.81812 311.945599 
L 371.92024 311.95248 
L 373.02236 311.959615 
L 374.12448 311.967008 
L 375.2266 311.974663 
L 376.32872 311.982584 
L 377.43084 311.990774 
L 378.53296 311.999237 
L 379.63508 312.007978 
L 380.7372 312.017 
L 381.83932 312.026309 
L 382.94144 312.035908 
L 384.04356 312.045802 
L 385.14568 312.055996 
L 386.2478 312.066494 
L 387.34992 312.077302 
L 388.45204 312.088424 
L 389.55416 312.099866 
L 390.65628 312.111633 
L 391.7584 312.123731 
L 392.86052 312.136164 
L 393.96264 312.148938 
L 395.06476 312.16206 
L 396.16688 312.175534 
L 397.269 312.189368 
L 398.37112 312.203567 
L 399.47324 312.218137 
L 400.57536 312.233085 
L 401.67748 312.248416 
L 402.7796 312.264139 
L 403.88172 312.280258 
L 404.98384 312.296781 
L 406.08596 312.313715 
L 407.18808 312.331067 
L 408.2902 312.348843 
L 409.39232 312.367052 
L 410.49444 312.385699 
L 411.59656 312.404793 
L 412.69868 312.424341 
L 413.8008 312.44435 
L 414.90292 312.464829 
L 416.00504 312.485784 
L 417.10716 312.507223 
L 418.20928 312.529155 
L 419.3114 312.551587 
L 420.41352 312.574527 
L 421.51564 312.597983 
L 422.61776 312.621963 
L 423.71988 312.646476 
L 424.822 312.671529 
L 425.92412 312.697131 
L 427.02624 312.72329 
L 428.12836 312.750013 
L 429.23048 312.77731 
L 430.3326 312.805189 
L 431.43472 312.833657 
L 432.53684 312.862723 
L 433.63896 312.892395 
L 434.74108 312.922681 
L 435.8432 312.95359 
L 436.94532 312.985129 
L 438.04744 313.017306 
L 439.14956 313.05013 
L 440.25168 313.083607 
L 441.3538 313.117746 
L 442.45592 313.152553 
L 443.55804 313.188037 
L 444.66016 313.224205 
L 445.76228 313.261063 
L 446.8644 313.298618 
L 447.96652 313.336877 
L 449.06864 313.375845 
L 450.17076 313.41553 
L 451.27288 313.455937 
L 452.375 313.497071 
L 453.47712 313.538938 
L 454.57924 313.581541 
L 455.68136 313.624886 
L 456.78348 313.668975 
L 457.8856 313.713814 
L 458.98772 313.759403 
L 460.08984 313.805747 
L 461.19196 313.852847 
L 462.29408 313.900703 
L 463.3962 313.949317 
L 464.49832 313.998688 
L 465.60044 314.048817 
L 466.70256 314.0997 
L 467.80468 314.151336 
L 468.9068 314.203722 
L 470.00892 314.256853 
L 471.11104 314.310725 
L 472.21316 314.365331 
L 473.31528 314.420664 
L 474.4174 314.476717 
L 475.51952 314.533479 
L 476.62164 314.59094 
L 477.72376 314.649088 
L 478.82588 314.70791 
L 479.928 314.767391 
L 481.03012 314.827515 
L 482.13224 314.888264 
L 483.23436 314.949619 
L 484.33648 315.011558 
L 485.4386 315.074058 
L 486.54072 315.137094 
L 487.64284 315.20064 
L 488.74496 315.264666 
L 489.84708 315.329141 
L 490.9492 315.394032 
L 492.05132 315.459303 
L 493.15344 315.524915 
L 494.25556 315.590827 
L 495.35768 315.656997 
L 496.4598 315.723377 
L 497.56192 315.789919 
L 498.66404 315.856569 
L 499.76616 315.923271 
L 500.86828 315.989969 
L 501.9704 316.056597 
L 503.07252 316.123092 
L 504.17464 316.189383 
L 505.27676 316.255396 
L 506.37888 316.321054 
L 507.481 316.386275 
L 508.58312 316.450973 
L 509.68524 316.515058 
L 510.78736 316.578434 
L 511.88948 316.641001 
L 512.9916 316.702654 
L 514.09372 316.763283 
L 515.19584 316.822772 
L 516.29796 316.881 
L 517.40008 316.937839 
L 518.5022 316.993158 
L 519.60432 317.046816 
L 520.70644 317.098669 
L 521.80856 317.148563 
L 522.91068 317.196341 
L 524.0128 317.241837 
L 525.11492 317.284877 
L 526.21704 317.325281 
L 527.31916 317.362861 
L 528.42128 317.39742 
L 529.5234 317.428754 
L 530.62552 317.456651 
L 531.72764 317.480888 
L 532.82976 317.501236 
L 533.93188 317.517455 
L 535.034 317.529295 
L 536.13612 317.536499 
L 537.23824 317.538798 
L 538.34036 317.535913 
L 539.44248 317.527554 
L 540.5446 317.513422 
L 541.64672 317.493206 
L 542.74884 317.466582 
L 543.85096 317.433218 
L 544.95308 317.392767 
L 546.0552 317.344871 
L 547.15732 317.28916 
L 548.25944 317.225252 
L 549.36156 317.152751 
L 550.46368 317.071246 
L 551.5658 316.980317 
L 552.66792 316.879527 
L 553.77004 316.768427 
L 554.87216 316.646551 
L 555.97428 316.513421 
L 557.0764 316.368545 
L 558.17852 316.211414 
L 559.28064 316.041506 
L 560.38276 315.858282 
L 561.48488 315.66119 
L 562.587 315.449659 
L 563.68912 315.223106 
L 564.79124 314.98093 
L 565.89336 314.722515 
L 566.99548 314.44723 
L 568.0976 314.154426 
L 569.19972 313.84344 
L 570.30184 313.513593 
L 571.40396 313.164189 
L 572.50608 312.794517 
L 573.6082 312.403852 
L 574.71032 311.991453 
L 575.81244 311.556562 
L 576.91456 311.098411 
L 578.01668 310.616213 
L 579.1188 310.109171 
L 580.22092 309.576473 
L 581.32304 309.017297 
L 582.42516 308.430807 
L 583.52728 307.816158 
L 584.6294 307.172496 
L 585.73152 306.498956 
L 586.83364 305.794669 
L 587.93576 305.058758 
L 589.03788 304.290345 
L 590.14 303.488546 
L 591.24212 302.652481 
L 592.34424 301.78127 
L 593.44636 300.874038 
L 594.54848 299.929919 
L 595.6506 298.948057 
L 596.75272 297.927609 
L 597.85484 296.867754 
L 598.95696 295.767691 
L 600.05908 294.626648 
L 601.1612 293.443885 
L 602.26332 292.218702 
L 603.36544 290.950443 
L 604.46756 289.638509 
L 605.56968 288.282358 
L 606.6718 286.881522 
L 607.77392 285.435613 
L 608.87604 283.944337 
L 609.97816 282.407505 
L 611.08028 280.82505 
L 612.1824 279.19704 
L 613.28452 277.523704 
L 614.38664 275.805446 
L 615.48876 274.042873 
L 616.59088 272.236824 
L 617.693 270.388402 
L 618.79512 268.49901 
L 619.89724 266.570396 
L 620.99936 264.604706 
L 622.10148 262.604543 
L 623.2036 260.573042 
L 624.30572 258.513955 
L 625.40784 256.431762 
L 626.50996 254.331801 
L 627.61208 252.220437 
L 628.7142 250.105279 
L 629.81632 247.995475 
L 630.91844 245.902169 
L 632.02056 243.839783 
L 633.12268 242.334904 
L 634.2248 243.257923 
L 635.32692 243.829529 
L 636.42904 244.036237 
L 637.53116 243.880908 
L 638.63328 243.369347 
L 639.7354 242.509998 
L 640.83752 241.313993 
L 641.93964 239.795333 
L 643.04176 237.971523 
L 644.14388 236.401196 
L 645.246 237.212407 
L 646.34812 238.053084 
L 647.45024 238.892282 
L 648.55236 239.709322 
L 649.65448 240.486661 
L 650.7566 241.209124 
L 651.85872 241.86345 
L 652.96084 242.43796 
L 654.06296 242.922306 
L 655.16508 243.307273 
L 656.2672 243.584619 
L 657.36932 243.746944 
L 658.47144 243.787591 
L 659.57356 243.700552 
L 660.67568 243.480398 
L 661.7778 243.12222 
L 662.87992 242.621576 
L 663.98204 241.974447 
L 665.08416 241.177203 
L 666.18628 240.226576 
L 667.2884 239.119628 
L 668.39052 237.853741 
L 669.49264 236.426594 
L 670.59476 234.836156 
L 671.69688 233.080677 
L 672.799 231.158683 
L 673.90112 229.068978 
L 675.00324 226.810645 
L 676.10536 224.383052 
L 677.20748 221.785864 
L 678.3096 219.019055 
L 679.41172 216.082926 
L 680.51384 212.978126 
L 681.61596 209.705685 
L 682.71808 206.267046 
L 683.8202 202.664124 
L 684.92232 198.899434 
L 686.02444 194.976969 
L 687.12656 192.184044 
L 688.22868 192.401557 
L 689.3308 192.500041 
L 690.43292 192.472348 
L 691.53504 192.316382 
L 692.63716 192.030795 
L 693.73928 191.614744 
L 694.8414 191.067808 
L 695.94352 190.389942 
L 697.04564 189.581441 
L 698.14776 188.642911 
L 699.24988 187.575243 
L 700.352 186.379593 
L 701.45412 185.057364 
L 702.55624 183.610194 
L 703.65836 182.039942 
L 704.76048 180.34868 
L 705.8626 178.538685 
L 706.96472 176.612434 
L 708.06684 174.572601 
L 709.16896 172.422053 
L 710.27108 170.163855 
L 711.3732 167.801265 
L 712.47532 165.33774 
L 713.57744 162.776942 
L 714.67956 160.122739 
L 715.78168 157.379215 
L 716.8838 154.550677 
L 717.98592 151.641665 
L 719.08804 148.656963 
L 720.19016 145.60161 
L 721.29228 142.480914 
L 722.3944 139.300466 
L 723.49652 136.06616 
L 724.59864 132.784207 
L 725.70076 129.461155 
L 726.80288 126.103914 
L 727.905 122.719777 
L 729.00712 119.31645 
L 730.10924 115.902089 
L 731.21136 112.485368 
L 732.31348 109.075769 
L 733.4156 105.697773 
L 734.51772 106.862047 
L 735.61984 108.68925 
L 736.72196 110.617118 
L 737.82408 112.635435 
L 738.9262 114.735144 
L 740.02832 116.907866 
L 741.13044 119.1458 
L 742.23256 121.441673 
L 743.33468 123.788698 
L 744.4368 126.18054 
L 745.53892 128.611288 
L 746.64104 131.075427 
L 747.74316 133.56781 
L 748.84528 136.083635 
L 749.9474 138.618426 
L 751.04952 141.168011 
L 752.15164 143.728504 
L 753.25376 146.296285 
L 754.35588 148.867989 
L 755.458 151.440485 
L 756.56012 154.010867 
L 757.66224 156.576436 
L 758.76436 159.134691 
L 759.86648 161.683316 
L 760.9686 164.22017 
L 762.07072 166.743274 
L 763.17284 169.250806 
L 764.27496 171.741087 
L 765.37708 174.212575 
L 766.4792 176.663858 
L 767.58132 179.093643 
L 768.68344 181.500752 
L 769.78556 183.884114 
L 770.88768 186.242758 
L 771.9898 188.575807 
L 773.09192 190.882475 
L 774.19404 193.162058 
L 775.29616 195.41393 
L 776.39828 197.637541 
L 777.5004 199.832408 
L 778.60252 201.998114 
L 779.70464 204.134301 
L 780.80676 206.24067 
L 781.90888 208.316974 
L 783.011 210.363018 
L 784.11312 212.378651 
L 785.21524 214.363767 
L 786.31736 216.318302 
L 787.41948 218.242226 
L 788.5216 220.135549 
L 789.62372 221.998312 
L 790.72584 223.830585 
L 791.82796 225.63247 
L 792.93008 227.404091 
L 794.0322 229.145602 
L 795.13432 230.857173 
L 796.23644 232.539001 
L 797.33856 234.191299 
L 798.44068 235.814297 
L 799.5428 237.408243 
L 800.64492 238.9734 
L 801.74704 240.510042 
L 802.84916 242.018458 
L 803.95128 243.498946 
L 805.0534 244.951816 
L 806.15552 246.377386 
L 807.25764 247.775982 
L 808.35976 249.147936 
L 809.46188 250.493588 
L 810.564 251.813283 
L 811.66612 253.10737 
L 812.76824 254.376203 
L 813.87036 255.620139 
L 814.97248 256.839537 
L 816.0746 258.034758 
L 817.17672 259.206166 
L 818.27884 260.354124 
L 819.38096 261.478999 
L 820.48308 262.581153 
L 821.5852 263.660953 
L 822.68732 264.718761 
L 823.78944 265.754941 
L 824.89156 266.769855 
L 825.99368 267.763862 
L 827.0958 268.73732 
L 828.19792 269.690584 
L 829.30004 270.624009 
L 830.40216 271.537944 
L 831.50428 272.432738 
L 832.6064 273.308734 
L 833.70852 274.166274 
L 834.81064 275.005697 
L 835.91276 275.827336 
L 837.01488 276.631522 
L 838.117 277.418583 
L 839.21912 278.188841 
L 840.32124 278.942615 
L 841.42336 279.680221 
L 842.52548 280.401969 
L 843.6276 281.108167 
L 844.72972 281.799116 
L 845.83184 282.475115 
L 846.93396 283.136459 
L 848.03608 283.783435 
L 849.1382 284.416331 
L 850.24032 285.035427 
L 851.34244 285.640999 
L 852.44456 286.233319 
L 853.54668 286.812656 
L 854.6488 287.379272 
L 855.75092 287.933427 
L 856.85304 288.475375 
L 857.95516 289.005367 
L 859.05728 289.52365 
L 860.1594 290.030463 
L 861.26152 290.526047 
L 862.36364 291.010632 
L 863.46576 291.48445 
L 864.56788 291.947725 
L 865.67 292.400678 
L 866.77212 292.843526 
L 867.87424 293.276482 
L 868.97636 293.699755 
L 870.07848 294.113549 
L 871.1806 294.518067 
L 872.28272 294.913505 
L 873.38484 295.300057 
L 874.48696 295.677913 
L 875.58908 296.04726 
L 876.6912 296.408279 
L 877.79332 296.761149 
L 878.89544 297.106047 
L 879.99756 297.443144 
L 881.09968 297.772609 
L 882.2018 298.094607 
L 883.30392 298.4093 
L 884.40604 298.716847 
L 885.50816 299.017403 
L 886.61028 299.311121 
L 887.7124 299.598149 
L 888.81452 299.878635 
L 889.91664 300.152721 
L 891.01876 300.420548 
L 892.12088 300.682253 
L 893.223 300.937971 
L 894.32512 301.187833 
L 895.42724 301.431969 
L 896.52936 301.670504 
L 897.63148 301.903564 
L 898.7336 302.131268 
L 899.83572 302.353736 
L 900.93784 302.571083 
L 902.03996 302.783423 
L 903.14208 302.990869 
L 904.2442 303.193527 
L 905.34632 303.391506 
L 906.44844 303.58491 
L 907.55056 303.77384 
L 908.65268 303.958397 
L 909.7548 304.138679 
L 910.85692 304.31478 
L 911.95904 304.486796 
L 913.06116 304.654817 
L 914.16328 304.818934 
L 915.2654 304.979234 
L 916.36752 305.135804 
L 917.46964 305.288726 
L 918.57176 305.438084 
L 919.67388 305.583958 
L 920.776 305.726426 
L 921.87812 305.865566 
L 922.98024 306.001453 
L 924.08236 306.13416 
L 925.18448 306.263761 
L 926.2866 306.390324 
L 927.38872 306.51392 
L 928.49084 306.634615 
L 929.59296 306.752477 
L 930.69508 306.867568 
L 931.7972 306.979953 
L 932.89932 307.089693 
L 934.00144 307.196849 
L 935.10356 307.301479 
L 936.20568 307.403642 
L 937.3078 307.503393 
L 938.40992 307.600789 
L 939.51204 307.695882 
L 940.61416 307.788727 
L 941.71628 307.879374 
L 942.8184 307.967875 
L 943.92052 308.054278 
L 945.02264 308.138631 
L 946.12476 308.220983 
L 947.22688 308.301379 
L 948.329 308.379864 
L 949.43112 308.456483 
L 950.53324 308.531279 
L 951.63536 308.604293 
L 952.73748 308.675567 
L 953.8396 308.745142 
L 954.94172 308.813057 
L 956.04384 308.87935 
L 957.14596 308.944058 
L 958.24808 309.00722 
L 959.3502 309.068871 
L 960.45232 309.129045 
L 961.55444 309.187778 
L 962.65656 309.245103 
L 963.75868 309.301053 
L 964.8608 309.35566 
L 965.96292 309.408955 
L 967.06504 309.460969 
L 968.16716 309.511733 
L 969.26928 309.561274 
L 970.3714 309.609623 
L 971.47352 309.656807 
L 972.57564 309.702853 
L 973.67776 309.747788 
L 974.77988 309.791638 
L 975.882 309.834429 
L 976.98412 309.876186 
L 978.08624 309.916933 
L 979.18836 309.956693 
L 980.29048 309.995491 
L 981.3926 310.033348 
L 982.49472 310.070288 
L 983.59684 310.106332 
L 984.69896 310.1415 
L 985.80108 310.175815 
L 986.9032 310.209295 
L 988.00532 310.241961 
L 989.10744 310.273832 
L 990.20956 310.304928 
L 991.31168 310.335265 
L 992.4138 310.364864 
L 993.51592 310.39374 
L 994.61804 310.421912 
L 995.72016 310.449395 
L 996.82228 310.476207 
L 997.9244 310.502364 
L 999.02652 310.527881 
L 1000.12864 310.552773 
L 1001.23076 310.577056 
L 1002.33288 310.600744 
L 1003.435 310.623851 
L 1004.53712 310.646391 
L 1005.63924 310.668379 
L 1006.74136 310.689826 
L 1007.84348 310.710746 
L 1008.9456 310.731152 
L 1010.04772 310.751056 
L 1011.14984 310.77047 
L 1012.25196 310.789406 
L 1013.35408 310.807876 
L 1014.4562 310.82589 
L 1015.55832 310.84346 
L 1016.66044 310.860597 
L 1017.76256 310.87731 
L 1018.86468 310.893611 
L 1019.9668 310.909509 
L 1021.06892 310.925013 
L 1022.17104 310.940135 
L 1023.27316 310.954881 
L 1024.37528 310.969263 
L 1025.4774 310.983288 
L 1026.57952 310.996966 
L 1027.68164 311.010304 
L 1028.78376 311.023312 
L 1029.88588 311.035996 
L 1030.988 311.048365 
L 1032.09012 311.060427 
L 1033.19224 311.072189 
L 1034.29436 311.083659 
L 1035.39648 311.094843 
L 1036.4986 311.105749 
L 1037.60072 311.116382 
L 1038.70284 311.126751 
L 1039.80496 311.136862 
L 1040.90708 311.14672 
L 1042.0092 311.156332 
L 1043.11132 311.165704 
L 1044.21344 311.174842 
L 1045.31556 311.183751 
L 1046.41768 311.192438 
L 1047.5198 311.200908 
L 1048.62192 311.209165 
L 1049.72404 311.217216 
L 1050.82616 311.225065 
L 1051.92828 311.232718 
L 1053.0304 311.240178 
L 1054.13252 311.247452 
L 1055.23464 311.254542 
L 1056.33676 311.261455 
L 1057.43888 311.268195 
L 1058.541 311.274765 
L 1059.64312 311.281169 
L 1060.74524 311.287413 
L 1061.84736 311.2935 
L 1062.94948 311.299433 
L 1064.0516 311.305217 
L 1065.15372 311.310856 
L 1066.25584 311.316352 
L 1067.35796 311.32171 
L 1068.46008 311.326932 
L 1069.5622 311.332023 
L 1070.66432 311.336985 
L 1071.76644 311.341823 
L 1072.86856 311.346537 
L 1073.97068 311.351133 
L 1075.0728 311.355613 
L 1076.17492 311.359979 
L 1077.27704 311.364235 
L 1078.37916 311.368383 
L 1079.48128 311.372426 
L 1080.5834 311.376366 
L 1081.68552 311.380207 
L 1082.78764 311.38395 
L 1083.88976 311.387599 
L 1084.99188 311.391155 
L 1086.094 311.39462 
L 1087.19612 311.397998 
L 1088.29824 311.40129 
L 1089.40036 311.404498 
L 1090.50248 311.407625 
L 1091.6046 311.410672 
L 1092.70672 311.413642 
L 1093.80884 311.416536 
L 1094.91096 311.419356 
L 1096.01308 311.422105 
L 1097.1152 311.424784 
L 1098.21732 311.427394 
L 1099.31944 311.429938 
L 1100.42156 311.432417 
L 1101.52368 311.434833 
L 1102.6258 311.437187 
L 1103.72792 311.439481 
L 1104.83004 311.441716 
L 1105.93216 311.443895 
L 1107.03428 311.446017 
L 1108.1364 311.448086 
L 1109.23852 311.450102 
L 1110.34064 311.452066 
L 1111.44276 311.453979 
L 1112.54488 311.455844 
L 1113.647 311.457661 
L 1114.74912 311.459432 
L 1115.85124 311.461157 
L 1116.95336 311.462838 
L 1118.05548 311.464476 
L 1119.1576 311.466072 
L 1120.25972 311.467627 
L 1121.36184 311.469142 
L 1122.46396 311.470618 
L 1123.56608 311.472056 
L 1124.6682 311.473458 
L 1125.77032 311.474823 
L 1126.87244 311.476153 
L 1127.97456 311.477449 
L 1129.07668 311.478712 
L 1130.1788 311.479943 
L 1131.28092 311.481141 
L 1132.38304 311.482309 
L 1133.48516 311.483447 
L 1134.58728 311.484555 
L 1135.6894 311.485635 
L 1136.79152 311.486687 
L 1137.89364 311.487712 
L 1138.99576 311.48871 
L 1140.09788 311.489683 
L 1140.09788 110.838347 
L 1138.99576 110.837375 
L 1137.89364 110.836377 
L 1136.79152 110.835353 
L 1135.6894 110.834301 
L 1134.58728 110.833222 
L 1133.48516 110.832114 
L 1132.38304 110.830977 
L 1131.28092 110.82981 
L 1130.1788 110.828612 
L 1129.07668 110.827383 
L 1127.97456 110.826121 
L 1126.87244 110.824826 
L 1125.77032 110.823496 
L 1124.6682 110.822132 
L 1123.56608 110.820731 
L 1122.46396 110.819294 
L 1121.36184 110.817819 
L 1120.25972 110.816305 
L 1119.1576 110.814752 
L 1118.05548 110.813157 
L 1116.95336 110.81152 
L 1115.85124 110.809841 
L 1114.74912 110.808117 
L 1113.647 110.806348 
L 1112.54488 110.804533 
L 1111.44276 110.80267 
L 1110.34064 110.800758 
L 1109.23852 110.798796 
L 1108.1364 110.796783 
L 1107.03428 110.794716 
L 1105.93216 110.792596 
L 1104.83004 110.79042 
L 1103.72792 110.788187 
L 1102.6258 110.785896 
L 1101.52368 110.783545 
L 1100.42156 110.781132 
L 1099.31944 110.778656 
L 1098.21732 110.776116 
L 1097.1152 110.773509 
L 1096.01308 110.770834 
L 1094.91096 110.768089 
L 1093.80884 110.765273 
L 1092.70672 110.762383 
L 1091.6046 110.759418 
L 1090.50248 110.756376 
L 1089.40036 110.753254 
L 1088.29824 110.750051 
L 1087.19612 110.746765 
L 1086.094 110.743393 
L 1084.99188 110.739934 
L 1083.88976 110.736385 
L 1082.78764 110.732743 
L 1081.68552 110.729007 
L 1080.5834 110.725174 
L 1079.48128 110.721242 
L 1078.37916 110.717207 
L 1077.27704 110.713068 
L 1076.17492 110.708822 
L 1075.0728 110.704466 
L 1073.97068 110.699997 
L 1072.86856 110.695412 
L 1071.76644 110.690709 
L 1070.66432 110.685885 
L 1069.5622 110.680935 
L 1068.46008 110.675858 
L 1067.35796 110.67065 
L 1066.25584 110.665307 
L 1065.15372 110.659827 
L 1064.0516 110.654205 
L 1062.94948 110.648439 
L 1061.84736 110.642524 
L 1060.74524 110.636457 
L 1059.64312 110.630234 
L 1058.541 110.623851 
L 1057.43888 110.617303 
L 1056.33676 110.610588 
L 1055.23464 110.603701 
L 1054.13252 110.596636 
L 1053.0304 110.589391 
L 1051.92828 110.58196 
L 1050.82616 110.574338 
L 1049.72404 110.566522 
L 1048.62192 110.558505 
L 1047.5198 110.550284 
L 1046.41768 110.541853 
L 1045.31556 110.533206 
L 1044.21344 110.524338 
L 1043.11132 110.515245 
L 1042.0092 110.505919 
L 1040.90708 110.496356 
L 1039.80496 110.48655 
L 1038.70284 110.476494 
L 1037.60072 110.466182 
L 1036.4986 110.455608 
L 1035.39648 110.444766 
L 1034.29436 110.433648 
L 1033.19224 110.422249 
L 1032.09012 110.410561 
L 1030.988 110.398576 
L 1029.88588 110.386288 
L 1028.78376 110.37369 
L 1027.68164 110.360772 
L 1026.57952 110.347529 
L 1025.4774 110.333951 
L 1024.37528 110.320031 
L 1023.27316 110.30576 
L 1022.17104 110.291129 
L 1021.06892 110.27613 
L 1019.9668 110.260754 
L 1018.86468 110.244991 
L 1017.76256 110.228832 
L 1016.66044 110.212268 
L 1015.55832 110.195289 
L 1014.4562 110.177884 
L 1013.35408 110.160043 
L 1012.25196 110.141756 
L 1011.14984 110.123012 
L 1010.04772 110.1038 
L 1008.9456 110.084108 
L 1007.84348 110.063926 
L 1006.74136 110.04324 
L 1005.63924 110.02204 
L 1004.53712 110.000312 
L 1003.435 109.978044 
L 1002.33288 109.955224 
L 1001.23076 109.931837 
L 1000.12864 109.907871 
L 999.02652 109.883311 
L 997.9244 109.858144 
L 996.82228 109.832356 
L 995.72016 109.80593 
L 994.61804 109.778852 
L 993.51592 109.751108 
L 992.4138 109.72268 
L 991.31168 109.693553 
L 990.20956 109.663711 
L 989.10744 109.633136 
L 988.00532 109.601812 
L 986.9032 109.569721 
L 985.80108 109.536845 
L 984.69896 109.503165 
L 983.59684 109.468663 
L 982.49472 109.43332 
L 981.3926 109.397116 
L 980.29048 109.360031 
L 979.18836 109.322046 
L 978.08624 109.283138 
L 976.98412 109.243287 
L 975.882 109.202472 
L 974.77988 109.160669 
L 973.67776 109.117857 
L 972.57564 109.074012 
L 971.47352 109.029111 
L 970.3714 108.98313 
L 969.26928 108.936044 
L 968.16716 108.887829 
L 967.06504 108.838458 
L 965.96292 108.787905 
L 964.8608 108.736145 
L 963.75868 108.68315 
L 962.65656 108.628892 
L 961.55444 108.573343 
L 960.45232 108.516475 
L 959.3502 108.458258 
L 958.24808 108.398662 
L 957.14596 108.337657 
L 956.04384 108.275212 
L 954.94172 108.211295 
L 953.8396 108.145873 
L 952.73748 108.078915 
L 951.63536 108.010387 
L 950.53324 107.940254 
L 949.43112 107.868483 
L 948.329 107.795036 
L 947.22688 107.71988 
L 946.12476 107.642976 
L 945.02264 107.564289 
L 943.92052 107.483779 
L 942.8184 107.401408 
L 941.71628 107.317137 
L 940.61416 107.230927 
L 939.51204 107.142735 
L 938.40992 107.052522 
L 937.3078 106.960245 
L 936.20568 106.865861 
L 935.10356 106.769327 
L 934.00144 106.670599 
L 932.89932 106.569633 
L 931.7972 106.466381 
L 930.69508 106.360799 
L 929.59296 106.25284 
L 928.49084 106.142455 
L 927.38872 106.029597 
L 926.2866 105.914217 
L 925.18448 105.796264 
L 924.08236 105.675688 
L 922.98024 105.552438 
L 921.87812 105.426463 
L 920.776 105.297709 
L 919.67388 105.166123 
L 918.57176 105.031652 
L 917.46964 104.894241 
L 916.36752 104.753834 
L 915.2654 104.610376 
L 914.16328 104.46381 
L 913.06116 104.314078 
L 911.95904 104.161124 
L 910.85692 104.004888 
L 909.7548 103.845312 
L 908.65268 103.682336 
L 907.55056 103.515899 
L 906.44844 103.345941 
L 905.34632 103.172401 
L 904.2442 102.995217 
L 903.14208 102.814327 
L 902.03996 102.629668 
L 900.93784 102.441177 
L 899.83572 102.248791 
L 898.7336 102.052446 
L 897.63148 101.852078 
L 896.52936 101.647622 
L 895.42724 101.439015 
L 894.32512 101.22619 
L 893.223 101.009084 
L 892.12088 100.787631 
L 891.01876 100.561767 
L 889.91664 100.331425 
L 888.81452 100.096542 
L 887.7124 99.857052 
L 886.61028 99.612891 
L 885.50816 99.363994 
L 884.40604 99.110297 
L 883.30392 98.851737 
L 882.2018 98.58825 
L 881.09968 98.319774 
L 879.99756 98.046246 
L 878.89544 97.767607 
L 877.79332 97.483794 
L 876.6912 97.194749 
L 875.58908 96.900412 
L 874.48696 96.600728 
L 873.38484 96.29564 
L 872.28272 95.985093 
L 871.1806 95.669034 
L 870.07848 95.347412 
L 868.97636 95.020177 
L 867.87424 94.687281 
L 866.77212 94.348678 
L 865.67 94.004325 
L 864.56788 93.654181 
L 863.46576 93.298207 
L 862.36364 92.936368 
L 861.26152 92.56863 
L 860.1594 92.194964 
L 859.05728 91.815343 
L 857.95516 91.429744 
L 856.85304 91.038149 
L 855.75092 90.640541 
L 854.6488 90.23691 
L 853.54668 89.827248 
L 852.44456 89.411555 
L 851.34244 88.989833 
L 850.24032 88.562089 
L 849.1382 88.128338 
L 848.03608 87.6886 
L 846.93396 87.242899 
L 845.83184 86.791267 
L 844.72972 86.333744 
L 843.6276 85.870375 
L 842.52548 85.401212 
L 841.42336 84.926318 
L 840.32124 84.44576 
L 839.21912 83.959617 
L 838.117 83.467975 
L 837.01488 82.97093 
L 835.91276 82.468587 
L 834.81064 81.961063 
L 833.70852 81.448483 
L 832.6064 80.930985 
L 831.50428 80.40872 
L 830.40216 79.881847 
L 829.30004 79.350541 
L 828.19792 78.814989 
L 827.0958 78.275393 
L 825.99368 77.731967 
L 824.89156 77.184941 
L 823.78944 76.634562 
L 822.68732 76.081091 
L 821.5852 75.524807 
L 820.48308 74.966006 
L 819.38096 74.405001 
L 818.27884 73.842125 
L 817.17672 73.277732 
L 816.0746 72.712194 
L 814.97248 72.145904 
L 813.87036 71.579279 
L 812.76824 71.012755 
L 811.66612 70.446796 
L 810.564 69.881887 
L 809.46188 69.318539 
L 808.35976 68.757289 
L 807.25764 68.198701 
L 806.15552 67.643369 
L 805.0534 67.091911 
L 803.95128 66.544981 
L 802.84916 66.003258 
L 801.74704 65.467457 
L 800.64492 64.938325 
L 799.5428 64.416642 
L 798.44068 63.903225 
L 797.33856 63.398924 
L 796.23644 62.904631 
L 795.13432 62.421272 
L 794.0322 61.949817 
L 792.93008 61.491274 
L 791.82796 61.046694 
L 790.72584 60.617172 
L 789.62372 60.203848 
L 788.5216 59.807907 
L 787.41948 59.430582 
L 786.31736 59.073156 
L 785.21524 58.736959 
L 784.11312 58.423376 
L 783.011 58.133842 
L 781.90888 57.869846 
L 780.80676 57.632936 
L 779.70464 57.424713 
L 778.60252 57.246839 
L 777.5004 57.101033 
L 776.39828 56.989077 
L 775.29616 56.912816 
L 774.19404 56.874156 
L 773.09192 56.875071 
L 771.9898 56.917598 
L 770.88768 57.003846 
L 769.78556 57.135988 
L 768.68344 57.316269 
L 767.58132 57.547006 
L 766.4792 57.830587 
L 765.37708 58.169472 
L 764.27496 58.566196 
L 763.17284 59.023367 
L 762.07072 59.543668 
L 760.9686 60.12986 
L 759.86648 60.784777 
L 758.76436 61.511327 
L 757.66224 62.312498 
L 756.56012 63.191349 
L 755.458 64.151015 
L 754.35588 65.194703 
L 753.25376 66.325693 
L 752.15164 67.547333 
L 751.04952 68.863041 
L 749.9474 70.276297 
L 748.84528 71.790642 
L 747.74316 73.409676 
L 746.64104 75.137049 
L 745.53892 76.976458 
L 744.4368 78.931638 
L 743.33468 81.006354 
L 742.23256 83.204394 
L 741.13044 85.529554 
L 740.02832 87.985629 
L 738.9262 90.576391 
L 737.82408 93.305573 
L 736.72196 96.176833 
L 735.61984 99.193675 
L 734.51772 102.358989 
L 733.4156 105.124175 
L 732.31348 103.617309 
L 731.21136 102.337147 
L 730.10924 101.293227 
L 729.00712 100.480638 
L 727.905 99.894188 
L 726.80288 99.528667 
L 725.70076 99.378891 
L 724.59864 99.439715 
L 723.49652 99.706041 
L 722.3944 100.172816 
L 721.29228 100.835036 
L 720.19016 101.687742 
L 719.08804 102.726017 
L 717.98592 103.944983 
L 716.8838 105.339797 
L 715.78168 106.905642 
L 714.67956 108.637724 
L 713.57744 110.531261 
L 712.47532 112.581476 
L 711.3732 114.783585 
L 710.27108 117.132788 
L 709.16896 119.624259 
L 708.06684 122.253128 
L 706.96472 125.014471 
L 705.8626 127.903293 
L 704.76048 130.91451 
L 703.65836 134.042936 
L 702.55624 137.283256 
L 701.45412 140.630012 
L 700.352 144.077573 
L 699.24988 147.620118 
L 698.14776 151.251598 
L 697.04564 154.965717 
L 695.94352 158.75589 
L 694.8414 162.615214 
L 693.73928 166.536419 
L 692.63716 170.511834 
L 691.53504 174.533324 
L 690.43292 178.592235 
L 689.3308 182.679292 
L 688.22868 186.78434 
L 687.12656 190.892025 
L 686.02444 191.865332 
L 684.92232 191.585603 
L 683.8202 191.345094 
L 682.71808 191.15262 
L 681.61596 191.015346 
L 680.51384 190.939675 
L 679.41172 190.931377 
L 678.3096 190.995653 
L 677.20748 191.137175 
L 676.10536 191.360122 
L 675.00324 191.668206 
L 673.90112 192.06469 
L 672.799 192.552411 
L 671.69688 193.133793 
L 670.59476 193.810854 
L 669.49264 194.585215 
L 668.39052 195.458103 
L 667.2884 196.430349 
L 666.18628 197.502385 
L 665.08416 198.674235 
L 663.98204 199.945502 
L 662.87992 201.315352 
L 661.7778 202.782494 
L 660.67568 204.345147 
L 659.57356 206.001016 
L 658.47144 207.747242 
L 657.36932 209.580359 
L 656.2672 211.496233 
L 655.16508 213.489993 
L 654.06296 215.555942 
L 652.96084 217.687457 
L 651.85872 219.876859 
L 650.7566 222.115258 
L 649.65448 224.392354 
L 648.55236 226.696187 
L 647.45024 229.012805 
L 646.34812 231.325812 
L 645.246 233.615607 
L 644.14388 235.85224 
L 643.04176 235.684121 
L 641.93964 235.234855 
L 640.83752 235.055823 
L 639.7354 235.157164 
L 638.63328 235.545404 
L 637.53116 236.22408 
L 636.42904 237.193904 
L 635.32692 238.452801 
L 634.2248 239.99559 
L 633.12268 241.800563 
L 632.02056 241.08135 
L 630.91844 239.709811 
L 629.81632 238.21729 
L 628.7142 236.622777 
L 627.61208 234.941801 
L 626.50996 233.18771 
L 625.40784 231.372142 
L 624.30572 229.505324 
L 623.2036 227.596296 
L 622.10148 225.653081 
L 620.99936 223.682829 
L 619.89724 221.69193 
L 618.79512 219.6861 
L 617.693 217.670469 
L 616.59088 215.64964 
L 615.48876 213.627749 
L 614.38664 211.608512 
L 613.28452 209.595268 
L 612.1824 207.591016 
L 611.08028 205.598447 
L 609.97816 203.619971 
L 608.87604 201.657747 
L 607.77392 199.713702 
L 606.6718 197.789551 
L 605.56968 195.886818 
L 604.46756 194.006851 
L 603.36544 192.150836 
L 602.26332 190.319813 
L 601.1612 188.514686 
L 600.05908 186.736235 
L 598.95696 184.985128 
L 597.85484 183.261926 
L 596.75272 181.567097 
L 595.6506 179.901021 
L 594.54848 178.263996 
L 593.44636 176.656249 
L 592.34424 175.077936 
L 591.24212 173.529153 
L 590.14 172.009941 
L 589.03788 170.520287 
L 587.93576 169.060132 
L 586.83364 167.629373 
L 585.73152 166.227869 
L 584.6294 164.855442 
L 583.52728 163.511883 
L 582.42516 162.196952 
L 581.32304 160.910386 
L 580.22092 159.651894 
L 579.1188 158.421167 
L 578.01668 157.217875 
L 576.91456 156.041672 
L 575.81244 154.892197 
L 574.71032 153.769076 
L 573.6082 152.671921 
L 572.50608 151.600339 
L 571.40396 150.553924 
L 570.30184 149.532265 
L 569.19972 148.534944 
L 568.0976 147.56154 
L 566.99548 146.611627 
L 565.89336 145.684776 
L 564.79124 144.780556 
L 563.68912 143.898536 
L 562.587 143.038285 
L 561.48488 142.199372 
L 560.38276 141.381365 
L 559.28064 140.583837 
L 558.17852 139.806362 
L 557.0764 139.048516 
L 555.97428 138.309878 
L 554.87216 137.590034 
L 553.77004 136.888568 
L 552.66792 136.205074 
L 551.5658 135.539148 
L 550.46368 134.890389 
L 549.36156 134.258406 
L 548.25944 133.64281 
L 547.15732 133.043216 
L 546.0552 132.459249 
L 544.95308 131.890537 
L 543.85096 131.336715 
L 542.74884 130.797423 
L 541.64672 130.272308 
L 540.5446 129.761023 
L 539.44248 129.263227 
L 538.34036 128.778587 
L 537.23824 128.306773 
L 536.13612 127.847465 
L 535.034 127.400347 
L 533.93188 126.965111 
L 532.82976 126.541453 
L 531.72764 126.129077 
L 530.62552 125.727694 
L 529.5234 125.33702 
L 528.42128 124.956777 
L 527.31916 124.586693 
L 526.21704 124.226505 
L 525.11492 123.875952 
L 524.0128 123.53478 
L 522.91068 123.202744 
L 521.80856 122.8796 
L 520.70644 122.565114 
L 519.60432 122.259055 
L 518.5022 121.961198 
L 517.40008 121.671324 
L 516.29796 121.389219 
L 515.19584 121.114675 
L 514.09372 120.847489 
L 512.9916 120.587462 
L 511.88948 120.334401 
L 510.78736 120.088118 
L 509.68524 119.84843 
L 508.58312 119.615157 
L 507.481 119.388125 
L 506.37888 119.167166 
L 505.27676 118.952114 
L 504.17464 118.742808 
L 503.07252 118.539091 
L 501.9704 118.340812 
L 500.86828 118.147822 
L 499.76616 117.959977 
L 498.66404 117.777135 
L 497.56192 117.599162 
L 496.4598 117.425923 
L 495.35768 117.25729 
L 494.25556 117.093136 
L 493.15344 116.933339 
L 492.05132 116.77778 
L 490.9492 116.626344 
L 489.84708 116.478917 
L 488.74496 116.335391 
L 487.64284 116.195659 
L 486.54072 116.059617 
L 485.4386 115.927165 
L 484.33648 115.798204 
L 483.23436 115.672641 
L 482.13224 115.550382 
L 481.03012 115.431338 
L 479.928 115.315421 
L 478.82588 115.202547 
L 477.72376 115.092632 
L 476.62164 114.985597 
L 475.51952 114.881364 
L 474.4174 114.779857 
L 473.31528 114.681002 
L 472.21316 114.584727 
L 471.11104 114.490964 
L 470.00892 114.399645 
L 468.9068 114.310703 
L 467.80468 114.224076 
L 466.70256 114.139701 
L 465.60044 114.057517 
L 464.49832 113.977467 
L 463.3962 113.899493 
L 462.29408 113.82354 
L 461.19196 113.749553 
L 460.08984 113.677482 
L 458.98772 113.607275 
L 457.8856 113.538882 
L 456.78348 113.472257 
L 455.68136 113.407351 
L 454.57924 113.34412 
L 453.47712 113.282519 
L 452.375 113.222507 
L 451.27288 113.16404 
L 450.17076 113.10708 
L 449.06864 113.051586 
L 447.96652 112.99752 
L 446.8644 112.944845 
L 445.76228 112.893525 
L 444.66016 112.843525 
L 443.55804 112.79481 
L 442.45592 112.747348 
L 441.3538 112.701107 
L 440.25168 112.656054 
L 439.14956 112.61216 
L 438.04744 112.569394 
L 436.94532 112.527728 
L 435.8432 112.487135 
L 434.74108 112.447585 
L 433.63896 112.409055 
L 432.53684 112.371516 
L 431.43472 112.334945 
L 430.3326 112.299317 
L 429.23048 112.264608 
L 428.12836 112.230796 
L 427.02624 112.197857 
L 425.92412 112.165771 
L 424.822 112.134516 
L 423.71988 112.104071 
L 422.61776 112.074416 
L 421.51564 112.045533 
L 420.41352 112.017401 
L 419.3114 111.990003 
L 418.20928 111.963321 
L 417.10716 111.937337 
L 416.00504 111.912034 
L 414.90292 111.887396 
L 413.8008 111.863408 
L 412.69868 111.840052 
L 411.59656 111.817315 
L 410.49444 111.795181 
L 409.39232 111.773637 
L 408.2902 111.752668 
L 407.18808 111.732261 
L 406.08596 111.712403 
L 404.98384 111.69308 
L 403.88172 111.674281 
L 402.7796 111.655994 
L 401.67748 111.638207 
L 400.57536 111.620907 
L 399.47324 111.604086 
L 398.37112 111.587731 
L 397.269 111.571832 
L 396.16688 111.556379 
L 395.06476 111.541362 
L 393.96264 111.526773 
L 392.86052 111.5126 
L 391.7584 111.498836 
L 390.65628 111.485472 
L 389.55416 111.472499 
L 388.45204 111.459909 
L 387.34992 111.447694 
L 386.2478 111.435846 
L 385.14568 111.424358 
L 384.04356 111.413223 
L 382.94144 111.402433 
L 381.83932 111.391982 
L 380.7372 111.381863 
L 379.63508 111.372069 
L 378.53296 111.362596 
L 377.43084 111.353436 
L 376.32872 111.344584 
L 375.2266 111.336034 
L 374.12448 111.327781 
L 373.02236 111.31982 
L 371.92024 111.312146 
L 370.81812 111.304753 
L 369.716 111.297638 
L 368.61388 111.290796 
L 367.51176 111.284222 
L 366.40964 111.277913 
L 365.30752 111.271864 
L 364.2054 111.266072 
L 363.10328 111.260533 
L 362.00116 111.255244 
L 360.89904 111.250201 
L 359.79692 111.245401 
L 358.6948 111.240841 
L 357.59268 111.236518 
L 356.49056 111.23243 
L 355.38844 111.228574 
L 354.28632 111.224948 
L 353.1842 111.221549 
L 352.08208 111.218376 
L 350.97996 111.215425 
L 349.87784 111.212696 
L 348.77572 111.210187 
L 347.6736 111.207896 
L 346.57148 111.205821 
L 345.46936 111.203963 
L 344.36724 111.202318 
L 343.26512 111.200887 
L 342.163 111.199668 
L 341.06088 111.19866 
L 339.95876 111.197864 
L 338.85664 111.197278 
L 337.75452 111.196902 
L 336.6524 111.196737 
L 335.55028 111.196781 
L 334.44816 111.197034 
L 333.34604 111.197498 
L 332.24392 111.198172 
L 331.1418 111.199057 
L 330.03968 111.200153 
L 328.93756 111.201461 
L 327.83544 111.202982 
L 326.73332 111.204716 
L 325.6312 111.206666 
L 324.52908 111.208831 
L 323.42696 111.211214 
L 322.32484 111.213815 
L 321.22272 111.216637 
L 320.1206 111.219681 
L 319.01848 111.22295 
L 317.91636 111.226444 
L 316.81424 111.230167 
L 315.71212 111.23412 
L 314.61 111.238307 
L 313.50788 111.242729 
L 312.40576 111.247389 
L 311.30364 111.252291 
L 310.20152 111.257438 
L 309.0994 111.262832 
L 307.99728 111.268476 
L 306.89516 111.274376 
L 305.79304 111.280533 
L 304.69092 111.286952 
L 303.5888 111.293638 
L 302.48668 111.300593 
L 301.38456 111.307823 
L 300.28244 111.315331 
L 299.18032 111.323124 
L 298.0782 111.331204 
L 296.97608 111.339578 
L 295.87396 111.34825 
L 294.77184 111.357227 
L 293.66972 111.366513 
L 292.5676 111.376114 
L 291.46548 111.386037 
L 290.36336 111.396287 
L 289.26124 111.406871 
L 288.15912 111.417795 
L 287.057 111.429066 
L 285.95488 111.440691 
L 284.85276 111.452678 
L 283.75064 111.465034 
L 282.64852 111.477766 
L 281.5464 111.490882 
L 280.44428 111.504391 
L 279.34216 111.518301 
L 278.24004 111.532621 
L 277.13792 111.547358 
L 276.0358 111.562524 
L 274.93368 111.578126 
L 273.83156 111.594176 
L 272.72944 111.610682 
L 271.62732 111.627655 
L 270.5252 111.645105 
L 269.42308 111.663045 
L 268.32096 111.681483 
L 267.21884 111.700433 
L 266.11672 111.719906 
L 265.0146 111.739913 
L 263.91248 111.760468 
L 262.81036 111.781584 
L 261.70824 111.803273 
L 260.60612 111.825549 
L 259.504 111.848427 
L 258.40188 111.871919 
L 257.29976 111.896042 
L 256.19764 111.92081 
L 255.09552 111.946238 
L 253.9934 111.972343 
L 252.89128 111.999141 
L 251.78916 112.026649 
L 250.68704 112.054884 
L 249.58492 112.083863 
L 248.4828 112.113606 
L 247.38068 112.144131 
L 246.27856 112.175456 
L 245.17644 112.207603 
L 244.07432 112.240591 
L 242.9722 112.27444 
L 241.87008 112.309173 
L 240.76796 112.344812 
L 239.66584 112.381378 
L 238.56372 112.418896 
L 237.4616 112.457389 
L 236.35948 112.496881 
L 235.25736 112.537399 
L 234.15524 112.578966 
L 233.05312 112.621611 
L 231.951 112.665361 
L 230.84888 112.710243 
L 229.74676 112.756286 
L 228.64464 112.803519 
L 227.54252 112.851974 
L 226.4404 112.901682 
L 225.33828 112.952673 
L 224.23616 113.004982 
L 223.13404 113.058642 
L 222.03192 113.113688 
L 220.9298 113.170156 
L 219.82768 113.228082 
L 218.72556 113.287504 
L 217.62344 113.348461 
L 216.52132 113.410992 
L 215.4192 113.475139 
L 214.31708 113.540944 
L 213.21496 113.608449 
L 212.11284 113.677699 
L 211.01072 113.74874 
L 209.9086 113.821618 
L 208.80648 113.896383 
L 207.70436 113.973082 
L 206.60224 114.051768 
L 205.50012 114.132492 
L 204.398 114.215309 
L 203.29588 114.300273 
L 202.19376 114.387442 
L 201.09164 114.476873 
L 199.98952 114.568627 
L 198.8874 114.662765 
L 197.78528 114.759352 
L 196.68316 114.858451 
L 195.58104 114.960131 
L 194.47892 115.06446 
L 193.3768 115.171508 
L 192.27468 115.28135 
L 191.17256 115.394058 
L 190.07044 115.509712 
L 188.96832 115.628389 
L 187.8662 115.750171 
L 186.76408 115.875141 
L 185.66196 116.003386 
L 184.55984 116.134995 
L 183.45772 116.270056 
L 182.3556 116.408666 
L 181.25348 116.550918 
L 180.15136 116.696913 
L 179.04924 116.846751 
L 177.94712 117.000537 
L 176.845 117.158378 
L 175.74288 117.320384 
L 174.64076 117.486669 
L 173.53864 117.65735 
L 172.43652 117.832545 
L 171.3344 118.012378 
L 170.23228 118.196976 
L 169.13016 118.386468 
L 168.02804 118.580989 
L 166.92592 118.780675 
L 165.8238 118.985668 
L 164.72168 119.196112 
L 163.61956 119.412157 
L 162.51744 119.633955 
L 161.41532 119.861664 
L 160.3132 120.095446 
L 159.21108 120.335467 
L 158.10896 120.581896 
L 157.00684 120.834909 
L 155.90472 121.094686 
L 154.8026 121.361411 
L 153.70048 121.635275 
L 152.59836 121.916471 
L 151.49624 122.2052 
L 150.39412 122.501666 
L 149.292 122.80608 
L 148.18988 123.118659 
L 147.08776 123.439623 
L 145.98564 123.7692 
L 144.88352 124.107625 
L 143.7814 124.455135 
L 142.67928 124.811976 
L 141.57716 125.178401 
L 140.47504 125.554666 
L 139.37292 125.941037 
L 138.2708 126.337784 
L 137.16868 126.745186 
L 136.06656 127.163527 
L 134.96444 127.593098 
L 133.86232 128.034198 
L 132.7602 128.487132 
L 131.65808 128.952214 
L 130.55596 129.429764 
L 129.45384 129.920109 
L 128.35172 130.423585 
L 127.2496 130.940534 
L 126.14748 131.471308 
L 125.04536 132.016264 
L 123.94324 132.57577 
L 122.84112 133.150198 
L 121.739 133.739932 
L 120.63688 134.345361 
L 119.53476 134.966884 
L 118.43264 135.604907 
L 117.33052 136.259845 
L 116.2284 136.932121 
L 115.12628 137.622166 
L 114.02416 138.330418 
L 112.92204 139.057325 
L 111.81992 139.803343 
L 110.7178 140.568934 
L 109.61568 141.354569 
L 108.51356 142.160729 
L 107.41144 142.9879 
L 106.30932 143.836577 
L 105.2072 144.707261 
L 104.10508 145.600463 
L 103.00296 146.516698 
L 101.90084 147.456489 
L 100.79872 148.420368 
L 99.6966 149.408869 
L 98.59448 150.422536 
L 97.49236 151.461916 
L 96.39024 152.527562 
L 95.28812 153.620033 
L 94.186 154.739891 
L 93.08388 155.887702 
L 91.98176 157.064034 
L 90.87964 158.269462 
L 89.77752 159.504557 
L 88.6754 160.769896 
L 87.57328 162.066054 
L 86.47116 163.393606 
L 85.36904 164.753126 
L 84.26692 166.145186 
L 83.1648 167.570352 
L 82.06268 169.029189 
L 80.96056 170.522254 
L 79.85844 172.050096 
L 78.75632 173.613257 
L 77.6542 175.212269 
L 76.55208 176.84765 
L 75.44996 178.519906 
L 74.34784 180.229527 
L 73.24572 181.976983 
L 72.1436 183.762728 
L 71.04148 185.587191 
L 69.93936 187.450777 
L 68.83724 189.353863 
L 67.73512 191.296795 
L 66.633 193.279886 
L 65.53088 195.303413 
L 64.42876 197.367612 
L 63.32664 199.472673 
L 62.22452 201.618739 
L 61.1224 203.805901 
L 60.02028 206.034191 
L 58.91816 208.303581 
L 57.81604 210.613972 
L 56.71392 212.965195 
L 55.6118 215.356999 
L 54.50968 217.789048 
L 53.40756 220.260913 
L 52.30544 222.772065 
L 51.20332 225.321865 
L 50.1012 227.909559 
L 48.99908 230.534264 
L 47.89696 233.194961 
L 46.79484 235.890485 
L 45.69272 238.61951 
L 44.5906 241.380536 
L 43.48848 244.171873 
L 42.38636 246.991613 
L 41.28424 249.837563 
L 40.18212 252.706799 
L 39.08 254.705422 
z
" clip-path="url(#p9b2472fa46)" style="fill: #00bfbf; opacity: 0.3"/>
   </g>
   <g id="matplotlib.axis_1">
    <g id="xtick_1">
     <g id="line2d_1">
      <defs>
       <path id="mb5db8bba53" d="M 0 0 
L 0 3.5 
" style="stroke: #000000; stroke-width: 0.8"/>
      </defs>
      <g>
       <use xlink:href="#mb5db8bba53" x="39.08" y="335.493333" style="stroke: #000000; stroke-width: 0.8"/>
      </g>
     </g>
    </g>
    <g id="xtick_2">
     <g id="line2d_2">
      <g>
       <use xlink:href="#mb5db8bba53" x="259.504" y="335.493333" style="stroke: #000000; stroke-width: 0.8"/>
      </g>
     </g>
    </g>
    <g id="xtick_3">
     <g id="line2d_3">
      <g>
       <use xlink:href="#mb5db8bba53" x="479.928" y="335.493333" style="stroke: #000000; stroke-width: 0.8"/>
      </g>
     </g>
    </g>
    <g id="xtick_4">
     <g id="line2d_4">
      <g>
       <use xlink:href="#mb5db8bba53" x="700.352" y="335.493333" style="stroke: #000000; stroke-width: 0.8"/>
      </g>
     </g>
    </g>
    <g id="xtick_5">
     <g id="line2d_5">
      <g>
       <use xlink:href="#mb5db8bba53" x="920.776" y="335.493333" style="stroke: #000000; stroke-width: 0.8"/>
      </g>
     </g>
    </g>
    <g id="xtick_6">
     <g id="line2d_6">
      <g>
       <use xlink:href="#mb5db8bba53" x="1141.2" y="335.493333" style="stroke: #000000; stroke-width: 0.8"/>
      </g>
     </g>
    </g>
    <g id="text_1">
     <!-- x -->
     <g transform="translate(584.813125 360.170521) scale(0.18 -0.18)">
      <defs>
       <path id="DejaVuSans-78" d="M 3513 3500 
L 2247 1797 
L 3578 0 
L 2900 0 
L 1881 1375 
L 863 0 
L 184 0 
L 1544 1831 
L 300 3500 
L 978 3500 
L 1906 2253 
L 2834 3500 
L 3513 3500 
z
" transform="scale(0.015625)"/>
      </defs>
      <use xlink:href="#DejaVuSans-78"/>
     </g>
    </g>
   </g>
   <g id="matplotlib.axis_2">
    <g id="ytick_1">
     <g id="line2d_7">
      <defs>
       <path id="m2f556741b0" d="M 0 0 
L -3.5 0 
" style="stroke: #000000; stroke-width: 0.8"/>
      </defs>
      <g>
       <use xlink:href="#m2f556741b0" x="39.08" y="326.539483" style="stroke: #000000; stroke-width: 0.8"/>
      </g>
     </g>
    </g>
    <g id="ytick_2">
     <g id="line2d_8">
      <g>
       <use xlink:href="#m2f556741b0" x="39.08" y="255.158515" style="stroke: #000000; stroke-width: 0.8"/>
      </g>
     </g>
    </g>
    <g id="ytick_3">
     <g id="line2d_9">
      <g>
       <use xlink:href="#m2f556741b0" x="39.08" y="183.777547" style="stroke: #000000; stroke-width: 0.8"/>
      </g>
     </g>
    </g>
    <g id="ytick_4">
     <g id="line2d_10">
      <g>
       <use xlink:href="#m2f556741b0" x="39.08" y="112.396579" style="stroke: #000000; stroke-width: 0.8"/>
      </g>
     </g>
    </g>
    <g id="ytick_5">
     <g id="line2d_11">
      <g>
       <use xlink:href="#m2f556741b0" x="39.08" y="41.015611" style="stroke: #000000; stroke-width: 0.8"/>
      </g>
     </g>
    </g>
    <g id="text_2">
     <!-- f(x) -->
     <g transform="translate(24.336562 188.664635) rotate(-90) scale(0.18 -0.18)">
      <defs>
       <path id="DejaVuSans-66" d="M 2375 4863 
L 2375 4384 
L 1825 4384 
Q 1516 4384 1395 4259 
Q 1275 4134 1275 3809 
L 1275 3500 
L 2222 3500 
L 2222 3053 
L 1275 3053 
L 1275 0 
L 697 0 
L 697 3053 
L 147 3053 
L 147 3500 
L 697 3500 
L 697 3744 
Q 697 4328 969 4595 
Q 1241 4863 1831 4863 
L 2375 4863 
z
" transform="scale(0.015625)"/>
       <path id="DejaVuSans-28" d="M 1984 4856 
Q 1566 4138 1362 3434 
Q 1159 2731 1159 2009 
Q 1159 1288 1364 580 
Q 1569 -128 1984 -844 
L 1484 -844 
Q 1016 -109 783 600 
Q 550 1309 550 2009 
Q 550 2706 781 3412 
Q 1013 4119 1484 4856 
L 1984 4856 
z
" transform="scale(0.015625)"/>
       <path id="DejaVuSans-29" d="M 513 4856 
L 1013 4856 
Q 1481 4119 1714 3412 
Q 1947 2706 1947 2009 
Q 1947 1309 1714 600 
Q 1481 -109 1013 -844 
L 513 -844 
Q 928 -128 1133 580 
Q 1338 1288 1338 2009 
Q 1338 2731 1133 3434 
Q 928 4138 513 4856 
z
" transform="scale(0.015625)"/>
      </defs>
      <use xlink:href="#DejaVuSans-66"/>
      <use xlink:href="#DejaVuSans-28" x="35.205078"/>
      <use xlink:href="#DejaVuSans-78" x="74.21875"/>
      <use xlink:href="#DejaVuSans-29" x="133.398438"/>
     </g>
    </g>
   </g>
   <g id="line2d_12">
    <path d="M 39.08 255.158515 
L 529.5234 255.048073 
L 550.46368 254.809475 
L 564.79124 254.431888 
L 575.81244 253.918931 
L 584.6294 253.293355 
L 592.34424 252.52796 
L 598.95696 251.661954 
L 605.56968 250.554154 
L 611.08028 249.408479 
L 616.59088 248.024263 
L 620.99936 246.720157 
L 625.40784 245.219107 
L 629.81632 243.499652 
L 634.2248 241.539524 
L 638.63328 239.315904 
L 643.04176 236.805744 
L 647.45024 233.986139 
L 651.85872 230.834759 
L 656.2672 227.330338 
L 660.67568 223.453209 
L 665.08416 219.185883 
L 669.49264 214.513662 
L 673.90112 209.425275 
L 678.3096 203.913519 
L 682.71808 197.975898 
L 687.12656 191.615229 
L 691.53504 184.840211 
L 695.94352 177.665925 
L 700.352 170.114248 
L 705.8626 160.188799 
L 711.3732 149.79217 
L 717.98592 136.822957 
L 727.905 116.766091 
L 740.02832 92.304968 
L 746.64104 79.530801 
L 751.04952 71.420813 
L 755.458 63.734428 
L 759.86648 56.554528 
L 763.17284 51.550109 
L 766.4792 46.907537 
L 769.78556 42.657015 
L 773.09192 38.82662 
L 776.39828 35.441994 
L 778.60252 33.444666 
L 780.80676 31.661772 
L 783.011 30.098758 
L 785.21524 28.760424 
L 787.41948 27.650896 
L 789.62372 26.773609 
L 791.82796 26.131286 
L 794.0322 25.725925 
L 796.23644 25.558788 
L 798.44068 25.630397 
L 800.64492 25.940529 
L 802.84916 26.488217 
L 805.0534 27.271757 
L 807.25764 28.288712 
L 809.46188 29.535933 
L 811.66612 31.009567 
L 813.87036 32.705081 
L 816.0746 34.617285 
L 818.27884 36.740358 
L 821.5852 40.306138 
L 824.89156 44.307745 
L 828.19792 48.718527 
L 831.50428 53.50952 
L 834.81064 58.64976 
L 839.21912 65.990095 
L 843.6276 73.812322 
L 849.1382 84.140362 
L 855.75092 97.122543 
L 865.67 117.214266 
L 876.6912 139.451083 
L 883.30392 152.324907 
L 888.81452 162.616077 
L 894.32512 172.416998 
L 898.7336 179.858212 
L 903.14208 186.91474 
L 907.55056 193.56678 
L 911.95904 199.801214 
L 916.36752 205.611163 
L 920.776 210.995464 
L 925.18448 215.958091 
L 929.59296 220.507534 
L 934.00144 224.656159 
L 938.40992 228.419568 
L 942.8184 231.815965 
L 947.22688 234.865556 
L 951.63536 237.589981 
L 956.04384 240.01179 
L 960.45232 242.153974 
L 964.8608 244.039549 
L 969.26928 245.6912 
L 973.67776 247.130977 
L 979.18836 248.664911 
L 984.69896 249.939772 
L 990.20956 250.991523 
L 996.82228 252.004934 
L 1003.435 252.794121 
L 1011.14984 253.488772 
L 1019.9668 254.053871 
L 1030.988 254.514681 
L 1044.21344 254.833031 
L 1062.94948 255.042367 
L 1094.91096 255.141678 
L 1140.09788 255.157759 
L 1140.09788 255.157759 
" clip-path="url(#p9b2472fa46)" style="fill: none; stroke: #1f77b4; stroke-width: 3; stroke-linecap: square"/>
   </g>
   <g id="line2d_13">
    <defs>
     <path id="m4f2fb7057b" d="M -0 5.656854 
L 5.656854 0 
L 0 -5.656854 
L -5.656854 -0 
z
" style="stroke: #ff0000; stroke-linejoin: miter"/>
    </defs>
    <g clip-path="url(#p9b2472fa46)">
     <use xlink:href="#m4f2fb7057b" x="643.938339" y="236.258108" style="fill: #ff0000; stroke: #ff0000; stroke-linejoin: miter"/>
     <use xlink:href="#m4f2fb7057b" x="39.248054" y="255.158515" style="fill: #ff0000; stroke: #ff0000; stroke-linejoin: miter"/>
     <use xlink:href="#m4f2fb7057b" x="632.94786" y="242.133377" style="fill: #ff0000; stroke: #ff0000; stroke-linejoin: miter"/>
     <use xlink:href="#m4f2fb7057b" x="643.960146" y="236.244628" style="fill: #ff0000; stroke: #ff0000; stroke-linejoin: miter"/>
     <use xlink:href="#m4f2fb7057b" x="686.808002" y="192.088881" style="fill: #ff0000; stroke: #ff0000; stroke-linejoin: miter"/>
     <use xlink:href="#m4f2fb7057b" x="733.533115" y="105.318999" style="fill: #ff0000; stroke: #ff0000; stroke-linejoin: miter"/>
    </g>
   </g>
   <g id="line2d_14">
    <path d="M 39.08 255.158045 
L 42.38636 255.017614 
L 45.69272 254.597459 
L 48.99908 253.944999 
L 53.40756 252.784599 
L 57.81604 251.3683 
L 63.32664 249.343044 
L 71.04148 246.221874 
L 95.28812 236.177535 
L 103.00296 233.275317 
L 110.7178 230.598545 
L 118.43264 228.161984 
L 126.14748 225.967437 
L 133.86232 224.007993 
L 141.57716 222.271165 
L 149.292 220.741158 
L 158.10896 219.223393 
L 166.92592 217.926105 
L 176.845 216.697538 
L 187.8662 215.578172 
L 199.98952 214.595709 
L 213.21496 213.764469 
L 227.54252 213.086461 
L 244.07432 212.522138 
L 263.91248 212.06787 
L 288.15912 211.737254 
L 319.01848 211.546666 
L 355.38844 211.551442 
L 388.45204 211.774167 
L 413.8008 212.153879 
L 434.74108 212.685133 
L 452.375 213.359789 
L 466.70256 214.1197 
L 479.928 215.041406 
L 492.05132 216.118541 
L 503.07252 217.331092 
L 512.9916 218.645058 
L 522.91068 220.199543 
L 531.72764 221.804983 
L 540.5446 223.637223 
L 549.36156 225.705578 
L 558.17852 228.008888 
L 568.0976 230.857983 
L 580.22092 234.614184 
L 596.75272 239.747353 
L 603.36544 241.55064 
L 608.87604 242.801042 
L 613.28452 243.559486 
L 616.59088 243.943232 
L 619.89724 244.131163 
L 623.2036 244.084669 
L 626.50996 243.759756 
L 628.7142 243.364028 
L 630.91844 242.80599 
L 633.12268 242.067734 
L 635.32692 241.141165 
L 638.63328 239.457375 
L 641.93964 237.515094 
L 647.45024 233.952543 
L 651.85872 230.870154 
L 656.2672 227.540426 
L 660.67568 223.912773 
L 665.08416 219.925719 
L 668.39052 216.655922 
L 671.69688 213.107235 
L 675.00324 209.239425 
L 678.3096 205.007354 
L 681.61596 200.360516 
L 684.92232 195.242518 
L 688.22868 189.592948 
L 691.53504 183.424853 
L 695.94352 174.572916 
L 701.45412 162.843688 
L 713.57744 136.654102 
L 717.98592 127.793324 
L 721.29228 121.657975 
L 724.59864 116.111961 
L 726.80288 112.816291 
L 729.00712 109.898544 
L 731.21136 107.411258 
L 733.4156 105.410974 
L 735.61984 103.941463 
L 737.82408 102.970504 
L 740.02832 102.446748 
L 742.23256 102.323033 
L 744.4368 102.556089 
L 746.64104 103.106238 
L 748.84528 103.937138 
L 751.04952 105.015526 
L 753.25376 106.310989 
L 756.56012 108.601108 
L 759.86648 111.234046 
L 763.17284 114.137086 
L 767.58132 118.320325 
L 773.09192 123.878773 
L 797.33856 148.795112 
L 802.84916 154.010858 
L 808.35976 158.952612 
L 813.87036 163.599709 
L 819.38096 167.942 
L 824.89156 171.977398 
L 830.40216 175.709895 
L 835.91276 179.147962 
L 841.42336 182.303269 
L 846.93396 185.189679 
L 852.44456 187.822437 
L 857.95516 190.217556 
L 863.46576 192.391329 
L 868.97636 194.359966 
L 875.58908 196.473836 
L 882.2018 198.341429 
L 888.81452 199.987589 
L 896.52936 201.659063 
L 904.2442 203.094372 
L 913.06116 204.484448 
L 921.87812 205.646014 
L 931.7972 206.723167 
L 942.8184 207.684641 
L 954.94172 208.512176 
L 969.26928 209.248659 
L 985.80108 209.85633 
L 1005.63924 210.345209 
L 1029.88588 210.711142 
L 1062.94948 210.973936 
L 1113.647 211.132005 
L 1140.09788 211.164015 
L 1140.09788 211.164015 
" clip-path="url(#p9b2472fa46)" style="fill: none; stroke-dasharray: 5.55,2.4; stroke-dashoffset: 0; stroke: #000000; stroke-width: 1.5"/>
   </g>
   <g id="patch_4">
    <path d="M 39.08 335.493333 
L 39.08 10.8 
" style="fill: none; stroke: #000000; stroke-width: 0.8; stroke-linejoin: miter; stroke-linecap: square"/>
   </g>
   <g id="patch_5">
    <path d="M 1141.2 335.493333 
L 1141.2 10.8 
" style="fill: none; stroke: #000000; stroke-width: 0.8; stroke-linejoin: miter; stroke-linecap: square"/>
   </g>
   <g id="patch_6">
    <path d="M 39.08 335.493333 
L 1141.2 335.493333 
" style="fill: none; stroke: #000000; stroke-width: 0.8; stroke-linejoin: miter; stroke-linecap: square"/>
   </g>
   <g id="patch_7">
    <path d="M 39.08 10.8 
L 1141.2 10.8 
" style="fill: none; stroke: #000000; stroke-width: 0.8; stroke-linejoin: miter; stroke-linecap: square"/>
   </g>
  </g>
  <g id="axes_2">
   <g id="patch_8">
    <path d="M 39.08 536.92 
L 1141.2 536.92 
L 1141.2 374.573333 
L 39.08 374.573333 
z
" style="fill: #ffffff"/>
   </g>
   <g id="matplotlib.axis_3">
    <g id="xtick_7">
     <g id="line2d_15">
      <g>
       <use xlink:href="#mb5db8bba53" x="39.08" y="536.92" style="stroke: #000000; stroke-width: 0.8"/>
      </g>
     </g>
    </g>
    <g id="xtick_8">
     <g id="line2d_16">
      <g>
       <use xlink:href="#mb5db8bba53" x="259.504" y="536.92" style="stroke: #000000; stroke-width: 0.8"/>
      </g>
     </g>
    </g>
    <g id="xtick_9">
     <g id="line2d_17">
      <g>
       <use xlink:href="#mb5db8bba53" x="479.928" y="536.92" style="stroke: #000000; stroke-width: 0.8"/>
      </g>
     </g>
    </g>
    <g id="xtick_10">
     <g id="line2d_18">
      <g>
       <use xlink:href="#mb5db8bba53" x="700.352" y="536.92" style="stroke: #000000; stroke-width: 0.8"/>
      </g>
     </g>
    </g>
    <g id="xtick_11">
     <g id="line2d_19">
      <g>
       <use xlink:href="#mb5db8bba53" x="920.776" y="536.92" style="stroke: #000000; stroke-width: 0.8"/>
      </g>
     </g>
    </g>
    <g id="xtick_12">
     <g id="line2d_20">
      <g>
       <use xlink:href="#mb5db8bba53" x="1141.2" y="536.92" style="stroke: #000000; stroke-width: 0.8"/>
      </g>
     </g>
    </g>
    <g id="text_3">
     <!-- x -->
     <g transform="translate(584.813125 561.597188) scale(0.18 -0.18)">
      <use xlink:href="#DejaVuSans-78"/>
     </g>
    </g>
   </g>
   <g id="matplotlib.axis_4">
    <g id="ytick_6">
     <g id="line2d_21">
      <g>
       <use xlink:href="#m2f556741b0" x="39.08" y="530.064824" style="stroke: #000000; stroke-width: 0.8"/>
      </g>
     </g>
    </g>
    <g id="ytick_7">
     <g id="line2d_22">
      <g>
       <use xlink:href="#m2f556741b0" x="39.08" y="497.67065" style="stroke: #000000; stroke-width: 0.8"/>
      </g>
     </g>
    </g>
    <g id="ytick_8">
     <g id="line2d_23">
      <g>
       <use xlink:href="#m2f556741b0" x="39.08" y="465.276476" style="stroke: #000000; stroke-width: 0.8"/>
      </g>
     </g>
    </g>
    <g id="ytick_9">
     <g id="line2d_24">
      <g>
       <use xlink:href="#m2f556741b0" x="39.08" y="432.882302" style="stroke: #000000; stroke-width: 0.8"/>
      </g>
     </g>
    </g>
    <g id="ytick_10">
     <g id="line2d_25">
      <g>
       <use xlink:href="#m2f556741b0" x="39.08" y="400.488128" style="stroke: #000000; stroke-width: 0.8"/>
      </g>
     </g>
    </g>
    <g id="text_4">
     <!-- $\alpha(x)$ -->
     <g transform="translate(24.336562 474.106667) rotate(-90) scale(0.18 -0.18)">
      <defs>
       <path id="DejaVuSans-Oblique-3b1" d="M 2619 1628 
L 2622 2350 
Q 2625 3088 2069 3091 
Q 1653 3094 1394 2747 
Q 1069 2319 959 1747 
Q 825 1059 994 731 
Q 1169 397 1547 397 
Q 1966 397 2319 1063 
L 2619 1628 
z
M 2166 3578 
Q 3141 3594 3128 2584 
Q 3128 2584 3616 3500 
L 4128 3500 
L 3119 1603 
L 3109 919 
Q 3109 766 3194 638 
Q 3291 488 3391 488 
L 3669 488 
L 3575 0 
L 3228 0 
Q 2934 0 2722 263 
Q 2622 394 2619 669 
Q 2416 334 2066 50 
Q 1900 -81 1453 -78 
Q 722 -72 456 397 
Q 184 884 353 1747 
Q 534 2675 1009 3097 
Q 1544 3569 2166 3578 
z
" transform="scale(0.015625)"/>
       <path id="DejaVuSans-Oblique-78" d="M 3841 3500 
L 2234 1784 
L 3219 0 
L 2559 0 
L 1819 1388 
L 531 0 
L -166 0 
L 1556 1844 
L 641 3500 
L 1300 3500 
L 1972 2234 
L 3144 3500 
L 3841 3500 
z
" transform="scale(0.015625)"/>
      </defs>
      <use xlink:href="#DejaVuSans-Oblique-3b1" transform="translate(0 0.125)"/>
      <use xlink:href="#DejaVuSans-28" transform="translate(65.917969 0.125)"/>
      <use xlink:href="#DejaVuSans-Oblique-78" transform="translate(104.931641 0.125)"/>
      <use xlink:href="#DejaVuSans-29" transform="translate(164.111328 0.125)"/>
     </g>
    </g>
   </g>
   <g id="line2d_26">
    <path d="M 39.08 529.540606 
L 40.18212 527.235613 
L 44.5906 514.390583 
L 47.89696 505.322283 
L 51.20332 496.759361 
L 54.50968 488.707337 
L 57.81604 481.163202 
L 61.1224 474.117503 
L 64.42876 467.555985 
L 67.73512 461.460897 
L 71.04148 455.812033 
L 74.34784 450.587564 
L 77.6542 445.764699 
L 80.96056 441.320203 
L 84.26692 437.230814 
L 87.57328 433.473554 
L 90.87964 430.025981 
L 94.186 426.866365 
L 97.49236 423.97383 
L 100.79872 421.328443 
L 104.10508 418.911279 
L 108.51356 416.012651 
L 112.92204 413.448613 
L 117.33052 411.183015 
L 121.739 409.182932 
L 126.14748 407.418535 
L 130.55596 405.862923 
L 136.06656 404.175442 
L 141.57716 402.734949 
L 147.08776 401.505355 
L 153.70048 400.264745 
L 160.3132 399.237762 
L 168.02804 398.259669 
L 176.845 397.373313 
L 186.76408 396.604157 
L 198.8874 395.907368 
L 213.21496 395.328081 
L 230.84888 394.856595 
L 252.89128 394.499342 
L 283.75064 394.24125 
L 326.73332 394.119009 
L 377.43084 394.190224 
L 413.8008 394.441507 
L 438.04744 394.808718 
L 456.78348 395.306861 
L 471.11104 395.90184 
L 483.23436 396.629138 
L 493.15344 397.442491 
L 501.9704 398.38946 
L 509.68524 399.442891 
L 516.29796 400.555613 
L 522.91068 401.905903 
L 528.42128 403.248471 
L 533.93188 404.824468 
L 539.44248 406.672652 
L 543.85096 408.376594 
L 548.25944 410.307953 
L 552.66792 412.494208 
L 557.0764 414.965186 
L 561.48488 417.75298 
L 564.79124 420.072217 
L 568.0976 422.603915 
L 571.40396 425.363576 
L 574.71032 428.366964 
L 578.01668 431.629887 
L 581.32304 435.167904 
L 584.6294 438.995951 
L 587.93576 443.127852 
L 591.24212 447.575698 
L 594.54848 452.349049 
L 597.85484 457.453905 
L 601.1612 462.891394 
L 605.56968 470.648152 
L 609.97816 478.946857 
L 614.38664 487.707279 
L 622.10148 503.669843 
L 626.50996 512.652504 
L 629.81632 518.935181 
L 632.02056 522.705502 
L 633.12268 523.814649 
L 634.2248 522.035417 
L 635.32692 520.591122 
L 636.42904 519.503999 
L 637.53116 518.777217 
L 638.63328 518.410405 
L 639.7354 518.400017 
L 640.83752 518.739285 
L 641.93964 519.418024 
L 643.04176 520.421903 
L 644.14388 521.110032 
L 654.06296 502.460956 
L 656.2672 498.956695 
L 658.47144 495.864459 
L 660.67568 493.23129 
L 662.87992 491.092247 
L 665.08416 489.472467 
L 666.18628 488.8628 
L 667.2884 488.388574 
L 668.39052 488.050694 
L 669.49264 487.849626 
L 670.59476 487.785417 
L 671.69688 487.857695 
L 672.799 488.06567 
L 673.90112 488.408138 
L 675.00324 488.88347 
L 676.10536 489.489601 
L 678.3096 491.083744 
L 680.51384 493.164701 
L 682.71808 495.698199 
L 684.92232 498.640059 
L 686.02444 500.245937 
L 687.12656 500.444632 
L 691.53504 487.216811 
L 694.8414 478.053057 
L 697.04564 472.412487 
L 699.24988 467.199737 
L 701.45412 462.453514 
L 703.65836 458.207847 
L 705.8626 454.492988 
L 708.06684 451.336126 
L 710.27108 448.761968 
L 712.47532 446.793202 
L 713.57744 446.042468 
L 714.67956 445.450852 
L 715.78168 445.020767 
L 716.8838 444.754549 
L 717.98592 444.654465 
L 719.08804 444.72271 
L 720.19016 444.961415 
L 721.29228 445.372643 
L 722.3944 445.958385 
L 723.49652 446.720565 
L 724.59864 447.661029 
L 725.70076 448.781543 
L 726.80288 450.083783 
L 729.00712 453.239645 
L 731.21136 457.139703 
L 733.4156 461.774233 
L 734.51772 459.136389 
L 737.82408 449.809574 
L 741.13044 441.252665 
L 744.4368 433.460479 
L 747.74316 426.411187 
L 751.04952 420.072838 
L 754.35588 414.407074 
L 757.66224 409.371766 
L 760.9686 404.92292 
L 764.27496 401.016043 
L 767.58132 397.607139 
L 770.88768 394.653401 
L 774.19404 392.113705 
L 777.5004 389.948932 
L 780.80676 388.12218 
L 784.11312 386.598869 
L 787.41948 385.346797 
L 790.72584 384.336125 
L 794.0322 383.539341 
L 797.33856 382.931182 
L 801.74704 382.374095 
L 806.15552 382.062396 
L 810.564 381.952989 
L 816.0746 382.043944 
L 822.68732 382.406093 
L 830.40216 383.068641 
L 841.42336 384.267677 
L 875.58908 388.155707 
L 888.81452 389.382607 
L 902.03996 390.401389 
L 916.36752 391.285061 
L 931.7972 392.015935 
L 949.43112 392.626043 
L 970.3714 393.118346 
L 995.72016 393.485776 
L 1029.88588 393.746958 
L 1082.78764 393.903659 
L 1140.09788 393.951539 
L 1140.09788 393.951539 
" clip-path="url(#p08c7d13e11)" style="fill: none; stroke: #800080; stroke-width: 1.5; stroke-linecap: square"/>
   </g>
   <g id="line2d_27">
    <defs>
     <path id="m0a83ff8714" d="M 0 -7.5 
L -1.683855 -2.317627 
L -7.132924 -2.317627 
L -2.724534 0.885255 
L -4.408389 6.067627 
L -0 2.864745 
L 4.408389 6.067627 
L 2.724534 0.885255 
L 7.132924 -2.317627 
L 1.683855 -2.317627 
z
" style="stroke: #000000; stroke-linejoin: bevel"/>
    </defs>
    <g clip-path="url(#p08c7d13e11)">
     <use xlink:href="#m0a83ff8714" x="811.66612" y="381.952727" style="fill: #ffd700; stroke: #000000; stroke-linejoin: bevel"/>
    </g>
   </g>
   <g id="patch_9">
    <path d="M 39.08 536.92 
L 39.08 374.573333 
" style="fill: none; stroke: #000000; stroke-width: 0.8; stroke-linejoin: miter; stroke-linecap: square"/>
   </g>
   <g id="patch_10">
    <path d="M 1141.2 536.92 
L 1141.2 374.573333 
" style="fill: none; stroke: #000000; stroke-width: 0.8; stroke-linejoin: miter; stroke-linecap: square"/>
   </g>
   <g id="patch_11">
    <path d="M 39.08 536.92 
L 1141.2 536.92 
" style="fill: none; stroke: #000000; stroke-width: 0.8; stroke-linejoin: miter; stroke-linecap: square"/>
   </g>
   <g id="patch_12">
    <path d="M 39.08 374.573333 
L 1141.2 374.573333 
" style="fill: none; stroke: #000000; stroke-width: 0.8; stroke-linejoin: miter; stroke-linecap: square"/>
   </g>
  </g>
 </g>
 <defs>
  <clipPath id="p9b2472fa46">
   <rect x="39.08" y="10.8" width="1102.12" height="324.693333"/>
  </clipPath>
  <clipPath id="p08c7d13e11">
   <rect x="39.08" y="374.573333" width="1102.12" height="162.346667"/>
  </clipPath>
 </defs>
</svg>
