<?xml version="1.0" encoding="utf-8" standalone="no"?>
<!DOCTYPE svg PUBLIC "-//W3C//DTD SVG 1.1//EN"
  "http://www.w3.org/Graphics/SVG/1.1/DTD/svg11.dtd">
<svg xmlns:xlink="http://www.w3.org/1999/xlink" width="1152pt" height="576pt" viewBox="0 0 1152 576" xmlns="http://www.w3.org/2000/svg" version="1.1">
 <metadata>
  <rdf:RDF xmlns:dc="http://purl.org/dc/elements/1.1/" xmlns:cc="http://creativecommons.org/ns#" xmlns:rdf="http://www.w3.org/1999/02/22-rdf-syntax-ns#">
   <cc:Work>
    <dc:type rdf:resource="http://purl.org/dc/dcmitype/StillImage"/>
    <dc:date>2024-12-18T08:56:58.498236</dc:date>
    <dc:format>image/svg+xml</dc:format>
    <dc:creator>
     <cc:Agent>
      <dc:title>Matplotlib v3.9.2, https://matplotlib.org/</dc:title>
     </cc:Agent>
    </dc:creator>
   </cc:Work>
  </rdf:RDF>
 </metadata>
 <defs>
  <style type="text/css">*{stroke-linejoin: round; stroke-linecap: butt}</style>
 </defs>
 <g id="figure_1">
  <g id="patch_1">
   <path d="M 0 576 
L 1152 576 
L 1152 0 
L 0 0 
z
" style="fill: #ffffff"/>
  </g>
  <g id="axes_1">
   <g id="patch_2">
    <path d="M 39.08 335.493333 
L 1141.2 335.493333 
L 1141.2 10.8 
L 39.08 10.8 
z
" style="fill: #ffffff"/>
   </g>
   <g id="patch_3">
    <path d="M 39.08 288.446614 
L 40.18212 289.557053 
L 41.28424 290.787568 
L 42.38636 291.982609 
L 43.48848 293.142437 
L 44.5906 294.267548 
L 45.69272 295.358487 
L 46.79484 296.415831 
L 47.89696 297.440174 
L 48.99908 298.432124 
L 50.1012 299.392301 
L 51.20332 300.321336 
L 52.30544 301.219862 
L 53.40756 302.088521 
L 54.50968 302.927957 
L 55.6118 303.738816 
L 56.71392 304.521743 
L 57.81604 305.277384 
L 58.91816 306.006381 
L 60.02028 306.709375 
L 61.1224 307.387002 
L 62.22452 308.039895 
L 63.32664 308.668678 
L 64.42876 309.273973 
L 65.53088 309.856392 
L 66.633 310.416542 
L 67.73512 310.955022 
L 68.83724 311.472421 
L 69.93936 311.969323 
L 71.04148 312.446299 
L 72.1436 312.903915 
L 73.24572 313.342724 
L 74.34784 313.763273 
L 75.44996 314.166098 
L 76.55208 314.551723 
L 77.6542 314.920664 
L 78.75632 315.273429 
L 79.85844 315.610511 
L 80.96056 315.932398 
L 82.06268 316.239565 
L 83.1648 316.532476 
L 84.26692 316.811587 
L 85.36904 317.077344 
L 86.47116 317.330181 
L 87.57328 317.570524 
L 88.6754 317.798786 
L 89.77752 318.015375 
L 90.87964 318.220684 
L 91.98176 318.4151 
L 93.08388 318.598999 
L 94.186 318.772747 
L 95.28812 318.936702 
L 96.39024 319.091211 
L 97.49236 319.236614 
L 98.59448 319.373241 
L 99.6966 319.501412 
L 100.79872 319.62144 
L 101.90084 319.733629 
L 103.00296 319.838274 
L 104.10508 319.935662 
L 105.2072 320.026072 
L 106.30932 320.109775 
L 107.41144 320.187034 
L 108.51356 320.258104 
L 109.61568 320.323234 
L 110.7178 320.382664 
L 111.81992 320.436626 
L 112.92204 320.485349 
L 114.02416 320.529049 
L 115.12628 320.567941 
L 116.2284 320.602229 
L 117.33052 320.632114 
L 118.43264 320.657787 
L 119.53476 320.679437 
L 120.63688 320.697243 
L 121.739 320.711381 
L 122.84112 320.722019 
L 123.94324 320.729322 
L 125.04536 320.733446 
L 126.14748 320.734545 
L 127.2496 320.732767 
L 128.35172 320.728252 
L 129.45384 320.721139 
L 130.55596 320.711561 
L 131.65808 320.699644 
L 132.7602 320.685514 
L 133.86232 320.669287 
L 134.96444 320.651079 
L 136.06656 320.631 
L 137.16868 320.609156 
L 138.2708 320.58565 
L 139.37292 320.56058 
L 140.47504 320.53404 
L 141.57716 320.506121 
L 142.67928 320.476912 
L 143.7814 320.446495 
L 144.88352 320.414951 
L 145.98564 320.382359 
L 147.08776 320.348791 
L 148.18988 320.31432 
L 149.292 320.279013 
L 150.39412 320.242936 
L 151.49624 320.206151 
L 152.59836 320.16872 
L 153.70048 320.130698 
L 154.8026 320.09214 
L 155.90472 320.0531 
L 157.00684 320.013626 
L 158.10896 319.973768 
L 159.21108 319.933569 
L 160.3132 319.893074 
L 161.41532 319.852324 
L 162.51744 319.811358 
L 163.61956 319.770214 
L 164.72168 319.728927 
L 165.8238 319.687531 
L 166.92592 319.646058 
L 168.02804 319.604538 
L 169.13016 319.563 
L 170.23228 319.521471 
L 171.3344 319.479976 
L 172.43652 319.43854 
L 173.53864 319.397186 
L 174.64076 319.355934 
L 175.74288 319.314806 
L 176.845 319.27382 
L 177.94712 319.232993 
L 179.04924 319.192343 
L 180.15136 319.151883 
L 181.25348 319.11163 
L 182.3556 319.071596 
L 183.45772 319.031793 
L 184.55984 318.992233 
L 185.66196 318.952926 
L 186.76408 318.913881 
L 187.8662 318.875108 
L 188.96832 318.836614 
L 190.07044 318.798406 
L 191.17256 318.76049 
L 192.27468 318.722873 
L 193.3768 318.685558 
L 194.47892 318.648551 
L 195.58104 318.611855 
L 196.68316 318.575473 
L 197.78528 318.539407 
L 198.8874 318.503659 
L 199.98952 318.468231 
L 201.09164 318.433123 
L 202.19376 318.398335 
L 203.29588 318.363868 
L 204.398 318.329721 
L 205.50012 318.295892 
L 206.60224 318.262381 
L 207.70436 318.229185 
L 208.80648 318.196303 
L 209.9086 318.163731 
L 211.01072 318.131467 
L 212.11284 318.099507 
L 213.21496 318.067848 
L 214.31708 318.036486 
L 215.4192 318.005416 
L 216.52132 317.974635 
L 217.62344 317.944138 
L 218.72556 317.913918 
L 219.82768 317.883973 
L 220.9298 317.854295 
L 222.03192 317.824879 
L 223.13404 317.79572 
L 224.23616 317.766811 
L 225.33828 317.738145 
L 226.4404 317.709717 
L 227.54252 317.68152 
L 228.64464 317.653547 
L 229.74676 317.62579 
L 230.84888 317.598244 
L 231.951 317.570899 
L 233.05312 317.54375 
L 234.15524 317.516788 
L 235.25736 317.490005 
L 236.35948 317.463394 
L 237.4616 317.436947 
L 238.56372 317.410656 
L 239.66584 317.384511 
L 240.76796 317.358506 
L 241.87008 317.33263 
L 242.9722 317.306877 
L 244.07432 317.281237 
L 245.17644 317.2557 
L 246.27856 317.230259 
L 247.38068 317.204904 
L 248.4828 317.179626 
L 249.58492 317.154416 
L 250.68704 317.129265 
L 251.78916 317.104162 
L 252.89128 317.079099 
L 253.9934 317.054065 
L 255.09552 317.029051 
L 256.19764 317.004048 
L 257.29976 316.979044 
L 258.40188 316.954031 
L 259.504 316.928997 
L 260.60612 316.903933 
L 261.70824 316.878828 
L 262.81036 316.853672 
L 263.91248 316.828454 
L 265.0146 316.803164 
L 266.11672 316.77779 
L 267.21884 316.752322 
L 268.32096 316.726748 
L 269.42308 316.701058 
L 270.5252 316.67524 
L 271.62732 316.649283 
L 272.72944 316.623175 
L 273.83156 316.596905 
L 274.93368 316.570461 
L 276.0358 316.543831 
L 277.13792 316.517003 
L 278.24004 316.489964 
L 279.34216 316.462703 
L 280.44428 316.435206 
L 281.5464 316.407462 
L 282.64852 316.379458 
L 283.75064 316.35118 
L 284.85276 316.322615 
L 285.95488 316.293751 
L 287.057 316.264573 
L 288.15912 316.235069 
L 289.26124 316.205223 
L 290.36336 316.175024 
L 291.46548 316.144455 
L 292.5676 316.113503 
L 293.66972 316.082154 
L 294.77184 316.050392 
L 295.87396 316.018202 
L 296.97608 315.98557 
L 298.0782 315.95248 
L 299.18032 315.918916 
L 300.28244 315.884862 
L 301.38456 315.850303 
L 302.48668 315.815221 
L 303.5888 315.779602 
L 304.69092 315.743426 
L 305.79304 315.706678 
L 306.89516 315.66934 
L 307.99728 315.631394 
L 309.0994 315.592822 
L 310.20152 315.553607 
L 311.30364 315.513729 
L 312.40576 315.47317 
L 313.50788 315.431911 
L 314.61 315.389932 
L 315.71212 315.347213 
L 316.81424 315.303734 
L 317.91636 315.259475 
L 319.01848 315.214415 
L 320.1206 315.168532 
L 321.22272 315.121806 
L 322.32484 315.074214 
L 323.42696 315.025734 
L 324.52908 314.976343 
L 325.6312 314.926019 
L 326.73332 314.874737 
L 327.83544 314.822474 
L 328.93756 314.769205 
L 330.03968 314.714906 
L 331.1418 314.659551 
L 332.24392 314.603115 
L 333.34604 314.545571 
L 334.44816 314.486893 
L 335.55028 314.427055 
L 336.6524 314.366027 
L 337.75452 314.303782 
L 338.85664 314.240292 
L 339.95876 314.175526 
L 341.06088 314.109457 
L 342.163 314.042052 
L 343.26512 313.973282 
L 344.36724 313.903115 
L 345.46936 313.831519 
L 346.57148 313.758461 
L 347.6736 313.683908 
L 348.77572 313.607827 
L 349.87784 313.530182 
L 350.97996 313.450939 
L 352.08208 313.370063 
L 353.1842 313.287515 
L 354.28632 313.20326 
L 355.38844 313.11726 
L 356.49056 313.029476 
L 357.59268 312.939868 
L 358.6948 312.848397 
L 359.79692 312.755022 
L 360.89904 312.659701 
L 362.00116 312.562392 
L 363.10328 312.463052 
L 364.2054 312.361637 
L 365.30752 312.258102 
L 366.40964 312.152401 
L 367.51176 312.044489 
L 368.61388 311.934316 
L 369.716 311.821837 
L 370.81812 311.707 
L 371.92024 311.589756 
L 373.02236 311.470055 
L 374.12448 311.347843 
L 375.2266 311.223068 
L 376.32872 311.095677 
L 377.43084 310.965614 
L 378.53296 310.832822 
L 379.63508 310.697246 
L 380.7372 310.558827 
L 381.83932 310.417506 
L 382.94144 310.273223 
L 384.04356 310.125915 
L 385.14568 309.975522 
L 386.2478 309.821979 
L 387.34992 309.665221 
L 388.45204 309.505183 
L 389.55416 309.341797 
L 390.65628 309.174995 
L 391.7584 309.004708 
L 392.86052 308.830864 
L 393.96264 308.653392 
L 395.06476 308.472218 
L 396.16688 308.287268 
L 397.269 308.098466 
L 398.37112 307.905734 
L 399.47324 307.708993 
L 400.57536 307.508165 
L 401.67748 307.303167 
L 402.7796 307.093918 
L 403.88172 306.880332 
L 404.98384 306.662324 
L 406.08596 306.439808 
L 407.18808 306.212694 
L 408.2902 305.980895 
L 409.39232 305.744317 
L 410.49444 305.502868 
L 411.59656 305.256455 
L 412.69868 305.004981 
L 413.8008 304.74835 
L 414.90292 304.486462 
L 416.00504 304.219219 
L 417.10716 303.946517 
L 418.20928 303.668254 
L 419.3114 303.384325 
L 420.41352 303.094625 
L 421.51564 302.799045 
L 422.61776 302.497477 
L 423.71988 302.18981 
L 424.822 301.875931 
L 425.92412 301.555727 
L 427.02624 301.229084 
L 428.12836 300.895884 
L 429.23048 300.55601 
L 430.3326 300.209343 
L 431.43472 299.855762 
L 432.53684 299.495144 
L 433.63896 299.127367 
L 434.74108 298.752306 
L 435.8432 298.369835 
L 436.94532 297.979827 
L 438.04744 297.582153 
L 439.14956 297.176684 
L 440.25168 296.763289 
L 441.3538 296.341838 
L 442.45592 295.912197 
L 443.55804 295.474234 
L 444.66016 295.027813 
L 445.76228 294.5728 
L 446.8644 294.10906 
L 447.96652 293.636456 
L 449.06864 293.154852 
L 450.17076 292.66411 
L 451.27288 292.164093 
L 452.375 291.654665 
L 453.47712 291.135687 
L 454.57924 290.607022 
L 455.68136 290.068533 
L 456.78348 289.520085 
L 457.8856 288.96154 
L 458.98772 288.392763 
L 460.08984 287.813621 
L 461.19196 287.22398 
L 462.29408 286.623709 
L 463.3962 286.012677 
L 464.49832 285.390756 
L 465.60044 284.75782 
L 466.70256 284.113745 
L 467.80468 283.458409 
L 468.9068 282.791694 
L 470.00892 282.113486 
L 471.11104 281.423672 
L 472.21316 280.722144 
L 473.31528 280.0088 
L 474.4174 279.28354 
L 475.51952 278.546272 
L 476.62164 277.796905 
L 477.72376 277.035359 
L 478.82588 276.261558 
L 479.928 275.475433 
L 481.03012 274.676922 
L 482.13224 273.865972 
L 483.23436 273.042539 
L 484.33648 272.206588 
L 485.4386 271.358092 
L 486.54072 270.497038 
L 487.64284 269.623421 
L 488.74496 268.737251 
L 489.84708 267.838549 
L 490.9492 266.927351 
L 492.05132 266.003706 
L 493.15344 265.067682 
L 494.25556 264.11936 
L 495.35768 263.15884 
L 496.4598 262.186241 
L 497.56192 261.201703 
L 498.66404 260.205385 
L 499.76616 259.197469 
L 500.86828 258.178162 
L 501.9704 257.147696 
L 503.07252 256.106328 
L 504.17464 255.054345 
L 505.27676 253.992063 
L 506.37888 252.91983 
L 507.481 251.838029 
L 508.58312 250.747075 
L 509.68524 249.647424 
L 510.78736 248.539569 
L 511.88948 247.424047 
L 512.9916 246.301437 
L 514.09372 245.172369 
L 515.19584 244.037517 
L 516.29796 242.897611 
L 517.40008 241.753435 
L 518.5022 240.605833 
L 519.60432 239.455708 
L 520.70644 238.30403 
L 521.80856 237.151839 
L 522.91068 236.000245 
L 524.0128 234.850438 
L 525.11492 233.703687 
L 526.21704 232.561351 
L 527.31916 231.424876 
L 528.42128 230.295808 
L 529.5234 229.175792 
L 530.62552 228.066585 
L 531.72764 226.970057 
L 532.82976 225.888199 
L 533.93188 224.823134 
L 535.034 223.77712 
L 536.13612 222.752561 
L 537.23824 221.752018 
L 538.34036 220.778218 
L 539.44248 219.834066 
L 540.5446 218.922666 
L 541.64672 218.047356 
L 542.74884 217.211904 
L 543.85096 216.507316 
L 544.95308 217.999641 
L 546.0552 219.527528 
L 547.15732 221.063118 
L 548.25944 222.602797 
L 549.36156 224.14331 
L 550.46368 225.681594 
L 551.5658 227.21474 
L 552.66792 228.739986 
L 553.77004 230.254701 
L 554.87216 231.756379 
L 555.97428 233.242632 
L 557.0764 234.711181 
L 558.17852 236.159853 
L 559.28064 237.586572 
L 560.38276 238.989356 
L 561.48488 240.36631 
L 562.587 241.715623 
L 563.68912 243.035563 
L 564.79124 244.324472 
L 565.89336 245.580767 
L 566.99548 246.802929 
L 568.0976 247.989507 
L 569.19972 249.139111 
L 570.30184 250.250413 
L 571.40396 251.322141 
L 572.50608 252.353083 
L 573.6082 253.342079 
L 574.71032 254.288024 
L 575.81244 255.189867 
L 576.91456 256.046609 
L 578.01668 256.857307 
L 579.1188 257.621067 
L 580.22092 258.337053 
L 581.32304 259.004481 
L 582.42516 259.622629 
L 583.52728 260.190828 
L 584.6294 260.708478 
L 585.73152 261.175038 
L 586.83364 261.590041 
L 587.93576 261.953093 
L 589.03788 262.263878 
L 590.14 262.522168 
L 591.24212 262.727827 
L 592.34424 262.880825 
L 593.44636 262.98124 
L 594.54848 263.029278 
L 595.6506 263.025288 
L 596.75272 262.969785 
L 597.85484 262.863524 
L 598.95696 262.708096 
L 600.05908 263.254726 
L 601.1612 264.946844 
L 602.26332 266.568716 
L 603.36544 268.117904 
L 604.46756 269.593663 
L 605.56968 270.995521 
L 606.6718 272.323184 
L 607.77392 273.576508 
L 608.87604 274.755483 
L 609.97816 275.860227 
L 611.08028 276.890975 
L 612.1824 277.848077 
L 613.28452 278.73199 
L 614.38664 279.543279 
L 615.48876 280.282613 
L 616.59088 280.950764 
L 617.693 281.548609 
L 618.79512 282.077129 
L 619.89724 282.537415 
L 620.99936 282.930669 
L 622.10148 283.258213 
L 623.2036 283.521489 
L 624.30572 283.722075 
L 625.40784 283.861688 
L 626.50996 283.942198 
L 627.61208 283.965645 
L 628.7142 283.934249 
L 629.81632 283.850432 
L 630.91844 283.716841 
L 632.02056 283.536374 
L 633.12268 283.312211 
L 634.2248 283.04785 
L 635.32692 282.747155 
L 636.42904 282.41441 
L 637.53116 282.054387 
L 638.63328 281.672431 
L 639.7354 281.274573 
L 640.83752 280.867679 
L 641.93964 280.459692 
L 643.04176 280.060362 
L 644.14388 279.924227 
L 645.246 280.754976 
L 646.34812 281.465129 
L 647.45024 282.042058 
L 648.55236 282.480861 
L 649.65448 282.778218 
L 650.7566 282.932172 
L 651.85872 282.942096 
L 652.96084 282.808732 
L 654.06296 282.534457 
L 655.16508 282.332828 
L 656.2672 283.178784 
L 657.36932 284.055279 
L 658.47144 284.950636 
L 659.57356 285.858597 
L 660.67568 286.774103 
L 661.7778 287.692955 
L 662.87992 288.611632 
L 663.98204 289.52716 
L 665.08416 290.437019 
L 666.18628 291.339061 
L 667.2884 292.23146 
L 668.39052 293.112662 
L 669.49264 293.981344 
L 670.59476 294.836384 
L 671.69688 295.676838 
L 672.799 296.501913 
L 673.90112 297.310949 
L 675.00324 298.103407 
L 676.10536 298.878848 
L 677.20748 299.636929 
L 678.3096 300.377386 
L 679.41172 301.100027 
L 680.51384 301.804727 
L 681.61596 302.491414 
L 682.71808 303.160069 
L 683.8202 303.810719 
L 684.92232 304.443429 
L 686.02444 305.0583 
L 687.12656 305.655465 
L 688.22868 306.235084 
L 689.3308 306.797343 
L 690.43292 307.342449 
L 691.53504 307.870627 
L 692.63716 308.382119 
L 693.73928 308.877183 
L 694.8414 309.356087 
L 695.94352 309.819113 
L 697.04564 310.266548 
L 698.14776 310.698689 
L 699.24988 311.115839 
L 700.352 311.518306 
L 701.45412 311.906402 
L 702.55624 312.280441 
L 703.65836 312.640741 
L 704.76048 312.987619 
L 705.8626 313.321394 
L 706.96472 313.642384 
L 708.06684 313.950907 
L 709.16896 314.247278 
L 710.27108 314.531813 
L 711.3732 314.804823 
L 712.47532 315.066617 
L 713.57744 315.317501 
L 714.67956 315.557779 
L 715.78168 315.787749 
L 716.8838 316.007707 
L 717.98592 316.217944 
L 719.08804 316.418746 
L 720.19016 316.610395 
L 721.29228 316.79317 
L 722.3944 316.967342 
L 723.49652 317.13318 
L 724.59864 317.290946 
L 725.70076 317.440897 
L 726.80288 317.583287 
L 727.905 317.718363 
L 729.00712 317.846366 
L 730.10924 317.967535 
L 731.21136 318.082099 
L 732.31348 318.190286 
L 733.4156 318.292317 
L 734.51772 318.388408 
L 735.61984 318.478769 
L 736.72196 318.563607 
L 737.82408 318.64312 
L 738.9262 318.717506 
L 740.02832 318.786953 
L 741.13044 318.851648 
L 742.23256 318.911771 
L 743.33468 318.967497 
L 744.4368 319.018997 
L 745.53892 319.066438 
L 746.64104 319.109979 
L 747.74316 319.149779 
L 748.84528 319.185989 
L 749.9474 319.218758 
L 751.04952 319.248228 
L 752.15164 319.274539 
L 753.25376 319.297826 
L 754.35588 319.31822 
L 755.458 319.335847 
L 756.56012 319.35083 
L 757.66224 319.363289 
L 758.76436 319.373338 
L 759.86648 319.381089 
L 760.9686 319.38665 
L 762.07072 319.390125 
L 763.17284 319.391614 
L 764.27496 319.391217 
L 765.37708 319.389025 
L 766.4792 319.385132 
L 767.58132 319.379623 
L 768.68344 319.372585 
L 769.78556 319.364098 
L 770.88768 319.354241 
L 771.9898 319.343091 
L 773.09192 319.330721 
L 774.19404 319.317201 
L 775.29616 319.3026 
L 776.39828 319.286982 
L 777.5004 319.27041 
L 778.60252 319.252946 
L 779.70464 319.234646 
L 780.80676 319.215568 
L 781.90888 319.195765 
L 783.011 319.175288 
L 784.11312 319.154187 
L 785.21524 319.13251 
L 786.31736 319.110302 
L 787.41948 319.087606 
L 788.5216 319.064465 
L 789.62372 319.040918 
L 790.72584 319.017004 
L 791.82796 318.99276 
L 792.93008 318.968221 
L 794.0322 318.94342 
L 795.13432 318.918389 
L 796.23644 318.893159 
L 797.33856 318.867759 
L 798.44068 318.842217 
L 799.5428 318.816558 
L 800.64492 318.79081 
L 801.74704 318.764994 
L 802.84916 318.739135 
L 803.95128 318.713254 
L 805.0534 318.687371 
L 806.15552 318.661506 
L 807.25764 318.635678 
L 808.35976 318.609903 
L 809.46188 318.584199 
L 810.564 318.558581 
L 811.66612 318.533064 
L 812.76824 318.507662 
L 813.87036 318.482387 
L 814.97248 318.457253 
L 816.0746 318.43227 
L 817.17672 318.40745 
L 818.27884 318.382803 
L 819.38096 318.358338 
L 820.48308 318.334065 
L 821.5852 318.30999 
L 822.68732 318.286123 
L 823.78944 318.26247 
L 824.89156 318.239037 
L 825.99368 318.215831 
L 827.0958 318.192857 
L 828.19792 318.170121 
L 829.30004 318.147626 
L 830.40216 318.125378 
L 831.50428 318.10338 
L 832.6064 318.081634 
L 833.70852 318.060145 
L 834.81064 318.038915 
L 835.91276 318.017946 
L 837.01488 317.99724 
L 838.117 317.9768 
L 839.21912 317.956625 
L 840.32124 317.936718 
L 841.42336 317.917079 
L 842.52548 317.897708 
L 843.6276 317.878607 
L 844.72972 317.859775 
L 845.83184 317.841212 
L 846.93396 317.822917 
L 848.03608 317.804891 
L 849.1382 317.787133 
L 850.24032 317.769641 
L 851.34244 317.752415 
L 852.44456 317.735454 
L 853.54668 317.718756 
L 854.6488 317.702319 
L 855.75092 317.686143 
L 856.85304 317.670225 
L 857.95516 317.654564 
L 859.05728 317.639158 
L 860.1594 317.624005 
L 861.26152 317.609102 
L 862.36364 317.594449 
L 863.46576 317.580041 
L 864.56788 317.565877 
L 865.67 317.551955 
L 866.77212 317.538272 
L 867.87424 317.524826 
L 868.97636 317.511614 
L 870.07848 317.498634 
L 871.1806 317.485882 
L 872.28272 317.473357 
L 873.38484 317.461056 
L 874.48696 317.448975 
L 875.58908 317.437112 
L 876.6912 317.425465 
L 877.79332 317.41403 
L 878.89544 317.402805 
L 879.99756 317.391787 
L 881.09968 317.380973 
L 882.2018 317.37036 
L 883.30392 317.359946 
L 884.40604 317.349727 
L 885.50816 317.339702 
L 886.61028 317.329866 
L 887.7124 317.320217 
L 888.81452 317.310753 
L 889.91664 317.301471 
L 891.01876 317.292367 
L 892.12088 317.283439 
L 893.223 317.274684 
L 894.32512 317.2661 
L 895.42724 317.257684 
L 896.52936 317.249433 
L 897.63148 317.241344 
L 898.7336 317.233415 
L 899.83572 317.225643 
L 900.93784 317.218026 
L 902.03996 317.21056 
L 903.14208 317.203243 
L 904.2442 317.196074 
L 905.34632 317.189048 
L 906.44844 317.182165 
L 907.55056 317.17542 
L 908.65268 317.168812 
L 909.7548 317.162339 
L 910.85692 317.155998 
L 911.95904 317.149786 
L 913.06116 317.143702 
L 914.16328 317.137742 
L 915.2654 317.131906 
L 916.36752 317.126189 
L 917.46964 317.120592 
L 918.57176 317.11511 
L 919.67388 317.109742 
L 920.776 317.104486 
L 921.87812 317.099339 
L 922.98024 317.0943 
L 924.08236 317.089367 
L 925.18448 317.084538 
L 926.2866 317.07981 
L 927.38872 317.075182 
L 928.49084 317.070651 
L 929.59296 317.066217 
L 930.69508 317.061876 
L 931.7972 317.057628 
L 932.89932 317.05347 
L 934.00144 317.0494 
L 935.10356 317.045418 
L 936.20568 317.041521 
L 937.3078 317.037707 
L 938.40992 317.033975 
L 939.51204 317.030323 
L 940.61416 317.02675 
L 941.71628 317.023254 
L 942.8184 317.019833 
L 943.92052 317.016487 
L 945.02264 317.013212 
L 946.12476 317.010009 
L 947.22688 317.006875 
L 948.329 317.00381 
L 949.43112 317.000811 
L 950.53324 316.997878 
L 951.63536 316.995009 
L 952.73748 316.992202 
L 953.8396 316.989457 
L 954.94172 316.986772 
L 956.04384 316.984146 
L 957.14596 316.981577 
L 958.24808 316.979066 
L 959.3502 316.976609 
L 960.45232 316.974207 
L 961.55444 316.971857 
L 962.65656 316.96956 
L 963.75868 316.967313 
L 964.8608 316.965116 
L 965.96292 316.962968 
L 967.06504 316.960868 
L 968.16716 316.958814 
L 969.26928 316.956806 
L 970.3714 316.954842 
L 971.47352 316.952923 
L 972.57564 316.951046 
L 973.67776 316.949211 
L 974.77988 316.947417 
L 975.882 316.945663 
L 976.98412 316.943948 
L 978.08624 316.942272 
L 979.18836 316.940634 
L 980.29048 316.939032 
L 981.3926 316.937466 
L 982.49472 316.935936 
L 983.59684 316.93444 
L 984.69896 316.932977 
L 985.80108 316.931548 
L 986.9032 316.930151 
L 988.00532 316.928785 
L 989.10744 316.92745 
L 990.20956 316.926146 
L 991.31168 316.924871 
L 992.4138 316.923625 
L 993.51592 316.922407 
L 994.61804 316.921217 
L 995.72016 316.920053 
L 996.82228 316.918917 
L 997.9244 316.917806 
L 999.02652 316.91672 
L 1000.12864 316.915659 
L 1001.23076 316.914622 
L 1002.33288 316.913609 
L 1003.435 316.912619 
L 1004.53712 316.911652 
L 1005.63924 316.910706 
L 1006.74136 316.909783 
L 1007.84348 316.90888 
L 1008.9456 316.907998 
L 1010.04772 316.907136 
L 1011.14984 316.906294 
L 1012.25196 316.905472 
L 1013.35408 316.904668 
L 1014.4562 316.903883 
L 1015.55832 316.903115 
L 1016.66044 316.902366 
L 1017.76256 316.901633 
L 1018.86468 316.900918 
L 1019.9668 316.900219 
L 1021.06892 316.899536 
L 1022.17104 316.898868 
L 1023.27316 316.898217 
L 1024.37528 316.89758 
L 1025.4774 316.896958 
L 1026.57952 316.89635 
L 1027.68164 316.895756 
L 1028.78376 316.895176 
L 1029.88588 316.89461 
L 1030.988 316.894056 
L 1032.09012 316.893516 
L 1033.19224 316.892988 
L 1034.29436 316.892472 
L 1035.39648 316.891968 
L 1036.4986 316.891476 
L 1037.60072 316.890995 
L 1038.70284 316.890526 
L 1039.80496 316.890067 
L 1040.90708 316.889619 
L 1042.0092 316.889181 
L 1043.11132 316.888754 
L 1044.21344 316.888336 
L 1045.31556 316.887929 
L 1046.41768 316.88753 
L 1047.5198 316.887142 
L 1048.62192 316.886762 
L 1049.72404 316.886391 
L 1050.82616 316.886028 
L 1051.92828 316.885674 
L 1053.0304 316.885329 
L 1054.13252 316.884991 
L 1055.23464 316.884662 
L 1056.33676 316.88434 
L 1057.43888 316.884025 
L 1058.541 316.883718 
L 1059.64312 316.883418 
L 1060.74524 316.883126 
L 1061.84736 316.88284 
L 1062.94948 316.88256 
L 1064.0516 316.882288 
L 1065.15372 316.882021 
L 1066.25584 316.881761 
L 1067.35796 316.881507 
L 1068.46008 316.881259 
L 1069.5622 316.881017 
L 1070.66432 316.880781 
L 1071.76644 316.88055 
L 1072.86856 316.880324 
L 1073.97068 316.880104 
L 1075.0728 316.879889 
L 1076.17492 316.879679 
L 1077.27704 316.879474 
L 1078.37916 316.879274 
L 1079.48128 316.879079 
L 1080.5834 316.878888 
L 1081.68552 316.878701 
L 1082.78764 316.878519 
L 1083.88976 316.878342 
L 1084.99188 316.878168 
L 1086.094 316.877999 
L 1087.19612 316.877834 
L 1088.29824 316.877672 
L 1089.40036 316.877515 
L 1090.50248 316.877361 
L 1091.6046 316.87721 
L 1092.70672 316.877064 
L 1093.80884 316.876921 
L 1094.91096 316.876781 
L 1096.01308 316.876644 
L 1097.1152 316.876511 
L 1098.21732 316.876381 
L 1099.31944 316.876254 
L 1100.42156 316.87613 
L 1101.52368 316.876009 
L 1102.6258 316.87589 
L 1103.72792 316.875775 
L 1104.83004 316.875662 
L 1105.93216 316.875552 
L 1107.03428 316.875445 
L 1108.1364 316.87534 
L 1109.23852 316.875238 
L 1110.34064 316.875138 
L 1111.44276 316.87504 
L 1112.54488 316.874945 
L 1113.647 316.874852 
L 1114.74912 316.874761 
L 1115.85124 316.874673 
L 1116.95336 316.874586 
L 1118.05548 316.874502 
L 1119.1576 316.87442 
L 1120.25972 316.874339 
L 1121.36184 316.874261 
L 1122.46396 316.874184 
L 1123.56608 316.874109 
L 1124.6682 316.874036 
L 1125.77032 316.873965 
L 1126.87244 316.873895 
L 1127.97456 316.873827 
L 1129.07668 316.873761 
L 1130.1788 316.873696 
L 1131.28092 316.873633 
L 1132.38304 316.873572 
L 1133.48516 316.873511 
L 1134.58728 316.873453 
L 1135.6894 316.873395 
L 1136.79152 316.873339 
L 1137.89364 316.873285 
L 1138.99576 316.873231 
L 1140.09788 316.873179 
L 1140.09788 220.304437 
L 1138.99576 220.304489 
L 1137.89364 220.304543 
L 1136.79152 220.304597 
L 1135.6894 220.304653 
L 1134.58728 220.304711 
L 1133.48516 220.30477 
L 1132.38304 220.30483 
L 1131.28092 220.304892 
L 1130.1788 220.304955 
L 1129.07668 220.30502 
L 1127.97456 220.305086 
L 1126.87244 220.305154 
L 1125.77032 220.305224 
L 1124.6682 220.305295 
L 1123.56608 220.305368 
L 1122.46396 220.305443 
L 1121.36184 220.30552 
L 1120.25972 220.305598 
L 1119.1576 220.305679 
L 1118.05548 220.305761 
L 1116.95336 220.305846 
L 1115.85124 220.305932 
L 1114.74912 220.306021 
L 1113.647 220.306112 
L 1112.54488 220.306205 
L 1111.44276 220.3063 
L 1110.34064 220.306398 
L 1109.23852 220.306498 
L 1108.1364 220.306601 
L 1107.03428 220.306706 
L 1105.93216 220.306813 
L 1104.83004 220.306923 
L 1103.72792 220.307036 
L 1102.6258 220.307152 
L 1101.52368 220.30727 
L 1100.42156 220.307392 
L 1099.31944 220.307516 
L 1098.21732 220.307643 
L 1097.1152 220.307774 
L 1096.01308 220.307907 
L 1094.91096 220.308044 
L 1093.80884 220.308184 
L 1092.70672 220.308328 
L 1091.6046 220.308475 
L 1090.50248 220.308625 
L 1089.40036 220.30878 
L 1088.29824 220.308938 
L 1087.19612 220.3091 
L 1086.094 220.309265 
L 1084.99188 220.309435 
L 1083.88976 220.309609 
L 1082.78764 220.309787 
L 1081.68552 220.30997 
L 1080.5834 220.310157 
L 1079.48128 220.310348 
L 1078.37916 220.310544 
L 1077.27704 220.310745 
L 1076.17492 220.310951 
L 1075.0728 220.311161 
L 1073.97068 220.311377 
L 1072.86856 220.311598 
L 1071.76644 220.311824 
L 1070.66432 220.312056 
L 1069.5622 220.312293 
L 1068.46008 220.312537 
L 1067.35796 220.312786 
L 1066.25584 220.313041 
L 1065.15372 220.313302 
L 1064.0516 220.313569 
L 1062.94948 220.313843 
L 1061.84736 220.314124 
L 1060.74524 220.314411 
L 1059.64312 220.314705 
L 1058.541 220.315007 
L 1057.43888 220.315315 
L 1056.33676 220.315631 
L 1055.23464 220.315955 
L 1054.13252 220.316286 
L 1053.0304 220.316626 
L 1051.92828 220.316973 
L 1050.82616 220.317329 
L 1049.72404 220.317694 
L 1048.62192 220.318067 
L 1047.5198 220.318449 
L 1046.41768 220.318841 
L 1045.31556 220.319242 
L 1044.21344 220.319652 
L 1043.11132 220.320072 
L 1042.0092 220.320503 
L 1040.90708 220.320944 
L 1039.80496 220.321395 
L 1038.70284 220.321857 
L 1037.60072 220.32233 
L 1036.4986 220.322815 
L 1035.39648 220.323311 
L 1034.29436 220.323819 
L 1033.19224 220.324339 
L 1032.09012 220.324872 
L 1030.988 220.325418 
L 1029.88588 220.325976 
L 1028.78376 220.326548 
L 1027.68164 220.327133 
L 1026.57952 220.327733 
L 1025.4774 220.328347 
L 1024.37528 220.328975 
L 1023.27316 220.329619 
L 1022.17104 220.330278 
L 1021.06892 220.330953 
L 1019.9668 220.331643 
L 1018.86468 220.332351 
L 1017.76256 220.333075 
L 1016.66044 220.333816 
L 1015.55832 220.334575 
L 1014.4562 220.335352 
L 1013.35408 220.336148 
L 1012.25196 220.336962 
L 1011.14984 220.337796 
L 1010.04772 220.33865 
L 1008.9456 220.339525 
L 1007.84348 220.34042 
L 1006.74136 220.341336 
L 1005.63924 220.342274 
L 1004.53712 220.343234 
L 1003.435 220.344217 
L 1002.33288 220.345224 
L 1001.23076 220.346254 
L 1000.12864 220.347309 
L 999.02652 220.348389 
L 997.9244 220.349495 
L 996.82228 220.350627 
L 995.72016 220.351785 
L 994.61804 220.352972 
L 993.51592 220.354186 
L 992.4138 220.355429 
L 991.31168 220.356701 
L 990.20956 220.358004 
L 989.10744 220.359338 
L 988.00532 220.360703 
L 986.9032 220.3621 
L 985.80108 220.363531 
L 984.69896 220.364995 
L 983.59684 220.366494 
L 982.49472 220.368028 
L 981.3926 220.369599 
L 980.29048 220.371207 
L 979.18836 220.372852 
L 978.08624 220.374537 
L 976.98412 220.376261 
L 975.882 220.378027 
L 974.77988 220.379833 
L 973.67776 220.381683 
L 972.57564 220.383576 
L 971.47352 220.385514 
L 970.3714 220.387497 
L 969.26928 220.389527 
L 968.16716 220.391606 
L 967.06504 220.393733 
L 965.96292 220.39591 
L 964.8608 220.398138 
L 963.75868 220.400419 
L 962.65656 220.402754 
L 961.55444 220.405144 
L 960.45232 220.40759 
L 959.3502 220.410094 
L 958.24808 220.412656 
L 957.14596 220.415279 
L 956.04384 220.417963 
L 954.94172 220.420711 
L 953.8396 220.423523 
L 952.73748 220.426402 
L 951.63536 220.429348 
L 950.53324 220.432363 
L 949.43112 220.43545 
L 948.329 220.438609 
L 947.22688 220.441842 
L 946.12476 220.445151 
L 945.02264 220.448538 
L 943.92052 220.452004 
L 942.8184 220.455552 
L 941.71628 220.459183 
L 940.61416 220.4629 
L 939.51204 220.466703 
L 938.40992 220.470596 
L 937.3078 220.474581 
L 936.20568 220.478659 
L 935.10356 220.482833 
L 934.00144 220.487105 
L 932.89932 220.491477 
L 931.7972 220.495952 
L 930.69508 220.500532 
L 929.59296 220.50522 
L 928.49084 220.510018 
L 927.38872 220.514928 
L 926.2866 220.519954 
L 925.18448 220.525097 
L 924.08236 220.530362 
L 922.98024 220.53575 
L 921.87812 220.541265 
L 920.776 220.546909 
L 919.67388 220.552686 
L 918.57176 220.558599 
L 917.46964 220.56465 
L 916.36752 220.570844 
L 915.2654 220.577183 
L 914.16328 220.583672 
L 913.06116 220.590313 
L 911.95904 220.59711 
L 910.85692 220.604067 
L 909.7548 220.611188 
L 908.65268 220.618476 
L 907.55056 220.625936 
L 906.44844 220.633572 
L 905.34632 220.641387 
L 904.2442 220.649386 
L 903.14208 220.657574 
L 902.03996 220.665955 
L 900.93784 220.674533 
L 899.83572 220.683314 
L 898.7336 220.692302 
L 897.63148 220.701502 
L 896.52936 220.710919 
L 895.42724 220.720558 
L 894.32512 220.730425 
L 893.223 220.740526 
L 892.12088 220.750865 
L 891.01876 220.761448 
L 889.91664 220.772282 
L 888.81452 220.783373 
L 887.7124 220.794726 
L 886.61028 220.806349 
L 885.50816 220.818246 
L 884.40604 220.830426 
L 883.30392 220.842895 
L 882.2018 220.855661 
L 881.09968 220.868729 
L 879.99756 220.882108 
L 878.89544 220.895806 
L 877.79332 220.909829 
L 876.6912 220.924187 
L 875.58908 220.938886 
L 874.48696 220.953936 
L 873.38484 220.969345 
L 872.28272 220.985123 
L 871.1806 221.001277 
L 870.07848 221.017817 
L 868.97636 221.034753 
L 867.87424 221.052095 
L 866.77212 221.069853 
L 865.67 221.088036 
L 864.56788 221.106656 
L 863.46576 221.125723 
L 862.36364 221.145249 
L 861.26152 221.165244 
L 860.1594 221.185721 
L 859.05728 221.206692 
L 857.95516 221.228168 
L 856.85304 221.250163 
L 855.75092 221.27269 
L 854.6488 221.295761 
L 853.54668 221.319391 
L 852.44456 221.343594 
L 851.34244 221.368384 
L 850.24032 221.393776 
L 849.1382 221.419785 
L 848.03608 221.446426 
L 846.93396 221.473717 
L 845.83184 221.501673 
L 844.72972 221.53031 
L 843.6276 221.559648 
L 842.52548 221.589703 
L 841.42336 221.620493 
L 840.32124 221.652038 
L 839.21912 221.684357 
L 838.117 221.717469 
L 837.01488 221.751395 
L 835.91276 221.786156 
L 834.81064 221.821774 
L 833.70852 221.858269 
L 832.6064 221.895666 
L 831.50428 221.933987 
L 830.40216 221.973255 
L 829.30004 222.013497 
L 828.19792 222.054736 
L 827.0958 222.096999 
L 825.99368 222.140312 
L 824.89156 222.184702 
L 823.78944 222.230198 
L 822.68732 222.276828 
L 821.5852 222.324621 
L 820.48308 222.373609 
L 819.38096 222.423822 
L 818.27884 222.475292 
L 817.17672 222.528051 
L 816.0746 222.582135 
L 814.97248 222.637576 
L 813.87036 222.694411 
L 812.76824 222.752677 
L 811.66612 222.81241 
L 810.564 222.873649 
L 809.46188 222.936433 
L 808.35976 223.000804 
L 807.25764 223.066802 
L 806.15552 223.13447 
L 805.0534 223.203853 
L 803.95128 223.274994 
L 802.84916 223.347941 
L 801.74704 223.42274 
L 800.64492 223.499439 
L 799.5428 223.57809 
L 798.44068 223.658742 
L 797.33856 223.741449 
L 796.23644 223.826264 
L 795.13432 223.913242 
L 794.0322 224.002439 
L 792.93008 224.093915 
L 791.82796 224.187727 
L 790.72584 224.283937 
L 789.62372 224.382608 
L 788.5216 224.483804 
L 787.41948 224.58759 
L 786.31736 224.694033 
L 785.21524 224.803203 
L 784.11312 224.915169 
L 783.011 225.030005 
L 781.90888 225.147784 
L 780.80676 225.268582 
L 779.70464 225.392477 
L 778.60252 225.519548 
L 777.5004 225.649876 
L 776.39828 225.783545 
L 775.29616 225.92064 
L 774.19404 226.061248 
L 773.09192 226.205457 
L 771.9898 226.35336 
L 770.88768 226.505048 
L 769.78556 226.660618 
L 768.68344 226.820166 
L 767.58132 226.983792 
L 766.4792 227.151597 
L 765.37708 227.323685 
L 764.27496 227.500162 
L 763.17284 227.681135 
L 762.07072 227.866715 
L 760.9686 228.057013 
L 759.86648 228.252145 
L 758.76436 228.452227 
L 757.66224 228.657378 
L 756.56012 228.867719 
L 755.458 229.083374 
L 754.35588 229.304468 
L 753.25376 229.53113 
L 752.15164 229.763488 
L 751.04952 230.001676 
L 749.9474 230.245827 
L 748.84528 230.496079 
L 747.74316 230.752569 
L 746.64104 231.015439 
L 745.53892 231.284831 
L 744.4368 231.560889 
L 743.33468 231.843761 
L 742.23256 232.133595 
L 741.13044 232.43054 
L 740.02832 232.734749 
L 738.9262 233.046376 
L 737.82408 233.365575 
L 736.72196 233.692503 
L 735.61984 234.027317 
L 734.51772 234.370178 
L 733.4156 234.721243 
L 732.31348 235.080675 
L 731.21136 235.448635 
L 730.10924 235.825286 
L 729.00712 236.210788 
L 727.905 236.605306 
L 726.80288 237.009001 
L 725.70076 237.422036 
L 724.59864 237.844572 
L 723.49652 238.27677 
L 722.3944 238.718789 
L 721.29228 239.170786 
L 720.19016 239.632918 
L 719.08804 240.105339 
L 717.98592 240.588198 
L 716.8838 241.081645 
L 715.78168 241.585822 
L 714.67956 242.10087 
L 713.57744 242.626924 
L 712.47532 243.164113 
L 711.3732 243.712562 
L 710.27108 244.272387 
L 709.16896 244.8437 
L 708.06684 245.4266 
L 706.96472 246.021182 
L 705.8626 246.627527 
L 704.76048 247.245708 
L 703.65836 247.875786 
L 702.55624 248.517806 
L 701.45412 249.171801 
L 700.352 249.83779 
L 699.24988 250.515771 
L 698.14776 251.205728 
L 697.04564 251.907622 
L 695.94352 252.621394 
L 694.8414 253.346959 
L 693.73928 254.08421 
L 692.63716 254.833009 
L 691.53504 255.59319 
L 690.43292 256.364554 
L 689.3308 257.146866 
L 688.22868 257.939852 
L 687.12656 258.743199 
L 686.02444 259.556547 
L 684.92232 260.379488 
L 683.8202 261.211559 
L 682.71808 262.052243 
L 681.61596 262.900958 
L 680.51384 263.757053 
L 679.41172 264.619805 
L 678.3096 265.48841 
L 677.20748 266.361973 
L 676.10536 267.239506 
L 675.00324 268.119912 
L 673.90112 269.001979 
L 672.799 269.884366 
L 671.69688 270.765593 
L 670.59476 271.644019 
L 669.49264 272.517833 
L 668.39052 273.385025 
L 667.2884 274.24337 
L 666.18628 275.090395 
L 665.08416 275.923349 
L 663.98204 276.739159 
L 662.87992 277.534385 
L 661.7778 278.30516 
L 660.67568 279.047109 
L 659.57356 279.755255 
L 658.47144 280.423889 
L 657.36932 281.046378 
L 656.2672 281.614831 
L 655.16508 282.115874 
L 654.06296 281.532344 
L 652.96084 280.843454 
L 651.85872 280.266494 
L 650.7566 279.807482 
L 649.65448 279.470756 
L 648.55236 279.259239 
L 647.45024 279.174486 
L 646.34812 279.216656 
L 645.246 279.3843 
L 644.14388 279.668218 
L 643.04176 278.983955 
L 641.93964 278.035475 
L 640.83752 277.076399 
L 639.7354 276.115542 
L 638.63328 275.159895 
L 637.53116 274.215361 
L 636.42904 273.286988 
L 635.32692 272.379122 
L 634.2248 271.495515 
L 633.12268 270.639414 
L 632.02056 269.813621 
L 630.91844 269.020555 
L 629.81632 268.262288 
L 628.7142 267.540588 
L 627.61208 266.856946 
L 626.50996 266.212599 
L 625.40784 265.608556 
L 624.30572 265.045611 
L 623.2036 264.524361 
L 622.10148 264.045216 
L 620.99936 263.608411 
L 619.89724 263.21401 
L 618.79512 262.861918 
L 617.693 262.551883 
L 616.59088 262.283499 
L 615.48876 262.056209 
L 614.38664 261.869307 
L 613.28452 261.721936 
L 612.1824 261.613088 
L 611.08028 261.541601 
L 609.97816 261.506153 
L 608.87604 261.505262 
L 607.77392 261.537274 
L 606.6718 261.600362 
L 605.56968 261.692509 
L 604.46756 261.811501 
L 603.36544 261.954912 
L 602.26332 262.120069 
L 601.1612 262.303956 
L 600.05908 262.501795 
L 598.95696 261.495658 
L 597.85484 259.729844 
L 596.75272 257.958677 
L 595.6506 256.18683 
L 594.54848 254.418077 
L 593.44636 252.655893 
L 592.34424 250.903528 
L 591.24212 249.164043 
L 590.14 247.440329 
L 589.03788 245.735125 
L 587.93576 244.051031 
L 586.83364 242.390526 
L 585.73152 240.755975 
L 584.6294 239.149647 
L 583.52728 237.573717 
L 582.42516 236.030283 
L 581.32304 234.521371 
L 580.22092 233.048945 
L 579.1188 231.61491 
L 578.01668 230.221126 
L 576.91456 228.869408 
L 575.81244 227.561538 
L 574.71032 226.299265 
L 573.6082 225.084314 
L 572.50608 223.918388 
L 571.40396 222.803177 
L 570.30184 221.740359 
L 569.19972 220.731603 
L 568.0976 219.778577 
L 566.99548 218.882947 
L 565.89336 218.046382 
L 564.79124 217.27056 
L 563.68912 216.557165 
L 562.587 215.907894 
L 561.48488 215.324459 
L 560.38276 214.808586 
L 559.28064 214.362021 
L 558.17852 213.986528 
L 557.0764 213.683893 
L 555.97428 213.455926 
L 554.87216 213.304457 
L 553.77004 213.231344 
L 552.66792 213.238467 
L 551.5658 213.327731 
L 550.46368 213.501065 
L 549.36156 213.760421 
L 548.25944 214.107772 
L 547.15732 214.545104 
L 546.0552 215.074389 
L 544.95308 215.69743 
L 543.85096 216.391976 
L 542.74884 215.000741 
L 541.64672 213.58645 
L 540.5446 212.234924 
L 539.44248 210.944945 
L 538.34036 209.715058 
L 537.23824 208.543753 
L 536.13612 207.429503 
L 535.034 206.370776 
L 533.93188 205.366036 
L 532.82976 204.413754 
L 531.72764 203.512407 
L 530.62552 202.660486 
L 529.5234 201.856495 
L 528.42128 201.098957 
L 527.31916 200.386413 
L 526.21704 199.717424 
L 525.11492 199.090574 
L 524.0128 198.504472 
L 522.91068 197.95775 
L 521.80856 197.449065 
L 520.70644 196.977102 
L 519.60432 196.540573 
L 518.5022 196.138216 
L 517.40008 195.768798 
L 516.29796 195.431111 
L 515.19584 195.12398 
L 514.09372 194.846253 
L 512.9916 194.59681 
L 511.88948 194.374556 
L 510.78736 194.178427 
L 509.68524 194.007384 
L 508.58312 193.860418 
L 507.481 193.736544 
L 506.37888 193.634807 
L 505.27676 193.554277 
L 504.17464 193.494051 
L 503.07252 193.453251 
L 501.9704 193.431026 
L 500.86828 193.426549 
L 499.76616 193.439017 
L 498.66404 193.467653 
L 497.56192 193.511703 
L 496.4598 193.570436 
L 495.35768 193.643143 
L 494.25556 193.72914 
L 493.15344 193.827763 
L 492.05132 193.93837 
L 490.9492 194.060339 
L 489.84708 194.193069 
L 488.74496 194.335982 
L 487.64284 194.488514 
L 486.54072 194.650125 
L 485.4386 194.820291 
L 484.33648 194.998507 
L 483.23436 195.184285 
L 482.13224 195.377157 
L 481.03012 195.576667 
L 479.928 195.78238 
L 478.82588 195.993875 
L 477.72376 196.210746 
L 476.62164 196.432603 
L 475.51952 196.65907 
L 474.4174 196.889787 
L 473.31528 197.124407 
L 472.21316 197.362594 
L 471.11104 197.604029 
L 470.00892 197.848404 
L 468.9068 198.095423 
L 467.80468 198.344802 
L 466.70256 198.59627 
L 465.60044 198.849566 
L 464.49832 199.104441 
L 463.3962 199.360655 
L 462.29408 199.61798 
L 461.19196 199.876196 
L 460.08984 200.135096 
L 458.98772 200.39448 
L 457.8856 200.654156 
L 456.78348 200.913943 
L 455.68136 201.173668 
L 454.57924 201.433166 
L 453.47712 201.692279 
L 452.375 201.950858 
L 451.27288 202.208762 
L 450.17076 202.465854 
L 449.06864 202.722008 
L 447.96652 202.977102 
L 446.8644 203.231022 
L 445.76228 203.483659 
L 444.66016 203.73491 
L 443.55804 203.984679 
L 442.45592 204.232875 
L 441.3538 204.479413 
L 440.25168 204.724212 
L 439.14956 204.967196 
L 438.04744 205.208295 
L 436.94532 205.447443 
L 435.8432 205.684579 
L 434.74108 205.919645 
L 433.63896 206.152589 
L 432.53684 206.383362 
L 431.43472 206.611918 
L 430.3326 206.838216 
L 429.23048 207.062218 
L 428.12836 207.283889 
L 427.02624 207.503199 
L 425.92412 207.720118 
L 424.822 207.934622 
L 423.71988 208.146689 
L 422.61776 208.356298 
L 421.51564 208.563433 
L 420.41352 208.76808 
L 419.3114 208.970225 
L 418.20928 209.16986 
L 417.10716 209.366977 
L 416.00504 209.561571 
L 414.90292 209.753637 
L 413.8008 209.943174 
L 412.69868 210.130183 
L 411.59656 210.314666 
L 410.49444 210.496625 
L 409.39232 210.676067 
L 408.2902 210.852997 
L 407.18808 211.027424 
L 406.08596 211.199357 
L 404.98384 211.368807 
L 403.88172 211.535785 
L 402.7796 211.700304 
L 401.67748 211.862379 
L 400.57536 212.022025 
L 399.47324 212.179256 
L 398.37112 212.334091 
L 397.269 212.486547 
L 396.16688 212.636642 
L 395.06476 212.784395 
L 393.96264 212.929826 
L 392.86052 213.072957 
L 391.7584 213.213807 
L 390.65628 213.352399 
L 389.55416 213.488754 
L 388.45204 213.622895 
L 387.34992 213.754846 
L 386.2478 213.88463 
L 385.14568 214.01227 
L 384.04356 214.137791 
L 382.94144 214.261217 
L 381.83932 214.382573 
L 380.7372 214.501883 
L 379.63508 214.619174 
L 378.53296 214.734469 
L 377.43084 214.847796 
L 376.32872 214.959178 
L 375.2266 215.068643 
L 374.12448 215.176216 
L 373.02236 215.281922 
L 371.92024 215.385788 
L 370.81812 215.48784 
L 369.716 215.588103 
L 368.61388 215.686604 
L 367.51176 215.783368 
L 366.40964 215.878422 
L 365.30752 215.971791 
L 364.2054 216.063501 
L 363.10328 216.153579 
L 362.00116 216.242048 
L 360.89904 216.328936 
L 359.79692 216.414266 
L 358.6948 216.498066 
L 357.59268 216.580359 
L 356.49056 216.661172 
L 355.38844 216.740528 
L 354.28632 216.818452 
L 353.1842 216.89497 
L 352.08208 216.970105 
L 350.97996 217.043882 
L 349.87784 217.116324 
L 348.77572 217.187456 
L 347.6736 217.257301 
L 346.57148 217.325883 
L 345.46936 217.393225 
L 344.36724 217.45935 
L 343.26512 217.524281 
L 342.163 217.588041 
L 341.06088 217.650651 
L 339.95876 217.712135 
L 338.85664 217.772515 
L 337.75452 217.831811 
L 336.6524 217.890046 
L 335.55028 217.947242 
L 334.44816 218.003419 
L 333.34604 218.058598 
L 332.24392 218.1128 
L 331.1418 218.166046 
L 330.03968 218.218356 
L 328.93756 218.26975 
L 327.83544 218.320248 
L 326.73332 218.369869 
L 325.6312 218.418634 
L 324.52908 218.466561 
L 323.42696 218.51367 
L 322.32484 218.559979 
L 321.22272 218.605507 
L 320.1206 218.650272 
L 319.01848 218.694294 
L 317.91636 218.737589 
L 316.81424 218.780176 
L 315.71212 218.822072 
L 314.61 218.863295 
L 313.50788 218.903862 
L 312.40576 218.943791 
L 311.30364 218.983098 
L 310.20152 219.0218 
L 309.0994 219.059914 
L 307.99728 219.097456 
L 306.89516 219.134442 
L 305.79304 219.170889 
L 304.69092 219.206813 
L 303.5888 219.242229 
L 302.48668 219.277153 
L 301.38456 219.311601 
L 300.28244 219.345588 
L 299.18032 219.37913 
L 298.0782 219.41224 
L 296.97608 219.444936 
L 295.87396 219.47723 
L 294.77184 219.509139 
L 293.66972 219.540676 
L 292.5676 219.571857 
L 291.46548 219.602696 
L 290.36336 219.633206 
L 289.26124 219.663403 
L 288.15912 219.693301 
L 287.057 219.722913 
L 285.95488 219.752254 
L 284.85276 219.781338 
L 283.75064 219.810178 
L 282.64852 219.838788 
L 281.5464 219.867182 
L 280.44428 219.895374 
L 279.34216 219.923377 
L 278.24004 219.951205 
L 277.13792 219.978872 
L 276.0358 220.00639 
L 274.93368 220.033774 
L 273.83156 220.061038 
L 272.72944 220.088193 
L 271.62732 220.115255 
L 270.5252 220.142236 
L 269.42308 220.16915 
L 268.32096 220.196011 
L 267.21884 220.222831 
L 266.11672 220.249625 
L 265.0146 220.276405 
L 263.91248 220.303187 
L 262.81036 220.329982 
L 261.70824 220.356806 
L 260.60612 220.38367 
L 259.504 220.410591 
L 258.40188 220.437581 
L 257.29976 220.464653 
L 256.19764 220.491824 
L 255.09552 220.519105 
L 253.9934 220.546512 
L 252.89128 220.574059 
L 251.78916 220.601761 
L 250.68704 220.629631 
L 249.58492 220.657685 
L 248.4828 220.685937 
L 247.38068 220.714403 
L 246.27856 220.743097 
L 245.17644 220.772035 
L 244.07432 220.801232 
L 242.9722 220.830704 
L 241.87008 220.860467 
L 240.76796 220.890537 
L 239.66584 220.92093 
L 238.56372 220.951662 
L 237.4616 220.98275 
L 236.35948 221.014211 
L 235.25736 221.046062 
L 234.15524 221.078321 
L 233.05312 221.111006 
L 231.951 221.144133 
L 230.84888 221.177723 
L 229.74676 221.211792 
L 228.64464 221.24636 
L 227.54252 221.281446 
L 226.4404 221.31707 
L 225.33828 221.353252 
L 224.23616 221.390011 
L 223.13404 221.427369 
L 222.03192 221.465347 
L 220.9298 221.503965 
L 219.82768 221.543246 
L 218.72556 221.583212 
L 217.62344 221.623885 
L 216.52132 221.665289 
L 215.4192 221.707448 
L 214.31708 221.750385 
L 213.21496 221.794126 
L 212.11284 221.838695 
L 211.01072 221.884117 
L 209.9086 221.93042 
L 208.80648 221.977631 
L 207.70436 222.025775 
L 206.60224 222.074882 
L 205.50012 222.12498 
L 204.398 222.176099 
L 203.29588 222.228268 
L 202.19376 222.281518 
L 201.09164 222.33588 
L 199.98952 222.391386 
L 198.8874 222.44807 
L 197.78528 222.505964 
L 196.68316 222.565104 
L 195.58104 222.625524 
L 194.47892 222.68726 
L 193.3768 222.750349 
L 192.27468 222.814829 
L 191.17256 222.880739 
L 190.07044 222.948117 
L 188.96832 223.017006 
L 187.8662 223.087446 
L 186.76408 223.159479 
L 185.66196 223.23315 
L 184.55984 223.308503 
L 183.45772 223.385584 
L 182.3556 223.464439 
L 181.25348 223.545117 
L 180.15136 223.627667 
L 179.04924 223.712139 
L 177.94712 223.798584 
L 176.845 223.887057 
L 175.74288 223.977611 
L 174.64076 224.070301 
L 173.53864 224.165185 
L 172.43652 224.26232 
L 171.3344 224.361767 
L 170.23228 224.463587 
L 169.13016 224.567843 
L 168.02804 224.674599 
L 166.92592 224.78392 
L 165.8238 224.895874 
L 164.72168 225.010531 
L 163.61956 225.127961 
L 162.51744 225.248237 
L 161.41532 225.371433 
L 160.3132 225.497625 
L 159.21108 225.626891 
L 158.10896 225.75931 
L 157.00684 225.894966 
L 155.90472 226.033941 
L 154.8026 226.17632 
L 153.70048 226.322193 
L 152.59836 226.471647 
L 151.49624 226.624776 
L 150.39412 226.781674 
L 149.292 226.942436 
L 148.18988 227.107161 
L 147.08776 227.27595 
L 145.98564 227.448905 
L 144.88352 227.626133 
L 143.7814 227.807741 
L 142.67928 227.993839 
L 141.57716 228.18454 
L 140.47504 228.379958 
L 139.37292 228.580212 
L 138.2708 228.785422 
L 137.16868 228.995711 
L 136.06656 229.211203 
L 134.96444 229.432028 
L 133.86232 229.658316 
L 132.7602 229.8902 
L 131.65808 230.127817 
L 130.55596 230.371306 
L 129.45384 230.620808 
L 128.35172 230.876469 
L 127.2496 231.138435 
L 126.14748 231.406858 
L 125.04536 231.68189 
L 123.94324 231.963687 
L 122.84112 232.252409 
L 121.739 232.548217 
L 120.63688 232.851276 
L 119.53476 233.161755 
L 118.43264 233.479822 
L 117.33052 233.805652 
L 116.2284 234.139421 
L 115.12628 234.481308 
L 114.02416 234.831495 
L 112.92204 235.190167 
L 111.81992 235.557512 
L 110.7178 235.933718 
L 109.61568 236.31898 
L 108.51356 236.713492 
L 107.41144 237.117453 
L 106.30932 237.531062 
L 105.2072 237.954524 
L 104.10508 238.388042 
L 103.00296 238.831823 
L 101.90084 239.286078 
L 100.79872 239.751018 
L 99.6966 240.226854 
L 98.59448 240.713803 
L 97.49236 241.21208 
L 96.39024 241.721903 
L 95.28812 242.24349 
L 94.186 242.777061 
L 93.08388 243.322836 
L 91.98176 243.881037 
L 90.87964 244.451883 
L 89.77752 245.035597 
L 88.6754 245.632397 
L 87.57328 246.242506 
L 86.47116 246.866141 
L 85.36904 247.503519 
L 84.26692 248.154857 
L 83.1648 248.820368 
L 82.06268 249.500263 
L 80.96056 250.194749 
L 79.85844 250.904031 
L 78.75632 251.628308 
L 77.6542 252.367775 
L 76.55208 253.122623 
L 75.44996 253.893034 
L 74.34784 254.679185 
L 73.24572 255.481246 
L 72.1436 256.299376 
L 71.04148 257.133729 
L 69.93936 257.984445 
L 68.83724 258.851654 
L 67.73512 259.735475 
L 66.633 260.636013 
L 65.53088 261.553357 
L 64.42876 262.487583 
L 63.32664 263.438749 
L 62.22452 264.406892 
L 61.1224 265.392034 
L 60.02028 266.39417 
L 58.91816 267.413277 
L 57.81604 268.449302 
L 56.71392 269.502168 
L 55.6118 270.571768 
L 54.50968 271.657964 
L 53.40756 272.760583 
L 52.30544 273.879417 
L 51.20332 275.014218 
L 50.1012 276.164699 
L 48.99908 277.330523 
L 47.89696 278.51131 
L 46.79484 279.706625 
L 45.69272 280.915977 
L 44.5906 282.138816 
L 43.48848 283.374523 
L 42.38636 284.622404 
L 41.28424 285.881657 
L 40.18212 287.151196 
L 39.08 288.274069 
z
" clip-path="url(#p1715daed81)" style="fill: #00bfbf; opacity: 0.3"/>
   </g>
   <g id="matplotlib.axis_1">
    <g id="xtick_1">
     <g id="line2d_1">
      <defs>
       <path id="m53e572d634" d="M 0 0 
L 0 3.5 
" style="stroke: #000000; stroke-width: 0.8"/>
      </defs>
      <g>
       <use xlink:href="#m53e572d634" x="39.08" y="335.493333" style="stroke: #000000; stroke-width: 0.8"/>
      </g>
     </g>
    </g>
    <g id="xtick_2">
     <g id="line2d_2">
      <g>
       <use xlink:href="#m53e572d634" x="259.504" y="335.493333" style="stroke: #000000; stroke-width: 0.8"/>
      </g>
     </g>
    </g>
    <g id="xtick_3">
     <g id="line2d_3">
      <g>
       <use xlink:href="#m53e572d634" x="479.928" y="335.493333" style="stroke: #000000; stroke-width: 0.8"/>
      </g>
     </g>
    </g>
    <g id="xtick_4">
     <g id="line2d_4">
      <g>
       <use xlink:href="#m53e572d634" x="700.352" y="335.493333" style="stroke: #000000; stroke-width: 0.8"/>
      </g>
     </g>
    </g>
    <g id="xtick_5">
     <g id="line2d_5">
      <g>
       <use xlink:href="#m53e572d634" x="920.776" y="335.493333" style="stroke: #000000; stroke-width: 0.8"/>
      </g>
     </g>
    </g>
    <g id="xtick_6">
     <g id="line2d_6">
      <g>
       <use xlink:href="#m53e572d634" x="1141.2" y="335.493333" style="stroke: #000000; stroke-width: 0.8"/>
      </g>
     </g>
    </g>
    <g id="text_1">
     <!-- x -->
     <g transform="translate(584.813125 360.170521) scale(0.18 -0.18)">
      <defs>
       <path id="DejaVuSans-78" d="M 3513 3500 
L 2247 1797 
L 3578 0 
L 2900 0 
L 1881 1375 
L 863 0 
L 184 0 
L 1544 1831 
L 300 3500 
L 978 3500 
L 1906 2253 
L 2834 3500 
L 3513 3500 
z
" transform="scale(0.015625)"/>
      </defs>
      <use xlink:href="#DejaVuSans-78"/>
     </g>
    </g>
   </g>
   <g id="matplotlib.axis_2">
    <g id="ytick_1">
     <g id="line2d_7">
      <defs>
       <path id="m0591ae7e61" d="M 0 0 
L -3.5 0 
" style="stroke: #000000; stroke-width: 0.8"/>
      </defs>
      <g>
       <use xlink:href="#m0591ae7e61" x="39.08" y="290.013198" style="stroke: #000000; stroke-width: 0.8"/>
      </g>
     </g>
    </g>
    <g id="ytick_2">
     <g id="line2d_8">
      <g>
       <use xlink:href="#m0591ae7e61" x="39.08" y="226.583443" style="stroke: #000000; stroke-width: 0.8"/>
      </g>
     </g>
    </g>
    <g id="ytick_3">
     <g id="line2d_9">
      <g>
       <use xlink:href="#m0591ae7e61" x="39.08" y="163.153688" style="stroke: #000000; stroke-width: 0.8"/>
      </g>
     </g>
    </g>
    <g id="ytick_4">
     <g id="line2d_10">
      <g>
       <use xlink:href="#m0591ae7e61" x="39.08" y="99.723933" style="stroke: #000000; stroke-width: 0.8"/>
      </g>
     </g>
    </g>
    <g id="ytick_5">
     <g id="line2d_11">
      <g>
       <use xlink:href="#m0591ae7e61" x="39.08" y="36.294179" style="stroke: #000000; stroke-width: 0.8"/>
      </g>
     </g>
    </g>
    <g id="text_2">
     <!-- f(x) -->
     <g transform="translate(24.336562 188.664635) rotate(-90) scale(0.18 -0.18)">
      <defs>
       <path id="DejaVuSans-66" d="M 2375 4863 
L 2375 4384 
L 1825 4384 
Q 1516 4384 1395 4259 
Q 1275 4134 1275 3809 
L 1275 3500 
L 2222 3500 
L 2222 3053 
L 1275 3053 
L 1275 0 
L 697 0 
L 697 3053 
L 147 3053 
L 147 3500 
L 697 3500 
L 697 3744 
Q 697 4328 969 4595 
Q 1241 4863 1831 4863 
L 2375 4863 
z
" transform="scale(0.015625)"/>
       <path id="DejaVuSans-28" d="M 1984 4856 
Q 1566 4138 1362 3434 
Q 1159 2731 1159 2009 
Q 1159 1288 1364 580 
Q 1569 -128 1984 -844 
L 1484 -844 
Q 1016 -109 783 600 
Q 550 1309 550 2009 
Q 550 2706 781 3412 
Q 1013 4119 1484 4856 
L 1984 4856 
z
" transform="scale(0.015625)"/>
       <path id="DejaVuSans-29" d="M 513 4856 
L 1013 4856 
Q 1481 4119 1714 3412 
Q 1947 2706 1947 2009 
Q 1947 1309 1714 600 
Q 1481 -109 1013 -844 
L 513 -844 
Q 928 -128 1133 580 
Q 1338 1288 1338 2009 
Q 1338 2731 1133 3434 
Q 928 4138 513 4856 
z
" transform="scale(0.015625)"/>
      </defs>
      <use xlink:href="#DejaVuSans-66"/>
      <use xlink:href="#DejaVuSans-28" x="35.205078"/>
      <use xlink:href="#DejaVuSans-78" x="74.21875"/>
      <use xlink:href="#DejaVuSans-29" x="133.398438"/>
     </g>
    </g>
   </g>
   <g id="line2d_12">
    <path d="M 39.08 288.363441 
L 51.20332 287.649233 
L 62.22452 286.772192 
L 72.1436 285.747803 
L 80.96056 284.608643 
L 88.6754 283.402911 
L 96.39024 281.971338 
L 103.00296 280.540353 
L 109.61568 278.898521 
L 116.2284 277.023304 
L 122.84112 274.891282 
L 128.35172 272.901093 
L 133.86232 270.701778 
L 139.37292 268.279223 
L 144.88352 265.619464 
L 150.39412 262.708864 
L 155.90472 259.534314 
L 161.41532 256.083443 
L 166.92592 252.344852 
L 172.43652 248.308348 
L 177.94712 243.9652 
L 183.45772 239.308393 
L 188.96832 234.332887 
L 194.47892 229.035873 
L 199.98952 223.417027 
L 205.50012 217.478747 
L 211.01072 211.226378 
L 216.52132 204.668413 
L 223.13404 196.412345 
L 229.74676 187.760439 
L 236.35948 178.747145 
L 244.07432 167.831338 
L 252.89128 154.926962 
L 263.91248 138.361388 
L 287.057 103.41613 
L 294.77184 92.190802 
L 301.38456 82.917137 
L 307.99728 74.059506 
L 313.50788 67.060077 
L 319.01848 60.461423 
L 323.42696 55.503644 
L 327.83544 50.857078 
L 332.24392 46.544277 
L 336.6524 42.586456 
L 341.06088 39.00332 
L 344.36724 36.572766 
L 347.6736 34.370089 
L 350.97996 32.401616 
L 354.28632 30.673033 
L 357.59268 29.189359 
L 360.89904 27.954917 
L 364.2054 26.973319 
L 367.51176 26.247445 
L 370.81812 25.779427 
L 374.12448 25.570646 
L 377.43084 25.621714 
L 380.7372 25.932483 
L 384.04356 26.502036 
L 387.34992 27.328698 
L 390.65628 28.410039 
L 393.96264 29.742892 
L 397.269 31.323362 
L 400.57536 33.14685 
L 403.88172 35.208072 
L 407.18808 37.501086 
L 410.49444 40.019322 
L 414.90292 43.714839 
L 419.3114 47.779401 
L 423.71988 52.192839 
L 428.12836 56.933527 
L 432.53684 61.978553 
L 438.04744 68.676136 
L 443.55804 75.762806 
L 449.06864 83.188078 
L 455.68136 92.472771 
L 463.3962 103.707583 
L 473.31528 118.572076 
L 499.76616 158.479902 
L 508.58312 171.271154 
L 516.29796 182.059629 
L 522.91068 190.946144 
L 529.5234 199.457891 
L 536.13612 207.563137 
L 541.64672 213.989183 
L 547.15732 220.105532 
L 552.66792 225.905088 
L 558.17852 231.383815 
L 563.68912 236.54053 
L 569.19972 241.376671 
L 574.71032 245.89605 
L 580.22092 250.104599 
L 585.73152 254.010113 
L 591.24212 257.621991 
L 596.75272 260.950983 
L 602.26332 264.00894 
L 607.77392 266.808581 
L 613.28452 269.363271 
L 618.79512 271.686813 
L 624.30572 273.793257 
L 630.91844 276.054306 
L 637.53116 278.047307 
L 644.14388 279.796006 
L 650.7566 281.323385 
L 658.47144 282.85488 
L 666.18628 284.147938 
L 675.00324 285.37278 
L 683.8202 286.367412 
L 693.73928 287.25706 
L 704.76048 288.014231 
L 716.8838 288.626818 
L 731.21136 289.128766 
L 748.84528 289.517301 
L 771.9898 289.790781 
L 806.15552 289.95084 
L 877.79332 290.010115 
L 1140.09788 290.013198 
L 1140.09788 290.013198 
" clip-path="url(#p1715daed81)" style="fill: none; stroke: #1f77b4; stroke-width: 3; stroke-linecap: square"/>
   </g>
   <g id="line2d_13">
    <defs>
     <path id="m99696a3ff1" d="M -0 5.656854 
L 5.656854 0 
L 0 -5.656854 
L -5.656854 -0 
z
" style="stroke: #ff0000; stroke-linejoin: miter"/>
    </defs>
    <g clip-path="url(#p1715daed81)">
     <use xlink:href="#m99696a3ff1" x="643.938339" y="279.745102" style="fill: #ff0000; stroke: #ff0000; stroke-linejoin: miter"/>
     <use xlink:href="#m99696a3ff1" x="39.141414" y="288.360377" style="fill: #ff0000; stroke: #ff0000; stroke-linejoin: miter"/>
     <use xlink:href="#m99696a3ff1" x="654.970459" y="282.191364" style="fill: #ff0000; stroke: #ff0000; stroke-linejoin: miter"/>
     <use xlink:href="#m99696a3ff1" x="655.010055" y="282.199154" style="fill: #ff0000; stroke: #ff0000; stroke-linejoin: miter"/>
     <use xlink:href="#m99696a3ff1" x="599.637634" y="262.584904" style="fill: #ff0000; stroke: #ff0000; stroke-linejoin: miter"/>
     <use xlink:href="#m99696a3ff1" x="543.820457" y="216.439319" style="fill: #ff0000; stroke: #ff0000; stroke-linejoin: miter"/>
    </g>
   </g>
   <g id="line2d_14">
    <path d="M 39.08 288.360342 
L 43.48848 288.25848 
L 48.99908 287.881324 
L 55.6118 287.155292 
L 63.32664 286.053713 
L 74.34784 284.221229 
L 103.00296 279.335049 
L 115.12628 277.524625 
L 127.2496 275.935601 
L 139.37292 274.570396 
L 152.59836 273.320183 
L 165.8238 272.291703 
L 181.25348 271.328374 
L 197.78528 270.522686 
L 217.62344 269.784011 
L 244.07432 269.041234 
L 309.0994 267.326368 
L 328.93756 266.519477 
L 344.36724 265.681233 
L 357.59268 264.760114 
L 369.716 263.70497 
L 380.7372 262.530355 
L 390.65628 261.263697 
L 400.57536 259.765095 
L 409.39232 258.210192 
L 418.20928 256.419057 
L 425.92412 254.637923 
L 433.63896 252.639978 
L 441.3538 250.410626 
L 449.06864 247.93843 
L 456.78348 245.217014 
L 464.49832 242.247598 
L 472.21316 239.042369 
L 481.03012 235.126795 
L 493.15344 229.447723 
L 506.37888 223.277319 
L 512.9916 220.449124 
L 517.40008 218.761116 
L 521.80856 217.300452 
L 525.11492 216.397131 
L 528.42128 215.697382 
L 531.72764 215.241232 
L 535.034 215.073948 
L 537.23824 215.147885 
L 539.44248 215.389506 
L 541.64672 215.816903 
L 543.85096 216.449646 
L 546.0552 217.300959 
L 548.25944 218.355285 
L 551.5658 220.271235 
L 554.87216 222.530418 
L 558.17852 225.07319 
L 562.587 228.811759 
L 566.99548 232.842938 
L 573.6082 239.213196 
L 585.73152 250.965507 
L 591.24212 255.945935 
L 595.6506 259.606059 
L 598.95696 262.101877 
L 602.26332 264.344392 
L 605.56968 266.344015 
L 608.87604 268.130372 
L 613.28452 270.226963 
L 617.693 272.050246 
L 622.10148 273.651715 
L 627.61208 275.411295 
L 634.2248 277.271683 
L 644.14388 279.796223 
L 651.85872 281.604295 
L 656.2672 282.396808 
L 660.67568 282.910606 
L 665.08416 283.180184 
L 669.49264 283.249588 
L 675.00324 283.111659 
L 681.61596 282.696186 
L 689.3308 281.972104 
L 700.352 280.678048 
L 741.13044 275.641094 
L 755.458 274.20961 
L 769.78556 273.012358 
L 784.11312 272.034678 
L 799.5428 271.197324 
L 817.17672 270.467751 
L 837.01488 269.874318 
L 861.26152 269.387173 
L 891.01876 269.026908 
L 931.7972 268.77679 
L 995.72016 268.635919 
L 1140.09788 268.588808 
L 1140.09788 268.588808 
" clip-path="url(#p1715daed81)" style="fill: none; stroke-dasharray: 5.55,2.4; stroke-dashoffset: 0; stroke: #000000; stroke-width: 1.5"/>
   </g>
   <g id="patch_4">
    <path d="M 39.08 335.493333 
L 39.08 10.8 
" style="fill: none; stroke: #000000; stroke-width: 0.8; stroke-linejoin: miter; stroke-linecap: square"/>
   </g>
   <g id="patch_5">
    <path d="M 1141.2 335.493333 
L 1141.2 10.8 
" style="fill: none; stroke: #000000; stroke-width: 0.8; stroke-linejoin: miter; stroke-linecap: square"/>
   </g>
   <g id="patch_6">
    <path d="M 39.08 335.493333 
L 1141.2 335.493333 
" style="fill: none; stroke: #000000; stroke-width: 0.8; stroke-linejoin: miter; stroke-linecap: square"/>
   </g>
   <g id="patch_7">
    <path d="M 39.08 10.8 
L 1141.2 10.8 
" style="fill: none; stroke: #000000; stroke-width: 0.8; stroke-linejoin: miter; stroke-linecap: square"/>
   </g>
  </g>
  <g id="axes_2">
   <g id="patch_8">
    <path d="M 39.08 536.92 
L 1141.2 536.92 
L 1141.2 374.573333 
L 39.08 374.573333 
z
" style="fill: #ffffff"/>
   </g>
   <g id="matplotlib.axis_3">
    <g id="xtick_7">
     <g id="line2d_15">
      <g>
       <use xlink:href="#m53e572d634" x="39.08" y="536.92" style="stroke: #000000; stroke-width: 0.8"/>
      </g>
     </g>
    </g>
    <g id="xtick_8">
     <g id="line2d_16">
      <g>
       <use xlink:href="#m53e572d634" x="259.504" y="536.92" style="stroke: #000000; stroke-width: 0.8"/>
      </g>
     </g>
    </g>
    <g id="xtick_9">
     <g id="line2d_17">
      <g>
       <use xlink:href="#m53e572d634" x="479.928" y="536.92" style="stroke: #000000; stroke-width: 0.8"/>
      </g>
     </g>
    </g>
    <g id="xtick_10">
     <g id="line2d_18">
      <g>
       <use xlink:href="#m53e572d634" x="700.352" y="536.92" style="stroke: #000000; stroke-width: 0.8"/>
      </g>
     </g>
    </g>
    <g id="xtick_11">
     <g id="line2d_19">
      <g>
       <use xlink:href="#m53e572d634" x="920.776" y="536.92" style="stroke: #000000; stroke-width: 0.8"/>
      </g>
     </g>
    </g>
    <g id="xtick_12">
     <g id="line2d_20">
      <g>
       <use xlink:href="#m53e572d634" x="1141.2" y="536.92" style="stroke: #000000; stroke-width: 0.8"/>
      </g>
     </g>
    </g>
    <g id="text_3">
     <!-- x -->
     <g transform="translate(584.813125 561.597188) scale(0.18 -0.18)">
      <use xlink:href="#DejaVuSans-78"/>
     </g>
    </g>
   </g>
   <g id="matplotlib.axis_4">
    <g id="ytick_6">
     <g id="line2d_21">
      <g>
       <use xlink:href="#m0591ae7e61" x="39.08" y="531.312513" style="stroke: #000000; stroke-width: 0.8"/>
      </g>
     </g>
    </g>
    <g id="ytick_7">
     <g id="line2d_22">
      <g>
       <use xlink:href="#m0591ae7e61" x="39.08" y="501.308431" style="stroke: #000000; stroke-width: 0.8"/>
      </g>
     </g>
    </g>
    <g id="ytick_8">
     <g id="line2d_23">
      <g>
       <use xlink:href="#m0591ae7e61" x="39.08" y="471.30435" style="stroke: #000000; stroke-width: 0.8"/>
      </g>
     </g>
    </g>
    <g id="ytick_9">
     <g id="line2d_24">
      <g>
       <use xlink:href="#m0591ae7e61" x="39.08" y="441.300269" style="stroke: #000000; stroke-width: 0.8"/>
      </g>
     </g>
    </g>
    <g id="ytick_10">
     <g id="line2d_25">
      <g>
       <use xlink:href="#m0591ae7e61" x="39.08" y="411.296188" style="stroke: #000000; stroke-width: 0.8"/>
      </g>
     </g>
    </g>
    <g id="ytick_11">
     <g id="line2d_26">
      <g>
       <use xlink:href="#m0591ae7e61" x="39.08" y="381.292107" style="stroke: #000000; stroke-width: 0.8"/>
      </g>
     </g>
    </g>
    <g id="text_4">
     <!-- $\alpha(x)$ -->
     <g transform="translate(24.336562 474.106667) rotate(-90) scale(0.18 -0.18)">
      <defs>
       <path id="DejaVuSans-Oblique-3b1" d="M 2619 1628 
L 2622 2350 
Q 2625 3088 2069 3091 
Q 1653 3094 1394 2747 
Q 1069 2319 959 1747 
Q 825 1059 994 731 
Q 1169 397 1547 397 
Q 1966 397 2319 1063 
L 2619 1628 
z
M 2166 3578 
Q 3141 3594 3128 2584 
Q 3128 2584 3616 3500 
L 4128 3500 
L 3119 1603 
L 3109 919 
Q 3109 766 3194 638 
Q 3291 488 3391 488 
L 3669 488 
L 3575 0 
L 3228 0 
Q 2934 0 2722 263 
Q 2622 394 2619 669 
Q 2416 334 2066 50 
Q 1900 -81 1453 -78 
Q 722 -72 456 397 
Q 184 884 353 1747 
Q 534 2675 1009 3097 
Q 1544 3569 2166 3578 
z
" transform="scale(0.015625)"/>
       <path id="DejaVuSans-Oblique-78" d="M 3841 3500 
L 2234 1784 
L 3219 0 
L 2559 0 
L 1819 1388 
L 531 0 
L -166 0 
L 1556 1844 
L 641 3500 
L 1300 3500 
L 1972 2234 
L 3144 3500 
L 3841 3500 
z
" transform="scale(0.015625)"/>
      </defs>
      <use xlink:href="#DejaVuSans-Oblique-3b1" transform="translate(0 0.125)"/>
      <use xlink:href="#DejaVuSans-28" transform="translate(65.917969 0.125)"/>
      <use xlink:href="#DejaVuSans-Oblique-78" transform="translate(104.931641 0.125)"/>
      <use xlink:href="#DejaVuSans-29" transform="translate(164.111328 0.125)"/>
     </g>
    </g>
   </g>
   <g id="line2d_27">
    <path d="M 39.08 529.540606 
L 40.18212 526.839775 
L 44.5906 514.964329 
L 48.99908 503.832224 
L 52.30544 495.989985 
L 55.6118 488.585917 
L 58.91816 481.616833 
L 62.22452 475.074965 
L 65.53088 468.949064 
L 68.83724 463.225279 
L 72.1436 457.887878 
L 75.44996 452.919828 
L 78.75632 448.303268 
L 82.06268 444.019888 
L 85.36904 440.05123 
L 88.6754 436.378938 
L 91.98176 432.984943 
L 95.28812 429.851613 
L 98.59448 426.961868 
L 101.90084 424.299263 
L 106.30932 421.075334 
L 110.7178 418.192008 
L 115.12628 415.616412 
L 119.53476 413.318111 
L 123.94324 411.269077 
L 128.35172 409.443625 
L 133.86232 407.440713 
L 139.37292 405.709543 
L 144.88352 404.213788 
L 151.49624 402.684966 
L 158.10896 401.401709 
L 165.8238 400.161371 
L 173.53864 399.147026 
L 182.3556 398.208838 
L 192.27468 397.373516 
L 204.398 396.589066 
L 218.72556 395.898238 
L 237.4616 395.239565 
L 266.11672 394.491718 
L 309.0994 393.362703 
L 330.03968 392.593217 
L 347.6736 391.735321 
L 363.10328 390.777074 
L 378.53296 389.58941 
L 392.86052 388.267301 
L 409.39232 386.505693 
L 441.3538 382.995345 
L 450.17076 382.311366 
L 456.78348 382.011267 
L 462.29408 381.959397 
L 467.80468 382.143105 
L 472.21316 382.500791 
L 476.62164 383.084833 
L 481.03012 383.936149 
L 484.33648 384.77742 
L 487.64284 385.815978 
L 490.9492 387.074801 
L 494.25556 388.578634 
L 497.56192 390.354015 
L 500.86828 392.42928 
L 504.17464 394.834538 
L 507.481 397.601598 
L 510.78736 400.763848 
L 514.09372 404.356055 
L 517.40008 408.414076 
L 520.70644 412.974456 
L 524.0128 418.073851 
L 527.31916 423.748266 
L 530.62552 430.032003 
L 533.93188 436.956253 
L 537.23824 444.547177 
L 540.5446 452.823191 
L 543.85096 461.57802 
L 546.0552 457.148965 
L 548.25944 453.269052 
L 550.46368 449.991103 
L 552.66792 447.306137 
L 554.87216 445.203925 
L 555.97428 444.367923 
L 557.0764 443.673407 
L 558.17852 443.118895 
L 559.28064 442.702873 
L 560.38276 442.423794 
L 561.48488 442.280084 
L 562.587 442.270141 
L 563.68912 442.392333 
L 564.79124 442.645003 
L 565.89336 443.026464 
L 566.99548 443.534998 
L 569.19972 444.926247 
L 571.40396 446.8043 
L 573.6082 449.154021 
L 575.81244 451.95942 
L 578.01668 455.203456 
L 580.22092 458.867784 
L 582.42516 462.932442 
L 584.6294 467.37548 
L 587.93576 474.695356 
L 591.24212 482.71545 
L 594.54848 491.319662 
L 598.95696 503.443757 
L 600.05908 504.73275 
L 602.26332 501.660154 
L 604.46756 498.92251 
L 606.6718 496.565265 
L 608.87604 494.621 
L 611.08028 493.115279 
L 613.28452 492.067485 
L 614.38664 491.719804 
L 615.48876 491.491317 
L 616.59088 491.382897 
L 617.693 491.395086 
L 618.79512 491.5281 
L 619.89724 491.781819 
L 620.99936 492.155786 
L 623.2036 493.260868 
L 625.40784 494.83243 
L 627.61208 496.853122 
L 629.81632 499.298253 
L 632.02056 502.134496 
L 634.2248 505.318049 
L 637.53116 510.615547 
L 643.04176 520.088486 
L 644.14388 521.337745 
L 645.246 520.251337 
L 646.34812 519.448715 
L 647.45024 518.954602 
L 648.55236 518.775026 
L 649.65448 518.912154 
L 650.7566 519.364812 
L 651.85872 520.128548 
L 652.96084 521.195533 
L 654.06296 522.553914 
L 655.16508 523.682019 
L 657.36932 520.621829 
L 659.57356 517.130034 
L 662.87992 511.379726 
L 667.2884 503.195912 
L 678.3096 482.513432 
L 682.71808 474.699996 
L 687.12656 467.310869 
L 691.53504 460.39448 
L 695.94352 453.973094 
L 700.352 448.050721 
L 703.65836 443.931572 
L 706.96472 440.081449 
L 710.27108 436.491386 
L 713.57744 433.151004 
L 716.8838 430.048959 
L 721.29228 426.262949 
L 725.70076 422.850292 
L 730.10924 419.781794 
L 734.51772 417.028815 
L 738.9262 414.563729 
L 743.33468 412.360243 
L 747.74316 410.393595 
L 752.15164 408.640669 
L 757.66224 406.717585 
L 763.17284 405.056975 
L 768.68344 403.624738 
L 775.29616 402.16512 
L 781.90888 400.94531 
L 789.62372 399.773626 
L 797.33856 398.823692 
L 806.15552 397.955452 
L 816.0746 397.19586 
L 828.19792 396.502304 
L 842.52548 395.921034 
L 860.1594 395.443263 
L 883.30392 395.061141 
L 915.2654 394.782123 
L 963.75868 394.605964 
L 1059.64312 394.523539 
L 1140.09788 394.513803 
L 1140.09788 394.513803 
" clip-path="url(#p2c37c69109)" style="fill: none; stroke: #800080; stroke-width: 1.5; stroke-linecap: square"/>
   </g>
   <g id="line2d_28">
    <defs>
     <path id="me3ed2ed864" d="M 0 -7.5 
L -1.683855 -2.317627 
L -7.132924 -2.317627 
L -2.724534 0.885255 
L -4.408389 6.067627 
L -0 2.864745 
L 4.408389 6.067627 
L 2.724534 0.885255 
L 7.132924 -2.317627 
L 1.683855 -2.317627 
z
" style="stroke: #000000; stroke-linejoin: bevel"/>
    </defs>
    <g clip-path="url(#p2c37c69109)">
     <use xlink:href="#me3ed2ed864" x="461.19196" y="381.952727" style="fill: #ffd700; stroke: #000000; stroke-linejoin: bevel"/>
    </g>
   </g>
   <g id="patch_9">
    <path d="M 39.08 536.92 
L 39.08 374.573333 
" style="fill: none; stroke: #000000; stroke-width: 0.8; stroke-linejoin: miter; stroke-linecap: square"/>
   </g>
   <g id="patch_10">
    <path d="M 1141.2 536.92 
L 1141.2 374.573333 
" style="fill: none; stroke: #000000; stroke-width: 0.8; stroke-linejoin: miter; stroke-linecap: square"/>
   </g>
   <g id="patch_11">
    <path d="M 39.08 536.92 
L 1141.2 536.92 
" style="fill: none; stroke: #000000; stroke-width: 0.8; stroke-linejoin: miter; stroke-linecap: square"/>
   </g>
   <g id="patch_12">
    <path d="M 39.08 374.573333 
L 1141.2 374.573333 
" style="fill: none; stroke: #000000; stroke-width: 0.8; stroke-linejoin: miter; stroke-linecap: square"/>
   </g>
  </g>
 </g>
 <defs>
  <clipPath id="p1715daed81">
   <rect x="39.08" y="10.8" width="1102.12" height="324.693333"/>
  </clipPath>
  <clipPath id="p2c37c69109">
   <rect x="39.08" y="374.573333" width="1102.12" height="162.346667"/>
  </clipPath>
 </defs>
</svg>
