<?xml version="1.0" encoding="utf-8" standalone="no"?>
<!DOCTYPE svg PUBLIC "-//W3C//DTD SVG 1.1//EN"
  "http://www.w3.org/Graphics/SVG/1.1/DTD/svg11.dtd">
<svg xmlns:xlink="http://www.w3.org/1999/xlink" width="1152pt" height="576pt" viewBox="0 0 1152 576" xmlns="http://www.w3.org/2000/svg" version="1.1">
 <metadata>
  <rdf:RDF xmlns:dc="http://purl.org/dc/elements/1.1/" xmlns:cc="http://creativecommons.org/ns#" xmlns:rdf="http://www.w3.org/1999/02/22-rdf-syntax-ns#">
   <cc:Work>
    <dc:type rdf:resource="http://purl.org/dc/dcmitype/StillImage"/>
    <dc:date>2024-12-18T09:28:12.289597</dc:date>
    <dc:format>image/svg+xml</dc:format>
    <dc:creator>
     <cc:Agent>
      <dc:title>Matplotlib v3.9.2, https://matplotlib.org/</dc:title>
     </cc:Agent>
    </dc:creator>
   </cc:Work>
  </rdf:RDF>
 </metadata>
 <defs>
  <style type="text/css">*{stroke-linejoin: round; stroke-linecap: butt}</style>
 </defs>
 <g id="figure_1">
  <g id="patch_1">
   <path d="M 0 576 
L 1152 576 
L 1152 0 
L 0 0 
z
" style="fill: #ffffff"/>
  </g>
  <g id="axes_1">
   <g id="patch_2">
    <path d="M 64.1 303.733333 
L 1125.72 303.733333 
L 1125.72 15.12 
L 64.1 15.12 
z
" style="fill: #ffffff"/>
   </g>
   <g id="patch_3">
    <path d="M 64.1 255.960968 
L 65.16162 256.566472 
L 66.22324 257.533489 
L 67.28486 258.473991 
L 68.34648 259.384069 
L 69.4081 260.262971 
L 70.46972 261.110401 
L 71.53134 261.926194 
L 72.59296 262.71024 
L 73.65458 263.462455 
L 74.7162 264.182779 
L 75.77782 264.871166 
L 76.83944 265.527584 
L 77.90106 266.152012 
L 78.96268 266.744442 
L 80.0243 267.304876 
L 81.08592 267.833329 
L 82.14754 268.329826 
L 83.20916 268.7944 
L 84.27078 269.227097 
L 85.3324 269.627974 
L 86.39402 269.997097 
L 87.45564 270.334542 
L 88.51726 270.640398 
L 89.57888 270.914761 
L 90.6405 271.15774 
L 91.70212 271.369454 
L 92.76374 271.550032 
L 93.82536 271.699615 
L 94.88698 271.818354 
L 95.9486 271.906412 
L 97.01022 271.96396 
L 98.07184 271.991185 
L 99.13346 271.988283 
L 100.19508 271.95546 
L 101.2567 271.892937 
L 102.31832 271.800946 
L 103.37994 271.679731 
L 104.44156 271.529548 
L 105.50318 271.350667 
L 106.5648 271.14337 
L 107.62642 270.907955 
L 108.68804 270.644731 
L 109.74966 270.354022 
L 110.81128 270.036167 
L 111.8729 269.69152 
L 112.93452 269.320451 
L 113.99614 268.923345 
L 115.05776 268.500604 
L 116.11938 268.052646 
L 117.181 267.579909 
L 118.24262 267.082846 
L 119.30424 266.561931 
L 120.36586 266.017659 
L 121.42748 265.450541 
L 122.4891 264.861114 
L 123.55072 264.249935 
L 124.61234 263.617585 
L 125.67396 262.96467 
L 126.73558 262.291823 
L 127.7972 261.599705 
L 128.85882 260.889014 
L 129.92044 260.160483 
L 130.98206 259.414902 
L 132.04368 258.653151 
L 133.1053 257.876313 
L 134.16692 257.086188 
L 135.22854 256.290374 
L 136.29016 256.052438 
L 137.35178 256.810633 
L 138.4134 257.573504 
L 139.47502 258.322684 
L 140.53664 259.055871 
L 141.59826 259.771947 
L 142.65988 260.470077 
L 143.7215 261.149537 
L 144.78312 261.809669 
L 145.84474 262.44986 
L 146.90636 263.069535 
L 147.96798 263.668152 
L 149.0296 264.2452 
L 150.09122 264.800195 
L 151.15284 265.332683 
L 152.21446 265.842233 
L 153.27608 266.328442 
L 154.3377 266.790927 
L 155.39932 267.229334 
L 156.46094 267.643326 
L 157.52256 268.032593 
L 158.58418 268.396844 
L 159.6458 268.735809 
L 160.70742 269.049241 
L 161.76904 269.33691 
L 162.83066 269.59861 
L 163.89228 269.83415 
L 164.9539 270.043363 
L 166.01552 270.226097 
L 167.07714 270.382222 
L 168.13876 270.511625 
L 169.20038 270.614212 
L 170.262 270.689908 
L 171.32362 270.738654 
L 172.38524 270.760411 
L 173.44686 270.75516 
L 174.50848 270.722896 
L 175.5701 270.663635 
L 176.63172 270.577412 
L 177.69334 270.464276 
L 178.75496 270.3243 
L 179.81658 270.157572 
L 180.8782 269.964198 
L 181.93982 269.744306 
L 183.00144 269.498041 
L 184.06306 269.225568 
L 185.12468 268.92707 
L 186.1863 268.602754 
L 187.24792 268.252843 
L 188.30954 267.877582 
L 189.37116 267.477239 
L 190.43278 267.052103 
L 191.4944 266.602482 
L 192.55602 266.128712 
L 193.61764 265.631148 
L 194.67926 265.110172 
L 195.74088 264.56619 
L 196.8025 263.999634 
L 197.86412 263.410964 
L 198.92574 262.800666 
L 199.98736 262.169258 
L 201.04898 261.51729 
L 202.1106 260.845348 
L 203.17222 260.15406 
L 204.23384 259.444107 
L 205.29546 258.716254 
L 206.35708 257.971436 
L 207.4187 257.211113 
L 208.48032 256.440055 
L 209.54194 255.919483 
L 210.60356 256.658182 
L 211.66518 257.434058 
L 212.7268 258.197138 
L 213.78842 258.944371 
L 214.85004 259.674508 
L 215.91166 260.38667 
L 216.97328 261.080112 
L 218.0349 261.75416 
L 219.09652 262.40819 
L 220.15814 263.041619 
L 221.21976 263.653898 
L 222.28138 264.244509 
L 223.343 264.812966 
L 224.40462 265.35881 
L 225.46624 265.881606 
L 226.52786 266.380949 
L 227.58948 266.856455 
L 228.6511 267.307769 
L 229.71272 267.734553 
L 230.77434 268.136497 
L 231.83596 268.51331 
L 232.89758 268.864723 
L 233.9592 269.19049 
L 235.02082 269.490384 
L 236.08244 269.764198 
L 237.14406 270.011746 
L 238.20568 270.23286 
L 239.2673 270.427393 
L 240.32892 270.595216 
L 241.39054 270.73622 
L 242.45216 270.850313 
L 243.51378 270.937422 
L 244.5754 270.997493 
L 245.63702 271.03049 
L 246.69864 271.036396 
L 247.76026 271.01521 
L 248.82188 270.966951 
L 249.8835 270.891656 
L 250.94512 270.789379 
L 252.00674 270.660195 
L 253.06836 270.504194 
L 254.12998 270.321488 
L 255.1916 270.112204 
L 256.25322 269.876492 
L 257.31484 269.614518 
L 258.37646 269.326469 
L 259.43808 269.012552 
L 260.4997 268.672992 
L 261.56132 268.308038 
L 262.62294 267.917957 
L 263.68456 267.503037 
L 264.74618 267.063591 
L 265.8078 266.599952 
L 266.86942 266.112476 
L 267.93104 265.601544 
L 268.99266 265.06756 
L 270.05428 264.510955 
L 271.1159 263.932185 
L 272.17752 263.331733 
L 273.23914 262.710113 
L 274.30076 262.067868 
L 275.36238 261.405574 
L 276.424 260.723845 
L 277.48562 260.023339 
L 278.54724 259.30477 
L 279.60886 258.56895 
L 280.67048 257.816897 
L 281.7321 257.050355 
L 282.79372 256.27691 
L 283.85534 256.055377 
L 284.91696 256.821527 
L 285.97858 257.592376 
L 287.0402 258.349398 
L 288.10182 259.090246 
L 289.16344 259.813764 
L 290.22506 260.519081 
L 291.28668 261.205441 
L 292.3483 261.872149 
L 293.40992 262.518557 
L 294.47154 263.144055 
L 295.53316 263.748064 
L 296.59478 264.330036 
L 297.6564 264.889451 
L 298.71802 265.425814 
L 299.77964 265.938656 
L 300.84126 266.427531 
L 301.90288 266.892018 
L 302.9645 267.331716 
L 304.02612 267.746247 
L 305.08774 268.135253 
L 306.14936 268.498398 
L 307.21098 268.835363 
L 308.2726 269.14585 
L 309.33422 269.42958 
L 310.39584 269.686291 
L 311.45746 269.915739 
L 312.51908 270.117699 
L 313.5807 270.291961 
L 314.64232 270.438334 
L 315.70394 270.556641 
L 316.76556 270.646724 
L 317.82718 270.708439 
L 318.8888 270.741659 
L 319.95042 270.746272 
L 321.01204 270.722181 
L 322.07366 270.669306 
L 323.13528 270.587582 
L 324.1969 270.476957 
L 325.25852 270.337396 
L 326.32014 270.168879 
L 327.38176 269.9714 
L 328.44338 269.74497 
L 329.505 269.489612 
L 330.56662 269.205366 
L 331.62824 268.892288 
L 332.68986 268.550447 
L 333.75148 268.179929 
L 334.8131 267.780834 
L 335.87472 267.353279 
L 336.93634 266.897395 
L 337.99796 266.413332 
L 339.05958 265.901253 
L 340.1212 265.361339 
L 341.18282 264.793788 
L 342.24444 264.198816 
L 343.30606 263.576656 
L 344.36768 262.927561 
L 345.4293 262.251803 
L 346.49092 261.549677 
L 347.55254 260.821505 
L 348.61416 260.067641 
L 349.67578 259.288492 
L 350.7374 258.484571 
L 351.79902 257.656683 
L 352.86064 256.807058 
L 353.92226 255.968534 
L 354.98388 256.461225 
L 356.0455 257.333537 
L 357.10712 258.207463 
L 358.16874 259.078216 
L 359.23036 259.944515 
L 360.29198 260.805596 
L 361.3536 261.660843 
L 362.41522 262.509711 
L 363.47684 263.351695 
L 364.53846 264.186318 
L 365.60008 265.01313 
L 366.6617 265.831698 
L 367.72332 266.64161 
L 368.78494 267.442471 
L 369.84656 268.233903 
L 370.90818 269.015541 
L 371.9698 269.787036 
L 373.03142 270.548054 
L 374.09304 271.298272 
L 375.15466 272.037381 
L 376.21628 272.765083 
L 377.2779 273.481094 
L 378.33952 274.185137 
L 379.40114 274.876951 
L 380.46276 275.55628 
L 381.52438 276.222882 
L 382.586 276.876522 
L 383.64762 277.516975 
L 384.70924 278.144026 
L 385.77086 278.757467 
L 386.83248 279.3571 
L 387.8941 279.942732 
L 388.95572 280.514181 
L 390.01734 281.07127 
L 391.07896 281.613831 
L 392.14058 282.141703 
L 393.2022 282.65473 
L 394.26382 283.152765 
L 395.32544 283.635665 
L 396.38706 284.103295 
L 397.44868 284.555525 
L 398.5103 284.992232 
L 399.57192 285.413298 
L 400.63354 285.81861 
L 401.69516 286.208062 
L 402.75678 286.581551 
L 403.8184 286.938982 
L 404.88002 287.280263 
L 405.94164 287.605308 
L 407.00326 287.914035 
L 408.06488 288.206367 
L 409.1265 288.482233 
L 410.18812 288.741563 
L 411.24974 288.984296 
L 412.31136 289.210373 
L 413.37298 289.419739 
L 414.4346 289.612343 
L 415.49622 289.788141 
L 416.55784 289.94709 
L 417.61946 290.089152 
L 418.68108 290.214295 
L 419.7427 290.322488 
L 420.80432 290.413705 
L 421.86594 290.487926 
L 422.92756 290.545133 
L 423.98918 290.585311 
L 425.0508 290.60845 
L 426.11242 290.614545 
L 427.17404 290.603594 
L 428.23566 290.575598 
L 429.29728 290.530563 
L 430.3589 290.468498 
L 431.42052 290.389417 
L 432.48214 290.293337 
L 433.54376 290.180278 
L 434.60538 290.050268 
L 435.667 289.903333 
L 436.72862 289.739508 
L 437.79024 289.55883 
L 438.85186 289.361339 
L 439.91348 289.147083 
L 440.9751 288.916109 
L 442.03672 288.668472 
L 443.09834 288.404231 
L 444.15996 288.123448 
L 445.22158 287.826189 
L 446.2832 287.512527 
L 447.34482 287.182539 
L 448.40644 286.836304 
L 449.46806 286.473909 
L 450.52968 286.095444 
L 451.5913 285.701006 
L 452.65292 285.290695 
L 453.71454 284.864618 
L 454.77616 284.422886 
L 455.83778 283.965617 
L 456.8994 283.492933 
L 457.96102 283.004964 
L 459.02264 282.501843 
L 460.08426 281.983713 
L 461.14588 281.45072 
L 462.2075 280.903019 
L 463.26912 280.340769 
L 464.33074 279.76414 
L 465.39236 279.173306 
L 466.45398 278.568449 
L 467.5156 277.949759 
L 468.57722 277.317434 
L 469.63884 276.671681 
L 470.70046 276.012715 
L 471.76208 275.340758 
L 472.8237 274.656044 
L 473.88532 273.958815 
L 474.94694 273.249323 
L 476.00856 272.52783 
L 477.07018 271.794609 
L 478.1318 271.049945 
L 479.19342 270.294132 
L 480.25504 269.527478 
L 481.31666 268.750304 
L 482.37828 267.962942 
L 483.4399 267.165739 
L 484.50152 266.359058 
L 485.56314 265.543274 
L 486.62476 264.71878 
L 487.68638 263.885987 
L 488.748 263.045324 
L 489.80962 262.197241 
L 490.87124 261.342214 
L 491.93286 260.48075 
L 492.99448 259.613405 
L 494.0561 258.740825 
L 495.11772 257.863886 
L 496.17934 256.98445 
L 497.24096 256.116742 
L 498.30258 256.29759 
L 499.3642 257.162164 
L 500.42582 258.01163 
L 501.48744 258.838663 
L 502.54906 259.641937 
L 503.61068 260.42081 
L 504.6723 261.174822 
L 505.73392 261.903589 
L 506.79554 262.606767 
L 507.85716 263.284042 
L 508.91878 263.935124 
L 509.9804 264.559743 
L 511.04202 265.157648 
L 512.10364 265.728607 
L 513.16526 266.272403 
L 514.22688 266.788837 
L 515.2885 267.277727 
L 516.35012 267.738903 
L 517.41174 268.172215 
L 518.47336 268.577526 
L 519.53498 268.954712 
L 520.5966 269.303668 
L 521.65822 269.6243 
L 522.71984 269.91653 
L 523.78146 270.180295 
L 524.84308 270.415545 
L 525.9047 270.622244 
L 526.96632 270.800372 
L 528.02794 270.949922 
L 529.08956 271.0709 
L 530.15118 271.163328 
L 531.2128 271.227241 
L 532.27442 271.262689 
L 533.33604 271.269736 
L 534.39766 271.248461 
L 535.45928 271.198955 
L 536.5209 271.121327 
L 537.58252 271.015699 
L 538.64414 270.882207 
L 539.70576 270.721005 
L 540.76738 270.53226 
L 541.829 270.316156 
L 542.89062 270.072891 
L 543.95224 269.802682 
L 545.01386 269.505761 
L 546.07548 269.182375 
L 547.1371 268.832792 
L 548.19872 268.457296 
L 549.26034 268.056188 
L 550.32196 267.629789 
L 551.38358 267.178438 
L 552.4452 266.702496 
L 553.50682 266.202342 
L 554.56844 265.678377 
L 555.63006 265.131023 
L 556.69168 264.560726 
L 557.7533 263.967955 
L 558.81492 263.353204 
L 559.87654 262.716991 
L 560.93816 262.059866 
L 561.99978 261.382405 
L 563.0614 260.68522 
L 564.12302 259.968966 
L 565.18464 259.234351 
L 566.24626 258.482178 
L 567.30788 257.713461 
L 568.3695 256.929977 
L 569.43112 256.140047 
L 570.49274 255.970016 
L 571.55436 256.738861 
L 572.61598 257.509698 
L 573.6776 258.266751 
L 574.73922 259.007817 
L 575.80084 259.73179 
L 576.86246 260.437834 
L 577.92408 261.12522 
L 578.9857 261.793281 
L 580.04732 262.441397 
L 581.10894 263.068985 
L 582.17056 263.675493 
L 583.23218 264.260401 
L 584.2938 264.823215 
L 585.35542 265.36347 
L 586.41704 265.880724 
L 587.47866 266.374562 
L 588.54028 266.84459 
L 589.6019 267.290439 
L 590.66352 267.711762 
L 591.72514 268.108234 
L 592.78676 268.479549 
L 593.84838 268.825423 
L 594.91 269.145594 
L 595.97162 269.439817 
L 597.03324 269.707868 
L 598.09486 269.94954 
L 599.15648 270.164649 
L 600.2181 270.353024 
L 601.27972 270.514517 
L 602.34134 270.648995 
L 603.40296 270.756345 
L 604.46458 270.83647 
L 605.5262 270.889293 
L 606.58782 270.914751 
L 607.64944 270.912802 
L 608.71106 270.883419 
L 609.77268 270.826595 
L 610.8343 270.742338 
L 611.89592 270.630675 
L 612.95754 270.49165 
L 614.01916 270.325325 
L 615.08078 270.131781 
L 616.1424 269.911116 
L 617.20402 269.663446 
L 618.26564 269.388906 
L 619.32726 269.087649 
L 620.38888 268.75985 
L 621.4505 268.4057 
L 622.51212 268.025411 
L 623.57374 267.619217 
L 624.63536 267.18737 
L 625.69698 266.730145 
L 626.7586 266.247838 
L 627.82022 265.740767 
L 628.88184 265.209275 
L 629.94346 264.653727 
L 631.00508 264.074512 
L 632.0667 263.472047 
L 633.12832 262.846772 
L 634.18994 262.199159 
L 635.25156 261.529703 
L 636.31318 260.838935 
L 637.3748 260.127416 
L 638.43642 259.39574 
L 639.49804 258.644543 
L 640.55966 257.874504 
L 641.62128 257.086362 
L 642.6829 256.280946 
L 643.74452 255.459269 
L 644.80614 254.622926 
L 645.86776 253.777336 
L 646.92938 253.242482 
L 647.991 253.879596 
L 649.05262 254.536429 
L 650.11424 255.174161 
L 651.17586 255.789689 
L 652.23748 256.381581 
L 653.2991 256.948758 
L 654.36072 257.490278 
L 655.42234 258.005275 
L 656.48396 258.492934 
L 657.54558 258.952485 
L 658.6072 259.383194 
L 659.66882 259.784363 
L 660.73044 260.155328 
L 661.79206 260.495455 
L 662.85368 260.804141 
L 663.9153 261.080811 
L 664.97692 261.324918 
L 666.03854 261.535944 
L 667.10016 261.713397 
L 668.16178 261.856809 
L 669.2234 261.96574 
L 670.28502 262.039773 
L 671.34664 262.078519 
L 672.40826 262.081608 
L 673.46988 262.048699 
L 674.5315 261.97947 
L 675.59312 261.873626 
L 676.65474 261.730894 
L 677.71636 261.551022 
L 678.77798 261.333785 
L 679.8396 261.078976 
L 680.90122 260.786415 
L 681.96284 260.455943 
L 683.02446 260.087424 
L 684.08608 259.680746 
L 685.1477 259.235818 
L 686.20932 258.752575 
L 687.27094 258.230975 
L 688.33256 257.671 
L 689.39418 257.072654 
L 690.4558 256.43597 
L 691.51742 255.761004 
L 692.57904 255.047837 
L 693.64066 254.296578 
L 694.70228 253.507362 
L 695.7639 252.680351 
L 696.82552 251.815739 
L 697.88714 250.913745 
L 698.94876 249.974621 
L 700.01038 248.998651 
L 701.072 247.986149 
L 702.13362 246.937468 
L 703.19524 245.852993 
L 704.25686 244.73315 
L 705.31848 243.578406 
L 706.3801 242.389277 
L 707.44172 241.16634 
L 708.50334 239.910263 
L 709.56496 238.621914 
L 710.62658 237.303005 
L 711.6882 235.972042 
L 712.74982 235.751978 
L 713.81144 235.86039 
L 714.87306 235.949633 
L 715.93468 236.016235 
L 716.9963 236.058954 
L 718.05792 236.076895 
L 719.11954 236.069285 
L 720.18116 236.035421 
L 721.24278 235.974651 
L 722.3044 235.886368 
L 723.36602 235.770001 
L 724.42764 235.625014 
L 725.48926 235.450904 
L 726.55088 235.247199 
L 727.6125 235.013456 
L 728.67412 234.749259 
L 729.73574 234.454216 
L 730.79736 234.127963 
L 731.85898 233.770157 
L 732.9206 233.380481 
L 733.98222 232.958635 
L 735.04384 232.504343 
L 736.10546 232.017349 
L 737.16708 231.497417 
L 738.2287 230.944326 
L 739.29032 230.357877 
L 740.35194 229.737887 
L 741.41356 229.08419 
L 742.47518 228.396637 
L 743.5368 227.675094 
L 744.59842 226.919443 
L 745.66004 226.129583 
L 746.72166 225.305424 
L 747.78328 224.446895 
L 748.8449 223.553937 
L 749.90652 222.626506 
L 750.96814 221.664571 
L 752.02976 220.668115 
L 753.09138 219.637135 
L 754.153 218.571641 
L 755.21462 217.471656 
L 756.27624 216.337218 
L 757.33786 215.168376 
L 758.39948 213.965192 
L 759.4611 212.727743 
L 760.52272 211.456118 
L 761.58434 210.150419 
L 762.64596 208.810761 
L 763.70758 207.437273 
L 764.7692 206.030096 
L 765.83082 204.589385 
L 766.89244 203.11531 
L 767.95406 201.608053 
L 769.01568 200.06781 
L 770.0773 198.494792 
L 771.13892 196.889224 
L 772.20054 195.251344 
L 773.26216 193.581409 
L 774.32378 191.879687 
L 775.3854 190.146464 
L 776.44702 188.382042 
L 777.50864 186.586737 
L 778.57026 184.760884 
L 779.63188 182.904836 
L 780.6935 181.018962 
L 781.75512 179.10365 
L 782.81674 177.159308 
L 783.87836 175.186362 
L 784.93998 173.18526 
L 786.0016 171.156471 
L 787.06322 169.100485 
L 788.12484 167.017817 
L 789.18646 164.909003 
L 790.24808 162.774608 
L 791.3097 160.61522 
L 792.37132 158.431457 
L 793.43294 156.223967 
L 794.49456 153.993431 
L 795.55618 151.740565 
L 796.6178 149.466127 
L 797.67942 147.170931 
L 798.74104 144.855868 
L 799.80266 142.521987 
L 800.86428 140.170785 
L 801.9259 137.806229 
L 802.98752 135.550193 
L 804.04914 134.59834 
L 805.11076 133.734208 
L 806.17238 132.844154 
L 807.234 131.925145 
L 808.29562 130.976564 
L 809.35724 129.998239 
L 810.41886 128.990151 
L 811.48048 127.952364 
L 812.5421 126.884998 
L 813.60372 125.788217 
L 814.66534 124.662226 
L 815.72696 123.507269 
L 816.78858 122.323622 
L 817.8502 121.111599 
L 818.91182 119.871544 
L 819.97344 118.603834 
L 821.03506 117.30888 
L 822.09668 115.987123 
L 823.1583 114.639035 
L 824.21992 113.26512 
L 825.28154 111.865911 
L 826.34316 110.441973 
L 827.40478 108.993901 
L 828.4664 107.522322 
L 829.52802 106.02789 
L 830.58964 104.511294 
L 831.65126 102.97325 
L 832.71288 101.414508 
L 833.7745 99.835848 
L 834.83612 98.238081 
L 835.89774 96.622052 
L 836.95936 94.988636 
L 838.02098 93.338743 
L 839.0826 91.673315 
L 840.14422 89.99333 
L 841.20584 88.299799 
L 842.26746 86.593769 
L 843.32908 84.876326 
L 844.3907 83.148589 
L 845.45232 81.411719 
L 846.51394 79.666914 
L 847.57556 77.915416 
L 848.63718 76.158505 
L 849.6988 74.397509 
L 850.76042 72.633797 
L 851.82204 70.868788 
L 852.88366 69.103949 
L 853.94528 67.340799 
L 855.0069 65.580912 
L 856.06852 63.82592 
L 857.13014 62.077518 
L 858.19176 60.337476 
L 859.25338 58.607651 
L 860.315 56.890032 
L 861.37662 55.186853 
L 862.43824 53.501114 
L 863.49986 51.841216 
L 864.56148 50.61607 
L 865.6231 50.368114 
L 866.68472 50.160565 
L 867.74634 49.966436 
L 868.80796 49.782579 
L 869.86958 49.607403 
L 870.9312 49.439695 
L 871.99282 49.278405 
L 873.05444 49.122589 
L 874.11606 48.971382 
L 875.17768 48.823991 
L 876.2393 48.679687 
L 877.30092 48.537803 
L 878.36254 48.397728 
L 879.42416 48.258907 
L 880.48578 48.120839 
L 881.5474 47.983077 
L 882.60902 47.845224 
L 883.67064 47.706935 
L 884.73226 47.567911 
L 885.79388 47.427906 
L 886.8555 47.286719 
L 887.91712 47.144197 
L 888.97874 47.000235 
L 890.04036 46.854773 
L 891.10198 46.707799 
L 892.1636 46.559346 
L 893.22522 46.409493 
L 894.28684 46.258365 
L 895.34846 46.106133 
L 896.41008 45.953015 
L 897.4717 45.799275 
L 898.53332 45.645223 
L 899.59494 45.491218 
L 900.65656 45.337664 
L 901.71818 45.185016 
L 902.7798 45.033777 
L 903.84142 44.884502 
L 904.90304 44.737795 
L 905.96466 44.594318 
L 907.02628 44.454786 
L 908.0879 44.319977 
L 909.14952 44.190739 
L 910.21114 44.068012 
L 911.27276 43.952874 
L 912.33438 43.846727 
L 913.396 43.752237 
L 914.45762 43.68816 
L 915.51924 44.547458 
L 916.58086 45.984526 
L 917.64248 47.45928 
L 918.7041 48.962299 
L 919.76572 50.490704 
L 920.82734 52.042436 
L 921.88896 53.61568 
L 922.95058 55.208745 
L 924.0122 56.820015 
L 925.07382 58.447943 
L 926.13544 60.091032 
L 927.19706 61.747837 
L 928.25868 63.416958 
L 929.3203 65.097038 
L 930.38192 66.786761 
L 931.44354 68.484851 
L 932.50516 70.190066 
L 933.56678 71.901204 
L 934.6284 73.617094 
L 935.69002 75.336599 
L 936.75164 77.058616 
L 937.81326 78.782068 
L 938.87488 80.505913 
L 939.9365 82.229135 
L 940.99812 83.950746 
L 942.05974 85.669788 
L 943.12136 87.385325 
L 944.18298 89.09645 
L 945.2446 90.802282 
L 946.30622 92.501961 
L 947.36784 94.194653 
L 948.42946 95.879549 
L 949.49108 97.555861 
L 950.5527 99.222823 
L 951.61432 100.879693 
L 952.67594 102.525751 
L 953.73756 104.160296 
L 954.79918 105.78265 
L 955.8608 107.392156 
L 956.92242 108.988177 
L 957.98404 110.570096 
L 959.04566 112.137318 
L 960.10728 113.689266 
L 961.1689 115.225384 
L 962.23052 116.745136 
L 963.29214 118.248006 
L 964.35376 119.733495 
L 965.41538 121.201128 
L 966.477 122.650447 
L 967.53862 124.081014 
L 968.60024 125.492412 
L 969.66186 126.884242 
L 970.72348 128.256127 
L 971.7851 129.607709 
L 972.84672 130.938652 
L 973.90834 132.248638 
L 974.96996 133.537373 
L 976.03158 134.804582 
L 977.0932 136.050014 
L 978.15482 137.273436 
L 979.21644 138.474643 
L 980.27806 139.653448 
L 981.33968 140.809691 
L 982.4013 141.943234 
L 983.46292 143.053965 
L 984.52454 144.141797 
L 985.58616 145.206671 
L 986.64778 146.248554 
L 987.7094 147.267443 
L 988.77102 148.263364 
L 989.83264 149.236374 
L 990.89426 150.186568 
L 991.95588 151.114076 
L 993.0175 152.019072 
L 994.07912 152.901787 
L 995.14074 153.762532 
L 996.20236 154.601783 
L 997.26398 155.420486 
L 998.3256 156.222262 
L 999.38722 157.156993 
L 1000.44884 159.379115 
L 1001.51046 161.664349 
L 1002.57208 163.920777 
L 1003.6337 166.144798 
L 1004.69532 168.335066 
L 1005.75694 170.49066 
L 1006.81856 172.610809 
L 1007.88018 174.694818 
L 1008.9418 176.742049 
L 1010.00342 178.751905 
L 1011.06504 180.723827 
L 1012.12666 182.657288 
L 1013.18828 184.551797 
L 1014.2499 186.406891 
L 1015.31152 188.222136 
L 1016.37314 189.997129 
L 1017.43476 191.731491 
L 1018.49638 193.424873 
L 1019.558 195.07695 
L 1020.61962 196.687425 
L 1021.68124 198.256023 
L 1022.74286 199.782496 
L 1023.80448 201.266621 
L 1024.8661 202.708196 
L 1025.92772 204.107047 
L 1026.98934 205.463021 
L 1028.05096 206.775988 
L 1029.11258 208.045843 
L 1030.1742 209.272504 
L 1031.23582 210.45591 
L 1032.29744 211.596027 
L 1033.35906 212.692842 
L 1034.42068 213.746365 
L 1035.4823 214.756632 
L 1036.54392 215.723699 
L 1037.60554 216.64765 
L 1038.66716 217.52859 
L 1039.72878 218.366651 
L 1040.7904 219.16199 
L 1041.85202 219.914787 
L 1042.91364 220.625251 
L 1043.97526 221.293617 
L 1045.03688 221.920145 
L 1046.0985 222.505126 
L 1047.16012 223.048878 
L 1048.22174 223.551751 
L 1049.28336 224.014122 
L 1050.34498 224.436405 
L 1051.4066 224.819045 
L 1052.46822 225.162523 
L 1053.52984 225.46736 
L 1054.59146 225.734118 
L 1055.65308 225.963412 
L 1056.7147 226.155922 
L 1057.77632 226.312434 
L 1058.83794 226.433961 
L 1059.89956 226.522316 
L 1060.96118 226.585869 
L 1062.0228 227.187336 
L 1063.08442 228.675749 
L 1064.14604 230.152976 
L 1065.20766 231.601362 
L 1066.26928 233.018589 
L 1067.3309 234.403543 
L 1068.39252 235.755406 
L 1069.45414 237.073482 
L 1070.51576 238.35714 
L 1071.57738 239.605803 
L 1072.639 240.818934 
L 1073.70062 241.996029 
L 1074.76224 243.136621 
L 1075.82386 244.240269 
L 1076.88548 245.306563 
L 1077.9471 246.335117 
L 1079.00872 247.325574 
L 1080.07034 248.277599 
L 1081.13196 249.190879 
L 1082.19358 250.065127 
L 1083.2552 250.900073 
L 1084.31682 251.695472 
L 1085.37844 252.451095 
L 1086.44006 253.166735 
L 1087.50168 253.842202 
L 1088.5633 254.477324 
L 1089.62492 255.071949 
L 1090.68654 255.625938 
L 1091.74816 256.139171 
L 1092.80978 256.611545 
L 1093.8714 257.042969 
L 1094.93302 257.433372 
L 1095.99464 257.782695 
L 1097.05626 258.090893 
L 1098.11788 258.357939 
L 1099.1795 258.583818 
L 1100.24112 258.768528 
L 1101.30274 258.912083 
L 1102.36436 259.014509 
L 1103.42598 259.075846 
L 1104.4876 259.096149 
L 1105.54922 259.075482 
L 1106.61084 259.013927 
L 1107.67246 258.911577 
L 1108.73408 258.768537 
L 1109.7957 258.584927 
L 1110.85732 258.36088 
L 1111.91894 258.096541 
L 1112.98056 257.792069 
L 1114.04218 257.447637 
L 1115.1038 257.063433 
L 1116.16542 256.639658 
L 1117.22704 256.176529 
L 1118.28866 255.674283 
L 1119.35028 255.133176 
L 1120.4119 254.553497 
L 1121.47352 253.935587 
L 1122.53514 253.279901 
L 1123.59676 252.58727 
L 1124.65838 251.860708 
L 1124.65838 250.059203 
L 1123.59676 249.040172 
L 1122.53514 248.042225 
L 1121.47352 247.06815 
L 1120.4119 246.118546 
L 1119.35028 245.193639 
L 1118.28866 244.293533 
L 1117.22704 243.418277 
L 1116.16542 242.567888 
L 1115.1038 241.742355 
L 1114.04218 240.941649 
L 1112.98056 240.16572 
L 1111.91894 239.414499 
L 1110.85732 238.687901 
L 1109.7957 237.985825 
L 1108.73408 237.308151 
L 1107.67246 236.654742 
L 1106.61084 236.025446 
L 1105.54922 235.420093 
L 1104.4876 234.838497 
L 1103.42598 234.280456 
L 1102.36436 233.745748 
L 1101.30274 233.234138 
L 1100.24112 232.74537 
L 1099.1795 232.279173 
L 1098.11788 231.835258 
L 1097.05626 231.413319 
L 1095.99464 231.01303 
L 1094.93302 230.634048 
L 1093.8714 230.276011 
L 1092.80978 229.938539 
L 1091.74816 229.621232 
L 1090.68654 229.32367 
L 1089.62492 229.045414 
L 1088.5633 228.786003 
L 1087.50168 228.544956 
L 1086.44006 228.321772 
L 1085.37844 228.115924 
L 1084.31682 227.926867 
L 1083.2552 227.75403 
L 1082.19358 227.596818 
L 1081.13196 227.454613 
L 1080.07034 227.326769 
L 1079.00872 227.212616 
L 1077.9471 227.111457 
L 1076.88548 227.022565 
L 1075.82386 226.945183 
L 1074.76224 226.878528 
L 1073.70062 226.821779 
L 1072.639 226.774086 
L 1071.57738 226.734561 
L 1070.51576 226.70228 
L 1069.45414 226.676277 
L 1068.39252 226.655539 
L 1067.3309 226.638999 
L 1066.26928 226.625512 
L 1065.20766 226.613811 
L 1064.14604 226.602325 
L 1063.08442 226.588274 
L 1062.0228 226.553533 
L 1060.96118 225.599528 
L 1059.89956 224.075279 
L 1058.83794 222.543797 
L 1057.77632 221.013749 
L 1056.7147 219.487237 
L 1055.65308 217.965558 
L 1054.59146 216.449778 
L 1053.52984 214.94085 
L 1052.46822 213.439654 
L 1051.4066 211.947015 
L 1050.34498 210.46371 
L 1049.28336 208.99047 
L 1048.22174 207.527987 
L 1047.16012 206.07691 
L 1046.0985 204.637855 
L 1045.03688 203.211399 
L 1043.97526 201.798084 
L 1042.91364 200.398419 
L 1041.85202 199.012879 
L 1040.7904 197.641907 
L 1039.72878 196.285914 
L 1038.66716 194.945282 
L 1037.60554 193.620359 
L 1036.54392 192.311467 
L 1035.4823 191.018895 
L 1034.42068 189.742905 
L 1033.35906 188.483731 
L 1032.29744 187.241577 
L 1031.23582 186.016618 
L 1030.1742 184.809005 
L 1029.11258 183.618857 
L 1028.05096 182.446267 
L 1026.98934 181.291301 
L 1025.92772 180.153997 
L 1024.8661 179.034365 
L 1023.80448 177.932386 
L 1022.74286 176.848017 
L 1021.68124 175.781183 
L 1020.61962 174.731783 
L 1019.558 173.699687 
L 1018.49638 172.684735 
L 1017.43476 171.686741 
L 1016.37314 170.705487 
L 1015.31152 169.740724 
L 1014.2499 168.792174 
L 1013.18828 167.859529 
L 1012.12666 166.942445 
L 1011.06504 166.040547 
L 1010.00342 165.153427 
L 1008.9418 164.28064 
L 1007.88018 163.421702 
L 1006.81856 162.576089 
L 1005.75694 161.743232 
L 1004.69532 160.922503 
L 1003.6337 160.113192 
L 1002.57208 159.314438 
L 1001.51046 158.52495 
L 1000.44884 157.74118 
L 999.38722 156.871258 
L 998.3256 154.691106 
L 997.26398 152.356067 
L 996.20236 150.017121 
L 995.14074 147.678986 
L 994.07912 145.343703 
L 993.0175 143.012838 
L 991.95588 140.687791 
L 990.89426 138.369882 
L 989.83264 136.06037 
L 988.77102 133.76047 
L 987.7094 131.471358 
L 986.64778 129.194175 
L 985.58616 126.930028 
L 984.52454 124.679993 
L 983.46292 122.445119 
L 982.4013 120.226426 
L 981.33968 118.024907 
L 980.27806 115.84153 
L 979.21644 113.677239 
L 978.15482 111.532954 
L 977.0932 109.409573 
L 976.03158 107.307972 
L 974.96996 105.229005 
L 973.90834 103.173507 
L 972.84672 101.142293 
L 971.7851 99.136156 
L 970.72348 97.155875 
L 969.66186 95.202207 
L 968.60024 93.275893 
L 967.53862 91.377656 
L 966.477 89.508204 
L 965.41538 87.668226 
L 964.35376 85.858395 
L 963.29214 84.07937 
L 962.23052 82.331793 
L 961.1689 80.616291 
L 960.10728 78.933475 
L 959.04566 77.283943 
L 957.98404 75.668276 
L 956.92242 74.087042 
L 955.8608 72.540793 
L 954.79918 71.030068 
L 953.73756 69.555389 
L 952.67594 68.117267 
L 951.61432 66.716196 
L 950.5527 65.352656 
L 949.49108 64.027113 
L 948.42946 62.740018 
L 947.36784 61.491808 
L 946.30622 60.282903 
L 945.2446 59.11371 
L 944.18298 57.984619 
L 943.12136 56.896006 
L 942.05974 55.84823 
L 940.99812 54.841633 
L 939.9365 53.876542 
L 938.87488 52.953265 
L 937.81326 52.072093 
L 936.75164 51.2333 
L 935.69002 50.43714 
L 934.6284 49.683848 
L 933.56678 48.973637 
L 932.50516 48.306702 
L 931.44354 47.683214 
L 930.38192 47.103322 
L 929.3203 46.56715 
L 928.25868 46.074797 
L 927.19706 45.626337 
L 926.13544 45.221813 
L 925.07382 44.861239 
L 924.0122 44.544595 
L 922.95058 44.271827 
L 921.88896 44.042838 
L 920.82734 43.857483 
L 919.76572 43.715549 
L 918.7041 43.616719 
L 917.64248 43.560443 
L 916.58086 43.545368 
L 915.51924 43.563614 
L 914.45762 43.076635 
L 913.396 41.739564 
L 912.33438 40.44496 
L 911.27276 39.211105 
L 910.21114 38.040205 
L 909.14952 36.933218 
L 908.0879 35.890795 
L 907.02628 34.913462 
L 905.96466 34.001671 
L 904.90304 33.15582 
L 903.84142 32.376257 
L 902.7798 31.663293 
L 901.71818 31.017197 
L 900.65656 30.438205 
L 899.59494 29.926513 
L 898.53332 29.482288 
L 897.4717 29.10566 
L 896.41008 28.796726 
L 895.34846 28.555554 
L 894.28684 28.382177 
L 893.22522 28.276598 
L 892.1636 28.238788 
L 891.10198 28.268687 
L 890.04036 28.366205 
L 888.97874 28.531219 
L 887.91712 28.763575 
L 886.8555 29.063088 
L 885.79388 29.429541 
L 884.73226 29.862685 
L 883.67064 30.362237 
L 882.60902 30.927882 
L 881.5474 31.559269 
L 880.48578 32.256016 
L 879.42416 33.017701 
L 878.36254 33.843867 
L 877.30092 34.734019 
L 876.2393 35.687623 
L 875.17768 36.704102 
L 874.11606 37.782837 
L 873.05444 38.923164 
L 871.99282 40.124366 
L 870.9312 41.385672 
L 869.86958 42.706245 
L 868.80796 44.085157 
L 867.74634 45.521331 
L 866.68472 47.013326 
L 865.6231 48.558161 
L 864.56148 50.129028 
L 863.49986 50.789221 
L 862.43824 51.080125 
L 861.37662 51.408971 
L 860.315 51.782484 
L 859.25338 52.202007 
L 858.19176 52.668126 
L 857.13014 53.181196 
L 856.06852 53.741453 
L 855.0069 54.34906 
L 853.94528 55.004115 
L 852.88366 55.706668 
L 851.82204 56.456718 
L 850.76042 57.254224 
L 849.6988 58.099102 
L 848.63718 58.991232 
L 847.57556 59.930456 
L 846.51394 60.91658 
L 845.45232 61.949377 
L 844.3907 63.028587 
L 843.32908 64.15392 
L 842.26746 65.325054 
L 841.20584 66.541636 
L 840.14422 67.803288 
L 839.0826 69.109598 
L 838.02098 70.460131 
L 836.95936 71.854422 
L 835.89774 73.29198 
L 834.83612 74.772288 
L 833.7745 76.2948 
L 832.71288 77.858946 
L 831.65126 79.46413 
L 830.58964 81.109731 
L 829.52802 82.7951 
L 828.4664 84.519562 
L 827.40478 86.28242 
L 826.34316 88.082946 
L 825.28154 89.92039 
L 824.21992 91.793972 
L 823.1583 93.702889 
L 822.09668 95.646308 
L 821.03506 97.623369 
L 819.97344 99.633186 
L 818.91182 101.674844 
L 817.8502 103.747396 
L 816.78858 105.84987 
L 815.72696 107.981259 
L 814.66534 110.140529 
L 813.60372 112.326609 
L 812.5421 114.538395 
L 811.48048 116.774749 
L 810.41886 119.034491 
L 809.35724 121.316395 
L 808.29562 123.619182 
L 807.234 125.941488 
L 806.17238 128.281797 
L 805.11076 130.638147 
L 804.04914 133.006157 
L 802.98752 135.270837 
L 801.9259 136.214587 
L 800.86428 137.032789 
L 799.80266 137.847249 
L 798.74104 138.66187 
L 797.67942 139.478077 
L 796.6178 140.296849 
L 795.55618 141.119003 
L 794.49456 141.945278 
L 793.43294 142.776354 
L 792.37132 143.612867 
L 791.3097 144.455417 
L 790.24808 145.304568 
L 789.18646 146.160849 
L 788.12484 147.024764 
L 787.06322 147.896783 
L 786.0016 148.77735 
L 784.93998 149.666885 
L 783.87836 150.56578 
L 782.81674 151.474402 
L 781.75512 152.393096 
L 780.6935 153.322182 
L 779.63188 154.261961 
L 778.57026 155.212708 
L 777.50864 156.174679 
L 776.44702 157.148111 
L 775.3854 158.133219 
L 774.32378 159.130196 
L 773.26216 160.139221 
L 772.20054 161.16045 
L 771.13892 162.194022 
L 770.0773 163.240058 
L 769.01568 164.298659 
L 767.95406 165.369911 
L 766.89244 166.453881 
L 765.83082 167.550618 
L 764.7692 168.660156 
L 763.70758 169.782509 
L 762.64596 170.917677 
L 761.58434 172.065642 
L 760.52272 173.226369 
L 759.4611 174.399805 
L 758.39948 175.585884 
L 757.33786 176.784519 
L 756.27624 177.99561 
L 755.21462 179.219037 
L 754.153 180.454666 
L 753.09138 181.702344 
L 752.02976 182.961902 
L 750.96814 184.233153 
L 749.90652 185.515894 
L 748.8449 186.809903 
L 747.78328 188.11494 
L 746.72166 189.430749 
L 745.66004 190.757054 
L 744.59842 192.093561 
L 743.5368 193.439956 
L 742.47518 194.795907 
L 741.41356 196.161062 
L 740.35194 197.535049 
L 739.29032 198.917475 
L 738.2287 200.307926 
L 737.16708 201.705966 
L 736.10546 203.111138 
L 735.04384 204.52296 
L 733.98222 205.940929 
L 732.9206 207.364517 
L 731.85898 208.793169 
L 730.79736 210.226307 
L 729.73574 211.663323 
L 728.67412 213.103585 
L 727.6125 214.546429 
L 726.55088 215.991162 
L 725.48926 217.437059 
L 724.42764 218.883364 
L 723.36602 220.329285 
L 722.3044 221.773994 
L 721.24278 223.216625 
L 720.18116 224.656273 
L 719.11954 226.091987 
L 718.05792 227.522767 
L 716.9963 228.947556 
L 715.93468 230.365224 
L 714.87306 231.774507 
L 713.81144 233.173793 
L 712.74982 234.559231 
L 711.6882 235.582835 
L 710.62658 235.463229 
L 709.56496 235.324383 
L 708.50334 235.185373 
L 707.44172 235.048471 
L 706.3801 234.915108 
L 705.31848 234.786501 
L 704.25686 234.663774 
L 703.19524 234.547985 
L 702.13362 234.440134 
L 701.072 234.341179 
L 700.01038 234.25203 
L 698.94876 234.173557 
L 697.88714 234.106591 
L 696.82552 234.051923 
L 695.7639 234.010309 
L 694.70228 233.98247 
L 693.64066 233.969091 
L 692.57904 233.970825 
L 691.51742 233.988292 
L 690.4558 234.022082 
L 689.39418 234.072752 
L 688.33256 234.140829 
L 687.27094 234.226811 
L 686.20932 234.331169 
L 685.1477 234.454342 
L 684.08608 234.596742 
L 683.02446 234.758754 
L 681.96284 234.940735 
L 680.90122 235.143016 
L 679.8396 235.365899 
L 678.77798 235.609661 
L 677.71636 235.874552 
L 676.65474 236.160796 
L 675.59312 236.46859 
L 674.5315 236.798104 
L 673.46988 237.149483 
L 672.40826 237.522846 
L 671.34664 237.918282 
L 670.28502 238.335859 
L 669.2234 238.775612 
L 668.16178 239.237553 
L 667.10016 239.721664 
L 666.03854 240.227902 
L 664.97692 240.756193 
L 663.9153 241.306436 
L 662.85368 241.878499 
L 661.79206 242.472222 
L 660.73044 243.087413 
L 659.66882 243.723849 
L 658.6072 244.381274 
L 657.54558 245.0594 
L 656.48396 245.757902 
L 655.42234 246.476419 
L 654.36072 247.214549 
L 653.2991 247.971844 
L 652.23748 248.747804 
L 651.17586 249.541848 
L 650.11424 250.353261 
L 649.05262 251.180969 
L 647.991 252.022227 
L 646.92938 252.838573 
L 645.86776 252.478087 
L 644.80614 251.802173 
L 643.74452 251.130915 
L 642.6829 250.469829 
L 641.62128 249.820608 
L 640.55966 249.184361 
L 639.49804 248.562009 
L 638.43642 247.954385 
L 637.3748 247.36226 
L 636.31318 246.786358 
L 635.25156 246.227362 
L 634.18994 245.685921 
L 633.12832 245.162649 
L 632.0667 244.658129 
L 631.00508 244.172912 
L 629.94346 243.707523 
L 628.88184 243.262456 
L 627.82022 242.83818 
L 626.7586 242.43514 
L 625.69698 242.053752 
L 624.63536 241.69441 
L 623.57374 241.357485 
L 622.51212 241.043324 
L 621.4505 240.752251 
L 620.38888 240.484568 
L 619.32726 240.240558 
L 618.26564 240.02048 
L 617.20402 239.824573 
L 616.1424 239.653058 
L 615.08078 239.506133 
L 614.01916 239.383978 
L 612.95754 239.286754 
L 611.89592 239.2146 
L 610.8343 239.167638 
L 609.77268 239.145973 
L 608.71106 239.149687 
L 607.64944 239.178847 
L 606.58782 239.2335 
L 605.5262 239.313673 
L 604.46458 239.419377 
L 603.40296 239.550604 
L 602.34134 239.707324 
L 601.27972 239.889494 
L 600.2181 240.097047 
L 599.15648 240.3299 
L 598.09486 240.587951 
L 597.03324 240.871077 
L 595.97162 241.179136 
L 594.91 241.511968 
L 593.84838 241.869391 
L 592.78676 242.251204 
L 591.72514 242.657183 
L 590.66352 243.087086 
L 589.6019 243.540647 
L 588.54028 244.017579 
L 587.47866 244.517572 
L 586.41704 245.040293 
L 585.35542 245.585386 
L 584.2938 246.152468 
L 583.23218 246.741133 
L 582.17056 247.350948 
L 581.10894 247.981452 
L 580.04732 248.632154 
L 578.9857 249.302535 
L 577.92408 249.99204 
L 576.86246 250.700076 
L 575.80084 251.426007 
L 574.73922 252.169129 
L 573.6776 252.928632 
L 572.61598 253.703435 
L 571.55436 254.49136 
L 570.49274 255.276653 
L 569.43112 255.122455 
L 568.3695 254.347764 
L 567.30788 253.578949 
L 566.24626 252.824353 
L 565.18464 252.085775 
L 564.12302 251.36425 
L 563.0614 250.660599 
L 561.99978 249.975552 
L 560.93816 249.309779 
L 559.87654 248.663911 
L 558.81492 248.038542 
L 557.7533 247.434236 
L 556.69168 246.851527 
L 555.63006 246.290923 
L 554.56844 245.752906 
L 553.50682 245.237935 
L 552.4452 244.746444 
L 551.38358 244.278845 
L 550.32196 243.835528 
L 549.26034 243.416863 
L 548.19872 243.023197 
L 547.1371 242.65486 
L 546.07548 242.31216 
L 545.01386 241.995388 
L 543.95224 241.704816 
L 542.89062 241.440697 
L 541.829 241.203268 
L 540.76738 240.992747 
L 539.70576 240.809337 
L 538.64414 240.653223 
L 537.58252 240.524573 
L 536.5209 240.42354 
L 535.45928 240.35026 
L 534.39766 240.304856 
L 533.33604 240.287431 
L 532.27442 240.298077 
L 531.2128 240.336868 
L 530.15118 240.403863 
L 529.08956 240.499107 
L 528.02794 240.62263 
L 526.96632 240.774446 
L 525.9047 240.954554 
L 524.84308 241.16294 
L 523.78146 241.399573 
L 522.71984 241.664408 
L 521.65822 241.957385 
L 520.5966 242.278429 
L 519.53498 242.62745 
L 518.47336 243.004342 
L 517.41174 243.408983 
L 516.35012 243.841238 
L 515.2885 244.300955 
L 514.22688 244.787964 
L 513.16526 245.302081 
L 512.10364 245.843107 
L 511.04202 246.410821 
L 509.9804 247.00499 
L 508.91878 247.62536 
L 507.85716 248.27166 
L 506.79554 248.943597 
L 505.73392 249.640859 
L 504.6723 250.363109 
L 503.61068 251.109979 
L 502.54906 251.881058 
L 501.48744 252.675862 
L 500.42582 253.493721 
L 499.3642 254.333281 
L 498.30258 255.187189 
L 497.24096 255.356584 
L 496.17934 254.476635 
L 495.11772 253.584215 
L 494.0561 252.693592 
L 492.99448 251.806672 
L 491.93286 250.924376 
L 490.87124 250.047389 
L 489.80962 249.17631 
L 488.748 248.311686 
L 487.68638 247.454033 
L 486.62476 246.603839 
L 485.56314 245.761572 
L 484.50152 244.927679 
L 483.4399 244.10259 
L 482.37828 243.286716 
L 481.31666 242.480455 
L 480.25504 241.684187 
L 479.19342 240.898279 
L 478.1318 240.123083 
L 477.07018 239.358939 
L 476.00856 238.606174 
L 474.94694 237.865101 
L 473.88532 237.136024 
L 472.8237 236.419233 
L 471.76208 235.715009 
L 470.70046 235.023622 
L 469.63884 234.345331 
L 468.57722 233.680385 
L 467.5156 233.029026 
L 466.45398 232.391484 
L 465.39236 231.76798 
L 464.33074 231.158729 
L 463.26912 230.563934 
L 462.2075 229.983795 
L 461.14588 229.418498 
L 460.08426 228.868226 
L 459.02264 228.333152 
L 457.96102 227.813443 
L 456.8994 227.309259 
L 455.83778 226.820753 
L 454.77616 226.348071 
L 453.71454 225.891352 
L 452.65292 225.45073 
L 451.5913 225.026331 
L 450.52968 224.618277 
L 449.46806 224.226684 
L 448.40644 223.851659 
L 447.34482 223.493307 
L 446.2832 223.151726 
L 445.22158 222.827009 
L 444.15996 222.519243 
L 443.09834 222.22851 
L 442.03672 221.954886 
L 440.9751 221.698444 
L 439.91348 221.459251 
L 438.85186 221.237367 
L 437.79024 221.032851 
L 436.72862 220.845754 
L 435.667 220.676124 
L 434.60538 220.524003 
L 433.54376 220.389429 
L 432.48214 220.272436 
L 431.42052 220.173053 
L 430.3589 220.091304 
L 429.29728 220.027208 
L 428.23566 219.980781 
L 427.17404 219.952034 
L 426.11242 219.940972 
L 425.0508 219.947598 
L 423.98918 219.971908 
L 422.92756 220.013896 
L 421.86594 220.073551 
L 420.80432 220.150854 
L 419.7427 220.245787 
L 418.68108 220.358324 
L 417.61946 220.488435 
L 416.55784 220.636086 
L 415.49622 220.801237 
L 414.4346 220.983845 
L 413.37298 221.183862 
L 412.31136 221.401234 
L 411.24974 221.635904 
L 410.18812 221.887809 
L 409.1265 222.15688 
L 408.06488 222.443045 
L 407.00326 222.746227 
L 405.94164 223.066341 
L 404.88002 223.403301 
L 403.8184 223.757011 
L 402.75678 224.127373 
L 401.69516 224.514282 
L 400.63354 224.917627 
L 399.57192 225.337292 
L 398.5103 225.773156 
L 397.44868 226.225089 
L 396.38706 226.692957 
L 395.32544 227.176619 
L 394.26382 227.675928 
L 393.2022 228.19073 
L 392.14058 228.720864 
L 391.07896 229.266161 
L 390.01734 229.826446 
L 388.95572 230.401537 
L 387.8941 230.991243 
L 386.83248 231.595365 
L 385.77086 232.213697 
L 384.70924 232.846024 
L 383.64762 233.492122 
L 382.586 234.151758 
L 381.52438 234.824692 
L 380.46276 235.51067 
L 379.40114 236.209432 
L 378.33952 236.920705 
L 377.2779 237.644209 
L 376.21628 238.379648 
L 375.15466 239.126719 
L 374.09304 239.885105 
L 373.03142 240.654477 
L 371.9698 241.434492 
L 370.90818 242.224796 
L 369.84656 243.02502 
L 368.78494 243.834779 
L 367.72332 244.653674 
L 366.6617 245.481291 
L 365.60008 246.317197 
L 364.53846 247.160941 
L 363.47684 248.012054 
L 362.41522 248.870045 
L 361.3536 249.734396 
L 360.29198 250.604563 
L 359.23036 251.479957 
L 358.16874 252.359921 
L 357.10712 253.243645 
L 356.0455 254.129806 
L 354.98388 255.013571 
L 353.92226 255.516886 
L 352.86064 254.688136 
L 351.79902 253.847463 
L 350.7374 253.027744 
L 349.67578 252.231245 
L 348.61416 251.458806 
L 347.55254 250.710975 
L 346.49092 249.98819 
L 345.4293 249.290841 
L 344.36768 248.619281 
L 343.30606 247.973834 
L 342.24444 247.354806 
L 341.18282 246.762476 
L 340.1212 246.197108 
L 339.05958 245.658944 
L 337.99796 245.14821 
L 336.93634 244.665112 
L 335.87472 244.209841 
L 334.8131 243.782569 
L 333.75148 243.383452 
L 332.68986 243.01263 
L 331.62824 242.670225 
L 330.56662 242.356345 
L 329.505 242.07108 
L 328.44338 241.814504 
L 327.38176 241.586678 
L 326.32014 241.387643 
L 325.25852 241.217428 
L 324.1969 241.076043 
L 323.13528 240.963485 
L 322.07366 240.879733 
L 321.01204 240.824753 
L 319.95042 240.798491 
L 318.8888 240.800881 
L 317.82718 240.831838 
L 316.76556 240.891263 
L 315.70394 240.979039 
L 314.64232 241.095033 
L 313.5807 241.239096 
L 312.51908 241.41106 
L 311.45746 241.610742 
L 310.39584 241.83794 
L 309.33422 242.092435 
L 308.2726 242.373988 
L 307.21098 242.682345 
L 306.14936 243.017229 
L 305.08774 243.378346 
L 304.02612 243.765382 
L 302.9645 244.178001 
L 301.90288 244.615848 
L 300.84126 245.078546 
L 299.77964 245.565694 
L 298.71802 246.07687 
L 297.6564 246.611628 
L 296.59478 247.169495 
L 295.53316 247.749976 
L 294.47154 248.352546 
L 293.40992 248.976652 
L 292.3483 249.621713 
L 291.28668 250.28711 
L 290.22506 250.972191 
L 289.16344 251.676255 
L 288.10182 252.398536 
L 287.0402 253.138156 
L 285.97858 253.893949 
L 284.91696 254.663559 
L 283.85534 255.428449 
L 282.79372 255.205626 
L 281.7321 254.430864 
L 280.67048 253.662993 
L 279.60886 252.909614 
L 278.54724 252.172483 
L 277.48562 251.452633 
L 276.424 250.750884 
L 275.36238 250.067964 
L 274.30076 249.404541 
L 273.23914 248.761238 
L 272.17752 248.138641 
L 271.1159 247.537301 
L 270.05428 246.957739 
L 268.99266 246.400445 
L 267.93104 245.865881 
L 266.86942 245.354485 
L 265.8078 244.866664 
L 264.74618 244.402803 
L 263.68456 243.963262 
L 262.62294 243.548378 
L 261.56132 243.158463 
L 260.4997 242.793808 
L 259.43808 242.454681 
L 258.37646 242.141329 
L 257.31484 241.853979 
L 256.25322 241.592834 
L 255.1916 241.358079 
L 254.12998 241.149878 
L 253.06836 240.968376 
L 252.00674 240.813698 
L 250.94512 240.685948 
L 249.8835 240.585212 
L 248.82188 240.511558 
L 247.76026 240.465033 
L 246.69864 240.445666 
L 245.63702 240.453467 
L 244.5754 240.488427 
L 243.51378 240.550517 
L 242.45216 240.639692 
L 241.39054 240.755885 
L 240.32892 240.899012 
L 239.2673 241.068967 
L 238.20568 241.265629 
L 237.14406 241.488853 
L 236.08244 241.738477 
L 235.02082 242.014318 
L 233.9592 242.316173 
L 232.89758 242.643819 
L 231.83596 242.997009 
L 230.77434 243.375479 
L 229.71272 243.77894 
L 228.6511 244.207082 
L 227.58948 244.659571 
L 226.52786 245.136052 
L 225.46624 245.636143 
L 224.40462 246.159439 
L 223.343 246.705509 
L 222.28138 247.273896 
L 221.21976 247.864114 
L 220.15814 248.47565 
L 219.09652 249.107958 
L 218.0349 249.760463 
L 216.97328 250.432552 
L 215.91166 251.123571 
L 214.85004 251.832817 
L 213.78842 252.559514 
L 212.7268 253.302748 
L 211.66518 254.061239 
L 210.60356 254.831903 
L 209.54194 255.564732 
L 208.48032 255.037605 
L 207.4187 254.259336 
L 206.35708 253.491199 
L 205.29546 252.73801 
L 204.23384 252.001278 
L 203.17222 251.281987 
L 202.1106 250.580947 
L 201.04898 249.898885 
L 199.98736 249.236475 
L 198.92574 248.594347 
L 197.86412 247.973093 
L 196.8025 247.373275 
L 195.74088 246.795421 
L 194.67926 246.240032 
L 193.61764 245.707581 
L 192.55602 245.198513 
L 191.4944 244.713249 
L 190.43278 244.252183 
L 189.37116 243.815687 
L 188.30954 243.404107 
L 187.24792 243.017769 
L 186.1863 242.656975 
L 185.12468 242.322005 
L 184.06306 242.013117 
L 183.00144 241.73055 
L 181.93982 241.474521 
L 180.8782 241.245226 
L 179.81658 241.042843 
L 178.75496 240.867529 
L 177.69334 240.719421 
L 176.63172 240.598637 
L 175.5701 240.505277 
L 174.50848 240.43942 
L 173.44686 240.401128 
L 172.38524 240.390443 
L 171.32362 240.407389 
L 170.262 240.45197 
L 169.20038 240.524172 
L 168.13876 240.623963 
L 167.07714 240.75129 
L 166.01552 240.906083 
L 164.9539 241.088253 
L 163.89228 241.297689 
L 162.83066 241.534264 
L 161.76904 241.797829 
L 160.70742 242.088216 
L 159.6458 242.405236 
L 158.58418 242.748682 
L 157.52256 243.118322 
L 156.46094 243.513906 
L 155.39932 243.935162 
L 154.3377 244.381794 
L 153.27608 244.853485 
L 152.21446 245.349893 
L 151.15284 245.870654 
L 150.09122 246.415378 
L 149.0296 246.983649 
L 147.96798 247.575026 
L 146.90636 248.189039 
L 145.84474 248.825189 
L 144.78312 249.482947 
L 143.7215 250.16175 
L 142.65988 250.860996 
L 141.59826 251.580037 
L 140.53664 252.318159 
L 139.47502 253.074538 
L 138.4134 253.848063 
L 137.35178 254.636442 
L 136.29016 255.421317 
L 135.22854 255.211234 
L 134.16692 254.444403 
L 133.1053 253.684315 
L 132.04368 252.938489 
L 130.98206 252.208648 
L 129.92044 251.495794 
L 128.85882 250.800729 
L 127.7972 250.12416 
L 126.73558 249.466743 
L 125.67396 248.829091 
L 124.61234 248.211785 
L 123.55072 247.615374 
L 122.4891 247.040381 
L 121.42748 246.487303 
L 120.36586 245.956613 
L 119.30424 245.44876 
L 118.24262 244.964171 
L 117.181 244.503253 
L 116.11938 244.066392 
L 115.05776 243.653954 
L 113.99614 243.266285 
L 112.93452 242.903715 
L 111.8729 242.566553 
L 110.81128 242.255095 
L 109.74966 241.969616 
L 108.68804 241.710376 
L 107.62642 241.477621 
L 106.5648 241.271579 
L 105.50318 241.092463 
L 104.44156 240.940473 
L 103.37994 240.815793 
L 102.31832 240.718594 
L 101.2567 240.649032 
L 100.19508 240.607249 
L 99.13346 240.593376 
L 98.07184 240.607528 
L 97.01022 240.649809 
L 95.9486 240.72031 
L 94.88698 240.819108 
L 93.82536 240.946269 
L 92.76374 241.101847 
L 91.70212 241.285882 
L 90.6405 241.498403 
L 89.57888 241.739428 
L 88.51726 242.008962 
L 87.45564 242.306997 
L 86.39402 242.633516 
L 85.3324 242.988488 
L 84.27078 243.371871 
L 83.20916 243.783612 
L 82.14754 244.223644 
L 81.08592 244.69189 
L 80.0243 245.18826 
L 78.96268 245.712654 
L 77.90106 246.264958 
L 76.83944 246.845046 
L 75.77782 247.452779 
L 74.7162 248.088006 
L 73.65458 248.75056 
L 72.59296 249.440262 
L 71.53134 250.156912 
L 70.46972 250.900293 
L 69.4081 251.670151 
L 68.34648 252.466182 
L 67.28486 253.287946 
L 66.22324 254.134547 
L 65.16162 255.001928 
L 64.1 255.501916 
z
" clip-path="url(#p0f2d55f557)" style="fill: #00bfbf; opacity: 0.3"/>
   </g>
   <g id="matplotlib.axis_1">
    <g id="xtick_1">
     <g id="line2d_1">
      <defs>
       <path id="m578ceb0910" d="M 0 0 
L 0 3.5 
" style="stroke: #000000; stroke-width: 0.8"/>
      </defs>
      <g>
       <use xlink:href="#m578ceb0910" x="64.1" y="303.733333" style="stroke: #000000; stroke-width: 0.8"/>
      </g>
     </g>
     <g id="text_1">
      <!-- 0.0 -->
      <g transform="translate(52.967812 321.371146) scale(0.14 -0.14)">
       <defs>
        <path id="DejaVuSans-30" d="M 2034 4250 
Q 1547 4250 1301 3770 
Q 1056 3291 1056 2328 
Q 1056 1369 1301 889 
Q 1547 409 2034 409 
Q 2525 409 2770 889 
Q 3016 1369 3016 2328 
Q 3016 3291 2770 3770 
Q 2525 4250 2034 4250 
z
M 2034 4750 
Q 2819 4750 3233 4129 
Q 3647 3509 3647 2328 
Q 3647 1150 3233 529 
Q 2819 -91 2034 -91 
Q 1250 -91 836 529 
Q 422 1150 422 2328 
Q 422 3509 836 4129 
Q 1250 4750 2034 4750 
z
" transform="scale(0.015625)"/>
        <path id="DejaVuSans-2e" d="M 684 794 
L 1344 794 
L 1344 0 
L 684 0 
L 684 794 
z
" transform="scale(0.015625)"/>
       </defs>
       <use xlink:href="#DejaVuSans-30"/>
       <use xlink:href="#DejaVuSans-2e" x="63.623047"/>
       <use xlink:href="#DejaVuSans-30" x="95.410156"/>
      </g>
     </g>
    </g>
    <g id="xtick_2">
     <g id="line2d_2">
      <g>
       <use xlink:href="#m578ceb0910" x="276.424" y="303.733333" style="stroke: #000000; stroke-width: 0.8"/>
      </g>
     </g>
     <g id="text_2">
      <!-- 0.2 -->
      <g transform="translate(265.291813 321.371146) scale(0.14 -0.14)">
       <defs>
        <path id="DejaVuSans-32" d="M 1228 531 
L 3431 531 
L 3431 0 
L 469 0 
L 469 531 
Q 828 903 1448 1529 
Q 2069 2156 2228 2338 
Q 2531 2678 2651 2914 
Q 2772 3150 2772 3378 
Q 2772 3750 2511 3984 
Q 2250 4219 1831 4219 
Q 1534 4219 1204 4116 
Q 875 4013 500 3803 
L 500 4441 
Q 881 4594 1212 4672 
Q 1544 4750 1819 4750 
Q 2544 4750 2975 4387 
Q 3406 4025 3406 3419 
Q 3406 3131 3298 2873 
Q 3191 2616 2906 2266 
Q 2828 2175 2409 1742 
Q 1991 1309 1228 531 
z
" transform="scale(0.015625)"/>
       </defs>
       <use xlink:href="#DejaVuSans-30"/>
       <use xlink:href="#DejaVuSans-2e" x="63.623047"/>
       <use xlink:href="#DejaVuSans-32" x="95.410156"/>
      </g>
     </g>
    </g>
    <g id="xtick_3">
     <g id="line2d_3">
      <g>
       <use xlink:href="#m578ceb0910" x="488.748" y="303.733333" style="stroke: #000000; stroke-width: 0.8"/>
      </g>
     </g>
     <g id="text_3">
      <!-- 0.4 -->
      <g transform="translate(477.615813 321.371146) scale(0.14 -0.14)">
       <defs>
        <path id="DejaVuSans-34" d="M 2419 4116 
L 825 1625 
L 2419 1625 
L 2419 4116 
z
M 2253 4666 
L 3047 4666 
L 3047 1625 
L 3713 1625 
L 3713 1100 
L 3047 1100 
L 3047 0 
L 2419 0 
L 2419 1100 
L 313 1100 
L 313 1709 
L 2253 4666 
z
" transform="scale(0.015625)"/>
       </defs>
       <use xlink:href="#DejaVuSans-30"/>
       <use xlink:href="#DejaVuSans-2e" x="63.623047"/>
       <use xlink:href="#DejaVuSans-34" x="95.410156"/>
      </g>
     </g>
    </g>
    <g id="xtick_4">
     <g id="line2d_4">
      <g>
       <use xlink:href="#m578ceb0910" x="701.072" y="303.733333" style="stroke: #000000; stroke-width: 0.8"/>
      </g>
     </g>
     <g id="text_4">
      <!-- 0.6 -->
      <g transform="translate(689.939813 321.371146) scale(0.14 -0.14)">
       <defs>
        <path id="DejaVuSans-36" d="M 2113 2584 
Q 1688 2584 1439 2293 
Q 1191 2003 1191 1497 
Q 1191 994 1439 701 
Q 1688 409 2113 409 
Q 2538 409 2786 701 
Q 3034 994 3034 1497 
Q 3034 2003 2786 2293 
Q 2538 2584 2113 2584 
z
M 3366 4563 
L 3366 3988 
Q 3128 4100 2886 4159 
Q 2644 4219 2406 4219 
Q 1781 4219 1451 3797 
Q 1122 3375 1075 2522 
Q 1259 2794 1537 2939 
Q 1816 3084 2150 3084 
Q 2853 3084 3261 2657 
Q 3669 2231 3669 1497 
Q 3669 778 3244 343 
Q 2819 -91 2113 -91 
Q 1303 -91 875 529 
Q 447 1150 447 2328 
Q 447 3434 972 4092 
Q 1497 4750 2381 4750 
Q 2619 4750 2861 4703 
Q 3103 4656 3366 4563 
z
" transform="scale(0.015625)"/>
       </defs>
       <use xlink:href="#DejaVuSans-30"/>
       <use xlink:href="#DejaVuSans-2e" x="63.623047"/>
       <use xlink:href="#DejaVuSans-36" x="95.410156"/>
      </g>
     </g>
    </g>
    <g id="xtick_5">
     <g id="line2d_5">
      <g>
       <use xlink:href="#m578ceb0910" x="913.396" y="303.733333" style="stroke: #000000; stroke-width: 0.8"/>
      </g>
     </g>
     <g id="text_5">
      <!-- 0.8 -->
      <g transform="translate(902.263813 321.371146) scale(0.14 -0.14)">
       <defs>
        <path id="DejaVuSans-38" d="M 2034 2216 
Q 1584 2216 1326 1975 
Q 1069 1734 1069 1313 
Q 1069 891 1326 650 
Q 1584 409 2034 409 
Q 2484 409 2743 651 
Q 3003 894 3003 1313 
Q 3003 1734 2745 1975 
Q 2488 2216 2034 2216 
z
M 1403 2484 
Q 997 2584 770 2862 
Q 544 3141 544 3541 
Q 544 4100 942 4425 
Q 1341 4750 2034 4750 
Q 2731 4750 3128 4425 
Q 3525 4100 3525 3541 
Q 3525 3141 3298 2862 
Q 3072 2584 2669 2484 
Q 3125 2378 3379 2068 
Q 3634 1759 3634 1313 
Q 3634 634 3220 271 
Q 2806 -91 2034 -91 
Q 1263 -91 848 271 
Q 434 634 434 1313 
Q 434 1759 690 2068 
Q 947 2378 1403 2484 
z
M 1172 3481 
Q 1172 3119 1398 2916 
Q 1625 2713 2034 2713 
Q 2441 2713 2670 2916 
Q 2900 3119 2900 3481 
Q 2900 3844 2670 4047 
Q 2441 4250 2034 4250 
Q 1625 4250 1398 4047 
Q 1172 3844 1172 3481 
z
" transform="scale(0.015625)"/>
       </defs>
       <use xlink:href="#DejaVuSans-30"/>
       <use xlink:href="#DejaVuSans-2e" x="63.623047"/>
       <use xlink:href="#DejaVuSans-38" x="95.410156"/>
      </g>
     </g>
    </g>
    <g id="xtick_6">
     <g id="line2d_6">
      <g>
       <use xlink:href="#m578ceb0910" x="1125.72" y="303.733333" style="stroke: #000000; stroke-width: 0.8"/>
      </g>
     </g>
     <g id="text_6">
      <!-- 1.0 -->
      <g transform="translate(1114.587812 321.371146) scale(0.14 -0.14)">
       <defs>
        <path id="DejaVuSans-31" d="M 794 531 
L 1825 531 
L 1825 4091 
L 703 3866 
L 703 4441 
L 1819 4666 
L 2450 4666 
L 2450 531 
L 3481 531 
L 3481 0 
L 794 0 
L 794 531 
z
" transform="scale(0.015625)"/>
       </defs>
       <use xlink:href="#DejaVuSans-31"/>
       <use xlink:href="#DejaVuSans-2e" x="63.623047"/>
       <use xlink:href="#DejaVuSans-30" x="95.410156"/>
      </g>
     </g>
    </g>
    <g id="text_7">
     <!-- x -->
     <g transform="translate(589.583125 341.959896) scale(0.18 -0.18)">
      <defs>
       <path id="DejaVuSans-78" d="M 3513 3500 
L 2247 1797 
L 3578 0 
L 2900 0 
L 1881 1375 
L 863 0 
L 184 0 
L 1544 1831 
L 300 3500 
L 978 3500 
L 1906 2253 
L 2834 3500 
L 3513 3500 
z
" transform="scale(0.015625)"/>
      </defs>
      <use xlink:href="#DejaVuSans-78"/>
     </g>
    </g>
   </g>
   <g id="matplotlib.axis_2">
    <g id="ytick_1">
     <g id="line2d_7">
      <defs>
       <path id="m5d7788cadd" d="M 0 0 
L -3.5 0 
" style="stroke: #000000; stroke-width: 0.8"/>
      </defs>
      <g>
       <use xlink:href="#m5d7788cadd" x="64.1" y="298.819828" style="stroke: #000000; stroke-width: 0.8"/>
      </g>
     </g>
     <g id="text_8">
      <!-- 1 -->
      <g transform="translate(36.460937 304.138735) scale(0.14 -0.14)">
       <defs>
        <path id="DejaVuSans-2212" d="M 678 2272 
L 4684 2272 
L 4684 1741 
L 678 1741 
L 678 2272 
z
" transform="scale(0.015625)"/>
       </defs>
       <use xlink:href="#DejaVuSans-2212"/>
       <use xlink:href="#DejaVuSans-31" x="83.789062"/>
      </g>
     </g>
    </g>
    <g id="ytick_2">
     <g id="line2d_8">
      <g>
       <use xlink:href="#m5d7788cadd" x="64.1" y="255.741693" style="stroke: #000000; stroke-width: 0.8"/>
      </g>
     </g>
     <g id="text_9">
      <!-- 0 -->
      <g transform="translate(48.1925 261.060599) scale(0.14 -0.14)">
       <use xlink:href="#DejaVuSans-30"/>
      </g>
     </g>
    </g>
    <g id="ytick_3">
     <g id="line2d_9">
      <g>
       <use xlink:href="#m5d7788cadd" x="64.1" y="212.663557" style="stroke: #000000; stroke-width: 0.8"/>
      </g>
     </g>
     <g id="text_10">
      <!-- 1 -->
      <g transform="translate(48.1925 217.982463) scale(0.14 -0.14)">
       <use xlink:href="#DejaVuSans-31"/>
      </g>
     </g>
    </g>
    <g id="ytick_4">
     <g id="line2d_10">
      <g>
       <use xlink:href="#m5d7788cadd" x="64.1" y="169.585421" style="stroke: #000000; stroke-width: 0.8"/>
      </g>
     </g>
     <g id="text_11">
      <!-- 2 -->
      <g transform="translate(48.1925 174.904327) scale(0.14 -0.14)">
       <use xlink:href="#DejaVuSans-32"/>
      </g>
     </g>
    </g>
    <g id="ytick_5">
     <g id="line2d_11">
      <g>
       <use xlink:href="#m5d7788cadd" x="64.1" y="126.507285" style="stroke: #000000; stroke-width: 0.8"/>
      </g>
     </g>
     <g id="text_12">
      <!-- 3 -->
      <g transform="translate(48.1925 131.826192) scale(0.14 -0.14)">
       <defs>
        <path id="DejaVuSans-33" d="M 2597 2516 
Q 3050 2419 3304 2112 
Q 3559 1806 3559 1356 
Q 3559 666 3084 287 
Q 2609 -91 1734 -91 
Q 1441 -91 1130 -33 
Q 819 25 488 141 
L 488 750 
Q 750 597 1062 519 
Q 1375 441 1716 441 
Q 2309 441 2620 675 
Q 2931 909 2931 1356 
Q 2931 1769 2642 2001 
Q 2353 2234 1838 2234 
L 1294 2234 
L 1294 2753 
L 1863 2753 
Q 2328 2753 2575 2939 
Q 2822 3125 2822 3475 
Q 2822 3834 2567 4026 
Q 2313 4219 1838 4219 
Q 1578 4219 1281 4162 
Q 984 4106 628 3988 
L 628 4550 
Q 988 4650 1302 4700 
Q 1616 4750 1894 4750 
Q 2613 4750 3031 4423 
Q 3450 4097 3450 3541 
Q 3450 3153 3228 2886 
Q 3006 2619 2597 2516 
z
" transform="scale(0.015625)"/>
       </defs>
       <use xlink:href="#DejaVuSans-33"/>
      </g>
     </g>
    </g>
    <g id="ytick_6">
     <g id="line2d_12">
      <g>
       <use xlink:href="#m5d7788cadd" x="64.1" y="83.42915" style="stroke: #000000; stroke-width: 0.8"/>
      </g>
     </g>
     <g id="text_13">
      <!-- 4 -->
      <g transform="translate(48.1925 88.748056) scale(0.14 -0.14)">
       <use xlink:href="#DejaVuSans-34"/>
      </g>
     </g>
    </g>
    <g id="ytick_7">
     <g id="line2d_13">
      <g>
       <use xlink:href="#m5d7788cadd" x="64.1" y="40.351014" style="stroke: #000000; stroke-width: 0.8"/>
      </g>
     </g>
     <g id="text_14">
      <!-- 5 -->
      <g transform="translate(48.1925 45.66992) scale(0.14 -0.14)">
       <defs>
        <path id="DejaVuSans-35" d="M 691 4666 
L 3169 4666 
L 3169 4134 
L 1269 4134 
L 1269 2991 
Q 1406 3038 1543 3061 
Q 1681 3084 1819 3084 
Q 2600 3084 3056 2656 
Q 3513 2228 3513 1497 
Q 3513 744 3044 326 
Q 2575 -91 1722 -91 
Q 1428 -91 1123 -41 
Q 819 9 494 109 
L 494 744 
Q 775 591 1075 516 
Q 1375 441 1709 441 
Q 2250 441 2565 725 
Q 2881 1009 2881 1497 
Q 2881 1984 2565 2268 
Q 2250 2553 1709 2553 
Q 1456 2553 1204 2497 
Q 953 2441 691 2322 
L 691 4666 
z
" transform="scale(0.015625)"/>
       </defs>
       <use xlink:href="#DejaVuSans-35"/>
      </g>
     </g>
    </g>
    <g id="text_15">
     <!-- f(x) -->
     <g transform="translate(28.7175 174.944635) rotate(-90) scale(0.18 -0.18)">
      <defs>
       <path id="DejaVuSans-66" d="M 2375 4863 
L 2375 4384 
L 1825 4384 
Q 1516 4384 1395 4259 
Q 1275 4134 1275 3809 
L 1275 3500 
L 2222 3500 
L 2222 3053 
L 1275 3053 
L 1275 0 
L 697 0 
L 697 3053 
L 147 3053 
L 147 3500 
L 697 3500 
L 697 3744 
Q 697 4328 969 4595 
Q 1241 4863 1831 4863 
L 2375 4863 
z
" transform="scale(0.015625)"/>
       <path id="DejaVuSans-28" d="M 1984 4856 
Q 1566 4138 1362 3434 
Q 1159 2731 1159 2009 
Q 1159 1288 1364 580 
Q 1569 -128 1984 -844 
L 1484 -844 
Q 1016 -109 783 600 
Q 550 1309 550 2009 
Q 550 2706 781 3412 
Q 1013 4119 1484 4856 
L 1984 4856 
z
" transform="scale(0.015625)"/>
       <path id="DejaVuSans-29" d="M 513 4856 
L 1013 4856 
Q 1481 4119 1714 3412 
Q 1947 2706 1947 2009 
Q 1947 1309 1714 600 
Q 1481 -109 1013 -844 
L 513 -844 
Q 928 -128 1133 580 
Q 1338 1288 1338 2009 
Q 1338 2731 1133 3434 
Q 928 4138 513 4856 
z
" transform="scale(0.015625)"/>
      </defs>
      <use xlink:href="#DejaVuSans-66"/>
      <use xlink:href="#DejaVuSans-28" x="35.205078"/>
      <use xlink:href="#DejaVuSans-78" x="74.21875"/>
      <use xlink:href="#DejaVuSans-29" x="133.398438"/>
     </g>
    </g>
   </g>
   <g id="line2d_14">
    <path d="M 64.1 255.741693 
L 568.3695 255.635306 
L 594.91 255.391212 
L 611.89592 255.028893 
L 625.69698 254.510852 
L 636.31318 253.902616 
L 645.86776 253.13828 
L 654.36072 252.234733 
L 661.79206 251.228835 
L 669.2234 249.980329 
L 675.59312 248.683365 
L 681.96284 247.144715 
L 687.27094 245.65425 
L 692.57904 243.953219 
L 697.88714 242.021023 
L 703.19524 239.836671 
L 708.50334 237.379081 
L 713.81144 234.627433 
L 718.05792 232.200815 
L 722.3044 229.563249 
L 726.55088 226.705519 
L 730.79736 223.619193 
L 735.04384 220.296801 
L 739.29032 216.732015 
L 743.5368 212.91984 
L 747.78328 208.856801 
L 752.02976 204.541126 
L 757.33786 198.791633 
L 762.64596 192.652522 
L 767.95406 186.134091 
L 773.26216 179.252558 
L 778.57026 172.0304 
L 784.93998 162.955444 
L 791.3097 153.4947 
L 798.74104 142.072097 
L 809.35724 125.313987 
L 824.21992 101.867205 
L 831.65126 90.585755 
L 838.02098 81.365008 
L 843.32908 74.09997 
L 847.57556 68.617022 
L 851.82204 63.467557 
L 856.06852 58.687778 
L 860.315 54.311927 
L 863.49986 51.314391 
L 866.68472 48.574498 
L 869.86958 46.103738 
L 873.05444 43.912563 
L 876.2393 42.010313 
L 879.42416 40.40515 
L 882.60902 39.103999 
L 885.79388 38.112501 
L 888.97874 37.434967 
L 892.1636 37.074353 
L 895.34846 37.032234 
L 898.53332 37.308793 
L 901.71818 37.902822 
L 904.90304 38.811731 
L 908.0879 40.031561 
L 911.27276 41.557021 
L 914.45762 43.381519 
L 917.64248 45.497217 
L 920.82734 47.895077 
L 924.0122 50.564937 
L 927.19706 53.495572 
L 930.38192 56.67478 
L 934.6284 61.277636 
L 938.87488 66.265791 
L 943.12136 71.60387 
L 947.36784 77.254768 
L 952.67594 84.699694 
L 959.04566 94.091287 
L 966.477 105.50978 
L 978.15482 123.975784 
L 990.89426 144.066333 
L 998.3256 155.425967 
L 1004.69532 164.814778 
L 1011.06504 173.80409 
L 1016.37314 180.9464 
L 1021.68124 187.742071 
L 1026.98934 194.170163 
L 1032.29744 200.215919 
L 1037.60554 205.870413 
L 1042.91364 211.130111 
L 1047.16012 215.054381 
L 1051.4066 218.729506 
L 1055.65308 222.159822 
L 1059.89956 225.351084 
L 1064.14604 228.310272 
L 1068.39252 231.045411 
L 1072.639 233.565385 
L 1077.9471 236.427418 
L 1083.2552 238.988067 
L 1088.5633 241.267964 
L 1093.8714 243.28814 
L 1099.1795 245.069656 
L 1104.4876 246.633282 
L 1110.85732 248.250424 
L 1117.22704 249.616278 
L 1123.59676 250.762225 
L 1124.65838 250.933912 
L 1124.65838 250.933912 
" clip-path="url(#p0f2d55f557)" style="fill: none; stroke: #1f77b4; stroke-width: 3; stroke-linecap: square"/>
   </g>
   <g id="line2d_15">
    <defs>
     <path id="m53cf320218" d="M -0 5.656854 
L 5.656854 0 
L 0 -5.656854 
L -5.656854 -0 
z
" style="stroke: #ff0000; stroke-linejoin: miter"/>
    </defs>
    <g clip-path="url(#p0f2d55f557)">
     <use xlink:href="#m53cf320218" x="646.731392" y="253.056931" style="fill: #ff0000; stroke: #ff0000; stroke-linejoin: miter"/>
     <use xlink:href="#m53cf320218" x="64.300857" y="255.741693" style="fill: #ff0000; stroke: #ff0000; stroke-linejoin: miter"/>
     <use xlink:href="#m53cf320218" x="711.874727" y="235.666763" style="fill: #ff0000; stroke: #ff0000; stroke-linejoin: miter"/>
     <use xlink:href="#m53cf320218" x="711.972923" y="235.615059" style="fill: #ff0000; stroke: #ff0000; stroke-linejoin: miter"/>
     <use xlink:href="#m53cf320218" x="802.982257" y="135.418655" style="fill: #ff0000; stroke: #ff0000; stroke-linejoin: miter"/>
     <use xlink:href="#m53cf320218" x="914.847229" y="43.624874" style="fill: #ff0000; stroke: #ff0000; stroke-linejoin: miter"/>
     <use xlink:href="#m53cf320218" x="1125.698282" y="251.097077" style="fill: #ff0000; stroke: #ff0000; stroke-linejoin: miter"/>
     <use xlink:href="#m53cf320218" x="354.134998" y="255.741692" style="fill: #ff0000; stroke: #ff0000; stroke-linejoin: miter"/>
     <use xlink:href="#m53cf320218" x="999.346248" y="156.954382" style="fill: #ff0000; stroke: #ff0000; stroke-linejoin: miter"/>
     <use xlink:href="#m53cf320218" x="209.396972" y="255.741693" style="fill: #ff0000; stroke: #ff0000; stroke-linejoin: miter"/>
     <use xlink:href="#m53cf320218" x="497.660228" y="255.738984" style="fill: #ff0000; stroke: #ff0000; stroke-linejoin: miter"/>
     <use xlink:href="#m53cf320218" x="864.26202" y="50.634815" style="fill: #ff0000; stroke: #ff0000; stroke-linejoin: miter"/>
     <use xlink:href="#m53cf320218" x="135.91706" y="255.741693" style="fill: #ff0000; stroke: #ff0000; stroke-linejoin: miter"/>
     <use xlink:href="#m53cf320218" x="570.075581" y="255.626482" style="fill: #ff0000; stroke: #ff0000; stroke-linejoin: miter"/>
     <use xlink:href="#m53cf320218" x="283.482491" y="255.741693" style="fill: #ff0000; stroke: #ff0000; stroke-linejoin: miter"/>
     <use xlink:href="#m53cf320218" x="1061.625056" y="226.581066" style="fill: #ff0000; stroke: #ff0000; stroke-linejoin: miter"/>
    </g>
   </g>
   <g id="line2d_16">
    <path d="M 64.1 255.731442 
L 73.65458 256.106508 
L 84.27078 256.299484 
L 97.01022 256.306885 
L 115.05776 256.077279 
L 149.0296 255.614424 
L 172.38524 255.575427 
L 279.60886 255.739282 
L 363.47684 255.681874 
L 429.29728 255.278886 
L 459.02264 255.417497 
L 519.53498 255.791081 
L 561.99978 255.678978 
L 589.6019 255.415543 
L 608.71106 255.016553 
L 623.57374 254.488351 
L 636.31318 253.812646 
L 646.92938 253.040527 
L 656.48396 252.125418 
L 663.9153 251.193623 
L 670.28502 250.187816 
L 676.65474 248.945845 
L 681.96284 247.698339 
L 687.27094 246.228893 
L 692.57904 244.509331 
L 697.88714 242.510168 
L 702.13362 240.688801 
L 706.3801 238.652192 
L 710.62658 236.383117 
L 714.87306 233.86207 
L 719.11954 231.080636 
L 723.36602 228.049643 
L 727.6125 224.779943 
L 732.9206 220.372499 
L 738.2287 215.626126 
L 743.5368 210.557525 
L 748.8449 205.18192 
L 754.153 199.513153 
L 760.52272 192.341244 
L 766.89244 184.784595 
L 773.26216 176.860315 
L 779.63188 168.583398 
L 786.0016 159.966911 
L 793.43294 149.50016 
L 800.86428 138.601787 
L 808.29562 127.297873 
L 833.7745 88.065324 
L 840.14422 78.898309 
L 845.45232 71.680548 
L 849.6988 66.248305 
L 853.94528 61.172457 
L 858.19176 56.502801 
L 861.37662 53.297912 
L 864.56148 50.372549 
L 867.74634 47.743884 
L 870.9312 45.412684 
L 874.11606 43.37711 
L 877.30092 41.635911 
L 880.48578 40.188427 
L 883.67064 39.034586 
L 886.8555 38.174903 
L 890.04036 37.610489 
L 893.22522 37.343045 
L 896.41008 37.374871 
L 899.59494 37.708865 
L 902.7798 38.348535 
L 905.96466 39.297995 
L 909.14952 40.561978 
L 912.33438 42.145844 
L 915.51924 44.055536 
L 918.7041 46.289509 
L 921.88896 48.829259 
L 925.07382 51.654591 
L 928.25868 54.745878 
L 932.50516 59.248384 
L 936.75164 64.145958 
L 940.99812 69.39619 
L 945.2446 74.957996 
L 950.5527 82.287739 
L 956.92242 91.537609 
L 964.35376 102.795945 
L 974.96996 119.383189 
L 990.89426 144.278225 
L 998.3256 155.456684 
L 1004.69532 164.628785 
L 1011.06504 173.382187 
L 1017.43476 181.709116 
L 1022.74286 188.315256 
L 1028.05096 194.611128 
L 1033.35906 200.588287 
L 1038.66716 206.236936 
L 1043.97526 211.54585 
L 1049.28336 216.502296 
L 1053.52984 220.204105 
L 1057.77632 223.663091 
L 1062.0228 226.870434 
L 1066.26928 229.82205 
L 1070.51576 232.52971 
L 1074.76224 235.007574 
L 1079.00872 237.269095 
L 1084.31682 239.81117 
L 1089.62492 242.058681 
L 1094.93302 244.03371 
L 1100.24112 245.756949 
L 1105.54922 247.247788 
L 1110.85732 248.524391 
L 1116.16542 249.603773 
L 1122.53514 250.661063 
L 1124.65838 250.959955 
L 1124.65838 250.959955 
" clip-path="url(#p0f2d55f557)" style="fill: none; stroke-dasharray: 5.55,2.4; stroke-dashoffset: 0; stroke: #000000; stroke-width: 1.5"/>
   </g>
   <g id="patch_4">
    <path d="M 64.1 303.733333 
L 64.1 15.12 
" style="fill: none; stroke: #000000; stroke-width: 0.8; stroke-linejoin: miter; stroke-linecap: square"/>
   </g>
   <g id="patch_5">
    <path d="M 1125.72 303.733333 
L 1125.72 15.12 
" style="fill: none; stroke: #000000; stroke-width: 0.8; stroke-linejoin: miter; stroke-linecap: square"/>
   </g>
   <g id="patch_6">
    <path d="M 64.1 303.733333 
L 1125.72 303.733333 
" style="fill: none; stroke: #000000; stroke-width: 0.8; stroke-linejoin: miter; stroke-linecap: square"/>
   </g>
   <g id="patch_7">
    <path d="M 64.1 15.12 
L 1125.72 15.12 
" style="fill: none; stroke: #000000; stroke-width: 0.8; stroke-linejoin: miter; stroke-linecap: square"/>
   </g>
  </g>
  <g id="axes_2">
   <g id="patch_8">
    <path d="M 64.1 518.92 
L 1125.72 518.92 
L 1125.72 374.613333 
L 64.1 374.613333 
z
" style="fill: #ffffff"/>
   </g>
   <g id="matplotlib.axis_3">
    <g id="xtick_7">
     <g id="line2d_17">
      <g>
       <use xlink:href="#m578ceb0910" x="64.1" y="518.92" style="stroke: #000000; stroke-width: 0.8"/>
      </g>
     </g>
     <g id="text_16">
      <!-- 0.0 -->
      <g transform="translate(52.967812 536.557812) scale(0.14 -0.14)">
       <use xlink:href="#DejaVuSans-30"/>
       <use xlink:href="#DejaVuSans-2e" x="63.623047"/>
       <use xlink:href="#DejaVuSans-30" x="95.410156"/>
      </g>
     </g>
    </g>
    <g id="xtick_8">
     <g id="line2d_18">
      <g>
       <use xlink:href="#m578ceb0910" x="276.424" y="518.92" style="stroke: #000000; stroke-width: 0.8"/>
      </g>
     </g>
     <g id="text_17">
      <!-- 0.2 -->
      <g transform="translate(265.291813 536.557812) scale(0.14 -0.14)">
       <use xlink:href="#DejaVuSans-30"/>
       <use xlink:href="#DejaVuSans-2e" x="63.623047"/>
       <use xlink:href="#DejaVuSans-32" x="95.410156"/>
      </g>
     </g>
    </g>
    <g id="xtick_9">
     <g id="line2d_19">
      <g>
       <use xlink:href="#m578ceb0910" x="488.748" y="518.92" style="stroke: #000000; stroke-width: 0.8"/>
      </g>
     </g>
     <g id="text_18">
      <!-- 0.4 -->
      <g transform="translate(477.615813 536.557812) scale(0.14 -0.14)">
       <use xlink:href="#DejaVuSans-30"/>
       <use xlink:href="#DejaVuSans-2e" x="63.623047"/>
       <use xlink:href="#DejaVuSans-34" x="95.410156"/>
      </g>
     </g>
    </g>
    <g id="xtick_10">
     <g id="line2d_20">
      <g>
       <use xlink:href="#m578ceb0910" x="701.072" y="518.92" style="stroke: #000000; stroke-width: 0.8"/>
      </g>
     </g>
     <g id="text_19">
      <!-- 0.6 -->
      <g transform="translate(689.939813 536.557812) scale(0.14 -0.14)">
       <use xlink:href="#DejaVuSans-30"/>
       <use xlink:href="#DejaVuSans-2e" x="63.623047"/>
       <use xlink:href="#DejaVuSans-36" x="95.410156"/>
      </g>
     </g>
    </g>
    <g id="xtick_11">
     <g id="line2d_21">
      <g>
       <use xlink:href="#m578ceb0910" x="913.396" y="518.92" style="stroke: #000000; stroke-width: 0.8"/>
      </g>
     </g>
     <g id="text_20">
      <!-- 0.8 -->
      <g transform="translate(902.263813 536.557812) scale(0.14 -0.14)">
       <use xlink:href="#DejaVuSans-30"/>
       <use xlink:href="#DejaVuSans-2e" x="63.623047"/>
       <use xlink:href="#DejaVuSans-38" x="95.410156"/>
      </g>
     </g>
    </g>
    <g id="xtick_12">
     <g id="line2d_22">
      <g>
       <use xlink:href="#m578ceb0910" x="1125.72" y="518.92" style="stroke: #000000; stroke-width: 0.8"/>
      </g>
     </g>
     <g id="text_21">
      <!-- 1.0 -->
      <g transform="translate(1114.587812 536.557812) scale(0.14 -0.14)">
       <use xlink:href="#DejaVuSans-31"/>
       <use xlink:href="#DejaVuSans-2e" x="63.623047"/>
       <use xlink:href="#DejaVuSans-30" x="95.410156"/>
      </g>
     </g>
    </g>
    <g id="text_22">
     <!-- x -->
     <g transform="translate(589.583125 557.146562) scale(0.18 -0.18)">
      <use xlink:href="#DejaVuSans-78"/>
     </g>
    </g>
   </g>
   <g id="matplotlib.axis_4">
    <g id="ytick_8">
     <g id="line2d_23">
      <g>
       <use xlink:href="#m5d7788cadd" x="64.1" y="512.360606" style="stroke: #000000; stroke-width: 0.8"/>
      </g>
     </g>
     <g id="text_23">
      <!-- 0 -->
      <g transform="translate(48.1925 517.679512) scale(0.14 -0.14)">
       <use xlink:href="#DejaVuSans-30"/>
      </g>
     </g>
    </g>
    <g id="ytick_9">
     <g id="line2d_24">
      <g>
       <use xlink:href="#m5d7788cadd" x="64.1" y="477.560982" style="stroke: #000000; stroke-width: 0.8"/>
      </g>
     </g>
     <g id="text_24">
      <!-- 1 -->
      <g transform="translate(48.1925 482.879888) scale(0.14 -0.14)">
       <use xlink:href="#DejaVuSans-31"/>
      </g>
     </g>
    </g>
    <g id="ytick_10">
     <g id="line2d_25">
      <g>
       <use xlink:href="#m5d7788cadd" x="64.1" y="442.761358" style="stroke: #000000; stroke-width: 0.8"/>
      </g>
     </g>
     <g id="text_25">
      <!-- 2 -->
      <g transform="translate(48.1925 448.080265) scale(0.14 -0.14)">
       <use xlink:href="#DejaVuSans-32"/>
      </g>
     </g>
    </g>
    <g id="ytick_11">
     <g id="line2d_26">
      <g>
       <use xlink:href="#m5d7788cadd" x="64.1" y="407.961735" style="stroke: #000000; stroke-width: 0.8"/>
      </g>
     </g>
     <g id="text_26">
      <!-- 3 -->
      <g transform="translate(48.1925 413.280641) scale(0.14 -0.14)">
       <use xlink:href="#DejaVuSans-33"/>
      </g>
     </g>
    </g>
    <g id="text_27">
     <!-- $\alpha(x)$ -->
     <g transform="translate(40.449062 465.126667) rotate(-90) scale(0.18 -0.18)">
      <defs>
       <path id="DejaVuSans-Oblique-3b1" d="M 2619 1628 
L 2622 2350 
Q 2625 3088 2069 3091 
Q 1653 3094 1394 2747 
Q 1069 2319 959 1747 
Q 825 1059 994 731 
Q 1169 397 1547 397 
Q 1966 397 2319 1063 
L 2619 1628 
z
M 2166 3578 
Q 3141 3594 3128 2584 
Q 3128 2584 3616 3500 
L 4128 3500 
L 3119 1603 
L 3109 919 
Q 3109 766 3194 638 
Q 3291 488 3391 488 
L 3669 488 
L 3575 0 
L 3228 0 
Q 2934 0 2722 263 
Q 2622 394 2619 669 
Q 2416 334 2066 50 
Q 1900 -81 1453 -78 
Q 722 -72 456 397 
Q 184 884 353 1747 
Q 534 2675 1009 3097 
Q 1544 3569 2166 3578 
z
" transform="scale(0.015625)"/>
       <path id="DejaVuSans-Oblique-78" d="M 3841 3500 
L 2234 1784 
L 3219 0 
L 2559 0 
L 1819 1388 
L 531 0 
L -166 0 
L 1556 1844 
L 641 3500 
L 1300 3500 
L 1972 2234 
L 3144 3500 
L 3841 3500 
z
" transform="scale(0.015625)"/>
      </defs>
      <use xlink:href="#DejaVuSans-Oblique-3b1" transform="translate(0 0.125)"/>
      <use xlink:href="#DejaVuSans-28" transform="translate(65.917969 0.125)"/>
      <use xlink:href="#DejaVuSans-Oblique-78" transform="translate(104.931641 0.125)"/>
      <use xlink:href="#DejaVuSans-29" transform="translate(164.111328 0.125)"/>
     </g>
    </g>
    <g id="text_28">
     <!-- 1e136 -->
     <g transform="translate(64.1 371.613333) scale(0.14 -0.14)">
      <defs>
       <path id="DejaVuSans-65" d="M 3597 1894 
L 3597 1613 
L 953 1613 
Q 991 1019 1311 708 
Q 1631 397 2203 397 
Q 2534 397 2845 478 
Q 3156 559 3463 722 
L 3463 178 
Q 3153 47 2828 -22 
Q 2503 -91 2169 -91 
Q 1331 -91 842 396 
Q 353 884 353 1716 
Q 353 2575 817 3079 
Q 1281 3584 2069 3584 
Q 2775 3584 3186 3129 
Q 3597 2675 3597 1894 
z
M 3022 2063 
Q 3016 2534 2758 2815 
Q 2500 3097 2075 3097 
Q 1594 3097 1305 2825 
Q 1016 2553 972 2059 
L 3022 2063 
z
" transform="scale(0.015625)"/>
      </defs>
      <use xlink:href="#DejaVuSans-31"/>
      <use xlink:href="#DejaVuSans-65" x="63.623047"/>
      <use xlink:href="#DejaVuSans-2212" x="125.146484"/>
      <use xlink:href="#DejaVuSans-31" x="208.935547"/>
      <use xlink:href="#DejaVuSans-33" x="272.558594"/>
      <use xlink:href="#DejaVuSans-36" x="336.181641"/>
     </g>
    </g>
   </g>
   <g id="line2d_27">
    <path d="M 64.1 512.360606 
L 418.68108 512.262233 
L 419.7427 511.657178 
L 420.80432 508.717213 
L 421.86594 498.595513 
L 422.92756 474.212024 
L 425.0508 394.865493 
L 426.11242 381.172727 
L 427.17404 403.899096 
L 428.23566 446.014775 
L 429.29728 482.396063 
L 430.3589 502.401934 
L 431.42052 509.936402 
L 432.48214 511.930974 
L 433.54376 512.305582 
L 436.72862 512.360591 
L 1124.65838 512.360606 
L 1124.65838 512.360606 
" clip-path="url(#p7c44188164)" style="fill: none; stroke: #800080; stroke-width: 1.5; stroke-linecap: square"/>
   </g>
   <g id="line2d_28">
    <defs>
     <path id="m26c18b7517" d="M 0 -7.5 
L -1.683855 -2.317627 
L -7.132924 -2.317627 
L -2.724534 0.885255 
L -4.408389 6.067627 
L -0 2.864745 
L 4.408389 6.067627 
L 2.724534 0.885255 
L 7.132924 -2.317627 
L 1.683855 -2.317627 
z
" style="stroke: #000000; stroke-linejoin: bevel"/>
    </defs>
    <g clip-path="url(#p7c44188164)">
     <use xlink:href="#m26c18b7517" x="426.11242" y="381.172727" style="fill: #ffd700; stroke: #000000; stroke-linejoin: bevel"/>
    </g>
   </g>
   <g id="patch_9">
    <path d="M 64.1 518.92 
L 64.1 374.613333 
" style="fill: none; stroke: #000000; stroke-width: 0.8; stroke-linejoin: miter; stroke-linecap: square"/>
   </g>
   <g id="patch_10">
    <path d="M 1125.72 518.92 
L 1125.72 374.613333 
" style="fill: none; stroke: #000000; stroke-width: 0.8; stroke-linejoin: miter; stroke-linecap: square"/>
   </g>
   <g id="patch_11">
    <path d="M 64.1 518.92 
L 1125.72 518.92 
" style="fill: none; stroke: #000000; stroke-width: 0.8; stroke-linejoin: miter; stroke-linecap: square"/>
   </g>
   <g id="patch_12">
    <path d="M 64.1 374.613333 
L 1125.72 374.613333 
" style="fill: none; stroke: #000000; stroke-width: 0.8; stroke-linejoin: miter; stroke-linecap: square"/>
   </g>
  </g>
 </g>
 <defs>
  <clipPath id="p0f2d55f557">
   <rect x="64.1" y="15.12" width="1061.62" height="288.613333"/>
  </clipPath>
  <clipPath id="p7c44188164">
   <rect x="64.1" y="374.613333" width="1061.62" height="144.306667"/>
  </clipPath>
 </defs>
</svg>
