<?xml version="1.0" encoding="utf-8" standalone="no"?>
<!DOCTYPE svg PUBLIC "-//W3C//DTD SVG 1.1//EN"
  "http://www.w3.org/Graphics/SVG/1.1/DTD/svg11.dtd">
<svg xmlns:xlink="http://www.w3.org/1999/xlink" width="472.32pt" height="288pt" viewBox="0 0 472.32 288" xmlns="http://www.w3.org/2000/svg" version="1.1">
 <metadata>
  <rdf:RDF xmlns:dc="http://purl.org/dc/elements/1.1/" xmlns:cc="http://creativecommons.org/ns#" xmlns:rdf="http://www.w3.org/1999/02/22-rdf-syntax-ns#">
   <cc:Work>
    <dc:type rdf:resource="http://purl.org/dc/dcmitype/StillImage"/>
    <dc:date>2024-12-04T14:04:42.507262</dc:date>
    <dc:format>image/svg+xml</dc:format>
    <dc:creator>
     <cc:Agent>
      <dc:title>Matplotlib v3.9.2, https://matplotlib.org/</dc:title>
     </cc:Agent>
    </dc:creator>
   </cc:Work>
  </rdf:RDF>
 </metadata>
 <defs>
  <style type="text/css">*{stroke-linejoin: round; stroke-linecap: butt}</style>
 </defs>
 <g id="figure_1">
  <g id="patch_1">
   <path d="M 0 288 
L 472.32 288 
L 472.32 0 
L 0 0 
z
" style="fill: #ffffff"/>
  </g>
  <g id="axes_1">
   <g id="patch_2">
    <path d="M 59.04 256.32 
L 425.088 256.32 
L 425.088 34.56 
L 59.04 34.56 
z
" style="fill: #ffffff"/>
   </g>
   <g id="patch_3">
    <path d="M 59.04 139.331039 
L 59.406048 138.799841 
L 59.772096 138.267696 
L 60.138144 137.734642 
L 60.504192 137.200717 
L 60.87024 136.66596 
L 61.236288 136.130411 
L 61.602336 135.59411 
L 61.968384 135.057098 
L 62.334432 134.519419 
L 62.70048 133.981114 
L 63.066528 133.442227 
L 63.432576 132.902802 
L 63.798624 132.362886 
L 64.164672 131.822523 
L 64.53072 131.281761 
L 64.896768 130.740648 
L 65.262816 130.199232 
L 65.628864 129.657562 
L 65.994912 129.115689 
L 66.36096 128.573664 
L 66.727008 128.03154 
L 67.093056 127.489368 
L 67.459104 126.947203 
L 67.825152 126.405099 
L 68.1912 125.863111 
L 68.557248 125.321297 
L 68.923296 124.779714 
L 69.289344 124.238419 
L 69.655392 123.697471 
L 70.02144 123.156932 
L 70.387488 122.616862 
L 70.753536 122.077322 
L 71.119584 121.538375 
L 71.485632 121.000086 
L 71.85168 120.462519 
L 72.217728 119.925739 
L 72.583776 119.389814 
L 72.949824 118.85481 
L 73.315872 118.320796 
L 73.68192 117.787841 
L 74.047968 117.256017 
L 74.414016 116.725393 
L 74.780064 116.196043 
L 75.146112 115.66804 
L 75.51216 115.141458 
L 75.878208 114.616372 
L 76.244256 114.092858 
L 76.610304 113.570994 
L 76.976352 113.050857 
L 77.3424 112.532527 
L 77.708448 112.016084 
L 78.074496 111.501609 
L 78.440544 110.989183 
L 78.806592 110.47889 
L 79.17264 109.970814 
L 79.538688 109.46504 
L 79.904736 108.961653 
L 80.270784 108.46074 
L 80.636832 107.962389 
L 81.00288 107.466689 
L 81.368928 106.97373 
L 81.734976 106.483602 
L 82.101024 105.996397 
L 82.467072 105.512207 
L 82.83312 105.031126 
L 83.199168 104.553248 
L 83.565216 104.078669 
L 83.931264 103.607484 
L 84.297312 103.139791 
L 84.66336 102.675689 
L 85.029408 102.215275 
L 85.395456 101.75865 
L 85.761504 101.305915 
L 86.127552 100.85717 
L 86.4936 100.412519 
L 86.859648 99.972064 
L 87.225696 99.535911 
L 87.591744 99.104163 
L 87.957792 98.676927 
L 88.32384 98.254309 
L 88.689888 97.836416 
L 89.055936 97.423357 
L 89.421984 97.015241 
L 89.788032 96.612178 
L 90.15408 96.214278 
L 90.520128 95.821653 
L 90.886176 95.434415 
L 91.252224 95.052679 
L 91.618272 94.676557 
L 91.98432 94.306168 
L 92.350368 93.941629 
L 92.716416 93.58306 
L 93.082464 93.230587 
L 93.448512 92.884342 
L 93.81456 92.544471 
L 94.180608 92.211151 
L 94.546656 91.884641 
L 94.912704 91.565481 
L 95.278752 91.25587 
L 95.6448 91.027303 
L 96.010848 91.527979 
L 96.376896 92.103472 
L 96.742944 92.68221 
L 97.108992 93.261989 
L 97.47504 93.842265 
L 97.841088 94.422773 
L 98.207136 95.003333 
L 98.573184 95.583794 
L 98.939232 96.164022 
L 99.30528 96.743887 
L 99.671328 97.323267 
L 100.037376 97.902041 
L 100.403424 98.480091 
L 100.769472 99.057299 
L 101.13552 99.633551 
L 101.501568 100.208733 
L 101.867616 100.782732 
L 102.233664 101.355437 
L 102.599712 101.926738 
L 102.96576 102.496526 
L 103.331808 103.064692 
L 103.697856 103.631129 
L 104.063904 104.195732 
L 104.429952 104.758396 
L 104.796 105.319017 
L 105.162048 105.877492 
L 105.528096 106.433721 
L 105.894144 106.987602 
L 106.260192 107.539038 
L 106.62624 108.087929 
L 106.992288 108.63418 
L 107.358336 109.177694 
L 107.724384 109.718377 
L 108.090432 110.256136 
L 108.45648 110.790879 
L 108.822528 111.322515 
L 109.188576 111.850956 
L 109.554624 112.376112 
L 109.920672 112.897896 
L 110.28672 113.416224 
L 110.652768 113.931011 
L 111.018816 114.442173 
L 111.384864 114.949629 
L 111.750912 115.453298 
L 112.11696 115.953102 
L 112.483008 116.448962 
L 112.849056 116.940802 
L 113.215104 117.428547 
L 113.581152 117.912124 
L 113.9472 118.39146 
L 114.313248 118.866484 
L 114.679296 119.337126 
L 115.045344 119.803319 
L 115.411392 120.264996 
L 115.77744 120.722091 
L 116.143488 121.174541 
L 116.509536 121.622283 
L 116.875584 122.065257 
L 117.241632 122.503402 
L 117.60768 122.936661 
L 117.973728 123.364977 
L 118.339776 123.788296 
L 118.705824 124.206563 
L 119.071872 124.619726 
L 119.43792 125.027736 
L 119.803968 125.430542 
L 120.170016 125.828098 
L 120.536064 126.220358 
L 120.902112 126.607276 
L 121.26816 126.98881 
L 121.634208 127.364919 
L 122.000256 127.735563 
L 122.366304 128.100704 
L 122.732352 128.460305 
L 123.0984 128.814331 
L 123.464448 129.162749 
L 123.830496 129.505527 
L 124.196544 129.842635 
L 124.562592 130.174044 
L 124.92864 130.499728 
L 125.294688 130.819661 
L 125.660736 131.133819 
L 126.026784 131.442182 
L 126.392832 131.744727 
L 126.75888 132.041438 
L 127.124928 132.332296 
L 127.490976 132.617288 
L 127.857024 132.896398 
L 128.223072 133.169617 
L 128.58912 133.436933 
L 128.955168 133.698339 
L 129.321216 133.953828 
L 129.687264 134.203395 
L 130.053312 134.447038 
L 130.41936 134.684755 
L 130.785408 134.916546 
L 131.151456 135.142416 
L 131.517504 135.362366 
L 131.883552 135.576405 
L 132.2496 135.78454 
L 132.615648 135.98678 
L 132.981696 136.183138 
L 133.347744 136.373627 
L 133.713792 136.558262 
L 134.07984 136.737061 
L 134.445888 136.910043 
L 134.811936 137.07723 
L 135.177984 137.238644 
L 135.544032 137.394311 
L 135.91008 137.544258 
L 136.276128 137.688514 
L 136.642176 137.827111 
L 137.008224 137.960081 
L 137.374272 138.08746 
L 137.74032 138.209284 
L 138.106368 138.325594 
L 138.472416 138.43643 
L 138.838464 138.541836 
L 139.204512 138.641858 
L 139.57056 138.736543 
L 139.936608 138.825942 
L 140.302656 138.910106 
L 140.668704 138.989089 
L 141.034752 139.062949 
L 141.4008 139.131743 
L 141.766848 139.195533 
L 142.132896 139.254382 
L 142.498944 139.308355 
L 142.864992 139.35752 
L 143.23104 139.401947 
L 143.597088 139.441708 
L 143.963136 139.47688 
L 144.329184 139.507538 
L 144.695232 139.533764 
L 145.06128 139.555638 
L 145.427328 139.573247 
L 145.793376 139.586678 
L 146.159424 139.596022 
L 146.525472 139.601373 
L 146.89152 139.602828 
L 147.257568 139.600487 
L 147.623616 139.594458 
L 147.989664 139.584853 
L 148.355712 139.571794 
L 148.72176 139.555421 
L 149.087808 139.535908 
L 149.453856 139.513518 
L 149.819904 139.488817 
L 150.185952 139.46413 
L 150.552 139.51005 
L 150.918048 140.228243 
L 151.284096 141.020977 
L 151.650144 141.817679 
L 152.016192 142.615994 
L 152.38224 143.415322 
L 152.748288 144.215367 
L 153.114336 145.01592 
L 153.480384 145.816809 
L 153.846432 146.617875 
L 154.21248 147.418971 
L 154.578528 148.219956 
L 154.944576 149.020693 
L 155.310624 149.821047 
L 155.676672 150.620889 
L 156.04272 151.420091 
L 156.408768 152.218526 
L 156.774816 153.016072 
L 157.140864 153.812608 
L 157.506912 154.608016 
L 157.87296 155.402177 
L 158.239008 156.194978 
L 158.605056 156.986305 
L 158.971104 157.776048 
L 159.337152 158.564097 
L 159.7032 159.350346 
L 160.069248 160.134689 
L 160.435296 160.917023 
L 160.801344 161.697245 
L 161.167392 162.475256 
L 161.53344 163.250958 
L 161.899488 164.024253 
L 162.265536 164.795046 
L 162.631584 165.563245 
L 162.997632 166.328758 
L 163.36368 167.091494 
L 163.729728 167.851365 
L 164.095776 168.608284 
L 164.461824 169.362165 
L 164.827872 170.112925 
L 165.19392 170.860481 
L 165.559968 171.604752 
L 165.926016 172.345658 
L 166.292064 173.083122 
L 166.658112 173.817066 
L 167.02416 174.547416 
L 167.390208 175.274096 
L 167.756256 175.997035 
L 168.122304 176.716161 
L 168.488352 177.431405 
L 168.8544 178.142696 
L 169.220448 178.849969 
L 169.586496 179.553156 
L 169.952544 180.252192 
L 170.318592 180.947014 
L 170.68464 181.637559 
L 171.050688 182.323765 
L 171.416736 183.005572 
L 171.782784 183.682921 
L 172.148832 184.355754 
L 172.51488 185.024013 
L 172.880928 185.687643 
L 173.246976 186.346589 
L 173.613024 187.000796 
L 173.979072 187.650212 
L 174.34512 188.294785 
L 174.711168 188.934465 
L 175.077216 189.5692 
L 175.443264 190.198942 
L 175.809312 190.823644 
L 176.17536 191.443257 
L 176.541408 192.057736 
L 176.907456 192.667036 
L 177.273504 193.271111 
L 177.639552 193.869919 
L 178.0056 194.463415 
L 178.371648 195.05156 
L 178.737696 195.63431 
L 179.103744 196.211626 
L 179.469792 196.783468 
L 179.83584 197.349798 
L 180.201888 197.910577 
L 180.567936 198.465768 
L 180.933984 199.015334 
L 181.300032 199.559239 
L 181.66608 200.097449 
L 182.032128 200.629927 
L 182.398176 201.156642 
L 182.764224 201.677558 
L 183.130272 202.192645 
L 183.49632 202.701869 
L 183.862368 203.2052 
L 184.228416 203.702606 
L 184.594464 204.194058 
L 184.960512 204.679526 
L 185.32656 205.158981 
L 185.692608 205.632394 
L 186.058656 206.099739 
L 186.424704 206.560986 
L 186.790752 207.016111 
L 187.1568 207.465085 
L 187.522848 207.907885 
L 187.888896 208.344483 
L 188.254944 208.774857 
L 188.620992 209.198981 
L 188.98704 209.616831 
L 189.353088 210.028384 
L 189.719136 210.433618 
L 190.085184 210.83251 
L 190.451232 211.225038 
L 190.81728 211.611181 
L 191.183328 211.990917 
L 191.549376 212.364226 
L 191.915424 212.731087 
L 192.281472 213.091481 
L 192.64752 213.445388 
L 193.013568 213.792789 
L 193.379616 214.133666 
L 193.745664 214.468001 
L 194.111712 214.795775 
L 194.47776 215.11697 
L 194.843808 215.431571 
L 195.209856 215.739559 
L 195.575904 216.04092 
L 195.941952 216.335636 
L 196.308 216.623692 
L 196.674048 216.905072 
L 197.040096 217.179763 
L 197.406144 217.447748 
L 197.772192 217.709014 
L 198.13824 217.963547 
L 198.504288 218.211333 
L 198.870336 218.452359 
L 199.236384 218.686612 
L 199.602432 218.91408 
L 199.96848 219.13475 
L 200.334528 219.34861 
L 200.700576 219.555648 
L 201.066624 219.755854 
L 201.432672 219.949216 
L 201.79872 220.135724 
L 202.164768 220.315368 
L 202.530816 220.488137 
L 202.896864 220.654022 
L 203.262912 220.813013 
L 203.62896 220.965102 
L 203.995008 221.110281 
L 204.361056 221.24854 
L 204.727104 221.379871 
L 205.093152 221.504269 
L 205.4592 221.621724 
L 205.825248 221.73223 
L 206.191296 221.835781 
L 206.557344 221.93237 
L 206.923392 222.021991 
L 207.28944 222.10464 
L 207.655488 222.18031 
L 208.021536 222.248998 
L 208.387584 222.310699 
L 208.753632 222.365408 
L 209.11968 222.413123 
L 209.485728 222.45384 
L 209.851776 222.487556 
L 210.217824 222.51427 
L 210.583872 222.533978 
L 210.94992 222.54668 
L 211.315968 222.552374 
L 211.682016 222.55106 
L 212.048064 222.542737 
L 212.414112 222.527406 
L 212.78016 222.505067 
L 213.146208 222.475722 
L 213.512256 222.439372 
L 213.878304 222.396019 
L 214.244352 222.345666 
L 214.6104 222.288316 
L 214.976448 222.223973 
L 215.342496 222.152641 
L 215.708544 222.074323 
L 216.074592 221.989027 
L 216.44064 221.896757 
L 216.806688 221.79752 
L 217.172736 221.691323 
L 217.538784 221.578174 
L 217.904832 221.45808 
L 218.27088 221.331051 
L 218.636928 221.197096 
L 219.002976 221.056225 
L 219.369024 220.908448 
L 219.735072 220.753778 
L 220.10112 220.592227 
L 220.467168 220.423806 
L 220.833216 220.248531 
L 221.199264 220.066415 
L 221.565312 219.877473 
L 221.93136 219.681721 
L 222.297408 219.479176 
L 222.663456 219.269856 
L 223.029504 219.053778 
L 223.395552 218.830962 
L 223.7616 218.601427 
L 224.127648 218.365195 
L 224.493696 218.122288 
L 224.859744 217.872727 
L 225.225792 217.616538 
L 225.59184 217.353744 
L 225.957888 217.084371 
L 226.323936 216.808445 
L 226.689984 216.525995 
L 227.056032 216.237049 
L 227.42208 215.941636 
L 227.788128 215.639788 
L 228.154176 215.331537 
L 228.520224 215.016915 
L 228.886272 214.695957 
L 229.25232 214.368698 
L 229.618368 214.035175 
L 229.984416 213.695426 
L 230.350464 213.349491 
L 230.716512 212.997409 
L 231.08256 212.639222 
L 231.448608 212.274974 
L 231.814656 211.904709 
L 232.180704 211.528474 
L 232.546752 211.146314 
L 232.9128 210.75828 
L 233.278848 210.364422 
L 233.644896 209.964791 
L 234.010944 209.559442 
L 234.376992 209.148428 
L 234.74304 208.731807 
L 235.109088 208.309638 
L 235.475136 207.88198 
L 235.841184 207.448895 
L 236.207232 207.010448 
L 236.57328 206.566703 
L 236.939328 206.117729 
L 237.305376 205.663595 
L 237.671424 205.204373 
L 238.037472 204.740138 
L 238.40352 204.270967 
L 238.769568 203.79694 
L 239.135616 203.31814 
L 239.501664 202.834658 
L 239.867712 202.34659 
L 240.23376 201.854046 
L 240.599808 201.357165 
L 240.965856 200.856155 
L 241.331904 200.351462 
L 241.697952 199.844929 
L 242.064 199.410594 
L 242.430048 199.87204 
L 242.796096 200.408142 
L 243.162144 200.944887 
L 243.528192 201.480437 
L 243.89424 202.014354 
L 244.260288 202.546436 
L 244.626336 203.076551 
L 244.992384 203.604598 
L 245.358432 204.130484 
L 245.72448 204.65413 
L 246.090528 205.175458 
L 246.456576 205.694396 
L 246.822624 206.210873 
L 247.188672 206.724825 
L 247.55472 207.236186 
L 247.920768 207.744896 
L 248.286816 208.250894 
L 248.652864 208.754123 
L 249.018912 209.254529 
L 249.38496 209.752058 
L 249.751008 210.246658 
L 250.117056 210.73828 
L 250.483104 211.226876 
L 250.849152 211.712401 
L 251.2152 212.19481 
L 251.581248 212.674061 
L 251.947296 213.150112 
L 252.313344 213.622926 
L 252.679392 214.092464 
L 253.04544 214.558691 
L 253.411488 215.021571 
L 253.777536 215.481073 
L 254.143584 215.937164 
L 254.509632 216.389814 
L 254.87568 216.838996 
L 255.241728 217.284681 
L 255.607776 217.726844 
L 255.973824 218.165461 
L 256.339872 218.600508 
L 256.70592 219.031964 
L 257.071968 219.459807 
L 257.438016 219.884019 
L 257.804064 220.30458 
L 258.170112 220.721475 
L 258.53616 221.134687 
L 258.902208 221.544202 
L 259.268256 221.950006 
L 259.634304 222.352086 
L 260.000352 222.750431 
L 260.3664 223.145031 
L 260.732448 223.535875 
L 261.098496 223.922957 
L 261.464544 224.306268 
L 261.830592 224.685802 
L 262.19664 225.061554 
L 262.562688 225.433518 
L 262.928736 225.801691 
L 263.294784 226.166071 
L 263.660832 226.526654 
L 264.02688 226.883441 
L 264.392928 227.236431 
L 264.758976 227.585624 
L 265.125024 227.931022 
L 265.491072 228.272626 
L 265.85712 228.610439 
L 266.223168 228.944465 
L 266.589216 229.274708 
L 266.955264 229.601173 
L 267.321312 229.923865 
L 267.68736 230.242791 
L 268.053408 230.557958 
L 268.419456 230.869372 
L 268.785504 231.177042 
L 269.151552 231.480977 
L 269.5176 231.781186 
L 269.883648 232.077679 
L 270.249696 232.370466 
L 270.615744 232.659558 
L 270.981792 232.944966 
L 271.34784 233.226703 
L 271.713888 233.504781 
L 272.079936 233.779213 
L 272.445984 234.050011 
L 272.812032 234.317191 
L 273.17808 234.580766 
L 273.544128 234.84075 
L 273.910176 235.09716 
L 274.276224 235.35001 
L 274.642272 235.599317 
L 275.00832 235.845096 
L 275.374368 236.087364 
L 275.740416 236.326139 
L 276.106464 236.561437 
L 276.472512 236.793277 
L 276.83856 237.021675 
L 277.204608 237.246651 
L 277.570656 237.468223 
L 277.936704 237.68641 
L 278.302752 237.901231 
L 278.6688 238.112705 
L 279.034848 238.320852 
L 279.400896 238.525692 
L 279.766944 238.727246 
L 280.132992 238.925533 
L 280.49904 239.120574 
L 280.865088 239.31239 
L 281.231136 239.501002 
L 281.597184 239.686431 
L 281.963232 239.868698 
L 282.32928 240.047826 
L 282.695328 240.223835 
L 283.061376 240.396748 
L 283.427424 240.566587 
L 283.793472 240.733374 
L 284.15952 240.897131 
L 284.525568 241.057881 
L 284.891616 241.215646 
L 285.257664 241.370449 
L 285.623712 241.522312 
L 285.98976 241.67126 
L 286.355808 241.817314 
L 286.721856 241.960497 
L 287.087904 242.100834 
L 287.453952 242.238347 
L 287.82 242.373059 
L 288.186048 242.504994 
L 288.552096 242.634175 
L 288.918144 242.760626 
L 289.284192 242.88437 
L 289.65024 243.00543 
L 290.016288 243.123831 
L 290.382336 243.239596 
L 290.748384 243.352749 
L 291.114432 243.463313 
L 291.48048 243.571312 
L 291.846528 243.676769 
L 292.212576 243.779709 
L 292.578624 243.880154 
L 292.944672 243.97813 
L 293.31072 244.073658 
L 293.676768 244.166764 
L 294.042816 244.25747 
L 294.408864 244.3458 
L 294.774912 244.431778 
L 295.14096 244.515428 
L 295.507008 244.596772 
L 295.873056 244.675835 
L 296.239104 244.752639 
L 296.605152 244.827209 
L 296.9712 244.899567 
L 297.337248 244.969737 
L 297.703296 245.037742 
L 298.069344 245.103605 
L 298.435392 245.16735 
L 298.80144 245.228998 
L 299.167488 245.288575 
L 299.533536 245.346101 
L 299.899584 245.401601 
L 300.265632 245.455096 
L 300.63168 245.50661 
L 300.997728 245.556165 
L 301.363776 245.603783 
L 301.729824 245.649488 
L 302.095872 245.6933 
L 302.46192 245.735244 
L 302.827968 245.77534 
L 303.194016 245.813611 
L 303.560064 245.850079 
L 303.926112 245.884765 
L 304.29216 245.917692 
L 304.658208 245.94888 
L 305.024256 245.978352 
L 305.390304 246.006129 
L 305.756352 246.032233 
L 306.1224 246.056683 
L 306.488448 246.079503 
L 306.854496 246.100711 
L 307.220544 246.120331 
L 307.586592 246.138381 
L 307.95264 246.154883 
L 308.318688 246.169857 
L 308.684736 246.183324 
L 309.050784 246.195304 
L 309.416832 246.205817 
L 309.78288 246.214884 
L 310.148928 246.222523 
L 310.514976 246.228755 
L 310.881024 246.233599 
L 311.247072 246.237075 
L 311.61312 246.239202 
L 311.979168 246.24 
L 312.345216 246.239487 
L 312.711264 246.237683 
L 313.077312 246.234607 
L 313.44336 246.230276 
L 313.809408 246.224711 
L 314.175456 246.217928 
L 314.541504 246.209947 
L 314.907552 246.200786 
L 315.2736 246.190462 
L 315.639648 246.178994 
L 316.005696 246.166399 
L 316.371744 246.152695 
L 316.737792 246.1379 
L 317.10384 246.12203 
L 317.469888 246.105103 
L 317.835936 246.087137 
L 318.201984 246.068147 
L 318.568032 246.048152 
L 318.93408 246.027166 
L 319.300128 246.005208 
L 319.666176 245.982293 
L 320.032224 245.958438 
L 320.398272 245.933658 
L 320.76432 245.90797 
L 321.130368 245.881389 
L 321.496416 245.853932 
L 321.862464 245.825613 
L 322.228512 245.796448 
L 322.59456 245.766452 
L 322.960608 245.735641 
L 323.326656 245.704029 
L 323.692704 245.671631 
L 324.058752 245.638462 
L 324.4248 245.604536 
L 324.790848 245.569869 
L 325.156896 245.534473 
L 325.522944 245.498364 
L 325.888992 245.461555 
L 326.25504 245.424061 
L 326.621088 245.385894 
L 326.987136 245.347068 
L 327.353184 245.307598 
L 327.719232 245.267496 
L 328.08528 245.226775 
L 328.451328 245.185449 
L 328.817376 245.14353 
L 329.183424 245.101031 
L 329.549472 245.057966 
L 329.91552 245.014345 
L 330.281568 244.970182 
L 330.647616 244.92549 
L 331.013664 244.880279 
L 331.379712 244.834562 
L 331.74576 244.788352 
L 332.111808 244.741659 
L 332.477856 244.694495 
L 332.843904 244.646872 
L 333.209952 244.598801 
L 333.576 244.550294 
L 333.942048 244.50136 
L 334.308096 244.452012 
L 334.674144 244.40226 
L 335.040192 244.352115 
L 335.40624 244.301588 
L 335.772288 244.250688 
L 336.138336 244.199426 
L 336.504384 244.147813 
L 336.870432 244.095859 
L 337.23648 244.043573 
L 337.602528 243.990965 
L 337.968576 243.938045 
L 338.334624 243.884823 
L 338.700672 243.831308 
L 339.06672 243.77751 
L 339.432768 243.723437 
L 339.798816 243.669099 
L 340.164864 243.614506 
L 340.530912 243.559665 
L 340.89696 243.504585 
L 341.263008 243.449276 
L 341.629056 243.393746 
L 341.995104 243.338003 
L 342.361152 243.282056 
L 342.7272 243.225913 
L 343.093248 243.169581 
L 343.459296 243.11307 
L 343.825344 243.056387 
L 344.191392 242.999539 
L 344.55744 242.942535 
L 344.923488 242.885382 
L 345.289536 242.828088 
L 345.655584 242.770659 
L 346.021632 242.713104 
L 346.38768 242.655429 
L 346.753728 242.597641 
L 347.119776 242.539748 
L 347.485824 242.481756 
L 347.851872 242.423672 
L 348.21792 242.365503 
L 348.583968 242.307255 
L 348.950016 242.248935 
L 349.316064 242.190548 
L 349.682112 242.132103 
L 350.04816 242.073604 
L 350.414208 242.015058 
L 350.780256 241.95647 
L 351.146304 241.897847 
L 351.512352 241.839195 
L 351.8784 241.780519 
L 352.244448 241.721824 
L 352.610496 241.663117 
L 352.976544 241.604403 
L 353.342592 241.545688 
L 353.70864 241.486975 
L 354.074688 241.428272 
L 354.440736 241.369582 
L 354.806784 241.310912 
L 355.172832 241.252265 
L 355.53888 241.193647 
L 355.904928 241.135063 
L 356.270976 241.076516 
L 356.637024 241.018013 
L 357.003072 240.959557 
L 357.36912 240.901153 
L 357.735168 240.842805 
L 358.101216 240.784518 
L 358.467264 240.726296 
L 358.833312 240.668143 
L 359.19936 240.610063 
L 359.565408 240.55206 
L 359.931456 240.494138 
L 360.297504 240.436301 
L 360.663552 240.378553 
L 361.0296 240.320897 
L 361.395648 240.263338 
L 361.761696 240.205878 
L 362.127744 240.148521 
L 362.493792 240.091272 
L 362.85984 240.034132 
L 363.225888 239.977106 
L 363.591936 239.920196 
L 363.957984 239.863406 
L 364.324032 239.806739 
L 364.69008 239.750198 
L 365.056128 239.693787 
L 365.422176 239.637507 
L 365.788224 239.581362 
L 366.154272 239.525355 
L 366.52032 239.469488 
L 366.886368 239.413764 
L 367.252416 239.358186 
L 367.618464 239.302756 
L 367.984512 239.247477 
L 368.35056 239.192352 
L 368.716608 239.137382 
L 369.082656 239.08257 
L 369.448704 239.027918 
L 369.814752 238.973429 
L 370.1808 238.919105 
L 370.546848 238.864948 
L 370.912896 238.81096 
L 371.278944 238.757143 
L 371.644992 238.703498 
L 372.01104 238.650029 
L 372.377088 238.596737 
L 372.743136 238.543623 
L 373.109184 238.49069 
L 373.475232 238.437939 
L 373.84128 238.385372 
L 374.207328 238.33299 
L 374.573376 238.280795 
L 374.939424 238.22879 
L 375.305472 238.176974 
L 375.67152 238.12535 
L 376.037568 238.073919 
L 376.403616 238.022682 
L 376.769664 237.971642 
L 377.135712 237.920798 
L 377.50176 237.870153 
L 377.867808 237.819707 
L 378.233856 237.769462 
L 378.599904 237.719419 
L 378.965952 237.669578 
L 379.332 237.619942 
L 379.698048 237.570511 
L 380.064096 237.521285 
L 380.430144 237.472267 
L 380.796192 237.423457 
L 381.16224 237.374855 
L 381.528288 237.326463 
L 381.894336 237.278281 
L 382.260384 237.23031 
L 382.626432 237.182551 
L 382.99248 237.135005 
L 383.358528 237.087672 
L 383.724576 237.040552 
L 384.090624 236.993648 
L 384.456672 236.946958 
L 384.82272 236.900484 
L 385.188768 236.854225 
L 385.554816 236.808184 
L 385.920864 236.762359 
L 386.286912 236.716752 
L 386.65296 236.671363 
L 387.019008 236.626192 
L 387.385056 236.581239 
L 387.751104 236.536506 
L 388.117152 236.491991 
L 388.4832 236.447696 
L 388.849248 236.40362 
L 389.215296 236.359765 
L 389.581344 236.316129 
L 389.947392 236.272714 
L 390.31344 236.229518 
L 390.679488 236.186544 
L 391.045536 236.143789 
L 391.411584 236.101256 
L 391.777632 236.058942 
L 392.14368 236.01685 
L 392.509728 235.974978 
L 392.875776 235.933327 
L 393.241824 235.891896 
L 393.607872 235.850686 
L 393.97392 235.809696 
L 394.339968 235.768926 
L 394.706016 235.728377 
L 395.072064 235.688047 
L 395.438112 235.647938 
L 395.80416 235.608048 
L 396.170208 235.568378 
L 396.536256 235.528926 
L 396.902304 235.489694 
L 397.268352 235.450681 
L 397.6344 235.411886 
L 398.000448 235.373309 
L 398.366496 235.33495 
L 398.732544 235.296809 
L 399.098592 235.258885 
L 399.46464 235.221178 
L 399.830688 235.183687 
L 400.196736 235.146413 
L 400.562784 235.109354 
L 400.928832 235.072511 
L 401.29488 235.035882 
L 401.660928 234.999468 
L 402.026976 234.963268 
L 402.393024 234.927282 
L 402.759072 234.891509 
L 403.12512 234.855948 
L 403.491168 234.8206 
L 403.857216 234.785463 
L 404.223264 234.750537 
L 404.589312 234.715821 
L 404.95536 234.681316 
L 405.321408 234.64702 
L 405.687456 234.612933 
L 406.053504 234.579055 
L 406.419552 234.545384 
L 406.7856 234.51192 
L 407.151648 234.478662 
L 407.517696 234.445611 
L 407.883744 234.412765 
L 408.249792 234.380123 
L 408.61584 234.347686 
L 408.981888 234.315452 
L 409.347936 234.28342 
L 409.713984 234.251591 
L 410.080032 234.219963 
L 410.44608 234.188535 
L 410.812128 234.157308 
L 411.178176 234.12628 
L 411.544224 234.09545 
L 411.910272 234.064819 
L 412.27632 234.034384 
L 412.642368 234.004146 
L 413.008416 233.974104 
L 413.374464 233.944257 
L 413.740512 233.914603 
L 414.10656 233.885144 
L 414.472608 233.855877 
L 414.838656 233.826802 
L 415.204704 233.797918 
L 415.570752 233.769225 
L 415.9368 233.740721 
L 416.302848 233.712407 
L 416.668896 233.68428 
L 417.034944 233.656341 
L 417.400992 233.628588 
L 417.76704 233.601021 
L 418.133088 233.573639 
L 418.499136 233.546442 
L 418.865184 233.519427 
L 419.231232 233.492595 
L 419.59728 233.465945 
L 419.963328 233.439476 
L 420.329376 233.413187 
L 420.695424 233.387077 
L 421.061472 233.361146 
L 421.42752 233.335392 
L 421.793568 233.309815 
L 422.159616 233.284414 
L 422.525664 233.259189 
L 422.891712 233.234137 
L 423.25776 233.209259 
L 423.623808 233.184554 
L 423.989856 233.160021 
L 424.355904 233.135658 
L 424.721952 233.111466 
L 424.721952 59.631739 
L 424.355904 59.660864 
L 423.989856 59.690241 
L 423.623808 59.719871 
L 423.25776 59.749755 
L 422.891712 59.779898 
L 422.525664 59.810299 
L 422.159616 59.840963 
L 421.793568 59.87189 
L 421.42752 59.903084 
L 421.061472 59.934546 
L 420.695424 59.966279 
L 420.329376 59.998284 
L 419.963328 60.030565 
L 419.59728 60.063123 
L 419.231232 60.095961 
L 418.865184 60.129081 
L 418.499136 60.162486 
L 418.133088 60.196177 
L 417.76704 60.230158 
L 417.400992 60.264431 
L 417.034944 60.298997 
L 416.668896 60.333861 
L 416.302848 60.369023 
L 415.9368 60.404487 
L 415.570752 60.440255 
L 415.204704 60.47633 
L 414.838656 60.512714 
L 414.472608 60.54941 
L 414.10656 60.58642 
L 413.740512 60.623747 
L 413.374464 60.661394 
L 413.008416 60.699363 
L 412.642368 60.737658 
L 412.27632 60.77628 
L 411.910272 60.815232 
L 411.544224 60.854518 
L 411.178176 60.894139 
L 410.812128 60.9341 
L 410.44608 60.974402 
L 410.080032 61.015048 
L 409.713984 61.056042 
L 409.347936 61.097386 
L 408.981888 61.139083 
L 408.61584 61.181137 
L 408.249792 61.223549 
L 407.883744 61.266323 
L 407.517696 61.309462 
L 407.151648 61.35297 
L 406.7856 61.396848 
L 406.419552 61.441101 
L 406.053504 61.48573 
L 405.687456 61.530741 
L 405.321408 61.576135 
L 404.95536 61.621915 
L 404.589312 61.668086 
L 404.223264 61.714649 
L 403.857216 61.761609 
L 403.491168 61.808969 
L 403.12512 61.856732 
L 402.759072 61.904901 
L 402.393024 61.95348 
L 402.026976 62.002472 
L 401.660928 62.051881 
L 401.29488 62.101709 
L 400.928832 62.151961 
L 400.562784 62.20264 
L 400.196736 62.253749 
L 399.830688 62.305292 
L 399.46464 62.357273 
L 399.098592 62.409695 
L 398.732544 62.462562 
L 398.366496 62.515877 
L 398.000448 62.569644 
L 397.6344 62.623867 
L 397.268352 62.67855 
L 396.902304 62.733696 
L 396.536256 62.78931 
L 396.170208 62.845394 
L 395.80416 62.901954 
L 395.438112 62.958992 
L 395.072064 63.016513 
L 394.706016 63.074521 
L 394.339968 63.133019 
L 393.97392 63.192012 
L 393.607872 63.251504 
L 393.241824 63.311498 
L 392.875776 63.372 
L 392.509728 63.433012 
L 392.14368 63.49454 
L 391.777632 63.556587 
L 391.411584 63.619158 
L 391.045536 63.682257 
L 390.679488 63.745888 
L 390.31344 63.810056 
L 389.947392 63.874765 
L 389.581344 63.940019 
L 389.215296 64.005823 
L 388.849248 64.072181 
L 388.4832 64.139098 
L 388.117152 64.206578 
L 387.751104 64.274626 
L 387.385056 64.343247 
L 387.019008 64.412445 
L 386.65296 64.482224 
L 386.286912 64.55259 
L 385.920864 64.623548 
L 385.554816 64.695101 
L 385.188768 64.767255 
L 384.82272 64.840015 
L 384.456672 64.913385 
L 384.090624 64.987371 
L 383.724576 65.061977 
L 383.358528 65.137209 
L 382.99248 65.213071 
L 382.626432 65.289569 
L 382.260384 65.366707 
L 381.894336 65.444491 
L 381.528288 65.522926 
L 381.16224 65.602017 
L 380.796192 65.68177 
L 380.430144 65.762189 
L 380.064096 65.84328 
L 379.698048 65.925049 
L 379.332 66.0075 
L 378.965952 66.09064 
L 378.599904 66.174473 
L 378.233856 66.259005 
L 377.867808 66.344242 
L 377.50176 66.43019 
L 377.135712 66.516853 
L 376.769664 66.604239 
L 376.403616 66.692351 
L 376.037568 66.781197 
L 375.67152 66.870781 
L 375.305472 66.961111 
L 374.939424 67.052191 
L 374.573376 67.144027 
L 374.207328 67.236626 
L 373.84128 67.329994 
L 373.475232 67.424136 
L 373.109184 67.519058 
L 372.743136 67.614767 
L 372.377088 67.711269 
L 372.01104 67.808571 
L 371.644992 67.906677 
L 371.278944 68.005595 
L 370.912896 68.105331 
L 370.546848 68.205891 
L 370.1808 68.307282 
L 369.814752 68.409509 
L 369.448704 68.512581 
L 369.082656 68.616502 
L 368.716608 68.721281 
L 368.35056 68.826922 
L 367.984512 68.933433 
L 367.618464 69.040822 
L 367.252416 69.149093 
L 366.886368 69.258255 
L 366.52032 69.368313 
L 366.154272 69.479276 
L 365.788224 69.591149 
L 365.422176 69.70394 
L 365.056128 69.817656 
L 364.69008 69.932303 
L 364.324032 70.04789 
L 363.957984 70.164422 
L 363.591936 70.281907 
L 363.225888 70.400353 
L 362.85984 70.519767 
L 362.493792 70.640155 
L 362.127744 70.761525 
L 361.761696 70.883885 
L 361.395648 71.007242 
L 361.0296 71.131604 
L 360.663552 71.256978 
L 360.297504 71.383371 
L 359.931456 71.510791 
L 359.565408 71.639246 
L 359.19936 71.768744 
L 358.833312 71.899292 
L 358.467264 72.030897 
L 358.101216 72.163569 
L 357.735168 72.297314 
L 357.36912 72.432141 
L 357.003072 72.568057 
L 356.637024 72.70507 
L 356.270976 72.843189 
L 355.904928 72.982422 
L 355.53888 73.122776 
L 355.172832 73.264259 
L 354.806784 73.406881 
L 354.440736 73.550649 
L 354.074688 73.695571 
L 353.70864 73.841656 
L 353.342592 73.988913 
L 352.976544 74.137348 
L 352.610496 74.286972 
L 352.244448 74.437792 
L 351.8784 74.589816 
L 351.512352 74.743055 
L 351.146304 74.897515 
L 350.780256 75.053206 
L 350.414208 75.210136 
L 350.04816 75.368314 
L 349.682112 75.527749 
L 349.316064 75.68845 
L 348.950016 75.850424 
L 348.583968 76.013683 
L 348.21792 76.178233 
L 347.851872 76.344084 
L 347.485824 76.511245 
L 347.119776 76.679726 
L 346.753728 76.849534 
L 346.38768 77.020679 
L 346.021632 77.193171 
L 345.655584 77.367018 
L 345.289536 77.54223 
L 344.923488 77.718815 
L 344.55744 77.896783 
L 344.191392 78.076144 
L 343.825344 78.256906 
L 343.459296 78.439079 
L 343.093248 78.622672 
L 342.7272 78.807695 
L 342.361152 78.994157 
L 341.995104 79.182068 
L 341.629056 79.371436 
L 341.263008 79.562272 
L 340.89696 79.754586 
L 340.530912 79.948385 
L 340.164864 80.143681 
L 339.798816 80.340483 
L 339.432768 80.538801 
L 339.06672 80.738643 
L 338.700672 80.94002 
L 338.334624 81.142942 
L 337.968576 81.347418 
L 337.602528 81.553458 
L 337.23648 81.761072 
L 336.870432 81.970269 
L 336.504384 82.18106 
L 336.138336 82.393454 
L 335.772288 82.607461 
L 335.40624 82.82309 
L 335.040192 83.040353 
L 334.674144 83.259258 
L 334.308096 83.479815 
L 333.942048 83.702035 
L 333.576 83.925928 
L 333.209952 84.151502 
L 332.843904 84.378769 
L 332.477856 84.607737 
L 332.111808 84.838418 
L 331.74576 85.070821 
L 331.379712 85.304955 
L 331.013664 85.540832 
L 330.647616 85.77846 
L 330.281568 86.01785 
L 329.91552 86.259012 
L 329.549472 86.501956 
L 329.183424 86.746691 
L 328.817376 86.993227 
L 328.451328 87.241576 
L 328.08528 87.491745 
L 327.719232 87.743746 
L 327.353184 87.997588 
L 326.987136 88.253281 
L 326.621088 88.510835 
L 326.25504 88.77026 
L 325.888992 89.031566 
L 325.522944 89.294762 
L 325.156896 89.559858 
L 324.790848 89.826864 
L 324.4248 90.09579 
L 324.058752 90.366646 
L 323.692704 90.63944 
L 323.326656 90.914184 
L 322.960608 91.190886 
L 322.59456 91.469556 
L 322.228512 91.750204 
L 321.862464 92.032839 
L 321.496416 92.31747 
L 321.130368 92.604108 
L 320.76432 92.892761 
L 320.398272 93.183439 
L 320.032224 93.476152 
L 319.666176 93.770907 
L 319.300128 94.067716 
L 318.93408 94.366586 
L 318.568032 94.667527 
L 318.201984 94.970547 
L 317.835936 95.275657 
L 317.469888 95.582865 
L 317.10384 95.892179 
L 316.737792 96.203609 
L 316.371744 96.517162 
L 316.005696 96.832849 
L 315.639648 97.150677 
L 315.2736 97.470654 
L 314.907552 97.79279 
L 314.541504 98.117092 
L 314.175456 98.44357 
L 313.809408 98.772229 
L 313.44336 99.10308 
L 313.077312 99.43613 
L 312.711264 99.771387 
L 312.345216 100.108857 
L 311.979168 100.448551 
L 311.61312 100.790473 
L 311.247072 101.134633 
L 310.881024 101.481037 
L 310.514976 101.829693 
L 310.148928 102.180608 
L 309.78288 102.533788 
L 309.416832 102.889241 
L 309.050784 103.246973 
L 308.684736 103.60699 
L 308.318688 103.9693 
L 307.95264 104.333909 
L 307.586592 104.700822 
L 307.220544 105.070046 
L 306.854496 105.441586 
L 306.488448 105.815449 
L 306.1224 106.191639 
L 305.756352 106.570163 
L 305.390304 106.951025 
L 305.024256 107.334231 
L 304.658208 107.719784 
L 304.29216 108.107691 
L 303.926112 108.497956 
L 303.560064 108.890582 
L 303.194016 109.285575 
L 302.827968 109.682938 
L 302.46192 110.082674 
L 302.095872 110.484788 
L 301.729824 110.889282 
L 301.363776 111.296161 
L 300.997728 111.705426 
L 300.63168 112.117081 
L 300.265632 112.531128 
L 299.899584 112.947569 
L 299.533536 113.366406 
L 299.167488 113.787642 
L 298.80144 114.211278 
L 298.435392 114.637314 
L 298.069344 115.065752 
L 297.703296 115.496594 
L 297.337248 115.929839 
L 296.9712 116.365487 
L 296.605152 116.803539 
L 296.239104 117.243995 
L 295.873056 117.686854 
L 295.507008 118.132115 
L 295.14096 118.579777 
L 294.774912 119.029838 
L 294.408864 119.482297 
L 294.042816 119.937153 
L 293.676768 120.394401 
L 293.31072 120.854041 
L 292.944672 121.316069 
L 292.578624 121.780481 
L 292.212576 122.247274 
L 291.846528 122.716444 
L 291.48048 123.187987 
L 291.114432 123.661898 
L 290.748384 124.138172 
L 290.382336 124.616804 
L 290.016288 125.097788 
L 289.65024 125.581118 
L 289.284192 126.066786 
L 288.918144 126.554788 
L 288.552096 127.045114 
L 288.186048 127.537758 
L 287.82 128.032712 
L 287.453952 128.529966 
L 287.087904 129.029512 
L 286.721856 129.531342 
L 286.355808 130.035444 
L 285.98976 130.541809 
L 285.623712 131.050426 
L 285.257664 131.561284 
L 284.891616 132.074372 
L 284.525568 132.589678 
L 284.15952 133.107188 
L 283.793472 133.626891 
L 283.427424 134.148773 
L 283.061376 134.67282 
L 282.695328 135.199017 
L 282.32928 135.727351 
L 281.963232 136.257804 
L 281.597184 136.790362 
L 281.231136 137.325008 
L 280.865088 137.861725 
L 280.49904 138.400496 
L 280.132992 138.941302 
L 279.766944 139.484126 
L 279.400896 140.028947 
L 279.034848 140.575747 
L 278.6688 141.124505 
L 278.302752 141.6752 
L 277.936704 142.227811 
L 277.570656 142.782316 
L 277.204608 143.338693 
L 276.83856 143.896917 
L 276.472512 144.456966 
L 276.106464 145.018815 
L 275.740416 145.582439 
L 275.374368 146.147813 
L 275.00832 146.714909 
L 274.642272 147.283702 
L 274.276224 147.854163 
L 273.910176 148.426264 
L 273.544128 148.999978 
L 273.17808 149.575273 
L 272.812032 150.15212 
L 272.445984 150.730487 
L 272.079936 151.310344 
L 271.713888 151.891658 
L 271.34784 152.474396 
L 270.981792 153.058523 
L 270.615744 153.644007 
L 270.249696 154.230811 
L 269.883648 154.8189 
L 269.5176 155.408238 
L 269.151552 155.998785 
L 268.785504 156.590506 
L 268.419456 157.18336 
L 268.053408 157.777309 
L 267.68736 158.372311 
L 267.321312 158.968326 
L 266.955264 159.565312 
L 266.589216 160.163225 
L 266.223168 160.762023 
L 265.85712 161.361661 
L 265.491072 161.962094 
L 265.125024 162.563276 
L 264.758976 163.165161 
L 264.392928 163.7677 
L 264.02688 164.370846 
L 263.660832 164.974548 
L 263.294784 165.578758 
L 262.928736 166.183424 
L 262.562688 166.788495 
L 262.19664 167.393917 
L 261.830592 167.999638 
L 261.464544 168.605603 
L 261.098496 169.211757 
L 260.732448 169.818044 
L 260.3664 170.424408 
L 260.000352 171.03079 
L 259.634304 171.637131 
L 259.268256 172.243373 
L 258.902208 172.849454 
L 258.53616 173.455315 
L 258.170112 174.060891 
L 257.804064 174.666121 
L 257.438016 175.270941 
L 257.071968 175.875285 
L 256.70592 176.479087 
L 256.339872 177.082282 
L 255.973824 177.684802 
L 255.607776 178.286578 
L 255.241728 178.887541 
L 254.87568 179.487621 
L 254.509632 180.086746 
L 254.143584 180.684845 
L 253.777536 181.281844 
L 253.411488 181.87767 
L 253.04544 182.472248 
L 252.679392 183.065503 
L 252.313344 183.657357 
L 251.947296 184.247734 
L 251.581248 184.836555 
L 251.2152 185.42374 
L 250.849152 186.009211 
L 250.483104 186.592885 
L 250.117056 187.17468 
L 249.751008 187.754515 
L 249.38496 188.332305 
L 249.018912 188.907966 
L 248.652864 189.481411 
L 248.286816 190.052555 
L 247.920768 190.621311 
L 247.55472 191.187589 
L 247.188672 191.751301 
L 246.822624 192.312356 
L 246.456576 192.870663 
L 246.090528 193.426128 
L 245.72448 193.978658 
L 245.358432 194.528156 
L 244.992384 195.074523 
L 244.626336 195.617658 
L 244.260288 196.15745 
L 243.89424 196.693778 
L 243.528192 197.226496 
L 243.162144 197.755387 
L 242.796096 198.28 
L 242.430048 198.798486 
L 242.064 199.236824 
L 241.697952 198.773881 
L 241.331904 198.233234 
L 240.965856 197.688918 
L 240.599808 197.142775 
L 240.23376 196.595251 
L 239.867712 196.046557 
L 239.501664 195.496833 
L 239.135616 194.946196 
L 238.769568 194.394749 
L 238.40352 193.84259 
L 238.037472 193.289812 
L 237.671424 192.736507 
L 237.305376 192.182765 
L 236.939328 191.628673 
L 236.57328 191.074318 
L 236.207232 190.519787 
L 235.841184 189.965163 
L 235.475136 189.410533 
L 235.109088 188.855978 
L 234.74304 188.301581 
L 234.376992 187.747423 
L 234.010944 187.193587 
L 233.644896 186.640151 
L 233.278848 186.087195 
L 232.9128 185.534798 
L 232.546752 184.983037 
L 232.180704 184.431989 
L 231.814656 183.881731 
L 231.448608 183.332337 
L 231.08256 182.783882 
L 230.716512 182.23644 
L 230.350464 181.690084 
L 229.984416 181.144887 
L 229.618368 180.600918 
L 229.25232 180.05825 
L 228.886272 179.516951 
L 228.520224 178.977091 
L 228.154176 178.438738 
L 227.788128 177.901958 
L 227.42208 177.366819 
L 227.056032 176.833387 
L 226.689984 176.301725 
L 226.323936 175.771899 
L 225.957888 175.243971 
L 225.59184 174.718003 
L 225.225792 174.194058 
L 224.859744 173.672196 
L 224.493696 173.152477 
L 224.127648 172.634959 
L 223.7616 172.119703 
L 223.395552 171.606763 
L 223.029504 171.096199 
L 222.663456 170.588064 
L 222.297408 170.082415 
L 221.93136 169.579306 
L 221.565312 169.078789 
L 221.199264 168.580917 
L 220.833216 168.085743 
L 220.467168 167.593316 
L 220.10112 167.103688 
L 219.735072 166.616907 
L 219.369024 166.133022 
L 219.002976 165.65208 
L 218.636928 165.174129 
L 218.27088 164.699215 
L 217.904832 164.227381 
L 217.538784 163.758675 
L 217.172736 163.293138 
L 216.806688 162.830813 
L 216.44064 162.371743 
L 216.074592 161.91597 
L 215.708544 161.463532 
L 215.342496 161.014471 
L 214.976448 160.568824 
L 214.6104 160.126631 
L 214.244352 159.687928 
L 213.878304 159.252752 
L 213.512256 158.821139 
L 213.146208 158.393123 
L 212.78016 157.968739 
L 212.414112 157.54802 
L 212.048064 157.130999 
L 211.682016 156.717708 
L 211.315968 156.308177 
L 210.94992 155.902438 
L 210.583872 155.50052 
L 210.217824 155.102451 
L 209.851776 154.70826 
L 209.485728 154.317973 
L 209.11968 153.931618 
L 208.753632 153.549221 
L 208.387584 153.170805 
L 208.021536 152.796397 
L 207.655488 152.426018 
L 207.28944 152.059692 
L 206.923392 151.697441 
L 206.557344 151.339286 
L 206.191296 150.985248 
L 205.825248 150.635346 
L 205.4592 150.2896 
L 205.093152 149.948028 
L 204.727104 149.610648 
L 204.361056 149.277475 
L 203.995008 148.948527 
L 203.62896 148.623819 
L 203.262912 148.303366 
L 202.896864 147.987181 
L 202.530816 147.675277 
L 202.164768 147.367667 
L 201.79872 147.064363 
L 201.432672 146.765376 
L 201.066624 146.470716 
L 200.700576 146.180392 
L 200.334528 145.894413 
L 199.96848 145.612788 
L 199.602432 145.335523 
L 199.236384 145.062625 
L 198.870336 144.7941 
L 198.504288 144.529953 
L 198.13824 144.270189 
L 197.772192 144.014811 
L 197.406144 143.763823 
L 197.040096 143.517225 
L 196.674048 143.27502 
L 196.308 143.037209 
L 195.941952 142.803791 
L 195.575904 142.574766 
L 195.209856 142.350132 
L 194.843808 142.129887 
L 194.47776 141.914029 
L 194.111712 141.702552 
L 193.745664 141.495453 
L 193.379616 141.292727 
L 193.013568 141.094367 
L 192.64752 140.900367 
L 192.281472 140.71072 
L 191.915424 140.525417 
L 191.549376 140.344449 
L 191.183328 140.167806 
L 190.81728 139.995479 
L 190.451232 139.827455 
L 190.085184 139.663722 
L 189.719136 139.504269 
L 189.353088 139.34908 
L 188.98704 139.198142 
L 188.620992 139.05144 
L 188.254944 138.908958 
L 187.888896 138.770678 
L 187.522848 138.636584 
L 187.1568 138.506656 
L 186.790752 138.380877 
L 186.424704 138.259226 
L 186.058656 138.141682 
L 185.692608 138.028223 
L 185.32656 137.918828 
L 184.960512 137.813473 
L 184.594464 137.712134 
L 184.228416 137.614786 
L 183.862368 137.521404 
L 183.49632 137.43196 
L 183.130272 137.346429 
L 182.764224 137.264781 
L 182.398176 137.186987 
L 182.032128 137.113017 
L 181.66608 137.042842 
L 181.300032 136.976428 
L 180.933984 136.913743 
L 180.567936 136.854755 
L 180.201888 136.799428 
L 179.83584 136.747727 
L 179.469792 136.699617 
L 179.103744 136.655061 
L 178.737696 136.614019 
L 178.371648 136.576455 
L 178.0056 136.542327 
L 177.639552 136.511595 
L 177.273504 136.484218 
L 176.907456 136.460153 
L 176.541408 136.439357 
L 176.17536 136.421785 
L 175.809312 136.407391 
L 175.443264 136.39613 
L 175.077216 136.387954 
L 174.711168 136.382814 
L 174.34512 136.380662 
L 173.979072 136.381447 
L 173.613024 136.385118 
L 173.246976 136.391623 
L 172.880928 136.400908 
L 172.51488 136.412919 
L 172.148832 136.427601 
L 171.782784 136.444897 
L 171.416736 136.46475 
L 171.050688 136.487102 
L 170.68464 136.511893 
L 170.318592 136.539063 
L 169.952544 136.56855 
L 169.586496 136.600292 
L 169.220448 136.634224 
L 168.8544 136.670283 
L 168.488352 136.708401 
L 168.122304 136.748514 
L 167.756256 136.790551 
L 167.390208 136.834445 
L 167.02416 136.880124 
L 166.658112 136.927519 
L 166.292064 136.976555 
L 165.926016 137.02716 
L 165.559968 137.079259 
L 165.19392 137.132776 
L 164.827872 137.187634 
L 164.461824 137.243756 
L 164.095776 137.301061 
L 163.729728 137.359469 
L 163.36368 137.4189 
L 162.997632 137.479269 
L 162.631584 137.540494 
L 162.265536 137.602489 
L 161.899488 137.665168 
L 161.53344 137.728443 
L 161.167392 137.792226 
L 160.801344 137.856428 
L 160.435296 137.920957 
L 160.069248 137.985721 
L 159.7032 138.050626 
L 159.337152 138.115579 
L 158.971104 138.180483 
L 158.605056 138.245242 
L 158.239008 138.309757 
L 157.87296 138.373928 
L 157.506912 138.437655 
L 157.140864 138.500836 
L 156.774816 138.563368 
L 156.408768 138.625145 
L 156.04272 138.686063 
L 155.676672 138.746014 
L 155.310624 138.804888 
L 154.944576 138.862576 
L 154.578528 138.918965 
L 154.21248 138.97394 
L 153.846432 139.027386 
L 153.480384 139.07918 
L 153.114336 139.129198 
L 152.748288 139.177305 
L 152.38224 139.223353 
L 152.016192 139.267157 
L 151.650144 139.308447 
L 151.284096 139.346652 
L 150.918048 139.379444 
L 150.552 139.33628 
L 150.185952 138.619458 
L 149.819904 137.830678 
L 149.453856 137.040564 
L 149.087808 136.251477 
L 148.72176 135.464018 
L 148.355712 134.678486 
L 147.989664 133.895094 
L 147.623616 133.114021 
L 147.257568 132.335428 
L 146.89152 131.55947 
L 146.525472 130.786294 
L 146.159424 130.016046 
L 145.793376 129.248865 
L 145.427328 128.484892 
L 145.06128 127.724263 
L 144.695232 126.967113 
L 144.329184 126.213575 
L 143.963136 125.46378 
L 143.597088 124.717858 
L 143.23104 123.975936 
L 142.864992 123.238141 
L 142.498944 122.504599 
L 142.132896 121.775431 
L 141.766848 121.05076 
L 141.4008 120.330706 
L 141.034752 119.615388 
L 140.668704 118.904922 
L 140.302656 118.199425 
L 139.936608 117.49901 
L 139.57056 116.80379 
L 139.204512 116.113877 
L 138.838464 115.42938 
L 138.472416 114.750407 
L 138.106368 114.077065 
L 137.74032 113.40946 
L 137.374272 112.747695 
L 137.008224 112.091872 
L 136.642176 111.442093 
L 136.276128 110.798457 
L 135.91008 110.161062 
L 135.544032 109.530004 
L 135.177984 108.905379 
L 134.811936 108.28728 
L 134.445888 107.675801 
L 134.07984 107.07103 
L 133.713792 106.473059 
L 133.347744 105.881974 
L 132.981696 105.297862 
L 132.615648 104.720809 
L 132.2496 104.150898 
L 131.883552 103.588211 
L 131.517504 103.03283 
L 131.151456 102.484833 
L 130.785408 101.944298 
L 130.41936 101.411303 
L 130.053312 100.885921 
L 129.687264 100.368227 
L 129.321216 99.858293 
L 128.955168 99.356191 
L 128.58912 98.861988 
L 128.223072 98.375753 
L 127.857024 97.897554 
L 127.490976 97.427454 
L 127.124928 96.965517 
L 126.75888 96.511807 
L 126.392832 96.066382 
L 126.026784 95.629304 
L 125.660736 95.20063 
L 125.294688 94.780415 
L 124.92864 94.368716 
L 124.562592 93.965586 
L 124.196544 93.571077 
L 123.830496 93.185239 
L 123.464448 92.808121 
L 123.0984 92.439772 
L 122.732352 92.080238 
L 122.366304 91.729563 
L 122.000256 91.38779 
L 121.634208 91.054961 
L 121.26816 90.731116 
L 120.902112 90.416294 
L 120.536064 90.110533 
L 120.170016 89.813867 
L 119.803968 89.526331 
L 119.43792 89.247958 
L 119.071872 88.978778 
L 118.705824 88.71882 
L 118.339776 88.468113 
L 117.973728 88.226683 
L 117.60768 87.994554 
L 117.241632 87.77175 
L 116.875584 87.558292 
L 116.509536 87.354199 
L 116.143488 87.15949 
L 115.77744 86.974181 
L 115.411392 86.798287 
L 115.045344 86.631821 
L 114.679296 86.474794 
L 114.313248 86.327216 
L 113.9472 86.189096 
L 113.581152 86.060438 
L 113.215104 85.941247 
L 112.849056 85.831527 
L 112.483008 85.731277 
L 112.11696 85.640498 
L 111.750912 85.559184 
L 111.384864 85.487333 
L 111.018816 85.424938 
L 110.652768 85.371989 
L 110.28672 85.328477 
L 109.920672 85.294388 
L 109.554624 85.26971 
L 109.188576 85.254424 
L 108.822528 85.248513 
L 108.45648 85.251957 
L 108.090432 85.264732 
L 107.724384 85.286814 
L 107.358336 85.318177 
L 106.992288 85.358791 
L 106.62624 85.408626 
L 106.260192 85.467648 
L 105.894144 85.535822 
L 105.528096 85.61311 
L 105.162048 85.699471 
L 104.796 85.794864 
L 104.429952 85.899243 
L 104.063904 86.012562 
L 103.697856 86.134771 
L 103.331808 86.265818 
L 102.96576 86.405647 
L 102.599712 86.554202 
L 102.233664 86.711424 
L 101.867616 86.877249 
L 101.501568 87.051612 
L 101.13552 87.234445 
L 100.769472 87.425677 
L 100.403424 87.625234 
L 100.037376 87.83304 
L 99.671328 88.049012 
L 99.30528 88.273068 
L 98.939232 88.505117 
L 98.573184 88.745067 
L 98.207136 88.992817 
L 97.841088 89.248256 
L 97.47504 89.511258 
L 97.108992 89.781662 
L 96.742944 90.059222 
L 96.376896 90.34341 
L 96.010848 90.632035 
L 95.6448 90.853533 
L 95.278752 90.353488 
L 94.912704 89.780102 
L 94.546656 89.204872 
L 94.180608 88.629996 
L 93.81456 88.056012 
L 93.448512 87.48317 
L 93.082464 86.91164 
L 92.716416 86.341557 
L 92.350368 85.77304 
L 91.98432 85.206198 
L 91.618272 84.641134 
L 91.252224 84.077947 
L 90.886176 83.51673 
L 90.520128 82.957575 
L 90.15408 82.400569 
L 89.788032 81.845797 
L 89.421984 81.293341 
L 89.055936 80.743281 
L 88.689888 80.195694 
L 88.32384 79.650654 
L 87.957792 79.108234 
L 87.591744 78.568503 
L 87.225696 78.03153 
L 86.859648 77.497379 
L 86.4936 76.966115 
L 86.127552 76.437798 
L 85.761504 75.912487 
L 85.395456 75.39024 
L 85.029408 74.871112 
L 84.66336 74.355156 
L 84.297312 73.842423 
L 83.931264 73.332963 
L 83.565216 72.826823 
L 83.199168 72.324049 
L 82.83312 71.824684 
L 82.467072 71.328772 
L 82.101024 70.836353 
L 81.734976 70.347464 
L 81.368928 69.862145 
L 81.00288 69.380429 
L 80.636832 68.902351 
L 80.270784 68.427944 
L 79.904736 67.957238 
L 79.538688 67.490263 
L 79.17264 67.027046 
L 78.806592 66.567614 
L 78.440544 66.111992 
L 78.074496 65.660203 
L 77.708448 65.212271 
L 77.3424 64.768215 
L 76.976352 64.328056 
L 76.610304 63.891811 
L 76.244256 63.459499 
L 75.878208 63.031134 
L 75.51216 62.606732 
L 75.146112 62.186307 
L 74.780064 61.769869 
L 74.414016 61.357431 
L 74.047968 60.949003 
L 73.68192 60.544594 
L 73.315872 60.144211 
L 72.949824 59.747862 
L 72.583776 59.355553 
L 72.217728 58.967288 
L 71.85168 58.583072 
L 71.485632 58.202907 
L 71.119584 57.826797 
L 70.753536 57.45474 
L 70.387488 57.086739 
L 70.02144 56.722793 
L 69.655392 56.3629 
L 69.289344 56.007058 
L 68.923296 55.655263 
L 68.557248 55.307513 
L 68.1912 54.963802 
L 67.825152 54.624126 
L 67.459104 54.288477 
L 67.093056 53.95685 
L 66.727008 53.629237 
L 66.36096 53.305629 
L 65.994912 52.986019 
L 65.628864 52.670395 
L 65.262816 52.358749 
L 64.896768 52.05107 
L 64.53072 51.747346 
L 64.164672 51.447566 
L 63.798624 51.151717 
L 63.432576 50.859785 
L 63.066528 50.571759 
L 62.70048 50.287623 
L 62.334432 50.007363 
L 61.968384 49.730965 
L 61.602336 49.458412 
L 61.236288 49.189688 
L 60.87024 48.924778 
L 60.504192 48.663665 
L 60.138144 48.406331 
L 59.772096 48.152758 
L 59.406048 47.902929 
L 59.04 47.656825 
z
" clip-path="url(#p19cee66119)" style="fill: #00bfbf; opacity: 0.3"/>
   </g>
   <g id="matplotlib.axis_1">
    <g id="xtick_1">
     <g id="line2d_1">
      <defs>
       <path id="m1f767b47ee" d="M 0 0 
L 0 3.5 
" style="stroke: #000000; stroke-width: 0.8"/>
      </defs>
      <g>
       <use xlink:href="#m1f767b47ee" x="59.04" y="256.32" style="stroke: #000000; stroke-width: 0.8"/>
      </g>
     </g>
     <g id="text_1">
      <!-- 0.0 -->
      <g transform="translate(51.088437 270.918437) scale(0.1 -0.1)">
       <defs>
        <path id="DejaVuSans-30" d="M 2034 4250 
Q 1547 4250 1301 3770 
Q 1056 3291 1056 2328 
Q 1056 1369 1301 889 
Q 1547 409 2034 409 
Q 2525 409 2770 889 
Q 3016 1369 3016 2328 
Q 3016 3291 2770 3770 
Q 2525 4250 2034 4250 
z
M 2034 4750 
Q 2819 4750 3233 4129 
Q 3647 3509 3647 2328 
Q 3647 1150 3233 529 
Q 2819 -91 2034 -91 
Q 1250 -91 836 529 
Q 422 1150 422 2328 
Q 422 3509 836 4129 
Q 1250 4750 2034 4750 
z
" transform="scale(0.015625)"/>
        <path id="DejaVuSans-2e" d="M 684 794 
L 1344 794 
L 1344 0 
L 684 0 
L 684 794 
z
" transform="scale(0.015625)"/>
       </defs>
       <use xlink:href="#DejaVuSans-30"/>
       <use xlink:href="#DejaVuSans-2e" x="63.623047"/>
       <use xlink:href="#DejaVuSans-30" x="95.410156"/>
      </g>
     </g>
    </g>
    <g id="xtick_2">
     <g id="line2d_2">
      <g>
       <use xlink:href="#m1f767b47ee" x="132.2496" y="256.32" style="stroke: #000000; stroke-width: 0.8"/>
      </g>
     </g>
     <g id="text_2">
      <!-- 0.2 -->
      <g transform="translate(124.298038 270.918437) scale(0.1 -0.1)">
       <defs>
        <path id="DejaVuSans-32" d="M 1228 531 
L 3431 531 
L 3431 0 
L 469 0 
L 469 531 
Q 828 903 1448 1529 
Q 2069 2156 2228 2338 
Q 2531 2678 2651 2914 
Q 2772 3150 2772 3378 
Q 2772 3750 2511 3984 
Q 2250 4219 1831 4219 
Q 1534 4219 1204 4116 
Q 875 4013 500 3803 
L 500 4441 
Q 881 4594 1212 4672 
Q 1544 4750 1819 4750 
Q 2544 4750 2975 4387 
Q 3406 4025 3406 3419 
Q 3406 3131 3298 2873 
Q 3191 2616 2906 2266 
Q 2828 2175 2409 1742 
Q 1991 1309 1228 531 
z
" transform="scale(0.015625)"/>
       </defs>
       <use xlink:href="#DejaVuSans-30"/>
       <use xlink:href="#DejaVuSans-2e" x="63.623047"/>
       <use xlink:href="#DejaVuSans-32" x="95.410156"/>
      </g>
     </g>
    </g>
    <g id="xtick_3">
     <g id="line2d_3">
      <g>
       <use xlink:href="#m1f767b47ee" x="205.4592" y="256.32" style="stroke: #000000; stroke-width: 0.8"/>
      </g>
     </g>
     <g id="text_3">
      <!-- 0.4 -->
      <g transform="translate(197.507638 270.918437) scale(0.1 -0.1)">
       <defs>
        <path id="DejaVuSans-34" d="M 2419 4116 
L 825 1625 
L 2419 1625 
L 2419 4116 
z
M 2253 4666 
L 3047 4666 
L 3047 1625 
L 3713 1625 
L 3713 1100 
L 3047 1100 
L 3047 0 
L 2419 0 
L 2419 1100 
L 313 1100 
L 313 1709 
L 2253 4666 
z
" transform="scale(0.015625)"/>
       </defs>
       <use xlink:href="#DejaVuSans-30"/>
       <use xlink:href="#DejaVuSans-2e" x="63.623047"/>
       <use xlink:href="#DejaVuSans-34" x="95.410156"/>
      </g>
     </g>
    </g>
    <g id="xtick_4">
     <g id="line2d_4">
      <g>
       <use xlink:href="#m1f767b47ee" x="278.6688" y="256.32" style="stroke: #000000; stroke-width: 0.8"/>
      </g>
     </g>
     <g id="text_4">
      <!-- 0.6 -->
      <g transform="translate(270.717238 270.918437) scale(0.1 -0.1)">
       <defs>
        <path id="DejaVuSans-36" d="M 2113 2584 
Q 1688 2584 1439 2293 
Q 1191 2003 1191 1497 
Q 1191 994 1439 701 
Q 1688 409 2113 409 
Q 2538 409 2786 701 
Q 3034 994 3034 1497 
Q 3034 2003 2786 2293 
Q 2538 2584 2113 2584 
z
M 3366 4563 
L 3366 3988 
Q 3128 4100 2886 4159 
Q 2644 4219 2406 4219 
Q 1781 4219 1451 3797 
Q 1122 3375 1075 2522 
Q 1259 2794 1537 2939 
Q 1816 3084 2150 3084 
Q 2853 3084 3261 2657 
Q 3669 2231 3669 1497 
Q 3669 778 3244 343 
Q 2819 -91 2113 -91 
Q 1303 -91 875 529 
Q 447 1150 447 2328 
Q 447 3434 972 4092 
Q 1497 4750 2381 4750 
Q 2619 4750 2861 4703 
Q 3103 4656 3366 4563 
z
" transform="scale(0.015625)"/>
       </defs>
       <use xlink:href="#DejaVuSans-30"/>
       <use xlink:href="#DejaVuSans-2e" x="63.623047"/>
       <use xlink:href="#DejaVuSans-36" x="95.410156"/>
      </g>
     </g>
    </g>
    <g id="xtick_5">
     <g id="line2d_5">
      <g>
       <use xlink:href="#m1f767b47ee" x="351.8784" y="256.32" style="stroke: #000000; stroke-width: 0.8"/>
      </g>
     </g>
     <g id="text_5">
      <!-- 0.8 -->
      <g transform="translate(343.926838 270.918437) scale(0.1 -0.1)">
       <defs>
        <path id="DejaVuSans-38" d="M 2034 2216 
Q 1584 2216 1326 1975 
Q 1069 1734 1069 1313 
Q 1069 891 1326 650 
Q 1584 409 2034 409 
Q 2484 409 2743 651 
Q 3003 894 3003 1313 
Q 3003 1734 2745 1975 
Q 2488 2216 2034 2216 
z
M 1403 2484 
Q 997 2584 770 2862 
Q 544 3141 544 3541 
Q 544 4100 942 4425 
Q 1341 4750 2034 4750 
Q 2731 4750 3128 4425 
Q 3525 4100 3525 3541 
Q 3525 3141 3298 2862 
Q 3072 2584 2669 2484 
Q 3125 2378 3379 2068 
Q 3634 1759 3634 1313 
Q 3634 634 3220 271 
Q 2806 -91 2034 -91 
Q 1263 -91 848 271 
Q 434 634 434 1313 
Q 434 1759 690 2068 
Q 947 2378 1403 2484 
z
M 1172 3481 
Q 1172 3119 1398 2916 
Q 1625 2713 2034 2713 
Q 2441 2713 2670 2916 
Q 2900 3119 2900 3481 
Q 2900 3844 2670 4047 
Q 2441 4250 2034 4250 
Q 1625 4250 1398 4047 
Q 1172 3844 1172 3481 
z
" transform="scale(0.015625)"/>
       </defs>
       <use xlink:href="#DejaVuSans-30"/>
       <use xlink:href="#DejaVuSans-2e" x="63.623047"/>
       <use xlink:href="#DejaVuSans-38" x="95.410156"/>
      </g>
     </g>
    </g>
    <g id="xtick_6">
     <g id="line2d_6">
      <g>
       <use xlink:href="#m1f767b47ee" x="425.088" y="256.32" style="stroke: #000000; stroke-width: 0.8"/>
      </g>
     </g>
     <g id="text_6">
      <!-- 1.0 -->
      <g transform="translate(417.136437 270.918437) scale(0.1 -0.1)">
       <defs>
        <path id="DejaVuSans-31" d="M 794 531 
L 1825 531 
L 1825 4091 
L 703 3866 
L 703 4441 
L 1819 4666 
L 2450 4666 
L 2450 531 
L 3481 531 
L 3481 0 
L 794 0 
L 794 531 
z
" transform="scale(0.015625)"/>
       </defs>
       <use xlink:href="#DejaVuSans-31"/>
       <use xlink:href="#DejaVuSans-2e" x="63.623047"/>
       <use xlink:href="#DejaVuSans-30" x="95.410156"/>
      </g>
     </g>
    </g>
    <g id="text_7">
     <!-- x -->
     <g transform="translate(238.51275 286.11625) scale(0.12 -0.12)">
      <defs>
       <path id="DejaVuSans-78" d="M 3513 3500 
L 2247 1797 
L 3578 0 
L 2900 0 
L 1881 1375 
L 863 0 
L 184 0 
L 1544 1831 
L 300 3500 
L 978 3500 
L 1906 2253 
L 2834 3500 
L 3513 3500 
z
" transform="scale(0.015625)"/>
      </defs>
      <use xlink:href="#DejaVuSans-78"/>
     </g>
    </g>
   </g>
   <g id="matplotlib.axis_2">
    <g id="ytick_1">
     <g id="line2d_7">
      <defs>
       <path id="m117db88cef" d="M 0 0 
L -3.5 0 
" style="stroke: #000000; stroke-width: 0.8"/>
      </defs>
      <g>
       <use xlink:href="#m117db88cef" x="59.04" y="226.008642" style="stroke: #000000; stroke-width: 0.8"/>
      </g>
     </g>
     <g id="text_8">
      <!-- 0.6 -->
      <g transform="translate(36.136875 229.807861) scale(0.1 -0.1)">
       <use xlink:href="#DejaVuSans-30"/>
       <use xlink:href="#DejaVuSans-2e" x="63.623047"/>
       <use xlink:href="#DejaVuSans-36" x="95.410156"/>
      </g>
     </g>
    </g>
    <g id="ytick_2">
     <g id="line2d_8">
      <g>
       <use xlink:href="#m117db88cef" x="59.04" y="182.579607" style="stroke: #000000; stroke-width: 0.8"/>
      </g>
     </g>
     <g id="text_9">
      <!-- 0.8 -->
      <g transform="translate(36.136875 186.378826) scale(0.1 -0.1)">
       <use xlink:href="#DejaVuSans-30"/>
       <use xlink:href="#DejaVuSans-2e" x="63.623047"/>
       <use xlink:href="#DejaVuSans-38" x="95.410156"/>
      </g>
     </g>
    </g>
    <g id="ytick_3">
     <g id="line2d_9">
      <g>
       <use xlink:href="#m117db88cef" x="59.04" y="139.150572" style="stroke: #000000; stroke-width: 0.8"/>
      </g>
     </g>
     <g id="text_10">
      <!-- 1.0 -->
      <g transform="translate(36.136875 142.949791) scale(0.1 -0.1)">
       <use xlink:href="#DejaVuSans-31"/>
       <use xlink:href="#DejaVuSans-2e" x="63.623047"/>
       <use xlink:href="#DejaVuSans-30" x="95.410156"/>
      </g>
     </g>
    </g>
    <g id="ytick_4">
     <g id="line2d_10">
      <g>
       <use xlink:href="#m117db88cef" x="59.04" y="95.721537" style="stroke: #000000; stroke-width: 0.8"/>
      </g>
     </g>
     <g id="text_11">
      <!-- 1.2 -->
      <g transform="translate(36.136875 99.520756) scale(0.1 -0.1)">
       <use xlink:href="#DejaVuSans-31"/>
       <use xlink:href="#DejaVuSans-2e" x="63.623047"/>
       <use xlink:href="#DejaVuSans-32" x="95.410156"/>
      </g>
     </g>
    </g>
    <g id="ytick_5">
     <g id="line2d_11">
      <g>
       <use xlink:href="#m117db88cef" x="59.04" y="52.292502" style="stroke: #000000; stroke-width: 0.8"/>
      </g>
     </g>
     <g id="text_12">
      <!-- 1.4 -->
      <g transform="translate(36.136875 56.091721) scale(0.1 -0.1)">
       <use xlink:href="#DejaVuSans-31"/>
       <use xlink:href="#DejaVuSans-2e" x="63.623047"/>
       <use xlink:href="#DejaVuSans-34" x="95.410156"/>
      </g>
     </g>
    </g>
    <g id="text_13">
     <!-- f(x) -->
     <g transform="translate(29.64125 155.785313) rotate(-90) scale(0.12 -0.12)">
      <defs>
       <path id="DejaVuSans-66" d="M 2375 4863 
L 2375 4384 
L 1825 4384 
Q 1516 4384 1395 4259 
Q 1275 4134 1275 3809 
L 1275 3500 
L 2222 3500 
L 2222 3053 
L 1275 3053 
L 1275 0 
L 697 0 
L 697 3053 
L 147 3053 
L 147 3500 
L 697 3500 
L 697 3744 
Q 697 4328 969 4595 
Q 1241 4863 1831 4863 
L 2375 4863 
z
" transform="scale(0.015625)"/>
       <path id="DejaVuSans-28" d="M 1984 4856 
Q 1566 4138 1362 3434 
Q 1159 2731 1159 2009 
Q 1159 1288 1364 580 
Q 1569 -128 1984 -844 
L 1484 -844 
Q 1016 -109 783 600 
Q 550 1309 550 2009 
Q 550 2706 781 3412 
Q 1013 4119 1484 4856 
L 1984 4856 
z
" transform="scale(0.015625)"/>
       <path id="DejaVuSans-29" d="M 513 4856 
L 1013 4856 
Q 1481 4119 1714 3412 
Q 1947 2706 1947 2009 
Q 1947 1309 1714 600 
Q 1481 -109 1013 -844 
L 513 -844 
Q 928 -128 1133 580 
Q 1338 1288 1338 2009 
Q 1338 2731 1133 3434 
Q 928 4138 513 4856 
z
" transform="scale(0.015625)"/>
      </defs>
      <use xlink:href="#DejaVuSans-66"/>
      <use xlink:href="#DejaVuSans-28" x="35.205078"/>
      <use xlink:href="#DejaVuSans-78" x="74.21875"/>
      <use xlink:href="#DejaVuSans-29" x="133.398438"/>
     </g>
    </g>
   </g>
   <g id="line2d_12">
    <path d="M 59.04 161.253335 
L 62.334432 155.015255 
L 70.387488 139.114926 
L 73.68192 131.860104 
L 81.368928 114.611916 
L 84.66336 107.89849 
L 87.225696 103.060172 
L 89.788032 98.637744 
L 91.98432 95.300363 
L 93.81456 92.922525 
L 95.6448 90.956338 
L 97.108992 89.679206 
L 98.573184 88.664892 
L 100.769472 87.452629 
L 102.96576 86.493898 
L 105.528096 85.644022 
L 108.090432 84.985968 
L 110.28672 84.657888 
L 112.11696 84.601938 
L 113.9472 84.791903 
L 115.411392 85.171597 
L 116.875584 85.79164 
L 118.339776 86.666002 
L 119.803968 87.7897 
L 121.634208 89.503289 
L 123.464448 91.580987 
L 125.660736 94.464389 
L 127.857024 97.687099 
L 131.517504 103.578157 
L 136.276128 111.594966 
L 141.766848 121.487863 
L 145.06128 127.76238 
L 148.355712 134.54283 
L 151.284096 141.067307 
L 155.310624 150.625782 
L 159.7032 161.022611 
L 162.631584 167.257565 
L 165.19392 172.282769 
L 167.390208 176.102092 
L 169.586496 179.491466 
L 171.782784 182.500961 
L 174.34512 185.640612 
L 179.83584 192.046163 
L 188.254944 202.411159 
L 190.81728 205.218657 
L 193.013568 207.305302 
L 195.209856 209.048455 
L 197.772192 210.778916 
L 200.700576 212.514733 
L 202.896864 213.567679 
L 205.093152 214.364209 
L 206.923392 214.849099 
L 208.753632 215.118771 
L 210.583872 215.160226 
L 212.78016 214.930209 
L 216.074592 214.36148 
L 218.27088 213.774464 
L 220.833216 212.818931 
L 223.7616 211.472262 
L 226.323936 210.077539 
L 229.25232 208.18562 
L 233.278848 205.271069 
L 237.305376 202.453691 
L 242.796096 198.872791 
L 246.090528 196.709914 
L 255.973824 189.784039 
L 262.562688 185.162745 
L 268.053408 181.545658 
L 269.883648 180.082877 
L 272.079936 177.985274 
L 274.276224 175.547786 
L 276.83856 172.333837 
L 282.695328 164.831452 
L 287.453952 158.860253 
L 290.382336 154.7912 
L 293.676768 149.783701 
L 298.069344 142.666601 
L 302.827968 134.379094 
L 310.148928 121.622895 
L 314.175456 115.326648 
L 320.032224 106.63663 
L 327.353184 95.594627 
L 331.013664 90.212682 
L 333.576 86.900067 
L 336.138336 83.898987 
L 338.334624 81.655244 
L 340.530912 79.703865 
L 342.361152 78.350956 
L 344.191392 77.231102 
L 346.38768 76.157002 
L 348.21792 75.527208 
L 349.682112 75.237066 
L 351.146304 75.137996 
L 352.610496 75.246882 
L 354.440736 75.642207 
L 356.270976 76.26737 
L 358.833312 77.416726 
L 361.0296 78.588339 
L 363.957984 80.45157 
L 368.716608 83.626665 
L 372.01104 85.496078 
L 374.939424 86.957572 
L 377.50176 87.983855 
L 379.332 88.481845 
L 381.528288 88.843094 
L 384.456672 89.333893 
L 388.117152 89.921829 
L 397.268352 91.317947 
L 401.660928 92.292375 
L 407.517696 93.800165 
L 410.080032 94.677983 
L 413.374464 96.115775 
L 419.963328 99.070837 
L 422.159616 99.64664 
L 424.355904 99.974927 
L 424.721952 100.01269 
L 424.721952 100.01269 
" clip-path="url(#p19cee66119)" style="fill: none; stroke: #1f77b4; stroke-width: 1.5; stroke-linecap: square"/>
   </g>
   <g id="line2d_13">
    <path d="M 59.04 88.776787 
L 62.70048 89.832323 
L 66.36096 90.844033 
L 68.923296 91.321936 
L 71.85168 91.596821 
L 78.074496 92.065404 
L 80.636832 91.902434 
L 83.931264 91.446973 
L 90.520128 90.542599 
L 92.350368 90.480303 
L 94.180608 90.65571 
L 96.010848 91.046813 
L 97.47504 91.538863 
L 99.30528 92.387971 
L 101.501568 93.627118 
L 104.429952 95.582662 
L 106.992288 97.508642 
L 109.554624 99.71777 
L 111.750912 101.868297 
L 114.313248 104.680872 
L 116.509536 107.412593 
L 120.902112 113.452024 
L 124.92864 118.867689 
L 129.321216 124.362007 
L 133.713792 129.56419 
L 135.91008 131.804326 
L 138.106368 133.686953 
L 139.936608 134.97792 
L 142.132896 136.248791 
L 144.695232 137.404972 
L 147.623616 138.499388 
L 151.284096 139.634365 
L 155.310624 140.62854 
L 161.167392 141.780908 
L 165.19392 142.529561 
L 167.390208 143.258698 
L 169.952544 144.325094 
L 172.880928 145.777315 
L 175.077216 147.135401 
L 177.273504 148.798259 
L 179.469792 150.741083 
L 181.66608 152.977266 
L 184.594464 156.291335 
L 187.888896 160.357214 
L 191.183328 164.321171 
L 193.745664 167.060328 
L 196.674048 169.902496 
L 202.164768 174.787431 
L 205.825248 177.580839 
L 209.485728 180.226696 
L 212.414112 182.046488 
L 223.395552 188.616052 
L 231.448608 193.720576 
L 235.841184 196.22039 
L 240.599808 198.645491 
L 243.89424 200.000478 
L 247.188672 201.125431 
L 249.38496 201.683507 
L 251.2152 201.931115 
L 252.679392 201.942867 
L 254.143584 201.749981 
L 255.607776 201.371906 
L 257.071968 200.788104 
L 258.902208 199.786851 
L 261.098496 198.265518 
L 264.392928 195.660917 
L 267.68736 192.821791 
L 270.615744 189.993549 
L 274.642272 185.716709 
L 280.132992 179.963128 
L 285.98976 173.839979 
L 288.186048 171.267277 
L 290.382336 168.366885 
L 292.944672 164.582821 
L 295.507008 160.432075 
L 298.069344 155.919001 
L 300.265632 151.662052 
L 303.194016 145.381469 
L 311.61312 127.020099 
L 314.541504 121.213537 
L 317.10384 116.584631 
L 319.666176 112.382947 
L 321.862464 109.18194 
L 324.4248 105.80236 
L 326.621088 103.22307 
L 329.183424 100.564139 
L 331.379712 98.568487 
L 333.209952 97.210404 
L 335.040192 96.14277 
L 336.870432 95.326834 
L 338.700672 94.760597 
L 340.89696 94.339774 
L 342.7272 94.210813 
L 344.55744 94.300202 
L 346.38768 94.610814 
L 349.316064 95.355031 
L 353.342592 96.34312 
L 363.957984 98.277593 
L 373.109184 99.829736 
L 374.939424 99.840759 
L 376.403616 99.645954 
L 378.599904 99.072703 
L 380.796192 98.284416 
L 382.626432 97.408497 
L 384.456672 96.30311 
L 386.65296 94.677442 
L 388.4832 93.064486 
L 390.679488 90.812207 
L 392.875776 88.275792 
L 395.438112 84.960428 
L 399.098592 79.760531 
L 407.517696 67.273683 
L 411.910272 60.675789 
L 415.204704 56.058136 
L 419.59728 50.364549 
L 422.159616 47.320016 
L 424.721952 44.64 
L 424.721952 44.64 
" clip-path="url(#p19cee66119)" style="fill: none; stroke: #ff7f0e; stroke-width: 1.5; stroke-linecap: square"/>
   </g>
   <g id="line2d_14">
    <path d="M 59.04 63.734876 
L 61.968384 63.613969 
L 64.53072 63.77125 
L 66.36096 64.128745 
L 68.1912 64.734318 
L 70.753536 65.845552 
L 72.949824 67.007972 
L 75.51216 68.618191 
L 78.074496 70.525583 
L 80.636832 72.671674 
L 83.565216 75.454257 
L 85.761504 77.845734 
L 88.32384 81.028074 
L 91.98432 85.960437 
L 102.96576 100.856997 
L 105.894144 104.393841 
L 108.45648 107.196701 
L 111.384864 110.023107 
L 114.313248 112.540402 
L 117.241632 114.784965 
L 120.170016 116.693492 
L 128.58912 121.995633 
L 134.07984 125.816905 
L 137.74032 128.620985 
L 147.257568 136.392918 
L 150.552 139.41412 
L 156.774816 145.279593 
L 162.997632 150.762181 
L 165.559968 152.794056 
L 167.756256 154.236333 
L 169.586496 155.231349 
L 171.782784 156.135357 
L 174.711168 157.070725 
L 178.0056 158.084832 
L 180.201888 158.96355 
L 182.398176 160.096184 
L 187.522848 163.062089 
L 191.183328 165.053846 
L 194.47776 166.899734 
L 197.772192 169.018521 
L 201.432672 171.70138 
L 206.191296 175.125021 
L 208.753632 176.594888 
L 211.682016 177.984165 
L 224.127648 183.720921 
L 226.689984 185.363496 
L 229.25232 187.303118 
L 234.74304 191.801449 
L 237.671424 194.548725 
L 240.599808 197.631184 
L 243.162144 200.654424 
L 245.72448 204.046933 
L 251.2152 211.480145 
L 253.777536 214.546399 
L 256.70592 217.616694 
L 258.53616 219.236083 
L 260.732448 220.862555 
L 264.392928 223.229609 
L 266.589216 224.472099 
L 268.419456 225.259244 
L 270.249696 225.832334 
L 272.079936 226.191924 
L 273.910176 226.331724 
L 275.740416 226.187664 
L 277.936704 225.749998 
L 280.49904 224.983812 
L 284.525568 223.520526 
L 287.087904 222.303356 
L 296.9712 217.138014 
L 299.533536 215.331044 
L 301.729824 213.545265 
L 303.560064 211.805061 
L 306.1224 209.028912 
L 308.318688 206.351783 
L 310.514976 203.328367 
L 313.077312 199.432289 
L 315.639648 195.12794 
L 318.201984 190.31794 
L 320.76432 184.98034 
L 325.156896 175.161169 
L 329.91552 164.585116 
L 333.209952 157.810339 
L 336.504384 151.432275 
L 338.700672 147.643228 
L 340.89696 144.356615 
L 342.7272 141.968659 
L 344.55744 139.922877 
L 346.021632 138.560566 
L 347.485824 137.466253 
L 348.950016 136.659956 
L 350.414208 136.100647 
L 351.8784 135.760293 
L 353.342592 135.62335 
L 355.172832 135.676469 
L 356.637024 135.896636 
L 358.101216 136.337592 
L 359.565408 137.065495 
L 361.0296 138.096854 
L 363.225888 140.011582 
L 366.52032 143.214369 
L 368.35056 145.269337 
L 370.546848 148.090205 
L 373.84128 152.674575 
L 376.769664 157.235905 
L 385.920864 171.694288 
L 388.849248 175.597175 
L 391.045536 178.164524 
L 393.97392 181.240862 
L 396.902304 184.013527 
L 399.830688 186.545667 
L 401.660928 187.842739 
L 403.491168 188.826894 
L 405.321408 189.542925 
L 407.151648 189.991957 
L 410.080032 190.389761 
L 415.9368 190.979347 
L 417.76704 191.432264 
L 419.963328 192.241746 
L 422.159616 193.272602 
L 424.721952 194.759122 
L 424.721952 194.759122 
" clip-path="url(#p19cee66119)" style="fill: none; stroke: #2ca02c; stroke-width: 1.5; stroke-linecap: square"/>
   </g>
   <g id="line2d_15">
    <defs>
     <path id="m78e38a2b9c" d="M -4 0 
L 4 0 
M 0 4 
L 0 -4 
" style="stroke: #ff0000"/>
    </defs>
    <g clip-path="url(#p19cee66119)">
     <use xlink:href="#m78e38a2b9c" x="95.6448" y="90.940342" style="fill: #ff0000; stroke: #ff0000"/>
     <use xlink:href="#m78e38a2b9c" x="150.552" y="139.42319" style="fill: #ff0000; stroke: #ff0000"/>
     <use xlink:href="#m78e38a2b9c" x="242.064" y="199.323765" style="fill: #ff0000; stroke: #ff0000"/>
    </g>
   </g>
   <g id="line2d_16">
    <path d="M 59.04 93.493932 
L 63.798624 91.757301 
L 67.825152 90.514612 
L 71.485632 89.601497 
L 75.146112 88.927173 
L 78.440544 88.550587 
L 81.734976 88.415533 
L 84.66336 88.515422 
L 87.591744 88.836333 
L 90.520128 89.389614 
L 93.448512 90.183756 
L 96.376896 91.223441 
L 99.30528 92.508477 
L 102.233664 94.033431 
L 105.528096 96.023415 
L 108.822528 98.285514 
L 112.483008 101.09012 
L 116.509536 104.488241 
L 120.902112 108.511785 
L 126.026784 113.535743 
L 132.2496 119.967719 
L 145.06128 133.639951 
L 153.846432 142.82263 
L 160.801344 149.776837 
L 167.390208 156.05427 
L 173.979072 162.01583 
L 180.201888 167.355002 
L 186.424704 172.410106 
L 192.64752 177.172878 
L 198.504288 181.370643 
L 203.995008 185.029404 
L 209.11968 188.172371 
L 213.878304 190.824386 
L 218.27088 193.015133 
L 222.297408 194.780796 
L 225.957888 196.164171 
L 229.618368 197.318047 
L 233.278848 198.225809 
L 236.57328 198.820511 
L 239.867712 199.196573 
L 243.162144 199.350137 
L 246.456576 199.282529 
L 249.751008 199.000586 
L 253.411488 198.449621 
L 257.071968 197.667546 
L 261.098496 196.567357 
L 265.491072 195.11736 
L 270.249696 193.300639 
L 275.740416 190.954289 
L 282.32928 187.887588 
L 292.212576 183.013491 
L 308.318688 175.069579 
L 316.737792 171.170754 
L 324.4248 167.850163 
L 331.74576 164.929586 
L 338.700672 162.385664 
L 345.655584 160.068839 
L 352.976544 157.870876 
L 360.297504 155.909836 
L 367.984512 154.090455 
L 375.67152 152.498066 
L 383.724576 151.051265 
L 392.509728 149.703995 
L 401.660928 148.525674 
L 411.544224 147.474984 
L 422.525664 146.534744 
L 424.721952 146.371602 
L 424.721952 146.371602 
" clip-path="url(#p19cee66119)" style="fill: none; stroke-dasharray: 5.55,2.4; stroke-dashoffset: 0; stroke: #000000; stroke-width: 1.5"/>
   </g>
   <g id="patch_4">
    <path d="M 59.04 256.32 
L 59.04 34.56 
" style="fill: none; stroke: #000000; stroke-width: 0.8; stroke-linejoin: miter; stroke-linecap: square"/>
   </g>
   <g id="patch_5">
    <path d="M 425.088 256.32 
L 425.088 34.56 
" style="fill: none; stroke: #000000; stroke-width: 0.8; stroke-linejoin: miter; stroke-linecap: square"/>
   </g>
   <g id="patch_6">
    <path d="M 59.04 256.32 
L 425.088 256.32 
" style="fill: none; stroke: #000000; stroke-width: 0.8; stroke-linejoin: miter; stroke-linecap: square"/>
   </g>
   <g id="patch_7">
    <path d="M 59.04 34.56 
L 425.088 34.56 
" style="fill: none; stroke: #000000; stroke-width: 0.8; stroke-linejoin: miter; stroke-linecap: square"/>
   </g>
  </g>
 </g>
 <defs>
  <clipPath id="p19cee66119">
   <rect x="59.04" y="34.56" width="366.048" height="221.76"/>
  </clipPath>
 </defs>
</svg>
