<?xml version="1.0" encoding="utf-8" standalone="no"?>
<!DOCTYPE svg PUBLIC "-//W3C//DTD SVG 1.1//EN"
  "http://www.w3.org/Graphics/SVG/1.1/DTD/svg11.dtd">
<svg xmlns:xlink="http://www.w3.org/1999/xlink" width="576pt" height="360pt" viewBox="0 0 576 360" xmlns="http://www.w3.org/2000/svg" version="1.1">
 <metadata>
  <rdf:RDF xmlns:dc="http://purl.org/dc/elements/1.1/" xmlns:cc="http://creativecommons.org/ns#" xmlns:rdf="http://www.w3.org/1999/02/22-rdf-syntax-ns#">
   <cc:Work>
    <dc:type rdf:resource="http://purl.org/dc/dcmitype/StillImage"/>
    <dc:date>2024-12-10T16:12:52.325427</dc:date>
    <dc:format>image/svg+xml</dc:format>
    <dc:creator>
     <cc:Agent>
      <dc:title>Matplotlib v3.9.2, https://matplotlib.org/</dc:title>
     </cc:Agent>
    </dc:creator>
   </cc:Work>
  </rdf:RDF>
 </metadata>
 <defs>
  <style type="text/css">*{stroke-linejoin: round; stroke-linecap: butt}</style>
 </defs>
 <g id="figure_1">
  <g id="patch_1">
   <path d="M 0 360 
L 576 360 
L 576 0 
L 0 0 
z
" style="fill: #ffffff"/>
  </g>
  <g id="axes_1">
   <g id="patch_2">
    <path d="M 39.08 320.92 
L 565.2 320.92 
L 565.2 10.8 
L 39.08 10.8 
z
" style="fill: #ffffff"/>
   </g>
   <g id="patch_3">
    <path d="M 39.08 157.316932 
L 39.60612 156.574078 
L 40.13224 155.8299 
L 40.65836 155.084451 
L 41.18448 154.337784 
L 41.7106 153.589954 
L 42.23672 152.841016 
L 42.76284 152.091027 
L 43.28896 151.340044 
L 43.81508 150.588127 
L 44.3412 149.835334 
L 44.86732 149.081729 
L 45.39344 148.327371 
L 45.91956 147.572325 
L 46.44568 146.816656 
L 46.9718 146.060428 
L 47.49792 145.303709 
L 48.02404 144.546566 
L 48.55016 143.789069 
L 49.07628 143.031288 
L 49.6024 142.273294 
L 50.12852 141.51516 
L 50.65464 140.756961 
L 51.18076 139.99877 
L 51.70688 139.240665 
L 52.233 138.482724 
L 52.75912 137.725025 
L 53.28524 136.967648 
L 53.81136 136.210674 
L 54.33748 135.454188 
L 54.8636 134.698271 
L 55.38972 133.94301 
L 55.91584 133.188491 
L 56.44196 132.434802 
L 56.96808 131.682033 
L 57.4942 130.930272 
L 58.02032 130.179613 
L 58.54644 129.430149 
L 59.07256 128.681973 
L 59.59868 127.935182 
L 60.1248 127.189872 
L 60.65092 126.446143 
L 61.17704 125.704093 
L 61.70316 124.963824 
L 62.22928 124.225439 
L 62.7554 123.489041 
L 63.28152 122.754735 
L 63.80764 122.022628 
L 64.33376 121.292827 
L 64.85988 120.565443 
L 65.386 119.840585 
L 65.91212 119.118366 
L 66.43824 118.398899 
L 66.96436 117.682298 
L 67.49048 116.968679 
L 68.0166 116.258161 
L 68.54272 115.550861 
L 69.06884 114.8469 
L 69.59496 114.146399 
L 70.12108 113.449481 
L 70.6472 112.75627 
L 71.17332 112.066892 
L 71.69944 111.381473 
L 72.22556 110.700142 
L 72.75168 110.023027 
L 73.2778 109.35026 
L 73.80392 108.681972 
L 74.33004 108.018297 
L 74.85616 107.359369 
L 75.38228 106.705325 
L 75.9084 106.056301 
L 76.43452 105.412436 
L 76.96064 104.77387 
L 77.48676 104.140742 
L 78.01288 103.513196 
L 78.539 102.891374 
L 79.06512 102.275421 
L 79.59124 101.665483 
L 80.11736 101.061706 
L 80.64348 100.464238 
L 81.1696 99.873228 
L 81.69572 99.288827 
L 82.22184 98.711185 
L 82.74796 98.140456 
L 83.27408 97.576792 
L 83.8002 97.02035 
L 84.32632 96.471283 
L 84.85244 95.929751 
L 85.37856 95.395912 
L 85.90468 94.869926 
L 86.4308 94.351956 
L 86.95692 93.842166 
L 87.48304 93.340726 
L 88.00916 92.84781 
L 88.53528 92.363604 
L 89.0614 91.888312 
L 89.58752 91.422181 
L 90.11364 90.965574 
L 90.63976 90.519245 
L 91.16588 90.086269 
L 91.692 89.766631 
L 92.21812 90.4668 
L 92.74424 91.271598 
L 93.27036 92.080933 
L 93.79648 92.891725 
L 94.3226 93.70321 
L 94.84872 94.515021 
L 95.37484 95.326904 
L 95.90096 96.13865 
L 96.42708 96.950069 
L 96.9532 97.760981 
L 97.47932 98.571214 
L 98.00544 99.3806 
L 98.53156 100.188972 
L 99.05768 100.996169 
L 99.5838 101.802027 
L 100.10992 102.60639 
L 100.63604 103.409099 
L 101.16216 104.209998 
L 101.68828 105.008933 
L 102.2144 105.805751 
L 102.74052 106.600302 
L 103.26664 107.392436 
L 103.79276 108.182004 
L 104.31888 108.96886 
L 104.845 109.75286 
L 105.37112 110.533859 
L 105.89724 111.311717 
L 106.42336 112.086292 
L 106.94948 112.857446 
L 107.4756 113.625042 
L 108.00172 114.388946 
L 108.52784 115.149022 
L 109.05396 115.90514 
L 109.58008 116.657168 
L 110.1062 117.404979 
L 110.63232 118.148446 
L 111.15844 118.887442 
L 111.68456 119.621846 
L 112.21068 120.351535 
L 112.7368 121.07639 
L 113.26292 121.796293 
L 113.78904 122.511126 
L 114.31516 123.220778 
L 114.84128 123.925133 
L 115.3674 124.624083 
L 115.89352 125.317518 
L 116.41964 126.005331 
L 116.94576 126.687418 
L 117.47188 127.363676 
L 117.998 128.034002 
L 118.52412 128.698299 
L 119.05024 129.356468 
L 119.57636 130.008415 
L 120.10248 130.654046 
L 120.6286 131.29327 
L 121.15472 131.925999 
L 121.68084 132.552143 
L 122.20696 133.171619 
L 122.73308 133.784343 
L 123.2592 134.390233 
L 123.78532 134.989212 
L 124.31144 135.581201 
L 124.83756 136.166126 
L 125.36368 136.743914 
L 125.8898 137.314494 
L 126.41592 137.877799 
L 126.94204 138.43376 
L 127.46816 138.982315 
L 127.99428 139.5234 
L 128.5204 140.056956 
L 129.04652 140.582925 
L 129.57264 141.101252 
L 130.09876 141.611883 
L 130.62488 142.114766 
L 131.151 142.609854 
L 131.67712 143.097098 
L 132.20324 143.576456 
L 132.72936 144.047884 
L 133.25548 144.511343 
L 133.7816 144.966795 
L 134.30772 145.414205 
L 134.83384 145.853539 
L 135.35996 146.284768 
L 135.88608 146.707863 
L 136.4122 147.122797 
L 136.93832 147.529548 
L 137.46444 147.928094 
L 137.99056 148.318416 
L 138.51668 148.700498 
L 139.0428 149.074326 
L 139.56892 149.439889 
L 140.09504 149.797177 
L 140.62116 150.146184 
L 141.14728 150.486905 
L 141.6734 150.81934 
L 142.19952 151.143489 
L 142.72564 151.459356 
L 143.25176 151.766946 
L 143.77788 152.066268 
L 144.304 152.357334 
L 144.83012 152.640156 
L 145.35624 152.914752 
L 145.88236 153.181141 
L 146.40848 153.439344 
L 146.9346 153.689385 
L 147.46072 153.931292 
L 147.98684 154.165094 
L 148.51296 154.390824 
L 149.03908 154.608516 
L 149.5652 154.81821 
L 150.09132 155.019945 
L 150.61744 155.213765 
L 151.14356 155.399716 
L 151.66968 155.577849 
L 152.1958 155.748214 
L 152.72192 155.910867 
L 153.24804 156.065866 
L 153.77416 156.213271 
L 154.30028 156.353147 
L 154.8264 156.485559 
L 155.35252 156.610579 
L 155.87864 156.728278 
L 156.40476 156.838732 
L 156.93088 156.942021 
L 157.457 157.038226 
L 157.98312 157.127433 
L 158.50924 157.20973 
L 159.03536 157.285208 
L 159.56148 157.353963 
L 160.0876 157.416092 
L 160.61372 157.471697 
L 161.13984 157.520882 
L 161.66596 157.563756 
L 162.19208 157.600431 
L 162.7182 157.631021 
L 163.24432 157.655646 
L 163.77044 157.674429 
L 164.29656 157.687496 
L 164.82268 157.694979 
L 165.3488 157.697013 
L 165.87492 157.693741 
L 166.40104 157.68531 
L 166.92716 157.671877 
L 167.45328 157.653615 
L 167.9794 157.630717 
L 168.50552 157.603429 
L 169.03164 157.572118 
L 169.55776 157.537575 
L 170.08388 157.503052 
L 170.61 157.567268 
L 171.13612 158.571624 
L 171.66224 159.680222 
L 172.18836 160.79437 
L 172.71448 161.910772 
L 173.2406 163.028592 
L 173.76672 164.147413 
L 174.29284 165.266946 
L 174.81896 166.386948 
L 175.34508 167.507198 
L 175.8712 168.62749 
L 176.39732 169.747626 
L 176.92344 170.867416 
L 177.44956 171.98667 
L 177.97568 173.105208 
L 178.5018 174.222851 
L 179.02792 175.339422 
L 179.55404 176.454749 
L 180.08016 177.568664 
L 180.60628 178.681 
L 181.1324 179.791594 
L 181.65852 180.900285 
L 182.18464 182.006916 
L 182.71076 183.111331 
L 183.23688 184.213378 
L 183.763 185.312907 
L 184.28912 186.40977 
L 184.81524 187.503824 
L 185.34136 188.594925 
L 185.86748 189.682933 
L 186.3936 190.767712 
L 186.91972 191.849125 
L 187.44584 192.927041 
L 187.97196 194.001328 
L 188.49808 195.071858 
L 189.0242 196.138505 
L 189.55032 197.201146 
L 190.07644 198.259658 
L 190.60256 199.313923 
L 191.12868 200.363822 
L 191.6548 201.409241 
L 192.18092 202.450065 
L 192.70704 203.486185 
L 193.23316 204.51749 
L 193.75928 205.543874 
L 194.2854 206.56523 
L 194.81152 207.581455 
L 195.33764 208.592448 
L 195.86376 209.59811 
L 196.38988 210.598341 
L 196.916 211.593046 
L 197.44212 212.58213 
L 197.96824 213.565501 
L 198.49436 214.543067 
L 199.02048 215.51474 
L 199.5466 216.480432 
L 200.07272 217.440056 
L 200.59884 218.393529 
L 201.12496 219.340767 
L 201.65108 220.281689 
L 202.1772 221.216215 
L 202.70332 222.144267 
L 203.22944 223.065769 
L 203.75556 223.980644 
L 204.28168 224.88882 
L 204.8078 225.790222 
L 205.33392 226.684781 
L 205.86004 227.572425 
L 206.38616 228.453088 
L 206.91228 229.326701 
L 207.4384 230.193199 
L 207.96452 231.052516 
L 208.49064 231.90459 
L 209.01676 232.749359 
L 209.54288 233.58676 
L 210.069 234.416735 
L 210.59512 235.239225 
L 211.12124 236.054171 
L 211.64736 236.861518 
L 212.17348 237.66121 
L 212.6996 238.453194 
L 213.22572 239.237414 
L 213.75184 240.01382 
L 214.27796 240.78236 
L 214.80408 241.542984 
L 215.3302 242.295642 
L 215.85632 243.040286 
L 216.38244 243.776869 
L 216.90856 244.505345 
L 217.43468 245.225667 
L 217.9608 245.937791 
L 218.48692 246.641673 
L 219.01304 247.33727 
L 219.53916 248.02454 
L 220.06528 248.703442 
L 220.5914 249.373935 
L 221.11752 250.03598 
L 221.64364 250.689537 
L 222.16976 251.334568 
L 222.69588 251.971036 
L 223.222 252.598905 
L 223.74812 253.218137 
L 224.27424 253.828698 
L 224.80036 254.430553 
L 225.32648 255.023668 
L 225.8526 255.60801 
L 226.37872 256.183547 
L 226.90484 256.750246 
L 227.43096 257.308076 
L 227.95708 257.857006 
L 228.4832 258.397007 
L 229.00932 258.928048 
L 229.53544 259.450101 
L 230.06156 259.963138 
L 230.58768 260.46713 
L 231.1138 260.962051 
L 231.63992 261.447875 
L 232.16604 261.924574 
L 232.69216 262.392123 
L 233.21828 262.850498 
L 233.7444 263.299674 
L 234.27052 263.739626 
L 234.79664 264.170333 
L 235.32276 264.59177 
L 235.84888 265.003915 
L 236.375 265.406746 
L 236.90112 265.800243 
L 237.42724 266.184383 
L 237.95336 266.559147 
L 238.47948 266.924514 
L 239.0056 267.280465 
L 239.53172 267.626982 
L 240.05784 267.964044 
L 240.58396 268.291635 
L 241.11008 268.609737 
L 241.6362 268.918332 
L 242.16232 269.217404 
L 242.68844 269.506937 
L 243.21456 269.786915 
L 243.74068 270.057322 
L 244.2668 270.318144 
L 244.79292 270.569366 
L 245.31904 270.810975 
L 245.84516 271.042956 
L 246.37128 271.265298 
L 246.8974 271.477987 
L 247.42352 271.681011 
L 247.94964 271.874359 
L 248.47576 272.05802 
L 249.00188 272.231983 
L 249.528 272.396238 
L 250.05412 272.550775 
L 250.58024 272.695586 
L 251.10636 272.83066 
L 251.63248 272.955992 
L 252.1586 273.071572 
L 252.68472 273.177393 
L 253.21084 273.273449 
L 253.73696 273.359734 
L 254.26308 273.436243 
L 254.7892 273.50297 
L 255.31532 273.55991 
L 255.84144 273.607061 
L 256.36756 273.644418 
L 256.89368 273.671979 
L 257.4198 273.689742 
L 257.94592 273.697705 
L 258.47204 273.695867 
L 258.99816 273.684228 
L 259.52428 273.662789 
L 260.0504 273.631549 
L 260.57652 273.590511 
L 261.10264 273.539678 
L 261.62876 273.479051 
L 262.15488 273.408635 
L 262.681 273.328434 
L 263.20712 273.238453 
L 263.73324 273.138698 
L 264.25936 273.029176 
L 264.78548 272.909893 
L 265.3116 272.780858 
L 265.83772 272.642081 
L 266.36384 272.49357 
L 266.88996 272.335336 
L 267.41608 272.167391 
L 267.9422 271.989747 
L 268.46832 271.802418 
L 268.99444 271.605417 
L 269.52056 271.398759 
L 270.04668 271.182461 
L 270.5728 270.956539 
L 271.09892 270.721012 
L 271.62504 270.475899 
L 272.15116 270.221218 
L 272.67728 269.956993 
L 273.2034 269.683244 
L 273.72952 269.399995 
L 274.25564 269.107271 
L 274.78176 268.805097 
L 275.30788 268.4935 
L 275.834 268.172508 
L 276.36012 267.84215 
L 276.88624 267.502456 
L 277.41236 267.153459 
L 277.93848 266.795191 
L 278.4646 266.427687 
L 278.99072 266.050982 
L 279.51684 265.665115 
L 280.04296 265.270123 
L 280.56908 264.866046 
L 281.0952 264.452927 
L 281.62132 264.030808 
L 282.14744 263.599734 
L 282.67356 263.159751 
L 283.19968 262.710907 
L 283.7258 262.253253 
L 284.25192 261.786839 
L 284.77804 261.311717 
L 285.30416 260.827944 
L 285.83028 260.335576 
L 286.3564 259.83467 
L 286.88252 259.325288 
L 287.40864 258.807491 
L 287.93476 258.281345 
L 288.46088 257.746915 
L 288.987 257.204269 
L 289.51312 256.653478 
L 290.03924 256.094615 
L 290.56536 255.527754 
L 291.09148 254.952973 
L 291.6176 254.37035 
L 292.14372 253.779968 
L 292.66984 253.18191 
L 293.19596 252.576263 
L 293.72208 251.963117 
L 294.2482 251.342563 
L 294.77432 250.714695 
L 295.30044 250.079612 
L 295.82656 249.437415 
L 296.35268 248.788206 
L 296.8788 248.132094 
L 297.40492 247.469191 
L 297.93104 246.799614 
L 298.45716 246.123489 
L 298.98328 245.44095 
L 299.5094 244.752153 
L 300.03552 244.057291 
L 300.56164 243.356654 
L 301.08776 242.650866 
L 301.61388 241.942506 
L 302.14 241.335111 
L 302.66612 241.98042 
L 303.19224 242.730131 
L 303.71836 243.480741 
L 304.24448 244.229681 
L 304.7706 244.976336 
L 305.29672 245.720425 
L 305.82284 246.461765 
L 306.34896 247.20021 
L 306.87508 247.935636 
L 307.4012 248.667928 
L 307.92732 249.396978 
L 308.45344 250.122686 
L 308.97956 250.844953 
L 309.50568 251.563688 
L 310.0318 252.278801 
L 310.55792 252.990205 
L 311.08404 253.697818 
L 311.61016 254.401558 
L 312.13628 255.10135 
L 312.6624 255.797118 
L 313.18852 256.488791 
L 313.71464 257.176299 
L 314.24076 257.859576 
L 314.76688 258.538557 
L 315.293 259.213182 
L 315.81912 259.883389 
L 316.34524 260.549124 
L 316.87136 261.210329 
L 317.39748 261.866954 
L 317.9236 262.518948 
L 318.44972 263.166263 
L 318.97584 263.808852 
L 319.50196 264.446672 
L 320.02808 265.079681 
L 320.5542 265.707838 
L 321.08032 266.331106 
L 321.60644 266.949449 
L 322.13256 267.562832 
L 322.65868 268.171223 
L 323.1848 268.774591 
L 323.71092 269.372908 
L 324.23704 269.966146 
L 324.76316 270.55428 
L 325.28928 271.137286 
L 325.8154 271.715143 
L 326.34152 272.287828 
L 326.86764 272.855324 
L 327.39376 273.417612 
L 327.91988 273.974677 
L 328.446 274.526505 
L 328.97212 275.073081 
L 329.49824 275.614395 
L 330.02436 276.150436 
L 330.55048 276.681195 
L 331.0766 277.206664 
L 331.60272 277.726837 
L 332.12884 278.241708 
L 332.65496 278.751274 
L 333.18108 279.255532 
L 333.7072 279.754481 
L 334.23332 280.248119 
L 334.75944 280.736447 
L 335.28556 281.219468 
L 335.81168 281.697184 
L 336.3378 282.169599 
L 336.86392 282.636717 
L 337.39004 283.098545 
L 337.91616 283.555089 
L 338.44228 284.006358 
L 338.9684 284.45236 
L 339.49452 284.893104 
L 340.02064 285.3286 
L 340.54676 285.758862 
L 341.07288 286.183899 
L 341.599 286.603726 
L 342.12512 287.018356 
L 342.65124 287.427803 
L 343.17736 287.832084 
L 343.70348 288.231213 
L 344.2296 288.625208 
L 344.75572 289.014085 
L 345.28184 289.397864 
L 345.80796 289.776562 
L 346.33408 290.150199 
L 346.8602 290.518795 
L 347.38632 290.88237 
L 347.91244 291.240946 
L 348.43856 291.594544 
L 348.96468 291.943186 
L 349.4908 292.286896 
L 350.01692 292.625696 
L 350.54304 292.95961 
L 351.06916 293.288662 
L 351.59528 293.612878 
L 352.1214 293.932281 
L 352.64752 294.246898 
L 353.17364 294.556755 
L 353.69976 294.861879 
L 354.22588 295.162294 
L 354.752 295.45803 
L 355.27812 295.749114 
L 355.80424 296.035572 
L 356.33036 296.317434 
L 356.85648 296.594729 
L 357.3826 296.867483 
L 357.90872 297.135728 
L 358.43484 297.399492 
L 358.96096 297.658805 
L 359.48708 297.913697 
L 360.0132 298.164198 
L 360.53932 298.410338 
L 361.06544 298.652148 
L 361.59156 298.889659 
L 362.11768 299.122902 
L 362.6438 299.351908 
L 363.16992 299.576708 
L 363.69604 299.797334 
L 364.22216 300.013818 
L 364.74828 300.226192 
L 365.2744 300.434487 
L 365.80052 300.638736 
L 366.32664 300.838971 
L 366.85276 301.035225 
L 367.37888 301.227529 
L 367.905 301.415917 
L 368.43112 301.600421 
L 368.95724 301.781075 
L 369.48336 301.95791 
L 370.00948 302.130959 
L 370.5356 302.300256 
L 371.06172 302.465834 
L 371.58784 302.627726 
L 372.11396 302.785964 
L 372.64008 302.940582 
L 373.1662 303.091612 
L 373.69232 303.239089 
L 374.21844 303.383045 
L 374.74456 303.523513 
L 375.27068 303.660526 
L 375.7968 303.794118 
L 376.32292 303.924322 
L 376.84904 304.051169 
L 377.37516 304.174695 
L 377.90128 304.294931 
L 378.4274 304.41191 
L 378.95352 304.525666 
L 379.47964 304.636231 
L 380.00576 304.743639 
L 380.53188 304.84792 
L 381.058 304.94911 
L 381.58412 305.047239 
L 382.11024 305.14234 
L 382.63636 305.234446 
L 383.16248 305.32359 
L 383.6886 305.409802 
L 384.21472 305.493117 
L 384.74084 305.573564 
L 385.26696 305.651178 
L 385.79308 305.725988 
L 386.3192 305.798028 
L 386.84532 305.867328 
L 387.37144 305.93392 
L 387.89756 305.997835 
L 388.42368 306.059105 
L 388.9498 306.117761 
L 389.47592 306.173833 
L 390.00204 306.227353 
L 390.52816 306.278351 
L 391.05428 306.326858 
L 391.5804 306.372905 
L 392.10652 306.41652 
L 392.63264 306.457735 
L 393.15876 306.49658 
L 393.68488 306.533084 
L 394.211 306.567277 
L 394.73712 306.599189 
L 395.26324 306.628848 
L 395.78936 306.656285 
L 396.31548 306.681527 
L 396.8416 306.704605 
L 397.36772 306.725546 
L 397.89384 306.744379 
L 398.41996 306.761132 
L 398.94608 306.775834 
L 399.4722 306.788512 
L 399.99832 306.799195 
L 400.52444 306.80791 
L 401.05056 306.814685 
L 401.57668 306.819546 
L 402.1028 306.822521 
L 402.62892 306.823636 
L 403.15504 306.82292 
L 403.68116 306.820397 
L 404.20728 306.816094 
L 404.7334 306.810038 
L 405.25952 306.802255 
L 405.78564 306.79277 
L 406.31176 306.781609 
L 406.83788 306.768797 
L 407.364 306.75436 
L 407.89012 306.738322 
L 408.41624 306.720709 
L 408.94236 306.701545 
L 409.46848 306.680854 
L 409.9946 306.658661 
L 410.52072 306.634991 
L 411.04684 306.609865 
L 411.57296 306.583309 
L 412.09908 306.555346 
L 412.6252 306.526 
L 413.15132 306.495292 
L 413.67744 306.463247 
L 414.20356 306.429886 
L 414.72968 306.395233 
L 415.2558 306.359309 
L 415.78192 306.322138 
L 416.30804 306.283739 
L 416.83416 306.244137 
L 417.36028 306.203351 
L 417.8864 306.161404 
L 418.41252 306.118315 
L 418.93864 306.074108 
L 419.46476 306.028801 
L 419.99088 305.982416 
L 420.517 305.934973 
L 421.04312 305.886492 
L 421.56924 305.836994 
L 422.09536 305.786497 
L 422.62148 305.735021 
L 423.1476 305.682587 
L 423.67372 305.629213 
L 424.19984 305.574917 
L 424.72596 305.51972 
L 425.25208 305.463639 
L 425.7782 305.406693 
L 426.30432 305.348901 
L 426.83044 305.290279 
L 427.35656 305.230847 
L 427.88268 305.170622 
L 428.4088 305.109621 
L 428.93492 305.047862 
L 429.46104 304.985361 
L 429.98716 304.922136 
L 430.51328 304.858204 
L 431.0394 304.793581 
L 431.56552 304.728283 
L 432.09164 304.662327 
L 432.61776 304.595729 
L 433.14388 304.528504 
L 433.67 304.460668 
L 434.19612 304.392238 
L 434.72224 304.323227 
L 435.24836 304.253652 
L 435.77448 304.183526 
L 436.3006 304.112866 
L 436.82672 304.041685 
L 437.35284 303.969999 
L 437.87896 303.897821 
L 438.40508 303.825165 
L 438.9312 303.752045 
L 439.45732 303.678476 
L 439.98344 303.604471 
L 440.50956 303.530042 
L 441.03568 303.455204 
L 441.5618 303.37997 
L 442.08792 303.304352 
L 442.61404 303.228364 
L 443.14016 303.152017 
L 443.66628 303.075325 
L 444.1924 302.998299 
L 444.71852 302.920952 
L 445.24464 302.843296 
L 445.77076 302.765342 
L 446.29688 302.687103 
L 446.823 302.60859 
L 447.34912 302.529813 
L 447.87524 302.450785 
L 448.40136 302.371517 
L 448.92748 302.292018 
L 449.4536 302.212301 
L 449.97972 302.132376 
L 450.50584 302.052252 
L 451.03196 301.971941 
L 451.55808 301.891453 
L 452.0842 301.810797 
L 452.61032 301.729984 
L 453.13644 301.649023 
L 453.66256 301.567924 
L 454.18868 301.486697 
L 454.7148 301.40535 
L 455.24092 301.323894 
L 455.76704 301.242336 
L 456.29316 301.160686 
L 456.81928 301.078953 
L 457.3454 300.997145 
L 457.87152 300.915271 
L 458.39764 300.833339 
L 458.92376 300.751358 
L 459.44988 300.669336 
L 459.976 300.58728 
L 460.50212 300.505199 
L 461.02824 300.423101 
L 461.55436 300.340992 
L 462.08048 300.258881 
L 462.6066 300.176775 
L 463.13272 300.094681 
L 463.65884 300.012607 
L 464.18496 299.930559 
L 464.71108 299.848545 
L 465.2372 299.76657 
L 465.76332 299.684643 
L 466.28944 299.602769 
L 466.81556 299.520955 
L 467.34168 299.439207 
L 467.8678 299.357532 
L 468.39392 299.275936 
L 468.92004 299.194425 
L 469.44616 299.113004 
L 469.97228 299.03168 
L 470.4984 298.950458 
L 471.02452 298.869343 
L 471.55064 298.788343 
L 472.07676 298.707461 
L 472.60288 298.626703 
L 473.129 298.546074 
L 473.65512 298.46558 
L 474.18124 298.385226 
L 474.70736 298.305016 
L 475.23348 298.224955 
L 475.7596 298.145048 
L 476.28572 298.065299 
L 476.81184 297.985714 
L 477.33796 297.906296 
L 477.86408 297.827051 
L 478.3902 297.747981 
L 478.91632 297.669092 
L 479.44244 297.590388 
L 479.96856 297.511872 
L 480.49468 297.433549 
L 481.0208 297.355422 
L 481.54692 297.277495 
L 482.07304 297.199772 
L 482.59916 297.122256 
L 483.12528 297.044951 
L 483.6514 296.967861 
L 484.17752 296.890988 
L 484.70364 296.814337 
L 485.22976 296.737909 
L 485.75588 296.66171 
L 486.282 296.58574 
L 486.80812 296.510004 
L 487.33424 296.434504 
L 487.86036 296.359244 
L 488.38648 296.284225 
L 488.9126 296.209451 
L 489.43872 296.134924 
L 489.96484 296.060648 
L 490.49096 295.986623 
L 491.01708 295.912853 
L 491.5432 295.839341 
L 492.06932 295.766088 
L 492.59544 295.693096 
L 493.12156 295.620369 
L 493.64768 295.547907 
L 494.1738 295.475714 
L 494.69992 295.40379 
L 495.22604 295.332139 
L 495.75216 295.260761 
L 496.27828 295.189658 
L 496.8044 295.118834 
L 497.33052 295.048288 
L 497.85664 294.978023 
L 498.38276 294.90804 
L 498.90888 294.838341 
L 499.435 294.768927 
L 499.96112 294.6998 
L 500.48724 294.630961 
L 501.01336 294.562411 
L 501.53948 294.494152 
L 502.0656 294.426185 
L 502.59172 294.358511 
L 503.11784 294.291131 
L 503.64396 294.224046 
L 504.17008 294.157258 
L 504.6962 294.090767 
L 505.22232 294.024574 
L 505.74844 293.95868 
L 506.27456 293.893086 
L 506.80068 293.827793 
L 507.3268 293.762801 
L 507.85292 293.698111 
L 508.37904 293.633725 
L 508.90516 293.569641 
L 509.43128 293.505862 
L 509.9574 293.442388 
L 510.48352 293.379218 
L 511.00964 293.316354 
L 511.53576 293.253797 
L 512.06188 293.191545 
L 512.588 293.129601 
L 513.11412 293.067963 
L 513.64024 293.006633 
L 514.16636 292.945611 
L 514.69248 292.884897 
L 515.2186 292.824491 
L 515.74472 292.764393 
L 516.27084 292.704603 
L 516.79696 292.645122 
L 517.32308 292.585949 
L 517.8492 292.527085 
L 518.37532 292.468529 
L 518.90144 292.410282 
L 519.42756 292.352343 
L 519.95368 292.294713 
L 520.4798 292.23739 
L 521.00592 292.180376 
L 521.53204 292.12367 
L 522.05816 292.067271 
L 522.58428 292.01118 
L 523.1104 291.955396 
L 523.63652 291.899919 
L 524.16264 291.844749 
L 524.68876 291.789884 
L 525.21488 291.735326 
L 525.741 291.681073 
L 526.26712 291.627126 
L 526.79324 291.573483 
L 527.31936 291.520144 
L 527.84548 291.46711 
L 528.3716 291.414378 
L 528.89772 291.361949 
L 529.42384 291.309823 
L 529.94996 291.257998 
L 530.47608 291.206475 
L 531.0022 291.155252 
L 531.52832 291.104329 
L 532.05444 291.053705 
L 532.58056 291.00338 
L 533.10668 290.953353 
L 533.6328 290.903623 
L 534.15892 290.85419 
L 534.68504 290.805053 
L 535.21116 290.756211 
L 535.73728 290.707663 
L 536.2634 290.659409 
L 536.78952 290.611448 
L 537.31564 290.563779 
L 537.84176 290.516401 
L 538.36788 290.469314 
L 538.894 290.422517 
L 539.42012 290.376008 
L 539.94624 290.329788 
L 540.47236 290.283854 
L 540.99848 290.238206 
L 541.5246 290.192844 
L 542.05072 290.147766 
L 542.57684 290.102972 
L 543.10296 290.05846 
L 543.62908 290.01423 
L 544.1552 289.970281 
L 544.68132 289.926611 
L 545.20744 289.883219 
L 545.73356 289.840106 
L 546.25968 289.797269 
L 546.7858 289.754708 
L 547.31192 289.712422 
L 547.83804 289.670409 
L 548.36416 289.628669 
L 548.89028 289.587201 
L 549.4164 289.546003 
L 549.94252 289.505075 
L 550.46864 289.464415 
L 550.99476 289.424022 
L 551.52088 289.383896 
L 552.047 289.344036 
L 552.57312 289.304439 
L 553.09924 289.265105 
L 553.62536 289.226034 
L 554.15148 289.187223 
L 554.6776 289.148672 
L 555.20372 289.11038 
L 555.72984 289.072345 
L 556.25596 289.034567 
L 556.78208 288.997044 
L 557.3082 288.959775 
L 557.83432 288.922759 
L 558.36044 288.885995 
L 558.88656 288.849482 
L 559.41268 288.813218 
L 559.9388 288.777203 
L 560.46492 288.741435 
L 560.99104 288.705913 
L 561.51716 288.670636 
L 562.04328 288.635603 
L 562.5694 288.600813 
L 563.09552 288.566264 
L 563.62164 288.531955 
L 564.14776 288.497885 
L 564.67388 288.464054 
L 564.67388 45.861543 
L 564.14776 45.902273 
L 563.62164 45.943355 
L 563.09552 45.98479 
L 562.5694 46.026582 
L 562.04328 46.068735 
L 561.51716 46.11125 
L 560.99104 46.154132 
L 560.46492 46.197382 
L 559.9388 46.241005 
L 559.41268 46.285003 
L 558.88656 46.329379 
L 558.36044 46.374137 
L 557.83432 46.41928 
L 557.3082 46.464811 
L 556.78208 46.510733 
L 556.25596 46.55705 
L 555.72984 46.603765 
L 555.20372 46.650881 
L 554.6776 46.698401 
L 554.15148 46.746329 
L 553.62536 46.794669 
L 553.09924 46.843424 
L 552.57312 46.892597 
L 552.047 46.942191 
L 551.52088 46.992211 
L 550.99476 47.04266 
L 550.46864 47.093541 
L 549.94252 47.144858 
L 549.4164 47.196615 
L 548.89028 47.248815 
L 548.36416 47.301463 
L 547.83804 47.354561 
L 547.31192 47.408113 
L 546.7858 47.462124 
L 546.25968 47.516597 
L 545.73356 47.571536 
L 545.20744 47.626945 
L 544.68132 47.682827 
L 544.1552 47.739188 
L 543.62908 47.79603 
L 543.10296 47.853358 
L 542.57684 47.911175 
L 542.05072 47.969487 
L 541.5246 48.028296 
L 540.99848 48.087607 
L 540.47236 48.147425 
L 539.94624 48.207753 
L 539.42012 48.268596 
L 538.894 48.329957 
L 538.36788 48.391842 
L 537.84176 48.454255 
L 537.31564 48.517199 
L 536.78952 48.58068 
L 536.2634 48.644702 
L 535.73728 48.709269 
L 535.21116 48.774386 
L 534.68504 48.840057 
L 534.15892 48.906288 
L 533.6328 48.973081 
L 533.10668 49.040444 
L 532.58056 49.108379 
L 532.05444 49.176891 
L 531.52832 49.245987 
L 531.0022 49.315669 
L 530.47608 49.385944 
L 529.94996 49.456816 
L 529.42384 49.528289 
L 528.89772 49.60037 
L 528.3716 49.673062 
L 527.84548 49.746372 
L 527.31936 49.820303 
L 526.79324 49.894862 
L 526.26712 49.970053 
L 525.741 50.045881 
L 525.21488 50.122352 
L 524.68876 50.199471 
L 524.16264 50.277244 
L 523.63652 50.355675 
L 523.1104 50.434771 
L 522.58428 50.514536 
L 522.05816 50.594976 
L 521.53204 50.676096 
L 521.00592 50.757903 
L 520.4798 50.840402 
L 519.95368 50.923598 
L 519.42756 51.007497 
L 518.90144 51.092106 
L 518.37532 51.177428 
L 517.8492 51.263472 
L 517.32308 51.350242 
L 516.79696 51.437744 
L 516.27084 51.525985 
L 515.74472 51.61497 
L 515.2186 51.704705 
L 514.69248 51.795197 
L 514.16636 51.886451 
L 513.64024 51.978475 
L 513.11412 52.071273 
L 512.588 52.164853 
L 512.06188 52.259221 
L 511.53576 52.354383 
L 511.00964 52.450345 
L 510.48352 52.547115 
L 509.9574 52.644698 
L 509.43128 52.743101 
L 508.90516 52.842331 
L 508.37904 52.942395 
L 507.85292 53.043299 
L 507.3268 53.14505 
L 506.80068 53.247654 
L 506.27456 53.35112 
L 505.74844 53.455453 
L 505.22232 53.560661 
L 504.6962 53.66675 
L 504.17008 53.773728 
L 503.64396 53.881602 
L 503.11784 53.990379 
L 502.59172 54.100066 
L 502.0656 54.210671 
L 501.53948 54.322201 
L 501.01336 54.434663 
L 500.48724 54.548065 
L 499.96112 54.662414 
L 499.435 54.777718 
L 498.90888 54.893984 
L 498.38276 55.011221 
L 497.85664 55.129435 
L 497.33052 55.248635 
L 496.8044 55.368828 
L 496.27828 55.490023 
L 495.75216 55.612226 
L 495.22604 55.735447 
L 494.69992 55.859693 
L 494.1738 55.984973 
L 493.64768 56.111294 
L 493.12156 56.238664 
L 492.59544 56.367093 
L 492.06932 56.496588 
L 491.5432 56.627157 
L 491.01708 56.75881 
L 490.49096 56.891554 
L 489.96484 57.025399 
L 489.43872 57.160352 
L 488.9126 57.296423 
L 488.38648 57.433619 
L 487.86036 57.571951 
L 487.33424 57.711427 
L 486.80812 57.852055 
L 486.282 57.993845 
L 485.75588 58.136805 
L 485.22976 58.280945 
L 484.70364 58.426274 
L 484.17752 58.572801 
L 483.6514 58.720535 
L 483.12528 58.869486 
L 482.59916 59.019663 
L 482.07304 59.171075 
L 481.54692 59.323732 
L 481.0208 59.477643 
L 480.49468 59.632818 
L 479.96856 59.789268 
L 479.44244 59.947 
L 478.91632 60.106026 
L 478.3902 60.266354 
L 477.86408 60.427996 
L 477.33796 60.59096 
L 476.81184 60.755258 
L 476.28572 60.920898 
L 475.7596 61.087891 
L 475.23348 61.256248 
L 474.70736 61.425979 
L 474.18124 61.597093 
L 473.65512 61.769601 
L 473.129 61.943515 
L 472.60288 62.118843 
L 472.07676 62.295598 
L 471.55064 62.473788 
L 471.02452 62.653426 
L 470.4984 62.834522 
L 469.97228 63.017086 
L 469.44616 63.20113 
L 468.92004 63.386665 
L 468.39392 63.5737 
L 467.8678 63.762249 
L 467.34168 63.95232 
L 466.81556 64.143927 
L 466.28944 64.337079 
L 465.76332 64.531788 
L 465.2372 64.728066 
L 464.71108 64.925924 
L 464.18496 65.125373 
L 463.65884 65.326425 
L 463.13272 65.529092 
L 462.6066 65.733384 
L 462.08048 65.939314 
L 461.55436 66.146894 
L 461.02824 66.356135 
L 460.50212 66.567049 
L 459.976 66.779648 
L 459.44988 66.993943 
L 458.92376 67.209948 
L 458.39764 67.427674 
L 457.87152 67.647133 
L 457.3454 67.868337 
L 456.81928 68.091298 
L 456.29316 68.31603 
L 455.76704 68.542543 
L 455.24092 68.770852 
L 454.7148 69.000967 
L 454.18868 69.232901 
L 453.66256 69.466668 
L 453.13644 69.702279 
L 452.61032 69.939747 
L 452.0842 70.179085 
L 451.55808 70.420306 
L 451.03196 70.663422 
L 450.50584 70.908446 
L 449.97972 71.155392 
L 449.4536 71.404271 
L 448.92748 71.655098 
L 448.40136 71.907884 
L 447.87524 72.162644 
L 447.34912 72.41939 
L 446.823 72.678135 
L 446.29688 72.938893 
L 445.77076 73.201676 
L 445.24464 73.466498 
L 444.71852 73.733373 
L 444.1924 74.002313 
L 443.66628 74.273332 
L 443.14016 74.546443 
L 442.61404 74.821661 
L 442.08792 75.098997 
L 441.5618 75.378467 
L 441.03568 75.660082 
L 440.50956 75.943858 
L 439.98344 76.229807 
L 439.45732 76.517944 
L 438.9312 76.808281 
L 438.40508 77.100833 
L 437.87896 77.395613 
L 437.35284 77.692635 
L 436.82672 77.991912 
L 436.3006 78.293459 
L 435.77448 78.59729 
L 435.24836 78.903417 
L 434.72224 79.211856 
L 434.19612 79.522619 
L 433.67 79.835721 
L 433.14388 80.151175 
L 432.61776 80.468996 
L 432.09164 80.789197 
L 431.56552 81.111792 
L 431.0394 81.436795 
L 430.51328 81.764221 
L 429.98716 82.094082 
L 429.46104 82.426393 
L 428.93492 82.761168 
L 428.4088 83.09842 
L 427.88268 83.438164 
L 427.35656 83.780414 
L 426.83044 84.125183 
L 426.30432 84.472485 
L 425.7782 84.822334 
L 425.25208 85.174744 
L 424.72596 85.529729 
L 424.19984 85.887303 
L 423.67372 86.247479 
L 423.1476 86.610272 
L 422.62148 86.975694 
L 422.09536 87.34376 
L 421.56924 87.714484 
L 421.04312 88.087878 
L 420.517 88.463957 
L 419.99088 88.842735 
L 419.46476 89.224224 
L 418.93864 89.608439 
L 418.41252 89.995393 
L 417.8864 90.385099 
L 417.36028 90.77757 
L 416.83416 91.172821 
L 416.30804 91.570864 
L 415.78192 91.971712 
L 415.2558 92.375378 
L 414.72968 92.781877 
L 414.20356 93.19122 
L 413.67744 93.603421 
L 413.15132 94.018492 
L 412.6252 94.436446 
L 412.09908 94.857297 
L 411.57296 95.281056 
L 411.04684 95.707736 
L 410.52072 96.13735 
L 409.9946 96.56991 
L 409.46848 97.005429 
L 408.94236 97.443918 
L 408.41624 97.885389 
L 407.89012 98.329855 
L 407.364 98.777327 
L 406.83788 99.227818 
L 406.31176 99.681338 
L 405.78564 100.137899 
L 405.25952 100.597514 
L 404.7334 101.060192 
L 404.20728 101.525944 
L 403.68116 101.994783 
L 403.15504 102.466719 
L 402.62892 102.941763 
L 402.1028 103.419924 
L 401.57668 103.901214 
L 401.05056 104.385643 
L 400.52444 104.87322 
L 399.99832 105.363956 
L 399.4722 105.85786 
L 398.94608 106.354943 
L 398.41996 106.855213 
L 397.89384 107.358679 
L 397.36772 107.865351 
L 396.8416 108.375237 
L 396.31548 108.888347 
L 395.78936 109.404687 
L 395.26324 109.924267 
L 394.73712 110.447095 
L 394.211 110.973178 
L 393.68488 111.502524 
L 393.15876 112.03514 
L 392.63264 112.571033 
L 392.10652 113.110211 
L 391.5804 113.652679 
L 391.05428 114.198444 
L 390.52816 114.747512 
L 390.00204 115.299889 
L 389.47592 115.85558 
L 388.9498 116.414591 
L 388.42368 116.976926 
L 387.89756 117.542591 
L 387.37144 118.11159 
L 386.84532 118.683927 
L 386.3192 119.259605 
L 385.79308 119.838628 
L 385.26696 120.421 
L 384.74084 121.006723 
L 384.21472 121.595799 
L 383.6886 122.188231 
L 383.16248 122.784021 
L 382.63636 123.383171 
L 382.11024 123.98568 
L 381.58412 124.591551 
L 381.058 125.200783 
L 380.53188 125.813377 
L 380.00576 126.429332 
L 379.47964 127.048647 
L 378.95352 127.671321 
L 378.4274 128.297354 
L 377.90128 128.926742 
L 377.37516 129.559483 
L 376.84904 130.195574 
L 376.32292 130.835013 
L 375.7968 131.477796 
L 375.27068 132.123918 
L 374.74456 132.773374 
L 374.21844 133.426161 
L 373.69232 134.082271 
L 373.1662 134.7417 
L 372.64008 135.40444 
L 372.11396 136.070485 
L 371.58784 136.739827 
L 371.06172 137.412459 
L 370.5356 138.08837 
L 370.00948 138.767553 
L 369.48336 139.449998 
L 368.95724 140.135695 
L 368.43112 140.824632 
L 367.905 141.516799 
L 367.37888 142.212184 
L 366.85276 142.910774 
L 366.32664 143.612556 
L 365.80052 144.317517 
L 365.2744 145.025643 
L 364.74828 145.736918 
L 364.22216 146.451327 
L 363.69604 147.168854 
L 363.16992 147.889483 
L 362.6438 148.613195 
L 362.11768 149.339973 
L 361.59156 150.069798 
L 361.06544 150.80265 
L 360.53932 151.53851 
L 360.0132 152.277357 
L 359.48708 153.019169 
L 358.96096 153.763924 
L 358.43484 154.5116 
L 357.90872 155.262171 
L 357.3826 156.015614 
L 356.85648 156.771904 
L 356.33036 157.531015 
L 355.80424 158.29292 
L 355.27812 159.057592 
L 354.752 159.825002 
L 354.22588 160.595121 
L 353.69976 161.367919 
L 353.17364 162.143366 
L 352.64752 162.921429 
L 352.1214 163.702078 
L 351.59528 164.485278 
L 351.06916 165.270995 
L 350.54304 166.059194 
L 350.01692 166.84984 
L 349.4908 167.642895 
L 348.96468 168.438322 
L 348.43856 169.236083 
L 347.91244 170.036138 
L 347.38632 170.838446 
L 346.8602 171.642967 
L 346.33408 172.449658 
L 345.80796 173.258475 
L 345.28184 174.069375 
L 344.75572 174.882313 
L 344.2296 175.697242 
L 343.70348 176.514115 
L 343.17736 177.332884 
L 342.65124 178.153499 
L 342.12512 178.975912 
L 341.599 179.80007 
L 341.07288 180.625921 
L 340.54676 181.453411 
L 340.02064 182.282488 
L 339.49452 183.113095 
L 338.9684 183.945175 
L 338.44228 184.778671 
L 337.91616 185.613525 
L 337.39004 186.449676 
L 336.86392 187.287065 
L 336.3378 188.125628 
L 335.81168 188.965303 
L 335.28556 189.806025 
L 334.75944 190.64773 
L 334.23332 191.49035 
L 333.7072 192.333818 
L 333.18108 193.178065 
L 332.65496 194.023022 
L 332.12884 194.868616 
L 331.60272 195.714776 
L 331.0766 196.561428 
L 330.55048 197.408498 
L 330.02436 198.255909 
L 329.49824 199.103585 
L 328.97212 199.951446 
L 328.446 200.799414 
L 327.91988 201.647408 
L 327.39376 202.495346 
L 326.86764 203.343144 
L 326.34152 204.190718 
L 325.8154 205.037982 
L 325.28928 205.88485 
L 324.76316 206.731233 
L 324.23704 207.577042 
L 323.71092 208.422186 
L 323.1848 209.266574 
L 322.65868 210.110111 
L 322.13256 210.952704 
L 321.60644 211.794257 
L 321.08032 212.634673 
L 320.5542 213.473854 
L 320.02808 214.311699 
L 319.50196 215.14811 
L 318.97584 215.982983 
L 318.44972 216.816215 
L 317.9236 217.647702 
L 317.39748 218.477338 
L 316.87136 219.305016 
L 316.34524 220.130628 
L 315.81912 220.954063 
L 315.293 221.775212 
L 314.76688 222.593963 
L 314.24076 223.410201 
L 313.71464 224.223813 
L 313.18852 225.034682 
L 312.6624 225.842691 
L 312.13628 226.647723 
L 311.61016 227.449657 
L 311.08404 228.248373 
L 310.55792 229.043749 
L 310.0318 229.83566 
L 309.50568 230.623982 
L 308.97956 231.408589 
L 308.45344 232.189352 
L 307.92732 232.966142 
L 307.4012 233.738827 
L 306.87508 234.507271 
L 306.34896 235.271338 
L 305.82284 236.030884 
L 305.29672 236.785755 
L 304.7706 237.535783 
L 304.24448 238.280761 
L 303.71836 239.020389 
L 303.19224 239.754033 
L 302.66612 240.47911 
L 302.14 241.092103 
L 301.61388 240.4447 
L 301.08776 239.688633 
L 300.56164 238.927435 
L 300.03552 238.163682 
L 299.5094 237.397998 
L 298.98328 236.630677 
L 298.45716 235.861917 
L 297.93104 235.091879 
L 297.40492 234.320709 
L 296.8788 233.548542 
L 296.35268 232.775511 
L 295.82656 232.001743 
L 295.30044 231.227362 
L 294.77432 230.452493 
L 294.2482 229.677256 
L 293.72208 228.901772 
L 293.19596 228.12616 
L 292.66984 227.350537 
L 292.14372 226.575021 
L 291.6176 225.799725 
L 291.09148 225.024764 
L 290.56536 224.250252 
L 290.03924 223.476301 
L 289.51312 222.703021 
L 288.987 221.930521 
L 288.46088 221.158912 
L 287.93476 220.3883 
L 287.40864 219.618791 
L 286.88252 218.850492 
L 286.3564 218.083506 
L 285.83028 217.317937 
L 285.30416 216.553886 
L 284.77804 215.791455 
L 284.25192 215.030743 
L 283.7258 214.271849 
L 283.19968 213.51487 
L 282.67356 212.759904 
L 282.14744 212.007044 
L 281.62132 211.256386 
L 281.0952 210.508021 
L 280.56908 209.762043 
L 280.04296 209.018542 
L 279.51684 208.277607 
L 278.99072 207.539326 
L 278.4646 206.803788 
L 277.93848 206.071077 
L 277.41236 205.34128 
L 276.88624 204.614479 
L 276.36012 203.890758 
L 275.834 203.170197 
L 275.30788 202.452878 
L 274.78176 201.73888 
L 274.25564 201.02828 
L 273.72952 200.321155 
L 273.2034 199.617582 
L 272.67728 198.917635 
L 272.15116 198.221387 
L 271.62504 197.528911 
L 271.09892 196.840278 
L 270.5728 196.155558 
L 270.04668 195.47482 
L 269.52056 194.798131 
L 268.99444 194.125559 
L 268.46832 193.457169 
L 267.9422 192.793025 
L 267.41608 192.133191 
L 266.88996 191.477728 
L 266.36384 190.826698 
L 265.83772 190.180161 
L 265.3116 189.538176 
L 264.78548 188.900799 
L 264.25936 188.268089 
L 263.73324 187.6401 
L 263.20712 187.016886 
L 262.681 186.398501 
L 262.15488 185.784998 
L 261.62876 185.176426 
L 261.10264 184.572837 
L 260.57652 183.974279 
L 260.0504 183.380799 
L 259.52428 182.792446 
L 258.99816 182.209263 
L 258.47204 181.631297 
L 257.94592 181.058589 
L 257.4198 180.491184 
L 256.89368 179.929121 
L 256.36756 179.372443 
L 255.84144 178.821186 
L 255.31532 178.275391 
L 254.7892 177.735093 
L 254.26308 177.20033 
L 253.73696 176.671135 
L 253.21084 176.147544 
L 252.68472 175.629588 
L 252.1586 175.1173 
L 251.63248 174.61071 
L 251.10636 174.109849 
L 250.58024 173.614745 
L 250.05412 173.125426 
L 249.528 172.641917 
L 249.00188 172.164246 
L 248.47576 171.692437 
L 247.94964 171.226513 
L 247.42352 170.766496 
L 246.8974 170.312408 
L 246.37128 169.864271 
L 245.84516 169.422102 
L 245.31904 168.985921 
L 244.79292 168.555744 
L 244.2668 168.131589 
L 243.74068 167.713471 
L 243.21456 167.301403 
L 242.68844 166.8954 
L 242.16232 166.495473 
L 241.6362 166.101635 
L 241.11008 165.713894 
L 240.58396 165.33226 
L 240.05784 164.956742 
L 239.53172 164.587346 
L 239.0056 164.22408 
L 238.47948 163.866947 
L 237.95336 163.515952 
L 237.42724 163.171098 
L 236.90112 162.832387 
L 236.375 162.49982 
L 235.84888 162.173397 
L 235.32276 161.853117 
L 234.79664 161.538978 
L 234.27052 161.230977 
L 233.7444 160.92911 
L 233.21828 160.63337 
L 232.69216 160.343753 
L 232.16604 160.060251 
L 231.63992 159.782855 
L 231.1138 159.511556 
L 230.58768 159.246344 
L 230.06156 158.987207 
L 229.53544 158.734133 
L 229.00932 158.487107 
L 228.4832 158.246116 
L 227.95708 158.011143 
L 227.43096 157.782172 
L 226.90484 157.559184 
L 226.37872 157.342161 
L 225.8526 157.131082 
L 225.32648 156.925926 
L 224.80036 156.726672 
L 224.27424 156.533295 
L 223.74812 156.345771 
L 223.222 156.164074 
L 222.69588 155.988178 
L 222.16976 155.818055 
L 221.64364 155.653675 
L 221.11752 155.49501 
L 220.5914 155.342026 
L 220.06528 155.194692 
L 219.53916 155.052975 
L 219.01304 154.916839 
L 218.48692 154.786249 
L 217.9608 154.661167 
L 217.43468 154.541555 
L 216.90856 154.427375 
L 216.38244 154.318584 
L 215.85632 154.215141 
L 215.3302 154.117004 
L 214.80408 154.024128 
L 214.27796 153.936467 
L 213.75184 153.853974 
L 213.22572 153.776603 
L 212.6996 153.704302 
L 212.17348 153.637023 
L 211.64736 153.574712 
L 211.12124 153.517318 
L 210.59512 153.464786 
L 210.069 153.41706 
L 209.54288 153.374084 
L 209.01676 153.335798 
L 208.49064 153.302145 
L 207.96452 153.273062 
L 207.4384 153.248488 
L 206.91228 153.228359 
L 206.38616 153.212611 
L 205.86004 153.201177 
L 205.33392 153.19399 
L 204.8078 153.19098 
L 204.28168 153.192078 
L 203.75556 153.197212 
L 203.22944 153.206308 
L 202.70332 153.219293 
L 202.1772 153.236089 
L 201.65108 153.256621 
L 201.12496 153.280809 
L 200.59884 153.308573 
L 200.07272 153.339831 
L 199.5466 153.3745 
L 199.02048 153.412496 
L 198.49436 153.453732 
L 197.96824 153.498121 
L 197.44212 153.545573 
L 196.916 153.596 
L 196.38988 153.649307 
L 195.86376 153.705401 
L 195.33764 153.764189 
L 194.81152 153.825572 
L 194.2854 153.889452 
L 193.75928 153.955731 
L 193.23316 154.024306 
L 192.70704 154.095074 
L 192.18092 154.167932 
L 191.6548 154.242773 
L 191.12868 154.319489 
L 190.60256 154.397972 
L 190.07644 154.47811 
L 189.55032 154.559792 
L 189.0242 154.642902 
L 188.49808 154.727326 
L 187.97196 154.812945 
L 187.44584 154.899642 
L 186.91972 154.987295 
L 186.3936 155.075783 
L 185.86748 155.16498 
L 185.34136 155.254763 
L 184.81524 155.345003 
L 184.28912 155.435572 
L 183.763 155.52634 
L 183.23688 155.617173 
L 182.71076 155.707938 
L 182.18464 155.798499 
L 181.65852 155.88872 
L 181.1324 155.97846 
L 180.60628 156.067579 
L 180.08016 156.155935 
L 179.55404 156.243382 
L 179.02792 156.329775 
L 178.5018 156.414966 
L 177.97568 156.498803 
L 177.44956 156.581136 
L 176.92344 156.66181 
L 176.39732 156.740666 
L 175.8712 156.817547 
L 175.34508 156.892287 
L 174.81896 156.964719 
L 174.29284 157.034667 
L 173.76672 157.101942 
L 173.2406 157.166337 
L 172.71448 157.227595 
L 172.18836 157.285337 
L 171.66224 157.338765 
L 171.13612 157.384623 
L 170.61 157.32426 
L 170.08388 156.321822 
L 169.55776 155.218752 
L 169.03164 154.113819 
L 168.50552 153.010321 
L 167.9794 151.9091 
L 167.45328 150.810574 
L 166.92716 149.71504 
L 166.40104 148.622749 
L 165.87492 147.533927 
L 165.3488 146.448789 
L 164.82268 145.367543 
L 164.29656 144.29039 
L 163.77044 143.217528 
L 163.24432 142.149151 
L 162.7182 141.08545 
L 162.19208 140.026614 
L 161.66596 138.97283 
L 161.13984 137.92428 
L 160.61372 136.881146 
L 160.0876 135.843606 
L 159.56148 134.811838 
L 159.03536 133.786016 
L 158.50924 132.766312 
L 157.98312 131.752897 
L 157.457 130.745939 
L 156.93088 129.745602 
L 156.40476 128.752053 
L 155.87864 127.765451 
L 155.35252 126.785957 
L 154.8264 125.813728 
L 154.30028 124.84892 
L 153.77416 123.891685 
L 153.24804 122.942177 
L 152.72192 122.000543 
L 152.1958 121.066931 
L 151.66968 120.141486 
L 151.14356 119.224352 
L 150.61744 118.315669 
L 150.09132 117.415577 
L 149.5652 116.524212 
L 149.03908 115.64171 
L 148.51296 114.768204 
L 147.98684 113.903825 
L 147.46072 113.048702 
L 146.9346 112.202961 
L 146.40848 111.366728 
L 145.88236 110.540127 
L 145.35624 109.723277 
L 144.83012 108.916297 
L 144.304 108.119306 
L 143.77788 107.332418 
L 143.25176 106.555745 
L 142.72564 105.789399 
L 142.19952 105.033489 
L 141.6734 104.288122 
L 141.14728 103.553403 
L 140.62116 102.829435 
L 140.09504 102.116318 
L 139.56892 101.414153 
L 139.0428 100.723036 
L 138.51668 100.043062 
L 137.99056 99.374324 
L 137.46444 98.716913 
L 136.93832 98.070919 
L 136.4122 97.436428 
L 135.88608 96.813525 
L 135.35996 96.202293 
L 134.83384 95.602814 
L 134.30772 95.015166 
L 133.7816 94.439426 
L 133.25548 93.875669 
L 132.72936 93.323968 
L 132.20324 92.784393 
L 131.67712 92.257014 
L 131.151 91.741897 
L 130.62488 91.239106 
L 130.09876 90.748705 
L 129.57264 90.270753 
L 129.04652 89.805308 
L 128.5204 89.352428 
L 127.99428 88.912167 
L 127.46816 88.484575 
L 126.94204 88.069703 
L 126.41592 87.667599 
L 125.8898 87.278307 
L 125.36368 86.901873 
L 124.83756 86.538335 
L 124.31144 86.187735 
L 123.78532 85.850107 
L 123.2592 85.525487 
L 122.73308 85.213907 
L 122.20696 84.915396 
L 121.68084 84.629983 
L 121.15472 84.357692 
L 120.6286 84.098547 
L 120.10248 83.852568 
L 119.57636 83.619774 
L 119.05024 83.40018 
L 118.52412 83.1938 
L 117.998 83.000645 
L 117.47188 82.820724 
L 116.94576 82.654043 
L 116.41964 82.500604 
L 115.89352 82.36041 
L 115.3674 82.233459 
L 114.84128 82.119747 
L 114.31516 82.019267 
L 113.78904 81.93201 
L 113.26292 81.857964 
L 112.7368 81.797114 
L 112.21068 81.749443 
L 111.68456 81.714931 
L 111.15844 81.693555 
L 110.63232 81.685289 
L 110.1062 81.690105 
L 109.58008 81.70797 
L 109.05396 81.738851 
L 108.52784 81.78271 
L 108.00172 81.839508 
L 107.4756 81.909199 
L 106.94948 81.991738 
L 106.42336 82.087076 
L 105.89724 82.195159 
L 105.37112 82.315931 
L 104.845 82.449333 
L 104.31888 82.595302 
L 103.79276 82.753773 
L 103.26664 82.924675 
L 102.74052 83.107937 
L 102.2144 83.303481 
L 101.68828 83.511228 
L 101.16216 83.731094 
L 100.63604 83.962992 
L 100.10992 84.20683 
L 99.5838 84.462513 
L 99.05768 84.729941 
L 98.53156 85.009012 
L 98.00544 85.299617 
L 97.47932 85.601644 
L 96.9532 85.914973 
L 96.42708 86.239483 
L 95.90096 86.57504 
L 95.37484 86.921506 
L 94.84872 87.278725 
L 94.3226 87.646519 
L 93.79648 88.024665 
L 93.27036 88.412819 
L 92.74424 88.810242 
L 92.21812 89.213868 
L 91.692 89.523622 
L 91.16588 88.824335 
L 90.63976 88.022483 
L 90.11364 87.218054 
L 89.58752 86.41412 
L 89.0614 85.611432 
L 88.53528 84.810342 
L 88.00916 84.011087 
L 87.48304 83.213855 
L 86.95692 82.418813 
L 86.4308 81.626113 
L 85.90468 80.835901 
L 85.37856 80.048312 
L 84.85244 79.263479 
L 84.32632 78.481529 
L 83.8002 77.702585 
L 83.27408 76.926765 
L 82.74796 76.154184 
L 82.22184 75.384953 
L 81.69572 74.61918 
L 81.1696 73.85697 
L 80.64348 73.098423 
L 80.11736 72.343637 
L 79.59124 71.592708 
L 79.06512 70.845725 
L 78.539 70.102779 
L 78.01288 69.363955 
L 77.48676 68.629335 
L 76.96064 67.898999 
L 76.43452 67.173025 
L 75.9084 66.451487 
L 75.38228 65.734456 
L 74.85616 65.022002 
L 74.33004 64.314191 
L 73.80392 63.611088 
L 73.2778 62.912752 
L 72.75168 62.219245 
L 72.22556 61.530621 
L 71.69944 60.846936 
L 71.17332 60.168241 
L 70.6472 59.494586 
L 70.12108 58.826019 
L 69.59496 58.162585 
L 69.06884 57.504327 
L 68.54272 56.851285 
L 68.0166 56.2035 
L 67.49048 55.561008 
L 66.96436 54.923844 
L 66.43824 54.292041 
L 65.91212 53.66563 
L 65.386 53.044641 
L 64.85988 52.429101 
L 64.33376 51.819036 
L 63.80764 51.214469 
L 63.28152 50.615423 
L 62.7554 50.021919 
L 62.22928 49.433974 
L 61.70316 48.851608 
L 61.17704 48.274835 
L 60.65092 47.703669 
L 60.1248 47.138123 
L 59.59868 46.578209 
L 59.07256 46.023935 
L 58.54644 45.475311 
L 58.02032 44.932342 
L 57.4942 44.395036 
L 56.96808 43.863395 
L 56.44196 43.337423 
L 55.91584 42.817122 
L 55.38972 42.302491 
L 54.8636 41.793531 
L 54.33748 41.290239 
L 53.81136 40.792611 
L 53.28524 40.300645 
L 52.75912 39.814334 
L 52.233 39.333672 
L 51.70688 38.858652 
L 51.18076 38.389265 
L 50.65464 37.925501 
L 50.12852 37.467351 
L 49.6024 37.014802 
L 49.07628 36.567843 
L 48.55016 36.12646 
L 48.02404 35.690639 
L 47.49792 35.260365 
L 46.9718 34.835623 
L 46.44568 34.416396 
L 45.91956 34.002666 
L 45.39344 33.594415 
L 44.86732 33.191625 
L 44.3412 32.794275 
L 43.81508 32.402346 
L 43.28896 32.015817 
L 42.76284 31.634666 
L 42.23672 31.25887 
L 41.7106 30.888407 
L 41.18448 30.523253 
L 40.65836 30.163384 
L 40.13224 29.808776 
L 39.60612 29.459403 
L 39.08 29.115239 
z
" clip-path="url(#p919596b386)" style="fill: #00bfbf; opacity: 0.3"/>
   </g>
   <g id="matplotlib.axis_1">
    <g id="xtick_1">
     <g id="line2d_1">
      <defs>
       <path id="m386ac705d1" d="M 0 0 
L 0 3.5 
" style="stroke: #000000; stroke-width: 0.8"/>
      </defs>
      <g>
       <use xlink:href="#m386ac705d1" x="39.08" y="320.92" style="stroke: #000000; stroke-width: 0.8"/>
      </g>
     </g>
    </g>
    <g id="xtick_2">
     <g id="line2d_2">
      <g>
       <use xlink:href="#m386ac705d1" x="144.304" y="320.92" style="stroke: #000000; stroke-width: 0.8"/>
      </g>
     </g>
    </g>
    <g id="xtick_3">
     <g id="line2d_3">
      <g>
       <use xlink:href="#m386ac705d1" x="249.528" y="320.92" style="stroke: #000000; stroke-width: 0.8"/>
      </g>
     </g>
    </g>
    <g id="xtick_4">
     <g id="line2d_4">
      <g>
       <use xlink:href="#m386ac705d1" x="354.752" y="320.92" style="stroke: #000000; stroke-width: 0.8"/>
      </g>
     </g>
    </g>
    <g id="xtick_5">
     <g id="line2d_5">
      <g>
       <use xlink:href="#m386ac705d1" x="459.976" y="320.92" style="stroke: #000000; stroke-width: 0.8"/>
      </g>
     </g>
    </g>
    <g id="xtick_6">
     <g id="line2d_6">
      <g>
       <use xlink:href="#m386ac705d1" x="565.2" y="320.92" style="stroke: #000000; stroke-width: 0.8"/>
      </g>
     </g>
    </g>
    <g id="text_1">
     <!-- x -->
     <g transform="translate(296.813125 345.597188) scale(0.18 -0.18)">
      <defs>
       <path id="DejaVuSans-78" d="M 3513 3500 
L 2247 1797 
L 3578 0 
L 2900 0 
L 1881 1375 
L 863 0 
L 184 0 
L 1544 1831 
L 300 3500 
L 978 3500 
L 1906 2253 
L 2834 3500 
L 3513 3500 
z
" transform="scale(0.015625)"/>
      </defs>
      <use xlink:href="#DejaVuSans-78"/>
     </g>
    </g>
   </g>
   <g id="matplotlib.axis_2">
    <g id="ytick_1">
     <g id="line2d_7">
      <defs>
       <path id="m7e855d0ffb" d="M 0 0 
L -3.5 0 
" style="stroke: #000000; stroke-width: 0.8"/>
      </defs>
      <g>
       <use xlink:href="#m7e855d0ffb" x="39.08" y="278.531119" style="stroke: #000000; stroke-width: 0.8"/>
      </g>
     </g>
    </g>
    <g id="ytick_2">
     <g id="line2d_8">
      <g>
       <use xlink:href="#m7e855d0ffb" x="39.08" y="217.797838" style="stroke: #000000; stroke-width: 0.8"/>
      </g>
     </g>
    </g>
    <g id="ytick_3">
     <g id="line2d_9">
      <g>
       <use xlink:href="#m7e855d0ffb" x="39.08" y="157.064558" style="stroke: #000000; stroke-width: 0.8"/>
      </g>
     </g>
    </g>
    <g id="ytick_4">
     <g id="line2d_10">
      <g>
       <use xlink:href="#m7e855d0ffb" x="39.08" y="96.331277" style="stroke: #000000; stroke-width: 0.8"/>
      </g>
     </g>
    </g>
    <g id="ytick_5">
     <g id="line2d_11">
      <g>
       <use xlink:href="#m7e855d0ffb" x="39.08" y="35.597996" style="stroke: #000000; stroke-width: 0.8"/>
      </g>
     </g>
    </g>
    <g id="text_2">
     <!-- f(x) -->
     <g transform="translate(24.336563 181.377969) rotate(-90) scale(0.18 -0.18)">
      <defs>
       <path id="DejaVuSans-66" d="M 2375 4863 
L 2375 4384 
L 1825 4384 
Q 1516 4384 1395 4259 
Q 1275 4134 1275 3809 
L 1275 3500 
L 2222 3500 
L 2222 3053 
L 1275 3053 
L 1275 0 
L 697 0 
L 697 3053 
L 147 3053 
L 147 3500 
L 697 3500 
L 697 3744 
Q 697 4328 969 4595 
Q 1241 4863 1831 4863 
L 2375 4863 
z
" transform="scale(0.015625)"/>
       <path id="DejaVuSans-28" d="M 1984 4856 
Q 1566 4138 1362 3434 
Q 1159 2731 1159 2009 
Q 1159 1288 1364 580 
Q 1569 -128 1984 -844 
L 1484 -844 
Q 1016 -109 783 600 
Q 550 1309 550 2009 
Q 550 2706 781 3412 
Q 1013 4119 1484 4856 
L 1984 4856 
z
" transform="scale(0.015625)"/>
       <path id="DejaVuSans-29" d="M 513 4856 
L 1013 4856 
Q 1481 4119 1714 3412 
Q 1947 2706 1947 2009 
Q 1947 1309 1714 600 
Q 1481 -109 1013 -844 
L 513 -844 
Q 928 -128 1133 580 
Q 1338 1288 1338 2009 
Q 1338 2731 1133 3434 
Q 928 4138 513 4856 
z
" transform="scale(0.015625)"/>
      </defs>
      <use xlink:href="#DejaVuSans-66"/>
      <use xlink:href="#DejaVuSans-28" x="35.205078"/>
      <use xlink:href="#DejaVuSans-78" x="74.21875"/>
      <use xlink:href="#DejaVuSans-29" x="133.398438"/>
     </g>
    </g>
   </g>
   <g id="line2d_12">
    <path d="M 39.08 187.974138 
L 43.28896 180.246456 
L 54.33748 159.16397 
L 58.02032 151.474892 
L 63.80764 138.698188 
L 69.59496 126.037244 
L 73.80392 117.458926 
L 78.01288 109.418735 
L 81.1696 103.869096 
L 83.8002 99.582944 
L 86.4308 95.742287 
L 88.53528 93.037903 
L 90.63976 90.696497 
L 92.74424 88.727644 
L 94.3226 87.495006 
L 96.42708 86.153256 
L 99.05768 84.767632 
L 101.68828 83.626695 
L 104.31888 82.709512 
L 108.00172 81.675133 
L 110.63232 81.130407 
L 113.26292 80.820388 
L 115.3674 80.781087 
L 117.47188 80.961495 
L 119.05024 81.273592 
L 120.6286 81.759216 
L 122.20696 82.444824 
L 123.78532 83.330198 
L 125.36368 84.410473 
L 127.46816 86.139672 
L 129.57264 88.175205 
L 131.67712 90.540929 
L 134.30772 93.871808 
L 136.93832 97.521274 
L 140.09504 102.322411 
L 146.9346 113.239575 
L 151.14356 120.339288 
L 158.50924 133.307733 
L 162.19208 140.128275 
L 166.40104 148.449121 
L 170.08388 156.245744 
L 174.29284 165.723274 
L 185.34136 191.009833 
L 189.0242 198.450981 
L 191.6548 203.398237 
L 194.2854 207.894904 
L 196.916 211.959797 
L 199.5466 215.639833 
L 202.70332 219.642909 
L 205.86004 223.23943 
L 210.59512 228.521072 
L 215.85632 234.887821 
L 222.69588 243.109075 
L 226.90484 247.835612 
L 229.53544 250.48376 
L 232.16604 252.813317 
L 234.79664 254.813166 
L 237.95336 256.902701 
L 241.6362 259.087842 
L 244.2668 260.440586 
L 246.8974 261.541965 
L 250.05412 262.555163 
L 252.1586 263.023593 
L 254.26308 263.302192 
L 256.36756 263.376598 
L 258.47204 263.234901 
L 262.681 262.642723 
L 265.83772 262.009181 
L 268.46832 261.252121 
L 271.62504 260.085983 
L 275.30788 258.455331 
L 278.4646 256.847361 
L 281.62132 254.977871 
L 285.83028 252.162937 
L 294.77432 245.936861 
L 302.14 241.213757 
L 306.87508 238.252953 
L 317.39748 231.196848 
L 326.34152 224.880711 
L 330.02436 222.404755 
L 340.54676 215.578457 
L 342.65124 213.851082 
L 345.28184 211.372898 
L 347.91244 208.567958 
L 351.06916 204.793403 
L 362.6438 190.4674 
L 367.37888 184.627537 
L 370.5356 180.409399 
L 374.21844 175.108521 
L 379.47964 167.05163 
L 383.16248 161.111627 
L 388.9498 151.296074 
L 399.4722 133.384383 
L 404.20728 126.095663 
L 409.9946 117.62008 
L 418.93864 104.68484 
L 429.46104 89.334214 
L 432.61776 85.267757 
L 436.3006 80.943836 
L 438.9312 78.171003 
L 442.08792 75.239221 
L 444.1924 73.525628 
L 446.823 71.69776 
L 449.4536 70.195523 
L 452.0842 68.971276 
L 454.18868 68.234424 
L 456.29316 67.762484 
L 458.39764 67.555046 
L 459.976 67.585718 
L 462.08048 67.880539 
L 464.18496 68.399569 
L 466.28944 69.12562 
L 469.44616 70.489302 
L 472.07676 71.787246 
L 475.23348 73.628788 
L 478.91632 76.038715 
L 483.6514 79.103138 
L 487.33424 81.191267 
L 491.5432 83.353119 
L 494.69992 84.741761 
L 497.33052 85.674989 
L 499.435 86.206937 
L 502.0656 86.64227 
L 506.27456 87.299606 
L 510.48352 88.000196 
L 524.68876 90.075889 
L 529.42384 91.050565 
L 537.31564 92.953856 
L 540.99848 93.958493 
L 544.1552 95.077647 
L 548.36416 96.882598 
L 557.3082 100.845765 
L 559.9388 101.590037 
L 562.5694 102.090768 
L 564.67388 102.332234 
L 564.67388 102.332234 
" clip-path="url(#p919596b386)" style="fill: none; stroke: #1f77b4; stroke-width: 1.5; stroke-linecap: square"/>
   </g>
   <g id="line2d_13">
    <path d="M 39.08 86.6194 
L 43.28896 87.78462 
L 49.07628 89.389505 
L 52.233 90.021728 
L 54.8636 90.350938 
L 66.43824 91.218361 
L 69.59496 91.041725 
L 73.2778 90.590239 
L 82.74796 89.253745 
L 85.37856 89.02018 
L 87.48304 89.024556 
L 89.58752 89.246977 
L 91.692 89.662299 
L 93.79648 90.283863 
L 95.90096 91.160638 
L 98.53156 92.493518 
L 101.16216 94.051293 
L 104.845 96.500758 
L 108.00172 98.830451 
L 111.15844 101.454982 
L 113.78904 103.881203 
L 116.94576 107.124378 
L 119.57636 110.080515 
L 122.20696 113.363174 
L 128.5204 121.835159 
L 133.25548 128.035599 
L 138.51668 134.508527 
L 145.35624 142.515655 
L 147.98684 145.286185 
L 150.61744 147.722014 
L 153.24804 149.814464 
L 155.87864 151.551811 
L 158.50924 153.006565 
L 161.66596 154.408165 
L 165.3488 155.796378 
L 170.08388 157.304643 
L 174.81896 158.545397 
L 179.55404 159.569353 
L 186.3936 160.828188 
L 191.12868 161.65647 
L 193.23316 162.265328 
L 196.38988 163.406675 
L 199.5466 164.778492 
L 202.70332 166.331718 
L 205.33392 167.883357 
L 207.96452 169.735918 
L 210.59512 171.863946 
L 213.22572 174.272655 
L 216.38244 177.515785 
L 220.06528 181.641668 
L 223.74812 186.075226 
L 227.95708 191.083438 
L 231.1138 194.495725 
L 234.79664 198.13594 
L 238.47948 201.467309 
L 244.79292 206.900879 
L 248.47576 209.648908 
L 254.7892 214.159114 
L 257.94592 216.139336 
L 263.20712 219.091024 
L 267.9422 221.699949 
L 273.2034 224.901097 
L 284.77804 232.131723 
L 291.09148 235.748676 
L 296.8788 238.762866 
L 300.56164 240.492272 
L 304.7706 242.160033 
L 308.97956 243.577687 
L 312.13628 244.407483 
L 314.24076 244.757862 
L 316.34524 244.901974 
L 318.44972 244.777281 
L 320.5542 244.376169 
L 322.65868 243.705147 
L 324.76316 242.751193 
L 326.86764 241.533739 
L 329.49824 239.73378 
L 333.18108 236.926036 
L 337.91616 233.04542 
L 341.599 229.695123 
L 345.28184 226.038284 
L 359.48708 211.523931 
L 364.22216 206.697859 
L 367.37888 203.228147 
L 370.00948 200.011348 
L 372.64008 196.462325 
L 375.7968 191.832518 
L 378.95352 186.825649 
L 382.11024 181.454213 
L 385.26696 175.597978 
L 388.42368 169.148354 
L 395.78936 153.230423 
L 401.05056 142.23123 
L 404.7334 134.930914 
L 407.89012 129.131525 
L 411.04684 123.769112 
L 414.20356 118.848478 
L 417.36028 114.448066 
L 420.517 110.42879 
L 423.1476 107.392628 
L 426.30432 104.121367 
L 429.46104 101.186962 
L 431.56552 99.501376 
L 433.67 98.082986 
L 435.77448 96.920349 
L 437.87896 95.979483 
L 439.98344 95.265347 
L 442.61404 94.645315 
L 445.24464 94.289568 
L 447.34912 94.219796 
L 449.4536 94.343613 
L 452.0842 94.777987 
L 455.76704 95.677688 
L 461.02824 96.987443 
L 465.2372 97.755985 
L 481.54692 100.683366 
L 487.33424 101.714921 
L 490.49096 102.076382 
L 492.59544 102.117478 
L 494.69992 101.913903 
L 496.8044 101.460464 
L 499.435 100.683288 
L 502.0656 99.692839 
L 504.6962 98.410631 
L 506.80068 97.144577 
L 509.43128 95.281938 
L 512.06188 93.09713 
L 514.69248 90.559826 
L 517.8492 87.155456 
L 521.00592 83.32588 
L 524.16264 79.158006 
L 529.42384 71.768665 
L 538.36788 58.914258 
L 546.25968 47.321594 
L 550.46864 41.553662 
L 555.20372 35.500916 
L 559.41268 30.404131 
L 562.5694 26.984112 
L 564.67388 24.896364 
L 564.67388 24.896364 
" clip-path="url(#p919596b386)" style="fill: none; stroke: #ff7f0e; stroke-width: 1.5; stroke-linecap: square"/>
   </g>
   <g id="line2d_14">
    <path d="M 39.08 51.599569 
L 42.76284 51.427686 
L 45.91956 51.540825 
L 48.02404 51.805905 
L 50.12852 52.294683 
L 52.233 52.997237 
L 55.38972 54.308914 
L 58.02032 55.601842 
L 61.17704 57.409495 
L 63.80764 59.153538 
L 67.49048 61.906755 
L 70.12108 64.097224 
L 73.80392 67.474348 
L 76.43452 70.158577 
L 79.06512 73.185914 
L 82.74796 77.806037 
L 92.21812 90.351621 
L 102.74052 104.161096 
L 106.42336 108.45905 
L 109.58008 111.847028 
L 112.7368 114.896962 
L 116.41964 118.140943 
L 120.10248 121.080964 
L 123.2592 123.347721 
L 126.94204 125.659481 
L 137.46444 132.056867 
L 143.77788 136.2222 
L 149.03908 139.940601 
L 154.30028 143.983934 
L 163.77044 151.442607 
L 167.9794 155.039681 
L 172.71448 159.417605 
L 177.97568 164.238412 
L 185.34136 170.634616 
L 191.12868 175.37909 
L 193.75928 177.205954 
L 196.38988 178.756064 
L 198.49436 179.790057 
L 201.12496 180.816909 
L 204.28168 181.826338 
L 210.59512 183.728541 
L 213.22572 184.771992 
L 215.85632 186.074682 
L 221.11752 189.002419 
L 227.43096 192.493022 
L 232.69216 195.26381 
L 236.375 197.468262 
L 240.05784 199.927351 
L 250.58024 207.372982 
L 253.73696 209.158596 
L 256.89368 210.67528 
L 266.36384 214.776345 
L 271.62504 217.029487 
L 275.834 219.099029 
L 278.99072 220.994721 
L 281.62132 222.805949 
L 286.3564 226.457517 
L 291.09148 230.243752 
L 294.77432 233.535406 
L 297.93104 236.631078 
L 301.61388 240.595528 
L 304.7706 244.375637 
L 308.45344 249.233334 
L 315.293 258.213759 
L 317.9236 261.336878 
L 321.08032 264.720654 
L 323.71092 267.27714 
L 326.34152 269.468622 
L 328.97212 271.33458 
L 333.7072 274.32492 
L 336.86392 276.122475 
L 338.9684 277.080074 
L 341.599 278.001831 
L 343.70348 278.518038 
L 346.33408 278.910163 
L 348.43856 278.972541 
L 350.54304 278.781472 
L 353.17364 278.293467 
L 356.33036 277.435076 
L 361.59156 275.675941 
L 364.74828 274.359471 
L 368.95724 272.301341 
L 374.74456 269.513597 
L 378.4274 267.671518 
L 381.058 266.126 
L 384.21472 263.983879 
L 387.37144 261.544106 
L 389.47592 259.682806 
L 392.10652 257.061558 
L 395.26324 253.591084 
L 397.89384 250.369454 
L 401.05056 246.071143 
L 404.20728 241.365451 
L 407.364 236.24683 
L 409.9946 231.593459 
L 412.6252 226.55783 
L 415.78192 220.04143 
L 421.04312 208.586717 
L 427.88268 193.731875 
L 431.56552 186.24977 
L 436.3006 177.119376 
L 439.45732 171.503313 
L 442.08792 167.335705 
L 444.71852 163.63773 
L 446.823 161.005507 
L 448.92748 158.677059 
L 451.03196 156.681119 
L 453.13644 155.05348 
L 454.7148 154.099268 
L 456.29316 153.355614 
L 458.39764 152.653038 
L 460.50212 152.250522 
L 462.6066 152.122626 
L 464.71108 152.206202 
L 466.81556 152.514095 
L 468.39392 152.940054 
L 469.97228 153.590571 
L 471.55064 154.4705 
L 473.129 155.590987 
L 475.7596 157.798432 
L 479.96856 161.693338 
L 482.59916 164.423623 
L 485.22976 167.540435 
L 489.43872 173.046838 
L 492.06932 176.743689 
L 495.75216 182.355969 
L 508.37904 201.851708 
L 512.06188 206.728074 
L 514.69248 209.886008 
L 517.8492 213.285253 
L 521.53204 216.934045 
L 525.21488 220.266454 
L 528.89772 223.34417 
L 531.0022 224.832929 
L 533.10668 226.028049 
L 535.21116 226.982312 
L 537.31564 227.689627 
L 539.42012 228.163629 
L 542.57684 228.612221 
L 546.25968 228.906336 
L 549.94252 229.209738 
L 552.57312 229.648035 
L 554.6776 230.177825 
L 557.3082 231.099184 
L 559.9388 232.23772 
L 562.5694 233.601115 
L 564.67388 234.830265 
L 564.67388 234.830265 
" clip-path="url(#p919596b386)" style="fill: none; stroke: #2ca02c; stroke-width: 1.5; stroke-linecap: square"/>
   </g>
   <g id="line2d_15">
    <defs>
     <path id="m3bb43c6838" d="M -4 0 
L 4 0 
M 0 4 
L 0 -4 
" style="stroke: #ff0000"/>
    </defs>
    <g clip-path="url(#p919596b386)">
     <use xlink:href="#m3bb43c6838" x="91.692" y="89.64502" style="fill: #ff0000; stroke: #ff0000"/>
     <use xlink:href="#m3bb43c6838" x="170.61" y="157.4458" style="fill: #ff0000; stroke: #ff0000"/>
     <use xlink:href="#m3bb43c6838" x="302.14" y="241.213685" style="fill: #ff0000; stroke: #ff0000"/>
    </g>
   </g>
   <g id="line2d_16">
    <path d="M 39.08 93.216085 
L 44.86732 91.136677 
L 50.12852 89.491256 
L 54.8636 88.245901 
L 59.07256 87.352954 
L 63.28152 86.685079 
L 66.96436 86.303071 
L 70.6472 86.125428 
L 74.33004 86.166244 
L 78.01288 86.438575 
L 81.69572 86.954004 
L 85.37856 87.722112 
L 89.0614 88.749872 
L 92.74424 90.04092 
L 96.42708 91.594776 
L 100.10992 93.40661 
L 103.79276 95.467888 
L 107.4756 97.767121 
L 111.68456 100.668389 
L 115.89352 103.838964 
L 120.6286 107.695909 
L 125.8898 112.296401 
L 131.67712 117.677056 
L 138.51668 124.37178 
L 146.9346 132.946173 
L 176.39732 163.244146 
L 184.81524 171.424414 
L 192.70704 178.79063 
L 200.59884 185.851051 
L 208.49064 192.603368 
L 216.38244 199.047727 
L 223.74812 204.781954 
L 231.1138 210.236804 
L 237.95336 215.037549 
L 244.79292 219.562555 
L 251.10636 223.470255 
L 256.89368 226.80055 
L 262.681 229.863468 
L 267.9422 232.391386 
L 272.67728 234.437314 
L 277.41236 236.247369 
L 282.14744 237.803389 
L 286.3564 238.959088 
L 290.56536 239.889003 
L 294.77432 240.583594 
L 298.98328 241.035814 
L 303.19224 241.242082 
L 307.4012 241.203377 
L 311.61016 240.925608 
L 315.81912 240.418726 
L 320.02808 239.69569 
L 324.76316 238.642757 
L 329.49824 237.35899 
L 334.75944 235.692088 
L 340.54676 233.606137 
L 346.8602 231.080881 
L 354.22588 227.878707 
L 363.16992 223.733095 
L 377.90128 216.610836 
L 395.26324 208.276558 
L 406.31176 203.231473 
L 415.78192 199.146925 
L 424.72596 195.524725 
L 433.67 192.148195 
L 442.08792 189.201675 
L 450.50584 186.480349 
L 458.92376 183.980653 
L 467.8678 181.55989 
L 476.81184 179.370486 
L 486.282 177.289792 
L 495.75216 175.436493 
L 505.74844 173.707066 
L 516.27084 172.115294 
L 527.31936 170.670224 
L 538.894 169.376237 
L 551.52088 168.188054 
L 564.67388 167.162798 
L 564.67388 167.162798 
" clip-path="url(#p919596b386)" style="fill: none; stroke-dasharray: 5.55,2.4; stroke-dashoffset: 0; stroke: #000000; stroke-width: 1.5"/>
   </g>
   <g id="patch_4">
    <path d="M 39.08 320.92 
L 39.08 10.8 
" style="fill: none; stroke: #000000; stroke-width: 0.8; stroke-linejoin: miter; stroke-linecap: square"/>
   </g>
   <g id="patch_5">
    <path d="M 565.2 320.92 
L 565.2 10.8 
" style="fill: none; stroke: #000000; stroke-width: 0.8; stroke-linejoin: miter; stroke-linecap: square"/>
   </g>
   <g id="patch_6">
    <path d="M 39.08 320.92 
L 565.2 320.92 
" style="fill: none; stroke: #000000; stroke-width: 0.8; stroke-linejoin: miter; stroke-linecap: square"/>
   </g>
   <g id="patch_7">
    <path d="M 39.08 10.8 
L 565.2 10.8 
" style="fill: none; stroke: #000000; stroke-width: 0.8; stroke-linejoin: miter; stroke-linecap: square"/>
   </g>
  </g>
 </g>
 <defs>
  <clipPath id="p919596b386">
   <rect x="39.08" y="10.8" width="526.12" height="310.12"/>
  </clipPath>
 </defs>
</svg>
